<svg width="1440" height="714" viewBox="0 0 1440 714" fill="none" xmlns="http://www.w3.org/2000/svg">
<mask id="mask0" mask-type="alpha" maskUnits="userSpaceOnUse" x="-51" y="35" width="1519" height="679">
<path fill-rule="evenodd" clip-rule="evenodd" d="M-51 35.0106H1467.46V713.548H-51V35.0106Z" fill="white"/>
</mask>
<g mask="url(#mask0)">
<path opacity="0.5" fill-rule="evenodd" clip-rule="evenodd" d="M1419.85 191.53C1419.85 165.407 1398.53 144.23 1372.23 144.23C1364.19 144.23 1356.62 146.219 1349.97 149.717C1350.18 147.917 1350.3 146.088 1350.3 144.23C1350.3 121.711 1334.46 102.881 1313.24 98.1111C1308.33 62.4725 1277.58 35.0106 1240.36 35.0106C1212.82 35.0106 1188.83 50.0485 1176.22 72.2979C1167.87 65.147 1157.02 60.8103 1145.13 60.8103C1134.52 60.8103 1124.73 64.2628 1116.81 70.0917C1108.22 57.735 1093.87 49.6308 1077.61 49.6308C1058.38 49.6308 1041.83 60.9602 1034.31 77.2595C1026.94 73.8861 1018.73 71.9897 1010.09 71.9897C978.051 71.9897 952.084 97.7877 952.084 129.61V129.632C951.795 129.627 951.509 129.61 951.217 129.61C932.635 129.61 916.55 140.193 908.706 155.617C907.021 155.494 905.324 155.41 903.605 155.41C873.728 155.41 848.273 174.205 838.557 200.54C815.184 203.553 797.125 223.389 797.125 247.429C797.125 247.646 797.137 247.858 797.141 248.074C794.599 247.656 791.994 247.429 789.334 247.429C769.015 247.429 751.679 260.079 744.844 277.878C734.834 272.722 723.476 269.791 711.422 269.791C689.178 269.791 669.282 279.721 655.941 295.352C654.055 293.967 652.059 292.723 649.972 291.623C650.115 289.807 650.21 287.982 650.21 286.131C650.21 247.658 618.816 216.471 580.09 216.471C574.595 216.471 569.258 217.117 564.13 218.303C556.437 202.462 540.114 191.53 521.222 191.53C520.055 191.53 518.901 191.587 517.757 191.668C517.757 191.622 517.76 191.575 517.76 191.53C517.76 157.333 489.853 129.61 455.43 129.61C448.288 129.61 441.434 130.819 435.046 133.015C427.006 118.19 411.24 108.11 393.1 108.11C379.631 108.11 367.476 113.676 358.814 122.607C355.408 99.807 335.624 82.3103 311.725 82.3103C304.978 82.3103 298.563 83.7132 292.748 86.2276C280.05 70.7216 260.696 60.8103 239.006 60.8103C216.171 60.8103 195.922 71.7961 183.305 88.732C176.27 84.6563 168.095 82.3103 159.362 82.3103C150.709 82.3103 142.604 84.6159 135.611 88.6225C127.265 62.0448 102.298 42.751 72.7946 42.751C58.7846 42.751 45.8086 47.113 35.1383 54.5284C26.4821 42.7039 12.4551 35.0106 -3.38764 35.0106C-29.6819 35.0106 -51.0005 56.1873 -51.0005 82.3103V713.549H1467.46V238.829C1467.46 212.706 1446.14 191.53 1419.85 191.53Z" fill="white"/>
</g>
<mask id="mask1" mask-type="alpha" maskUnits="userSpaceOnUse" x="-30" y="0" width="1516" height="688">
<path fill-rule="evenodd" clip-rule="evenodd" d="M-29.7715 0.323608H1485.55V687.135H-29.7715V0.323608Z" fill="white"/>
</mask>
<g mask="url(#mask1)">
<path opacity="0.2" fill-rule="evenodd" clip-rule="evenodd" d="M1394.39 43.9479C1344.05 43.9479 1303.24 84.5291 1303.24 134.586C1303.24 139.283 1303.6 143.898 1304.29 148.403C1295.25 148.641 1286.65 150.642 1278.83 154.084C1272.66 123.334 1245.37 100.16 1212.63 100.16C1204.02 100.16 1195.81 101.778 1188.24 104.694C1182.14 67.4586 1149.66 39.0297 1110.49 39.0297C1095.73 39.0297 1081.93 43.0748 1070.12 50.0965C1062.42 21.4367 1036.14 0.322754 1004.89 0.322754C977.938 0.322754 954.678 16.0364 943.855 38.7516C932.771 30.8265 919.184 26.1425 904.489 26.1425C867.202 26.1425 836.975 56.1996 836.975 93.275C836.975 93.8868 837.006 94.4936 837.023 95.102C832.006 93.9188 826.778 93.275 821.396 93.275C804.82 93.275 789.648 99.2247 777.896 109.083C764.115 103.341 748.987 100.16 733.11 100.16C690.438 100.16 653.173 123.089 633.032 157.217C625.103 148.323 614.841 141.537 603.194 137.812C603.238 136.742 603.276 135.668 603.276 134.586C603.276 92.7575 569.173 58.8475 527.107 58.8475C523.983 58.8475 520.91 59.0565 517.886 59.4205C506.169 39.5185 484.459 26.1425 459.593 26.1425C426.436 26.1425 398.881 49.9178 393.181 81.2525C392.811 81.2491 392.449 81.2255 392.079 81.2255C384.172 81.2255 376.52 82.3009 369.242 84.2762C357.337 73.8145 341.702 67.4552 324.567 67.4552C313.875 67.4552 303.77 69.9362 294.785 74.3353C291.315 40.496 262.57 14.0931 227.624 14.0931C202.847 14.0931 181.201 27.3729 169.456 47.1537C157.594 41.9439 144.483 39.0297 130.68 39.0297C77.6066 39.0297 34.5794 81.8121 34.5794 134.586C34.5794 139.283 34.9371 143.897 35.5947 148.412C-0.696289 149.541 -29.7715 179.13 -29.7715 215.489V687.135H1485.55V134.586C1485.55 84.5291 1444.74 43.9479 1394.39 43.9479Z" fill="white"/>
</g>
<path opacity="0.9" fill-rule="evenodd" clip-rule="evenodd" d="M1336.52 132.81C1310.73 132.81 1286.6 139.842 1265.92 152.048C1256.66 148.504 1246.61 146.541 1236.09 146.541C1212.31 146.541 1190.89 156.478 1175.74 172.381C1161.64 146.733 1134.25 129.334 1102.77 129.334C1073.48 129.334 1047.76 144.4 1032.96 167.145C1020.14 160.591 1005.63 156.867 990.227 156.867C956.244 156.867 926.502 174.891 910.131 201.841C896.903 193.003 880.975 187.842 863.836 187.842C856.283 187.842 848.971 188.861 842.017 190.739C832.599 155.391 800.208 129.334 761.684 129.334C740.396 129.334 720.986 137.297 706.284 150.378C698.469 112.823 665.005 84.5908 624.903 84.5908C585.841 84.5908 553.091 111.382 544.196 147.481C532.618 141.397 519.427 137.938 505.419 137.938C497.798 137.938 490.425 138.977 483.413 140.886C461.627 111.935 426.857 93.1961 387.683 93.1961C345.287 93.1961 308.074 115.167 286.871 148.258C281.407 147.136 275.748 146.541 269.95 146.541C255.195 146.541 241.351 150.378 229.342 157.079C217.064 126.7 187.169 105.242 152.215 105.242C112.853 105.242 79.9057 132.448 71.3138 168.967C70.578 168.948 69.8474 168.913 69.1065 168.913C23.209 168.913 -14 205.893 -14 251.513V662.794H1475V270.442C1475 194.43 1413 132.81 1336.52 132.81Z" fill="white"/>
<path fill-rule="evenodd" clip-rule="evenodd" d="M1395.1 254.676C1395.1 210.203 1358.88 174.15 1314.2 174.15C1278.4 174.15 1248.06 197.305 1237.4 229.386C1224 230.916 1211.6 235.694 1201.02 242.923C1192.12 224.649 1173.31 212.045 1151.54 212.045C1142.07 212.045 1133.16 214.43 1125.39 218.629C1116.72 199.758 1097.61 186.638 1075.4 186.638C1048.13 186.638 1025.52 206.418 1021.21 232.348C1011.14 219.967 995.752 212.045 978.5 212.045C956.048 212.045 936.752 225.458 928.229 244.667C922.324 242.507 915.942 241.326 909.281 241.326C892.393 241.326 877.291 248.919 867.211 260.855C854.876 248.783 837.966 241.326 819.299 241.326C809.811 241.326 800.776 243.256 792.563 246.732C784.539 226.425 764.679 212.045 741.43 212.045C730.469 212.045 720.266 215.253 711.694 220.759C703.527 200.75 683.816 186.638 660.784 186.638C630.441 186.638 605.842 211.124 605.842 241.326C605.842 251.228 608.501 260.506 613.123 268.516L612.776 268.713C603.282 252.348 585.528 241.326 565.177 241.326C564.687 241.326 564.201 241.351 563.713 241.363C564.662 237.341 565.177 233.149 565.177 228.84C565.177 198.635 540.58 174.15 510.237 174.15C502.956 174.15 496.014 175.572 489.655 178.132C481.18 158.809 461.825 145.297 439.289 145.297C408.945 145.297 384.347 169.783 384.347 199.987C384.347 202.011 384.468 204.01 384.683 205.978C377.184 202.156 368.693 199.987 359.689 199.987C337.277 199.987 318.014 213.35 309.467 232.503C301.829 230.124 293.706 228.84 285.28 228.84C277.23 228.84 269.461 230.026 262.123 232.205C252.048 219.904 236.711 212.045 219.523 212.045C202.057 212.045 186.506 220.167 176.443 232.814C167.968 213.495 148.613 199.987 126.079 199.987C95.7362 199.987 71.1388 224.472 71.1388 254.676C71.1388 256.123 71.2134 257.553 71.3235 258.973C64.751 256.205 57.5262 254.676 49.9404 254.676C19.5974 254.676 -5 279.162 -5 309.366V695.635H1474.52L1476 335.203C1476 290.729 1439.78 254.676 1395.1 254.676Z" fill="white"/>
</svg>
