<svg width="66" height="76" viewBox="0 0 66 76" fill="none" xmlns="http://www.w3.org/2000/svg">
<mask id="mask0" mask-type="alpha" maskUnits="userSpaceOnUse" x="0" y="0" width="66" height="76">
<path fill-rule="evenodd" clip-rule="evenodd" d="M0 0H65.6837V75.634H0V0Z" fill="white"/>
</mask>
<g mask="url(#mask0)">
<path fill-rule="evenodd" clip-rule="evenodd" d="M61.8146 45.5395C61.7341 45.6987 61.5732 45.8579 61.2512 45.8579H57.8715C56.422 45.8579 55.2146 47.0522 55.2146 48.4852V57.6409C55.2146 58.7555 54.3293 59.6313 53.2024 59.6313H46.2805C44.591 59.6313 43.3024 60.9848 43.3024 62.577L43.1415 71.892L23.2618 70.0609V57.004C23.2618 55.6506 22.6171 54.2971 21.4902 53.3417C16.178 48.8833 12.878 41.9568 12.878 35.1895C12.878 34.3138 12.9585 33.438 13.039 32.5622H14.4878C16.5805 35.0303 19.6398 38.2149 23.1805 40.2849C23.8244 40.683 24.4691 40.8422 25.1122 40.8422C25.9171 40.8422 26.8024 40.5237 27.4463 39.9664C28.6537 39.011 29.1366 37.4187 28.5732 35.9061C28.1707 34.7915 27.8488 33.6768 27.6886 32.4826H30.6659C35.1732 32.4826 38.7951 28.9 38.7951 24.4415V14.8877C47.5683 16.8781 54.1683 24.1231 55.0545 33.3584C55.1341 34.2342 55.3756 35.1099 55.8593 35.9857L61.8146 44.8229C61.9756 45.1414 61.8959 45.3802 61.8146 45.5395ZM3.78293 24.6008V8.04086C3.78293 5.65241 5.71463 3.74166 8.12927 3.74166H30.8268C33.2415 3.74166 35.1732 5.65241 35.1732 8.04086V24.6008C35.1732 26.9892 33.2415 28.9 30.8268 28.9H25.8366C25.3537 28.9 24.8715 29.1388 24.4691 29.4573C24.1463 29.8553 23.9049 30.333 23.9049 30.8107C23.9854 33.0399 24.3878 35.2691 25.274 37.1799C21.8927 35.1895 18.9146 31.9253 17.0634 29.6165C16.7415 29.1388 16.178 28.9 15.6154 28.9H8.20976C5.71463 28.9 3.78293 26.9892 3.78293 24.6008ZM64.9537 42.7529L59.1585 33.9953C58.9976 33.7565 58.9171 33.3584 58.9171 33.0399C57.9512 21.8142 49.661 13.0566 38.8756 11.0662V8.04086C38.8756 3.58243 35.2537 -0.000244141 30.7463 -0.000244141H8.12927C3.62195 -0.000244141 0 3.58243 0 8.04086V24.6008C0 29.0592 3.62195 32.6419 8.12927 32.6419H9.41707C9.33659 33.5176 9.2561 34.3934 9.2561 35.2691C9.2561 43.151 12.9585 50.9533 19.1561 56.2079C19.3171 56.3671 19.5585 56.6059 19.5585 57.004V70.0609C19.5585 72.0512 21.0878 73.7231 23.1 73.8824L42.9 75.6339H43.222C44.1886 75.6339 45.1537 75.3154 45.878 74.5989C46.6829 73.8824 47.1659 72.8474 47.1659 71.8124V63.3732H53.2829C56.422 63.3732 58.9976 60.8255 58.9976 57.7205V49.5998H61.2512C62.861 49.5998 64.3902 48.7241 65.1951 47.291C65.9203 45.8579 65.839 44.1064 64.9537 42.7529Z" fill="#2D3D57"/>
</g>
<path fill-rule="evenodd" clip-rule="evenodd" d="M17.9342 10.908L14.8178 11.666L14 8.48218L19.1343 6.96631H21.817V24.7801H17.9342V10.908Z" fill="#2D3D57"/>
</svg>
