<svg width="108" height="59" viewBox="0 0 108 59" fill="none" xmlns="http://www.w3.org/2000/svg">
<path fill-rule="evenodd" clip-rule="evenodd" d="M8.65 7.00006H16.35C17.2667 7.00006 18 7.66673 18 8.50006C18 9.33339 17.2667 10.0001 16.35 10.0001H8.65C7.73333 10.0001 7 9.33339 7 8.50006C7 7.66673 7.73333 7.00006 8.65 7.00006Z" fill="#2D3D57"/>
<path fill-rule="evenodd" clip-rule="evenodd" d="M5.62058 15.0001H16.3794C17.2797 15.0001 18 15.6667 18 16.5001C18 17.3334 17.2797 18.0001 16.3794 18.0001H5.62058C4.72026 18.0001 4 17.3334 4 16.5001C4 15.6667 4.72026 15.0001 5.62058 15.0001Z" fill="#2D3D57"/>
<path fill-rule="evenodd" clip-rule="evenodd" d="M1.62814 24.0001H16.3719C17.2764 24.0001 18 24.6667 18 25.5001C18 26.3334 17.2764 27.0001 16.3719 27.0001H1.62814C0.723618 27.0001 0 26.3334 0 25.5001C0 24.6667 0.723618 24.0001 1.62814 24.0001Z" fill="#2D3D57"/>
<mask id="mask0" mask-type="alpha" maskUnits="userSpaceOnUse" x="0" y="0" width="108" height="59">
<path fill-rule="evenodd" clip-rule="evenodd" d="M0 59.0001H108V6.10352e-05H0V59.0001Z" fill="white"/>
</mask>
<g mask="url(#mask0)">
<path fill-rule="evenodd" clip-rule="evenodd" d="M56 49.0001H74V46.0001H56V49.0001Z" fill="#2D3D57"/>
<path fill-rule="evenodd" clip-rule="evenodd" d="M43.5 41.2587C39.472 41.2587 36.2586 44.472 36.2586 48.5001C36.2586 52.5281 39.472 55.7867 43.5 55.7867C47.528 55.7867 50.7866 52.5733 50.7866 48.5001C50.7866 44.472 47.528 41.2587 43.5 41.2587ZM43.5 59.0001C37.7069 59.0001 33 54.3384 33 48.5001C33 42.707 37.6616 38.0001 43.5 38.0001C49.2931 38.0001 54 42.6617 54 48.5001C54 54.3384 49.3384 59.0001 43.5 59.0001Z" fill="#2D3D57"/>
<path fill-rule="evenodd" clip-rule="evenodd" d="M40 49.7416L44.7605 45.0001L47 47.2581L42.2391 52.0001L40 49.7416Z" fill="#2D3D57"/>
<path fill-rule="evenodd" clip-rule="evenodd" d="M85.5 41.2587C81.4724 41.2587 78.2586 44.472 78.2586 48.5001C78.2586 52.5281 81.4724 55.7867 85.5 55.7867C89.528 55.7867 92.7871 52.5733 92.7871 48.5001C92.7871 44.472 89.5733 41.2587 85.5 41.2587ZM85.5 59.0001C79.7069 59.0001 75 54.3384 75 48.5001C75 42.707 79.6621 38.0001 85.5 38.0001C91.2931 38.0001 96 42.6617 96 48.5001C96 54.3384 91.3384 59.0001 85.5 59.0001Z" fill="#2D3D57"/>
<path fill-rule="evenodd" clip-rule="evenodd" d="M82 49.7512L86.7509 45.0001L89 47.2489L84.2491 52.0001L82 49.7512Z" fill="#2D3D57"/>
<path fill-rule="evenodd" clip-rule="evenodd" d="M103.769 29.4001H82.6561V14.7001H93.2127L103.769 26.7898V29.4001ZM79.4254 29.4001H24.2307V4.90006C24.2307 3.93838 24.8677 3.25146 25.8688 3.25146H77.7868C78.7429 3.25146 79.4254 3.89258 79.4254 4.90006V29.4001ZM94.8053 11.4487H82.6106V4.90006C82.6106 2.1066 80.517 6.10352e-05 77.7418 6.10352e-05H25.8688C23.0931 6.10352e-05 21 2.1066 21 4.90006V44.1001C21 46.8935 23.0931 49.0001 25.8688 49.0001H29.099V45.7487H25.8688C24.9132 45.7487 24.2307 45.1075 24.2307 44.1001V32.6515H103.769V44.1001C103.769 45.0617 103.132 45.7487 102.131 45.7487H98.9005V49.0001H102.131C104.907 49.0001 107 46.8935 107 44.1001V25.4617L94.8053 11.4487Z" fill="#2D3D57"/>
</g>
</svg>
