<svg width="71" height="83" viewBox="0 0 71 83" fill="none" xmlns="http://www.w3.org/2000/svg">
<path fill-rule="evenodd" clip-rule="evenodd" d="M20.3798 64.1638C19.7391 63.6993 18.9922 63.3657 18.2184 63.1971C17.9191 63.1316 17.6189 63.102 17.3197 63.076C17.0536 63.0527 16.8236 63.033 16.6636 62.9756C15.8961 62.7021 15.3604 61.9434 15.3604 61.1291C15.3604 60.0485 16.2412 59.1697 17.3251 59.1697H17.556C18.639 59.1697 19.5207 60.0485 19.5207 61.1291C19.5207 61.9219 20.1642 62.564 20.9586 62.564C21.7531 62.564 22.3966 61.9219 22.3966 61.1291C22.3966 58.9913 20.9883 57.1951 19.0551 56.561V55.4473C19.0551 54.6545 18.4116 54.0125 17.6171 54.0125C16.8227 54.0125 16.1792 54.6545 16.1792 55.4473V56.4516C14.0644 56.9682 12.4863 58.8621 12.4863 61.1291C12.4863 63.1666 13.7777 64.9951 15.6983 65.6784C16.2043 65.8596 16.6852 65.9017 17.0689 65.9349C17.2487 65.9501 17.4284 65.9627 17.6091 66.0012C17.9964 66.0855 18.3712 66.2523 18.692 66.4855C19.3157 66.9375 19.6887 67.6145 19.6887 68.297C19.6887 69.4672 18.7343 70.4187 17.5623 70.4187H17.3188C16.1459 70.4187 15.1924 69.4663 15.1924 68.297C15.1924 67.5042 14.5489 66.8621 13.7544 66.8621C12.9599 66.8621 12.3164 67.5042 12.3164 68.297C12.3164 70.6608 13.9728 72.6418 16.1873 73.1547V74.5868C16.1873 75.3796 16.8307 76.0217 17.6252 76.0217C18.4197 76.0217 19.0632 75.3796 19.0632 74.5868V73.0579C21.0907 72.4203 22.5647 70.5272 22.5647 68.2961C22.5629 66.6989 21.7468 65.1529 20.3798 64.1638Z" fill="#2D3D57"/>
<path fill-rule="evenodd" clip-rule="evenodd" d="M38.7126 70.1819C38.5014 70.2016 38.2938 70.2204 38.0574 70.2357L37.1299 70.3011C37.1083 70.3011 37.0436 70.3038 37.0202 70.3047C36.8827 70.3119 36.7506 70.311 36.605 70.32C36.3129 70.3406 36.0137 70.3469 35.6874 70.3549C35.4088 70.3621 35.1392 70.3621 34.8633 70.3621C34.5946 70.3612 34.3115 70.3424 34.0391 70.337C34.4607 69.0313 34.7186 67.6566 34.8175 66.2379H34.8309C35.531 66.2379 36.2213 66.2218 36.8998 66.1913C37.6449 66.1572 38.2192 65.5277 38.185 64.786C38.1527 64.0435 37.5199 63.4786 36.7785 63.5037C36.1305 63.5333 35.4672 63.5431 34.804 63.5422C34.6826 62.1038 34.3825 60.7192 33.9295 59.401C34.2288 59.4064 34.5227 59.4162 34.8309 59.4162C41.2317 59.4162 47.033 58.1043 50.3817 55.9027C50.4087 55.8884 50.433 55.8722 50.4563 55.8561C50.4725 55.8462 50.4878 55.8346 50.5022 55.8238C50.6909 55.6965 50.8545 55.5682 51.0198 55.4409C50.9911 56.0552 50.9228 56.8578 50.7565 57.872C50.7376 57.9671 50.725 58.0648 50.725 58.1572C50.725 58.1626 50.7268 58.1679 50.7268 58.1733C50.699 59.1356 49.6187 59.9955 48.9761 60.4233C48.9545 60.4376 48.9312 60.4529 48.9123 60.469C48.9105 60.4699 48.9087 60.4708 48.906 60.4726C47.1526 61.625 44.3863 62.5468 41.1185 63.0678C40.3833 63.1844 39.8827 63.8749 40.0005 64.6085C40.1065 65.2703 40.679 65.7411 41.3288 65.7411C41.3998 65.7411 41.4708 65.7357 41.5436 65.7241C45.2338 65.1358 48.2913 64.0964 50.3727 62.7298C50.4069 62.7082 50.45 62.6796 50.4914 62.6473C50.6873 62.5163 50.8536 62.3836 51.0243 62.2518C50.9668 63.5933 50.7511 64.7672 50.7493 64.7807C50.7385 64.839 50.7376 64.8963 50.7349 64.9546C50.734 64.9672 50.7295 64.9788 50.7295 64.9914C50.6711 66.9948 46.181 69.4815 38.7126 70.1819ZM17.4386 79.7288C9.30958 79.7288 2.69669 73.1295 2.69669 65.0174C2.69669 56.9053 9.30958 50.306 17.4386 50.306C25.5695 50.306 32.1824 56.9053 32.1824 65.0174C32.1824 73.1295 25.5695 79.7288 17.4386 79.7288ZM34.8309 25.4622C44.6505 25.4622 50.6891 28.5946 50.7259 30.8526C50.725 30.8705 50.7241 30.8885 50.7241 30.9073C50.6675 33.1645 44.6343 36.2852 34.8318 36.2852C25.0581 36.2852 19.0339 33.1833 18.9413 30.9279C18.9422 30.8948 18.9422 30.8616 18.9404 30.8284C19.0195 28.5721 25.0464 25.4622 34.8309 25.4622ZM29.2534 52.2547C31.0257 52.4825 32.9004 52.6053 34.8318 52.6053C38.7251 52.6053 42.4342 52.1193 45.5573 51.201C46.2718 50.9912 46.6798 50.2433 46.4704 49.5303C46.2592 48.8174 45.5088 48.4121 44.797 48.6201C41.9166 49.4676 38.4708 49.9151 34.8327 49.9151C28.9963 49.9151 23.5806 48.7224 20.6974 46.8042C20.6947 46.8024 20.6911 46.7997 20.6876 46.7979C19.9191 46.2814 19.0114 45.4788 18.9431 44.5497C18.9431 44.5426 18.9413 44.5354 18.9413 44.5291V44.5264V44.504C18.9413 44.4583 18.9314 44.4152 18.9269 44.3713C18.9242 44.348 18.9251 44.3246 18.9215 44.3013C18.9215 44.3013 18.9188 44.2879 18.9188 44.2852C18.9143 44.2592 18.9117 44.2341 18.9054 44.2081C18.8541 43.9139 18.6978 42.9284 18.6474 41.8146C18.8038 41.9348 18.9503 42.054 19.1256 42.1733C19.3583 42.3294 19.6208 42.4038 19.8814 42.4038C20.3119 42.4038 20.7379 42.1966 20.9976 41.8119C21.4164 41.1967 21.2529 40.3601 20.6381 39.944C20.018 39.527 18.9889 38.6921 18.9431 37.7577C18.9431 37.746 18.9422 37.7344 18.9422 37.7227C18.9422 37.6734 18.9341 37.6267 18.9296 37.5783C18.926 37.5442 18.9278 37.5102 18.9215 37.4752C18.9188 37.4617 18.7112 36.3291 18.6492 35.0172C22.0617 37.6079 28.5802 38.9737 34.83 38.9737C41.0843 38.9737 47.6073 37.6061 51.018 35.0109C50.9569 36.3282 50.7475 37.4698 50.7448 37.4824C50.7412 37.4994 50.743 37.5155 50.7403 37.5326C50.7367 37.564 50.734 37.59 50.7304 37.6205C50.7277 37.6563 50.7224 37.6904 50.7224 37.7272C50.7071 38.4383 50.0878 39.2355 48.9725 39.9771C46.0993 41.9025 40.679 43.0988 34.8309 43.0988C30.766 43.0988 26.8681 42.524 23.8574 41.4801C23.151 41.2344 22.3835 41.6075 22.1417 42.3096C21.8981 43.0118 22.2693 43.7776 22.9721 44.0215C26.2615 45.1613 30.4739 45.7891 34.8309 45.7891C41.282 45.7891 47.131 44.4511 50.4707 42.2137C50.672 42.0801 50.8428 41.9446 51.0189 41.8092C50.9695 42.914 50.8158 43.8924 50.7619 44.1991C50.7538 44.2332 50.7502 44.2682 50.7448 44.3031V44.3058C50.7439 44.3094 50.7448 44.313 50.7439 44.3166C50.7349 44.3793 50.7241 44.4421 50.7241 44.5076C50.7241 44.513 50.7259 44.5183 50.7259 44.5237C50.7259 44.5282 50.7241 44.5327 50.7241 44.5381C50.7143 45.2438 50.0896 46.0464 48.9671 46.797C48.7577 46.9378 48.5312 47.075 48.2904 47.2077C47.6415 47.57 47.4087 48.3897 47.7709 49.038C48.0181 49.4792 48.4764 49.7285 48.95 49.7285C49.1729 49.7285 49.3985 49.6729 49.6052 49.5581C49.8964 49.3958 50.1714 49.2272 50.4303 49.0551C50.4626 49.0353 50.4932 49.0138 50.5237 48.9914C50.7026 48.8703 50.8599 48.7475 51.018 48.6255C50.9893 49.2398 50.9201 50.0397 50.7556 51.0504V51.0521C50.7367 51.1436 50.7241 51.2387 50.7241 51.3355C50.7241 51.34 50.725 51.3445 50.7259 51.349C50.7116 52.0467 50.1175 52.8286 49.0489 53.5586C49.0201 53.5747 48.9923 53.5927 48.9626 53.6106C46.0984 55.5315 40.6826 56.7242 34.83 56.7242C34.0967 56.7242 33.4028 56.7008 32.7333 56.6668C31.8202 55.0105 30.6356 53.529 29.2534 52.2547ZM53.4446 44.5201C53.5372 43.9507 53.734 42.5831 53.734 41.1438C53.734 39.6705 53.5273 38.276 53.4383 37.7317C53.5273 37.1882 53.734 35.7929 53.734 34.3195C53.734 32.7528 53.5003 31.2678 53.4212 30.8096C53.344 25.5877 43.8084 22.771 34.8309 22.771C25.8256 22.771 16.2595 25.6039 16.2361 30.8544C16.1507 31.3611 15.9341 32.795 15.9341 34.3105C15.9341 35.7848 16.14 37.1793 16.2289 37.7227C16.14 38.2661 15.9341 39.6606 15.9341 41.1349C15.9341 42.5966 16.1373 43.9812 16.2271 44.5345C16.1409 45.0537 15.9548 46.3271 15.9341 47.6911C7.0214 48.456 0.000488281 55.9278 0.000488281 65.0165C0.000488281 74.6119 7.82397 82.4182 17.4386 82.4182C24.1683 82.4182 30.0083 78.589 32.9166 73.0058C33.5646 73.0327 34.2072 73.0515 34.8318 73.0515C35.1419 73.0515 35.4448 73.0515 35.7782 73.0434C36.1062 73.0353 36.4325 73.0273 36.7506 73.0058C36.8899 73.0049 37.0256 72.9986 37.1928 72.9905C37.2243 72.9905 37.2557 72.9896 37.2863 72.9869L38.2398 72.9188C38.4879 72.9035 38.7225 72.882 39.0208 72.8551C47.5067 72.0588 53.1013 69.0923 53.4006 65.2703C53.4159 65.1779 53.7367 63.4454 53.7367 61.6142C53.7367 60.1614 53.5363 58.7535 53.4383 58.1724C53.681 56.6506 53.7367 55.4732 53.7367 54.7513C53.7367 54.0384 53.6819 52.8789 53.4401 51.3382C53.681 49.8191 53.7367 48.6434 53.7367 47.9233C53.7358 46.4464 53.5318 45.051 53.4446 44.5201Z" fill="#2D3D57"/>
<path fill-rule="evenodd" clip-rule="evenodd" d="M1.55367 37.6073H10.8744C11.6186 37.6073 12.2225 37.0055 12.2225 36.2621C12.2225 35.5187 11.6186 34.917 10.8744 34.917H1.55367C0.809516 34.917 0.205566 35.5187 0.205566 36.2621C0.205566 37.0055 0.809516 37.6073 1.55367 37.6073Z" fill="#2D3D57"/>
<mask id="mask0" mask-type="alpha" maskUnits="userSpaceOnUse" x="57" y="34" width="13" height="4">
<path fill-rule="evenodd" clip-rule="evenodd" d="M57.4429 34.917H69.4595V37.6073H57.4429V34.917Z" fill="white"/>
</mask>
<g mask="url(#mask0)">
<path fill-rule="evenodd" clip-rule="evenodd" d="M68.1126 34.917H58.791C58.0468 34.917 57.4429 35.5187 57.4429 36.2621C57.4429 37.0055 58.0468 37.6073 58.791 37.6073H68.1117C68.855 37.6073 69.4598 37.0055 69.4598 36.2621C69.4598 35.5187 68.8568 34.917 68.1126 34.917Z" fill="#2D3D57"/>
</g>
<path fill-rule="evenodd" clip-rule="evenodd" d="M16.9381 20.3096C17.2015 20.5724 17.5466 20.7033 17.8926 20.7033C18.2368 20.7033 18.5819 20.5724 18.8452 20.3096C19.3719 19.785 19.3719 18.9331 18.8452 18.4076L12.2548 11.8316C11.7282 11.3061 10.8753 11.3061 10.3486 11.8316C9.82195 12.3562 9.82195 13.2082 10.3486 13.7337L16.9381 20.3096Z" fill="#2D3D57"/>
<mask id="mask1" mask-type="alpha" maskUnits="userSpaceOnUse" x="33" y="1" width="4" height="13">
<path fill-rule="evenodd" clip-rule="evenodd" d="M33.4849 1.71069H36.1811V13.7012H33.4849V1.71069Z" fill="white"/>
</mask>
<g mask="url(#mask1)">
<path fill-rule="evenodd" clip-rule="evenodd" d="M34.833 13.7013C35.5771 13.7013 36.1811 13.0996 36.1811 12.3561V3.05583C36.1811 2.31242 35.5771 1.71069 34.833 1.71069C34.0888 1.71069 33.4849 2.31242 33.4849 3.05583V12.3561C33.4849 13.0996 34.0888 13.7013 34.833 13.7013Z" fill="#2D3D57"/>
</g>
<path fill-rule="evenodd" clip-rule="evenodd" d="M51.7739 20.7033C52.1199 20.7033 52.465 20.5724 52.7284 20.3096L59.3188 13.7337C59.8446 13.2082 59.8446 12.3562 59.3188 11.8316C58.7921 11.3061 57.9383 11.3061 57.4117 11.8316L50.8213 18.4076C50.2946 18.9331 50.2946 19.785 50.8213 20.3096C51.0837 20.5724 51.4288 20.7033 51.7739 20.7033Z" fill="#2D3D57"/>
</svg>
