<svg width="71" height="81" viewBox="0 0 71 81" fill="none" xmlns="http://www.w3.org/2000/svg">
<path fill-rule="evenodd" clip-rule="evenodd" d="M8.83349 13.1657C5.40549 13.8624 2.94349 16.8629 2.94449 20.345V49.6463L5.35849 73.5277C5.58649 75.7818 7.49849 77.4956 9.77549 77.4836H40.3095C42.5855 77.4956 44.4975 75.7818 44.7255 73.5277L47.1095 49.5V20.345C47.1105 16.8629 44.6485 13.8624 41.2215 13.1657V23.2748H8.83349V13.1657ZM40.3095 80.4134H9.74549C5.95149 80.4324 2.76449 77.5782 2.38549 73.8213L0.000488281 49.7936V20.345C0.000488281 14.6804 4.61349 10.0886 10.3055 10.0886H11.7775V20.345H38.2765V10.0886H39.7495C45.4405 10.0886 50.0545 14.6804 50.0545 20.345V49.6463L47.6255 73.8213C47.2475 77.5612 44.0865 80.4105 40.3095 80.4134Z" fill="#2D3D57"/>
<mask id="mask0" mask-type="alpha" maskUnits="userSpaceOnUse" x="0" y="0" width="71" height="81">
<path fill-rule="evenodd" clip-rule="evenodd" d="M0 80.4138H70.665V0.389893H0V80.4138Z" fill="white"/>
</mask>
<g mask="url(#mask0)">
<path fill-rule="evenodd" clip-rule="evenodd" d="M10.3048 43.786H39.7488V30.5997H10.3048V43.786ZM7.36084 46.7158H42.6938V27.6699H7.36084V46.7158Z" fill="#2D3D57"/>
<path fill-rule="evenodd" clip-rule="evenodd" d="M11.7775 20.3449H38.2765V5.13642L36.8045 5.86987L33.8605 4.40397L30.9165 5.86987L27.9715 4.40397L25.0275 5.86987L22.0825 4.40397L19.1375 5.86987L16.1935 4.40397L13.2495 5.86987L11.7775 5.13642V20.3449ZM41.2205 23.2747H8.8335V0.390381L13.2495 2.58775L16.1935 1.12284L19.1375 2.58775L22.1565 1.12284L25.0275 2.58775L27.9715 1.12284L30.9165 2.58775L33.8605 1.12284L36.8045 2.58775L41.2205 0.390381V23.2747Z" fill="#2D3D57"/>
<path fill-rule="evenodd" clip-rule="evenodd" d="M41.2213 23.275H8.83333C8.02033 23.275 7.36133 22.6192 7.36133 21.8101C7.36133 21 8.02033 20.3452 8.83333 20.3452H41.2213C42.0343 20.3452 42.6943 21 42.6943 21.8101C42.6943 22.6192 42.0343 23.275 41.2213 23.275Z" fill="#2D3D57"/>
<path fill-rule="evenodd" clip-rule="evenodd" d="M22.0824 51.1116H27.9724C28.7844 51.1116 29.4434 51.7674 29.4434 52.5775V54.0424C29.4434 54.8515 28.7844 55.5073 27.9724 55.5073H22.0824C21.2704 55.5073 20.6104 54.8515 20.6104 54.0424V52.5775C20.6104 51.7674 21.2704 51.1116 22.0824 51.1116Z" fill="#2D3D57"/>
<path fill-rule="evenodd" clip-rule="evenodd" d="M10.305 51.1116H16.194C17.007 51.1116 17.666 51.7674 17.666 52.5775V54.0424C17.666 54.8515 17.007 55.5073 16.194 55.5073H10.305C9.49301 55.5073 8.83301 54.8515 8.83301 54.0424V52.5775C8.83301 51.7674 9.49301 51.1116 10.305 51.1116Z" fill="#2D3D57"/>
<path fill-rule="evenodd" clip-rule="evenodd" d="M33.8607 51.1116H39.7497C40.5617 51.1116 41.2207 51.7674 41.2207 52.5775V54.0424C41.2207 54.8515 40.5617 55.5073 39.7497 55.5073H33.8607C33.0477 55.5073 32.3877 54.8515 32.3877 54.0424V52.5775C32.3877 51.7674 33.0477 51.1116 33.8607 51.1116Z" fill="#2D3D57"/>
<path fill-rule="evenodd" clip-rule="evenodd" d="M22.0824 58.4375H27.9724C28.7844 58.4375 29.4434 59.0933 29.4434 59.9024V61.3673C29.4434 62.1764 28.7844 62.8332 27.9724 62.8332H22.0824C21.2704 62.8332 20.6104 62.1764 20.6104 61.3673V59.9024C20.6104 59.0933 21.2704 58.4375 22.0824 58.4375Z" fill="#2D3D57"/>
<path fill-rule="evenodd" clip-rule="evenodd" d="M10.305 58.4375H16.194C17.007 58.4375 17.666 59.0933 17.666 59.9024V61.3673C17.666 62.1764 17.007 62.8332 16.194 62.8332H10.305C9.49301 62.8332 8.83301 62.1764 8.83301 61.3673V59.9024C8.83301 59.0933 9.49301 58.4375 10.305 58.4375Z" fill="#2D3D57"/>
<path fill-rule="evenodd" clip-rule="evenodd" d="M33.8607 58.4375H39.7497C40.5617 58.4375 41.2207 59.0933 41.2207 59.9024V61.3673C41.2207 62.1764 40.5617 62.8332 39.7497 62.8332H33.8607C33.0477 62.8332 32.3877 62.1764 32.3877 61.3673V59.9024C32.3877 59.0933 33.0477 58.4375 33.8607 58.4375Z" fill="#2D3D57"/>
<path fill-rule="evenodd" clip-rule="evenodd" d="M22.0824 65.7627H27.9724C28.7844 65.7627 29.4434 66.4185 29.4434 67.2276V68.6925C29.4434 69.5016 28.7844 70.1584 27.9724 70.1584H22.0824C21.2704 70.1584 20.6104 69.5016 20.6104 68.6925V67.2276C20.6104 66.4185 21.2704 65.7627 22.0824 65.7627Z" fill="#2D3D57"/>
<path fill-rule="evenodd" clip-rule="evenodd" d="M10.305 65.7627H16.194C17.007 65.7627 17.666 66.4185 17.666 67.2276V68.6925C17.666 69.5016 17.007 70.1584 16.194 70.1584H10.305C9.49301 70.1584 8.83301 69.5016 8.83301 68.6925V67.2276C8.83301 66.4185 9.49301 65.7627 10.305 65.7627Z" fill="#2D3D57"/>
<path fill-rule="evenodd" clip-rule="evenodd" d="M33.8607 65.7627H39.7497C40.5617 65.7627 41.2207 66.4185 41.2207 67.2276V68.6925C41.2207 69.5016 40.5617 70.1584 39.7497 70.1584H33.8607C33.0477 70.1584 32.3877 69.5016 32.3877 68.6925V67.2276C32.3877 66.4185 33.0477 65.7627 33.8607 65.7627Z" fill="#2D3D57"/>
<path fill-rule="evenodd" clip-rule="evenodd" d="M16.1938 11.5541H25.0278V8.62427H16.1938V11.5541Z" fill="#2D3D57"/>
<path fill-rule="evenodd" clip-rule="evenodd" d="M58.8882 36.4606C59.8872 36.4596 60.8692 36.7114 61.7432 37.1931C61.8032 36.9532 61.8322 36.7074 61.8322 36.4606C61.8322 34.8424 60.5142 33.5308 58.8882 33.5308C57.2612 33.5308 55.9442 34.8424 55.9442 36.4606C55.9432 36.7074 55.9722 36.9532 56.0322 37.1931C56.9062 36.7114 57.8892 36.4596 58.8882 36.4606ZM62.1562 41.6027L61.0672 40.3577C59.9302 39.1436 58.0212 39.0769 56.8012 40.2075C56.7492 40.2552 56.6992 40.306 56.6502 40.3577L55.5612 41.6027L54.4712 40.3727C52.2922 37.9693 52.4842 34.2632 54.8992 32.0957C57.3142 29.9272 61.0372 30.1183 63.2162 32.5217C65.2382 34.7519 65.2382 38.1415 63.2162 40.3727L62.1562 41.6027Z" fill="#2D3D57"/>
<path fill-rule="evenodd" clip-rule="evenodd" d="M58.8879 39.3907C58.0569 39.3927 57.2649 39.744 56.7079 40.358C55.6189 41.5592 55.7139 43.4123 56.9219 44.496C58.1289 45.5808 59.9909 45.4862 61.0799 44.284C62.1699 43.0829 62.0749 41.2298 60.8669 40.1461C60.3249 39.6584 59.6179 39.3897 58.8879 39.3907ZM58.8879 48.1812C55.6349 48.1991 52.9849 45.5897 52.9669 42.3534C52.9589 40.8984 53.4949 39.4922 54.4709 38.4095C56.6219 35.9812 60.3429 35.7493 62.7829 37.89C64.0599 39.0105 64.7859 40.6267 64.7769 42.3205C64.7769 45.5579 62.1399 48.1812 58.8879 48.1812Z" fill="#2D3D57"/>
<path fill-rule="evenodd" clip-rule="evenodd" d="M48.5826 64.2976H66.2486C67.0616 64.2976 67.7216 63.6418 67.7216 62.8327V29.1347C67.7216 28.3256 67.0616 27.6698 66.2486 27.6698H50.0546V49.6465L48.5826 64.2976ZM66.2486 67.2275H45.3286L47.1096 49.5002V24.74H66.2486C68.6876 24.74 70.6656 26.7075 70.6656 29.1347V62.8327C70.6656 65.26 68.6876 67.2275 66.2486 67.2275Z" fill="#2D3D57"/>
</g>
</svg>
