<svg width="636" height="714" viewBox="0 0 636 714" fill="none" xmlns="http://www.w3.org/2000/svg">
<path fill-rule="evenodd" clip-rule="evenodd" d="M386.949 367.932C386.571 381.199 385.153 389.224 384.094 390.026C383.035 389.224 381.616 381.199 381.238 367.932H380.006C380.271 376.831 381.15 391.291 384.094 391.291C387.039 391.291 387.917 376.831 388.182 367.932H386.949Z" fill="#2D3D57"/>
<path fill-rule="evenodd" clip-rule="evenodd" d="M432.072 402.116C430.849 401.189 429.133 390.683 429.114 373.5C428.683 373.458 428.257 373.411 427.866 373.315C427.868 375.043 427.953 403.38 432.072 403.38C435.697 403.38 436.197 381.468 436.266 375.031C435.827 374.975 435.408 374.894 435.011 374.778C434.909 391.17 433.264 401.213 432.072 402.116Z" fill="#2D3D57"/>
<path fill-rule="evenodd" clip-rule="evenodd" d="M476.065 410.09C474.917 409.22 473.355 399.814 473.149 384.467C472.704 384.402 472.286 384.304 471.887 384.179C472.006 391.785 472.642 411.354 476.065 411.354C479.265 411.354 480.029 394.246 480.211 385.798C479.804 385.854 479.383 385.81 478.968 385.811C478.695 400.381 477.181 409.245 476.065 410.09Z" fill="#2D3D57"/>
<path fill-rule="evenodd" clip-rule="evenodd" d="M531.367 399.242C531.065 413.493 529.572 422.13 528.47 422.965C527.342 422.109 525.81 413.06 525.559 398.209C525.141 398.059 524.711 397.945 524.304 397.762C524.451 405.815 525.149 424.229 528.47 424.229C531.61 424.229 532.404 407.746 532.606 399.144C532.192 399.174 531.782 399.239 531.367 399.242Z" fill="#2D3D57"/>
<path fill-rule="evenodd" clip-rule="evenodd" d="M255.219 367.649C254.816 367.649 254.458 367.584 254.086 367.538C253.727 381.048 252.287 389.216 251.214 390.026C250.154 389.224 248.734 381.23 248.355 367.981C247.945 368.035 247.537 368.057 247.127 368.042C247.397 376.954 248.284 391.291 251.214 391.291C254.193 391.291 255.06 376.511 255.316 367.639C255.282 367.64 255.253 367.649 255.219 367.649Z" fill="#2D3D57"/>
<path fill-rule="evenodd" clip-rule="evenodd" d="M206.183 374.247C206.115 390.97 204.441 401.204 203.236 402.116C202.046 401.215 200.406 391.223 200.295 374.9C199.877 374.87 199.46 374.83 199.039 374.775C199.1 380.956 199.573 403.38 203.236 403.38C207.16 403.38 207.423 377.637 207.44 373.718C207.031 373.917 206.616 374.1 206.183 374.247Z" fill="#2D3D57"/>
<path fill-rule="evenodd" clip-rule="evenodd" d="M162.158 385.342C161.907 400.181 160.375 409.232 159.248 410.09C158.136 409.251 156.634 400.514 156.344 386.129C155.93 386.132 155.516 386.142 155.104 386.128C155.299 394.688 156.086 411.354 159.248 411.354C162.561 411.354 163.262 393.023 163.412 384.942C163.004 385.093 162.584 385.221 162.158 385.342Z" fill="#2D3D57"/>
<path fill-rule="evenodd" clip-rule="evenodd" d="M109.758 397.356C109.553 412.711 107.986 422.094 106.838 422.966C105.744 422.137 104.264 413.646 103.945 399.604C103.547 399.878 103.144 400.113 102.731 400.283C102.975 409.119 103.829 424.229 106.838 424.229C110.249 424.229 110.893 404.787 111.015 397.118C110.598 397.227 110.176 397.276 109.758 397.356Z" fill="#2D3D57"/>
<path fill-rule="evenodd" clip-rule="evenodd" d="M598.228 382.638L353.38 248.202C353.391 248.66 353.359 249.116 353.302 249.57L597.665 383.735C597.983 383.887 629.304 398.885 627.617 420.53C611.567 416.177 409.948 362.994 407.738 362.428L351.773 360.571V361.804L407.56 363.639C409.674 364.2 619.038 419.426 627.999 421.915L628.701 422.111L628.784 421.389C631.334 398.485 599.547 383.257 598.228 382.638Z" fill="#2D3D57"/>
<path fill-rule="evenodd" clip-rule="evenodd" d="M617.195 390.393L352.806 245.229C353.01 245.768 353.175 246.322 353.27 246.892L616.612 391.482C616.807 391.584 636.069 401.823 633.897 425.079C617.47 420.691 414.237 369.173 412.017 368.626L351.773 366.635V367.866L411.845 369.841C413.973 370.378 624.617 423.78 634.274 426.46L634.975 426.655L635.058 425.932C637.794 401.311 617.386 390.49 617.195 390.393Z" fill="#2D3D57"/>
<path fill-rule="evenodd" clip-rule="evenodd" d="M327.963 628.779L431.376 655.016V640.301C431.116 636.5 427.297 631.902 420.017 626.685L338.989 568.398C335.724 594.654 332.013 614.956 327.963 628.779ZM432.622 656.606L431.847 656.412L326.404 629.657L326.591 629.042C330.748 615.099 334.548 594.299 337.885 567.212L338.013 566.172L338.865 566.782L420.743 625.68C428.337 631.126 432.332 636.03 432.616 640.257L432.622 656.606Z" fill="#2D3D57"/>
<path fill-rule="evenodd" clip-rule="evenodd" d="M326.659 630.614L437.362 659.58L436.45 642.723C436.058 636.9 433.112 631.6 428.372 628.198L338.865 563.82C335.253 592.888 331.145 615.348 326.659 630.614ZM438.696 661.21L437.872 660.99L325.105 631.483L325.292 630.872C329.88 615.485 334.077 592.527 337.763 562.634L337.891 561.594L338.743 562.204L429.096 627.192C434.14 630.814 437.269 636.445 437.686 642.649L438.696 661.21Z" fill="#2D3D57"/>
<path fill-rule="evenodd" clip-rule="evenodd" d="M566.878 407.928L568.011 408.216L555.996 390.354L417.772 341.484L366.357 331.342L363.132 365.849L363.881 365.917L367.029 332.245L417.567 342.21L555.505 390.988L555.618 391.159L566.878 407.928ZM570.845 410.217L566.113 409.012L565.981 408.811L554.701 392.013L417.238 343.399L368.137 333.723L364.999 367.264L361.779 366.962L365.25 329.863L418.101 340.296L556.809 389.33L557.103 389.783L570.845 410.217Z" fill="#2D3D57"/>
<path fill-rule="evenodd" clip-rule="evenodd" d="M617.195 390.393L352.806 245.229C353.01 245.768 353.175 246.322 353.27 246.892L616.612 391.482C616.807 391.584 636.069 401.823 633.897 425.079C617.47 420.691 414.237 369.173 412.017 368.626L351.773 366.635V367.866L411.845 369.841C413.973 370.378 624.617 423.78 634.274 426.46L634.975 426.655L635.058 425.932C637.794 401.311 617.386 390.49 617.195 390.393Z" fill="#2D3D57"/>
<path fill-rule="evenodd" clip-rule="evenodd" d="M386.09 239.899H429.851V233.018C429.851 231.72 422.248 229.919 407.968 229.919C393.693 229.919 386.09 231.72 386.09 233.018V239.899ZM431.097 241.135H384.844V233.018C384.844 228.892 404.11 228.684 407.968 228.684C411.831 228.684 431.097 228.892 431.097 233.018V241.135Z" fill="#2D3D57"/>
<path fill-rule="evenodd" clip-rule="evenodd" d="M433.43 242.967V290.361C433.84 290.511 434.258 290.738 434.675 290.971V242.967C434.675 241.275 433.469 239.899 431.989 239.899H384.432C382.956 239.899 381.751 241.275 381.751 242.967V261.889C381.992 261.865 382.236 261.812 382.475 261.812C382.658 261.812 382.818 261.852 382.996 261.863V242.967C382.996 241.956 383.638 241.134 384.432 241.134H431.989C432.783 241.134 433.43 241.956 433.43 242.967Z" fill="#2D3D57"/>
<path fill-rule="evenodd" clip-rule="evenodd" d="M480.658 289.301H519.822V283.186C519.822 282.076 512.851 280.467 500.237 280.467C487.629 280.467 480.658 282.076 480.658 283.186V289.301ZM521.067 290.537H479.413V283.186C479.413 279.516 495.356 279.233 500.237 279.233C505.125 279.233 521.067 279.516 521.067 283.186V290.537Z" fill="#2D3D57"/>
<path fill-rule="evenodd" clip-rule="evenodd" d="M523.033 292.12V339.305C523.462 339.449 523.874 339.644 524.278 339.88V292.12C524.278 290.566 523.165 289.302 521.802 289.302H479.109C477.747 289.302 476.637 290.566 476.637 292.12V314.8C477.063 314.888 477.476 315.019 477.883 315.172V292.12C477.883 291.246 478.432 290.537 479.109 290.537H521.802C522.484 290.537 523.033 291.246 523.033 292.12Z" fill="#2D3D57"/>
<path fill-rule="evenodd" clip-rule="evenodd" d="M205.46 239.899H249.223V233.018C249.223 231.72 241.62 229.919 227.34 229.919C213.065 229.919 205.46 231.72 205.46 233.018V239.899ZM250.468 241.135H204.215V233.018C204.215 228.892 223.482 228.684 227.34 228.684C231.203 228.684 250.468 228.892 250.468 233.018V241.135Z" fill="#2D3D57"/>
<path fill-rule="evenodd" clip-rule="evenodd" d="M201.883 242.967C201.883 241.956 202.525 241.134 203.319 241.134H250.875C251.67 241.134 252.317 241.956 252.317 242.967V261.92C252.726 261.825 253.139 261.749 253.562 261.722V242.967C253.562 241.275 252.356 239.899 250.875 239.899H203.319C201.843 239.899 200.637 241.275 200.637 242.967V291.417C201.035 291.123 201.45 290.863 201.883 290.632V242.967Z" fill="#2D3D57"/>
<path fill-rule="evenodd" clip-rule="evenodd" d="M115.491 289.301H154.649V283.186C154.649 282.076 147.679 280.467 135.07 280.467C122.461 280.467 115.491 282.076 115.491 283.186V289.301ZM155.894 290.537H114.245V283.186C114.245 279.516 130.188 279.233 135.07 279.233C139.953 279.233 155.894 279.516 155.894 283.186V290.537Z" fill="#2D3D57"/>
<path fill-rule="evenodd" clip-rule="evenodd" d="M157.429 292.12V315.09C157.828 314.885 158.247 314.719 158.674 314.574V292.12C158.674 290.566 157.561 289.302 156.199 289.302H113.505C112.143 289.302 111.029 290.566 111.029 292.12V340.583C111.415 340.344 111.858 340.124 112.275 339.895V292.12C112.275 291.246 112.823 290.537 113.505 290.537H156.199C156.88 290.537 157.429 291.246 157.429 292.12Z" fill="#2D3D57"/>
<path fill-rule="evenodd" clip-rule="evenodd" d="M7.68985 420.529C6.0079 398.894 37.3289 383.882 37.6823 383.716L281.548 249.821C281.375 249.443 281.225 249.056 281.109 248.654L37.1181 382.618C35.7653 383.253 3.9788 398.484 6.5228 421.389L6.60622 422.111L7.30681 421.915C16.2727 419.426 225.633 364.199 227.609 363.657L282.809 361.828V360.596L227.433 362.447C225.359 362.994 23.7441 416.177 7.68985 420.529Z" fill="#2D3D57"/>
<path fill-rule="evenodd" clip-rule="evenodd" d="M1.41497 425.078C-0.762137 401.823 18.4991 391.584 18.7099 391.477L280.843 247.551C280.773 247.105 280.737 246.655 280.734 246.203L18.1268 390.388C17.9205 390.491 -2.48804 401.311 0.25331 425.932L0.336734 426.655L1.03732 426.46C10.6903 423.78 221.335 370.378 223.33 369.856L282.809 367.891V366.66L223.157 368.64C221.069 369.173 17.8379 420.691 1.41497 425.078Z" fill="#2D3D57"/>
<path fill-rule="evenodd" clip-rule="evenodd" d="M295.779 568.398L214.751 626.685C207.471 631.902 203.653 636.5 203.388 640.345L203.393 655.016L306.805 628.779C302.756 614.957 299.045 594.654 295.779 568.398ZM202.147 656.606V640.302C202.436 636.03 206.431 631.126 214.025 625.681L296.755 566.172L296.883 567.212C300.222 594.299 304.02 615.099 308.177 629.042L308.364 629.657L307.737 629.818L202.147 656.606Z" fill="#2D3D57"/>
<path fill-rule="evenodd" clip-rule="evenodd" d="M295.902 563.82L206.398 628.198C201.656 631.599 198.711 636.9 198.319 642.726L197.406 659.58L308.109 630.614C303.623 615.348 299.515 592.888 295.902 563.82ZM196.073 661.21L197.083 642.653C197.5 636.445 200.628 630.814 205.672 627.192L296.878 561.594L297.005 562.634C300.692 592.527 304.888 615.485 309.477 630.872L309.663 631.483L309.04 631.643L196.073 661.21Z" fill="#2D3D57"/>
<path fill-rule="evenodd" clip-rule="evenodd" d="M79.3165 390.354L79.2528 390.451L66.9929 408.295L68.4282 407.929L79.8018 390.988L79.9982 390.92L217.658 342.233L268.278 332.245L271.425 365.918L272.181 365.849L268.955 331.342L217.451 341.506L79.3165 390.354ZM64.1099 410.306L78.493 389.33L78.6993 389.26L217.124 340.317L270.064 329.863L273.534 366.962L270.308 367.264L267.171 333.723L217.987 343.421L80.6055 392.013L69.1934 409.013L64.1099 410.306Z" fill="#2D3D57"/>
<path fill-rule="evenodd" clip-rule="evenodd" d="M1.41497 425.078C-0.762137 401.823 18.4991 391.584 18.7099 391.477L280.843 247.551C280.773 247.105 280.737 246.655 280.734 246.203L18.1268 390.388C17.9205 390.491 -2.48804 401.311 0.25331 425.932L0.336734 426.655L1.03732 426.46C10.6903 423.78 221.335 370.378 223.33 369.856L282.809 367.891V366.66L223.157 368.64C221.069 369.173 17.8379 420.691 1.41497 425.078Z" fill="#2D3D57"/>
<path fill-rule="evenodd" clip-rule="evenodd" d="M316.183 649.965H319.604C322.546 646.338 325.438 639.916 328.198 630.868C332.787 615.485 336.983 592.527 340.67 562.634C345.332 525.513 348.038 486.666 349.239 466.811C349.832 457.308 350.244 442.54 350.597 428.002C351.12 409.159 351.592 388.119 351.959 367.162C352.587 330.366 353.156 286.952 353.563 244.917C353.989 205.912 354.302 168.877 354.552 139.12C354.763 113.544 354.935 93.3442 355.082 83.5055C355.656 50.15 341.709 20.5739 328.507 7.20936C324.885 3.5416 321.516 1.43846 319.262 1.43846H315.737C313.516 1.43846 310.192 3.51481 306.614 7.13524C293.427 20.4917 279.495 50.0857 280.073 83.5055C280.235 93.8497 280.436 115.606 280.686 143.151C281.416 222.577 282.638 355.509 284.956 428.075C285.274 444.2 285.744 457.592 286.314 466.811C289.314 514.684 298.217 628.096 316.183 649.965ZM320.188 651.205H315.604L315.417 650.985C297.089 629.379 288.094 515.045 285.078 466.889C284.505 457.65 284.034 444.239 283.711 428.104C281.397 355.537 280.175 222.593 279.445 143.164C279.196 115.619 278.995 93.864 278.827 83.5251C278.25 49.7499 292.367 19.8032 305.732 6.27255C309.594 2.35741 313.149 0.203369 315.737 0.203369H319.262C321.884 0.203369 325.482 2.38242 329.395 6.34221C342.768 19.8862 356.901 49.8151 356.328 83.5251C356.175 93.3585 356.008 113.557 355.793 139.13C355.543 168.889 355.229 205.924 354.808 244.928C354.396 286.967 353.828 330.382 353.205 367.182C352.832 388.148 352.361 409.188 351.842 428.031C351.485 442.585 351.073 457.363 350.475 466.889C349.279 486.752 346.567 525.63 341.905 562.786C338.209 592.747 333.998 615.772 329.385 631.224C326.517 640.619 323.488 647.267 320.374 650.981L320.188 651.205Z" fill="#2D3D57"/>
<path fill-rule="evenodd" clip-rule="evenodd" d="M317.575 509.842C316.403 518.407 315.276 555.947 315.281 610.194C315.281 664.434 316.408 701.976 317.575 710.541C318.747 701.971 319.874 664.434 319.874 610.194C319.874 555.947 318.747 518.407 317.575 509.842ZM317.575 713.366C316.728 713.366 315.762 713.366 314.893 682.728C314.34 663.356 314.036 637.598 314.036 610.194C314.036 582.809 314.34 557.046 314.889 537.66C315.762 507.021 316.728 507.021 317.575 507.021C318.423 507.021 319.389 507.021 320.261 537.66C320.815 557.041 321.12 582.8 321.12 610.194C321.12 637.588 320.815 663.348 320.261 682.728C319.389 713.366 318.423 713.366 317.575 713.366Z" fill="#2D3D57"/>
<path fill-rule="evenodd" clip-rule="evenodd" d="M316.183 649.965H319.604C322.546 646.338 325.438 639.916 328.198 630.868C332.787 615.485 336.983 592.527 340.67 562.634C345.332 525.513 348.038 486.666 349.239 466.811C349.832 457.308 350.244 442.54 350.597 428.002C351.12 409.159 351.592 388.119 351.959 367.162C352.587 330.366 353.156 286.952 353.563 244.917C353.989 205.912 354.302 168.877 354.552 139.12C354.763 113.544 354.935 93.3442 355.082 83.5055C355.656 50.15 341.709 20.5739 328.507 7.20936C324.885 3.5416 321.516 1.43846 319.262 1.43846H315.737C313.516 1.43846 310.192 3.51481 306.614 7.13524C293.427 20.4917 279.495 50.0857 280.073 83.5055C280.235 93.8497 280.436 115.606 280.686 143.151C281.416 222.577 282.638 355.509 284.956 428.075C285.274 444.2 285.744 457.592 286.314 466.811C289.314 514.684 298.217 628.096 316.183 649.965ZM320.188 651.205H315.604L315.417 650.985C297.089 629.379 288.094 515.045 285.078 466.889C284.505 457.65 284.034 444.239 283.711 428.104C281.397 355.537 280.175 222.593 279.445 143.164C279.196 115.619 278.995 93.864 278.827 83.5251C278.25 49.7499 292.367 19.8032 305.732 6.27255C309.594 2.35741 313.149 0.203369 315.737 0.203369H319.262C321.884 0.203369 325.482 2.38242 329.395 6.34221C342.768 19.8862 356.901 49.8151 356.328 83.5251C356.175 93.3585 356.008 113.557 355.793 139.13C355.543 168.889 355.229 205.924 354.808 244.928C354.396 286.967 353.828 330.382 353.205 367.182C352.832 388.148 352.361 409.188 351.842 428.031C351.485 442.585 351.073 457.363 350.475 466.889C349.279 486.752 346.567 525.63 341.905 562.786C338.209 592.747 333.998 615.772 329.385 631.224C326.517 640.619 323.488 647.267 320.374 650.981L320.188 651.205Z" fill="#2D3D57"/>
<path fill-rule="evenodd" clip-rule="evenodd" d="M317.575 509.842C316.403 518.407 315.276 555.947 315.281 610.194C315.281 664.434 316.408 701.976 317.575 710.541C318.747 701.971 319.874 664.434 319.874 610.194C319.874 555.947 318.747 518.407 317.575 509.842ZM317.575 713.366C316.728 713.366 315.762 713.366 314.893 682.728C314.34 663.356 314.036 637.598 314.036 610.194C314.036 582.809 314.34 557.046 314.889 537.66C315.762 507.021 316.728 507.021 317.575 507.021C318.423 507.021 319.389 507.021 320.261 537.66C320.815 557.041 321.12 582.8 321.12 610.194C321.12 637.588 320.815 663.348 320.261 682.728C319.389 713.366 318.423 713.366 317.575 713.366Z" fill="#2D3D57"/>
<path fill-rule="evenodd" clip-rule="evenodd" d="M315.153 39.7419C309.497 40.4885 304.099 41.9424 299.114 44.0679C298.903 44.159 298.628 44.5707 298.536 45.1029C297.878 48.868 297.226 52.6456 296.574 56.4331C296.476 57.0091 296.633 57.3627 296.721 57.419C296.727 57.4163 296.741 57.4136 296.761 57.4038C302.349 55.5472 308.168 54.6514 314.595 54.6514L315.119 54.6541C315.227 54.6425 315.531 54.2076 315.511 53.5735L315.555 40.635C315.542 40.0616 315.266 39.7419 315.153 39.7419ZM296.717 58.6541C296.343 58.6541 296.001 58.4907 295.751 58.1924C295.359 57.736 295.216 57.0189 295.349 56.2259C296.001 52.4358 296.653 48.6582 297.31 44.8939C297.471 43.9786 297.986 43.2096 298.623 42.9337C303.717 40.7645 309.222 39.2775 314.982 38.5167L315.153 38.5068C316.061 38.5068 316.766 39.4151 316.8 40.6207L316.756 53.5583C316.786 54.7738 316.09 55.8061 315.169 55.8865H314.595C308.3 55.8865 302.614 56.7599 297.201 58.5585C297.075 58.6175 296.893 58.6541 296.717 58.6541Z" fill="#2D3D57"/>
<path fill-rule="evenodd" clip-rule="evenodd" d="M290.799 48.2364C290.314 48.7124 289.858 49.2125 289.53 49.6001C289.491 49.6421 289.471 49.6787 289.432 49.7689C288.462 52.0337 283.417 65.0178 281.063 75.8746C282.211 73.9367 283.377 72.4283 283.539 72.2211C283.646 72.0827 283.735 71.8889 283.785 71.6844C284.441 69.1446 288.163 55.413 290.799 48.2364ZM280.092 79.2709H279.798L279.549 79.0146C279.338 78.7663 279.298 78.4028 279.412 77.8018C281.52 66.4717 287.245 51.7238 288.289 49.2884C288.368 49.0955 288.452 48.9535 288.578 48.8053C288.785 48.5615 290.618 46.4334 291.941 45.7403L293.486 44.9348L292.799 46.528C290.407 52.1141 286.015 67.9925 284.99 71.9871C284.898 72.356 284.735 72.698 284.525 72.9731C283.775 73.9295 282.235 76.113 281.176 78.2608C280.823 78.9681 280.501 79.2709 280.092 79.2709Z" fill="#2D3D57"/>
<path fill-rule="evenodd" clip-rule="evenodd" d="M294.48 45.4202C293.486 48.0243 289.368 60.2011 287.446 67.7143C289.054 65.4835 290.971 62.9999 291.255 62.6436C291.952 61.1477 292.648 59.6903 293.344 58.2507C294.138 53.814 294.917 49.4487 295.701 45.0978L295.339 44.637C295.054 44.896 294.765 45.1567 294.48 45.4202ZM286.515 70.5641H286.509H286.216L285.926 70.281C285.74 70.0523 285.686 69.7183 285.775 69.3441C287.534 61.5505 292.574 46.8821 293.373 44.8397L293.529 44.6102C294.025 44.1556 294.515 43.71 295.01 43.2733L295.501 42.8357L297.02 44.7754L296.97 45.0469C296.173 49.4827 295.378 53.939 294.583 58.4141C294.555 58.5436 294.521 58.6588 294.471 58.7704C293.765 60.2225 293.079 61.6746 292.393 63.1437C292.334 63.2535 292.29 63.3241 292.246 63.3857C291.868 63.8608 288.907 67.7117 287.274 70.1059C287.005 70.5033 286.681 70.5641 286.515 70.5641Z" fill="#2D3D57"/>
<path fill-rule="evenodd" clip-rule="evenodd" d="M320.561 54.6517C326.898 54.6517 332.884 55.5715 338.34 57.3871L338.44 58.0363V57.4192C338.434 57.4192 338.429 57.4192 338.429 57.421C338.513 57.3799 338.679 57.0236 338.576 56.4333L336.62 45.1032C336.527 44.5736 336.253 44.1583 336.037 44.0663C331.051 41.9427 325.66 40.4888 320.002 39.7422C319.889 39.7422 319.609 40.0619 319.59 40.6567L319.644 53.5541C319.624 54.2203 319.923 54.6418 320.094 54.6561L320.561 54.6517ZM338.44 58.6534C338.258 58.6534 338.081 58.6168 337.904 58.5409C332.542 56.7602 326.855 55.8868 320.561 55.8868L320.046 55.8894C319.065 55.8055 318.369 54.7758 318.399 53.5389L318.35 40.6397C318.394 39.4144 319.1 38.5071 319.997 38.5071L320.164 38.5169C325.933 39.2778 331.438 40.7647 336.527 42.9313C337.169 43.209 337.684 43.9779 337.846 44.8933L339.802 56.2234C339.94 57.0138 339.797 57.7309 339.409 58.1899C339.156 58.4873 338.812 58.6534 338.44 58.6534Z" fill="#2D3D57"/>
<path fill-rule="evenodd" clip-rule="evenodd" d="M344.356 48.2364C347.043 55.5478 350.822 69.5563 351.366 71.6817C351.42 71.8871 351.514 72.0845 351.622 72.2265C351.783 72.431 352.944 73.942 354.093 75.8817C351.509 63.9023 345.788 49.9127 345.729 49.7734C345.684 49.676 345.665 49.6474 345.631 49.6073C345.395 49.3295 344.91 48.783 344.356 48.2364ZM355.063 79.2709C354.655 79.2709 354.327 78.9681 353.979 78.2608C352.92 76.113 351.381 73.9313 350.636 72.9775C350.425 72.7025 350.263 72.3631 350.165 71.9916C349.19 68.1872 344.768 52.1676 342.357 46.528L341.669 44.9348L343.214 45.7403C344.592 46.4601 346.552 48.7803 346.573 48.8053C346.694 48.9437 346.783 49.0884 346.871 49.2956C347.906 51.7184 353.631 66.4458 355.744 77.8018C355.856 78.4028 355.818 78.7663 355.607 79.0146L355.421 79.2396L355.063 79.2709Z" fill="#2D3D57"/>
<path fill-rule="evenodd" clip-rule="evenodd" d="M339.454 45.098C340.239 49.4463 341.017 53.8142 341.797 58.2C342.507 59.6905 343.204 61.148 343.89 62.626C344.292 63.1368 346.145 65.5498 347.699 67.7003C345.768 60.1299 341.665 48.0147 340.675 45.4222C340.39 45.157 340.101 44.8953 339.811 44.6372L339.454 45.098ZM348.635 70.5643C348.469 70.5643 348.145 70.5036 347.876 70.1053C346.209 67.653 343.213 63.7735 342.93 63.4118C342.861 63.3342 342.802 63.2386 342.758 63.1314C342.077 61.6749 341.391 60.2228 340.694 58.7885C340.631 58.6617 340.596 58.5215 340.577 58.4295C339.778 53.9392 338.984 49.4829 338.185 45.0462L338.14 44.7783L339.639 42.8359L340.14 43.2709C340.641 43.7102 341.13 44.1559 341.626 44.6149L341.783 44.8417C342.581 46.8841 347.62 61.5454 349.377 69.3462C349.464 69.7177 349.411 70.0517 349.224 70.2812L349.038 70.5125L348.635 70.5643Z" fill="#2D3D57"/>
<path fill-rule="evenodd" clip-rule="evenodd" d="M345.931 213.906C346.009 213.947 345.847 214.284 345.847 214.892L345.842 216.522L345.847 217.34C345.847 218.34 346.248 219.03 346.42 219.106C347.068 219.385 347.705 219.692 348.346 220.033C348.405 219.914 348.484 219.66 348.484 219.223V216.778C348.484 215.787 348.078 214.958 347.857 214.838C347.22 214.499 346.577 214.186 345.931 213.906ZM348.401 221.317C348.214 221.317 348.033 221.271 347.861 221.175C347.214 220.829 346.573 220.516 345.931 220.238C345.057 219.862 344.602 218.496 344.602 217.34V214.887C344.602 213.569 345.156 212.679 345.979 212.679C346.132 212.679 346.279 212.71 346.42 212.773C347.097 213.065 347.769 213.391 348.45 213.752C349.278 214.203 349.729 215.648 349.729 216.778V219.223C349.729 219.753 349.636 220.216 349.464 220.568C349.23 221.043 348.841 221.317 348.401 221.317Z" fill="#2D3D57"/>
<path fill-rule="evenodd" clip-rule="evenodd" d="M345.925 242.403C346.009 242.444 345.847 242.782 345.847 243.389L345.842 245.841C345.842 246.837 346.254 247.53 346.426 247.605C347.067 247.884 347.704 248.191 348.346 248.53C348.406 248.411 348.484 248.156 348.484 247.722V245.275C348.484 244.284 348.077 243.46 347.857 243.34C347.214 242.993 346.573 242.683 345.925 242.403ZM348.401 249.814C348.22 249.814 348.033 249.767 347.857 249.673C347.214 249.325 346.573 249.015 345.931 248.739C345.062 248.36 344.607 246.994 344.597 245.839L344.601 243.385C344.601 242.066 345.156 241.178 345.984 241.178C346.131 241.178 346.279 241.207 346.42 241.27C347.102 241.566 347.774 241.891 348.445 242.251C349.278 242.698 349.729 244.142 349.729 245.275V247.722C349.729 248.25 349.636 248.715 349.464 249.067C349.233 249.543 348.847 249.814 348.401 249.814Z" fill="#2D3D57"/>
<path fill-rule="evenodd" clip-rule="evenodd" d="M345.931 223.406C346.003 223.447 345.842 223.784 345.842 224.393L345.847 226.832C345.847 227.837 346.254 228.53 346.426 228.605C347.068 228.884 347.705 229.194 348.346 229.533C348.406 229.411 348.484 229.157 348.484 228.723V226.275C348.484 225.285 348.078 224.459 347.857 224.34C347.214 223.993 346.573 223.684 345.931 223.406ZM348.401 230.814C348.22 230.814 348.033 230.767 347.857 230.672C347.214 230.329 346.573 230.016 345.931 229.738C345.057 229.357 344.602 227.991 344.602 226.837L344.597 224.392C344.607 223.066 345.161 222.178 345.979 222.178C346.132 222.178 346.279 222.21 346.42 222.272C347.102 222.566 347.774 222.891 348.445 223.251C349.278 223.699 349.729 225.143 349.729 226.275V228.723C349.729 229.25 349.636 229.716 349.464 230.067C349.234 230.543 348.847 230.814 348.401 230.814Z" fill="#2D3D57"/>
<path fill-rule="evenodd" clip-rule="evenodd" d="M345.925 251.903C346.008 251.944 345.847 252.281 345.847 252.889C345.842 253.706 345.842 254.519 345.847 255.332C345.847 256.337 346.248 257.029 346.426 257.105C347.067 257.384 347.704 257.691 348.346 258.03C348.405 257.911 348.484 257.656 348.484 257.222V254.775C348.484 253.784 348.077 252.96 347.856 252.84C347.214 252.493 346.573 252.183 345.925 251.903ZM348.401 259.314C348.22 259.314 348.033 259.267 347.856 259.172C347.214 258.825 346.573 258.515 345.93 258.238C345.057 257.857 344.601 256.491 344.601 255.336C344.597 254.524 344.597 253.701 344.601 252.884C344.601 251.332 345.469 250.341 346.42 250.77C347.102 251.066 347.774 251.391 348.445 251.751C349.288 252.202 349.728 253.613 349.728 254.775V257.222C349.728 257.75 349.636 258.215 349.464 258.566C349.233 259.043 348.847 259.314 348.401 259.314Z" fill="#2D3D57"/>
<path fill-rule="evenodd" clip-rule="evenodd" d="M345.931 232.906C346.003 232.947 345.842 233.283 345.842 233.893L345.847 236.331C345.847 237.337 346.254 238.03 346.426 238.105C347.068 238.384 347.705 238.692 348.346 239.03C348.406 238.911 348.484 238.657 348.484 238.222V235.775C348.484 234.785 348.078 233.959 347.857 233.84C347.214 233.493 346.573 233.183 345.931 232.906ZM348.401 240.314C348.22 240.314 348.033 240.267 347.857 240.172C347.214 239.826 346.573 239.515 345.931 239.238C345.057 238.857 344.602 237.491 344.602 236.337L344.597 233.892C344.607 232.566 345.161 231.678 345.979 231.678C346.132 231.678 346.279 231.709 346.42 231.772C347.102 232.066 347.774 232.39 348.445 232.751C349.278 233.199 349.729 234.643 349.729 235.775V238.222C349.729 238.75 349.636 239.215 349.464 239.567C349.234 240.043 348.847 240.314 348.401 240.314Z" fill="#2D3D57"/>
<path fill-rule="evenodd" clip-rule="evenodd" d="M345.931 280.402C346.003 280.443 345.842 280.78 345.842 281.39V283.841C345.842 284.834 346.254 285.527 346.426 285.602C347.068 285.878 347.705 286.188 348.346 286.529C348.406 286.408 348.484 286.154 348.484 285.721V283.274C348.484 282.283 348.078 281.456 347.857 281.336C347.214 280.993 346.573 280.681 345.931 280.402ZM348.406 287.813C348.22 287.813 348.039 287.764 347.861 287.672C347.214 287.324 346.573 287.014 345.931 286.735C345.062 286.356 344.607 284.992 344.597 283.838L344.602 282.203L344.597 281.388C344.607 280.063 345.161 279.174 345.979 279.174C346.132 279.174 346.279 279.206 346.42 279.269C347.102 279.563 347.774 279.89 348.445 280.248C349.288 280.702 349.729 282.115 349.729 283.274V285.721C349.729 286.249 349.636 286.712 349.464 287.064C349.234 287.54 348.847 287.813 348.406 287.813Z" fill="#2D3D57"/>
<path fill-rule="evenodd" clip-rule="evenodd" d="M345.925 261.402C346.003 261.443 345.842 261.781 345.842 262.39V264.836C345.842 265.836 346.254 266.529 346.426 266.604C347.067 266.883 347.704 267.19 348.346 267.53C348.406 267.411 348.484 267.156 348.484 266.722V264.274C348.484 263.283 348.077 262.454 347.857 262.335C347.214 261.995 346.573 261.683 345.925 261.402ZM348.401 268.814C348.22 268.814 348.033 268.767 347.861 268.672C347.214 268.325 346.573 268.015 345.931 267.738C345.062 267.359 344.607 265.993 344.597 264.839L344.601 264.019L344.597 262.393C344.607 261.063 345.16 260.175 345.979 260.175C346.131 260.175 346.279 260.207 346.42 260.27C347.102 260.566 347.774 260.888 348.449 261.249C349.278 261.7 349.729 263.145 349.729 264.274V266.722C349.729 267.252 349.636 267.715 349.464 268.066C349.23 268.541 348.841 268.814 348.401 268.814Z" fill="#2D3D57"/>
<path fill-rule="evenodd" clip-rule="evenodd" d="M345.931 270.902C346.003 270.943 345.842 271.281 345.842 271.89V274.336C345.842 275.336 346.248 276.027 346.42 276.102C347.068 276.383 347.705 276.688 348.346 277.029C348.406 276.908 348.484 276.654 348.484 276.222V273.774C348.484 272.783 348.078 271.956 347.857 271.836C347.214 271.493 346.573 271.181 345.931 270.902ZM348.406 278.313C348.22 278.313 348.039 278.265 347.861 278.172C347.214 277.825 346.573 277.515 345.925 277.235C345.062 276.862 344.607 275.495 344.597 274.338L344.602 273.518L344.597 271.893C344.607 270.563 345.161 269.674 345.979 269.674C346.132 269.674 346.279 269.706 346.42 269.769C347.102 270.063 347.774 270.39 348.445 270.748C349.288 271.202 349.729 272.615 349.729 273.774V276.222C349.729 276.749 349.636 277.213 349.464 277.564C349.234 278.04 348.847 278.313 348.406 278.313Z" fill="#2D3D57"/>
<path fill-rule="evenodd" clip-rule="evenodd" d="M345.931 204.406C346.003 204.448 345.842 204.784 345.842 205.394V207.845C345.842 208.841 346.248 209.53 346.42 209.606C347.068 209.887 347.705 210.192 348.346 210.533C348.406 210.412 348.484 210.157 348.484 209.726V207.279C348.484 206.287 348.078 205.46 347.857 205.341C347.214 204.996 346.573 204.684 345.931 204.406ZM348.406 211.817C348.22 211.817 348.039 211.768 347.861 211.675C347.214 211.329 346.573 211.019 345.925 210.738C345.062 210.365 344.607 208.999 344.597 207.842L344.602 206.207L344.597 205.392C344.607 204.067 345.161 203.179 345.979 203.179C346.132 203.179 346.279 203.21 346.42 203.273C347.102 203.567 347.774 203.894 348.445 204.252C349.288 204.706 349.729 206.119 349.729 207.279V209.726C349.729 210.253 349.636 210.716 349.464 211.068C349.234 211.544 348.847 211.817 348.406 211.817Z" fill="#2D3D57"/>
<path fill-rule="evenodd" clip-rule="evenodd" d="M345.931 289.902C346.003 289.943 345.842 290.28 345.842 290.889V293.338C345.842 294.334 346.254 295.027 346.426 295.102C347.068 295.38 347.705 295.689 348.346 296.029C348.406 295.907 348.484 295.653 348.484 295.219V292.774C348.484 291.781 348.078 290.956 347.857 290.836C347.214 290.489 346.573 290.18 345.931 289.902ZM348.401 297.31C348.22 297.31 348.033 297.264 347.857 297.169C347.214 296.824 346.573 296.512 345.931 296.235C345.062 295.856 344.607 294.489 344.597 293.335L344.602 291.705L344.597 290.888C344.607 289.562 345.161 288.674 345.979 288.674C346.132 288.674 346.279 288.706 346.42 288.769C347.102 289.063 347.774 289.387 348.445 289.748C349.288 290.2 349.729 291.61 349.729 292.774V295.219C349.729 295.746 349.636 296.212 349.464 296.564C349.234 297.04 348.847 297.31 348.401 297.31Z" fill="#2D3D57"/>
<path fill-rule="evenodd" clip-rule="evenodd" d="M345.931 308.902C346.003 308.943 345.842 309.278 345.842 309.887L345.847 312.328C345.847 313.333 346.254 314.026 346.426 314.102C347.068 314.38 347.705 314.688 348.346 315.026C348.406 314.907 348.484 314.653 348.484 314.219V311.771C348.484 310.781 348.078 309.956 347.857 309.836C347.214 309.489 346.573 309.18 345.931 308.902ZM348.401 316.309C348.22 316.309 348.033 316.264 347.857 316.168C347.214 315.822 346.573 315.512 345.931 315.234C345.057 314.853 344.602 313.486 344.602 312.333L344.597 309.889C344.607 308.562 345.161 307.674 345.979 307.674C346.132 307.674 346.279 307.706 346.42 307.769C347.102 308.063 347.774 308.387 348.445 308.748C349.278 309.194 349.729 310.639 349.729 311.771V314.219C349.729 314.746 349.636 315.212 349.464 315.563C349.234 316.039 348.847 316.309 348.401 316.309Z" fill="#2D3D57"/>
<path fill-rule="evenodd" clip-rule="evenodd" d="M345.925 327.899C346.003 327.94 345.842 328.277 345.842 328.887L345.847 331.327C345.847 332.333 346.254 333.025 346.426 333.101C347.067 333.38 347.704 333.687 348.346 334.026C348.406 333.906 348.484 333.653 348.484 333.218V330.771C348.484 329.78 348.077 328.955 347.857 328.836C347.214 328.489 346.573 328.178 345.925 327.899ZM348.401 335.309C348.22 335.309 348.033 335.263 347.857 335.168C347.214 334.822 346.573 334.511 345.931 334.234C345.057 333.853 344.601 332.486 344.601 331.332L344.597 328.888C344.607 327.321 345.478 326.342 346.42 326.766C347.102 327.062 347.774 327.386 348.445 327.747C349.288 328.199 349.729 329.609 349.729 330.771V333.218C349.729 333.746 349.636 334.211 349.464 334.563C349.233 335.039 348.847 335.309 348.401 335.309Z" fill="#2D3D57"/>
<path fill-rule="evenodd" clip-rule="evenodd" d="M345.925 346.898C346.003 346.94 345.842 347.277 345.842 347.886V350.332C345.842 351.332 346.248 352.022 346.42 352.098C347.067 352.377 347.704 352.686 348.346 353.025C348.406 352.904 348.484 352.649 348.484 352.215V349.771C348.484 348.765 348.052 347.958 347.817 347.809C347.695 347.729 347.249 347.476 345.925 346.898ZM348.401 354.307C348.22 354.307 348.033 354.26 347.857 354.166C347.214 353.821 346.573 353.508 345.931 353.231C345.062 352.857 344.607 351.491 344.597 350.335L344.601 349.515L344.597 347.888C344.611 346.316 345.484 345.371 346.426 345.766C347.131 346.076 348.067 346.501 348.488 346.767C349.196 347.222 349.729 348.514 349.729 349.771V352.215C349.729 352.743 349.636 353.208 349.464 353.56C349.233 354.036 348.847 354.307 348.401 354.307Z" fill="#2D3D57"/>
<path fill-rule="evenodd" clip-rule="evenodd" d="M345.925 365.898C346.009 365.937 345.847 366.274 345.847 366.884L345.842 369.334C345.842 370.33 346.248 371.023 346.42 371.096C347.067 371.374 347.704 371.682 348.346 372.028C348.406 371.907 348.484 371.652 348.484 371.218V368.768C348.484 367.777 348.077 366.952 347.857 366.835C347.214 366.489 346.573 366.181 345.925 365.898ZM348.401 373.306C348.22 373.306 348.038 373.262 347.861 373.17C347.214 372.818 346.573 372.511 345.925 372.228C345.062 371.858 344.607 370.491 344.597 369.334L344.601 366.88C344.601 365.318 345.464 364.351 346.426 364.765C347.102 365.059 347.774 365.386 348.445 365.746C349.288 366.196 349.729 367.606 349.729 368.768V371.218C349.729 371.745 349.636 372.213 349.464 372.565C349.23 373.038 348.841 373.306 348.401 373.306Z" fill="#2D3D57"/>
<path fill-rule="evenodd" clip-rule="evenodd" d="M345.931 356.398C346.003 356.439 345.842 356.777 345.842 357.386V359.836C345.842 360.832 346.254 361.525 346.426 361.598C347.068 361.876 347.705 362.184 348.346 362.52C348.406 362.404 348.484 362.145 348.484 361.715V359.27C348.484 358.279 348.078 357.453 347.857 357.332C347.214 356.986 346.573 356.677 345.931 356.398ZM348.406 363.809C348.22 363.809 348.039 363.76 347.861 363.662C347.214 363.321 346.573 363.014 345.925 362.731C345.062 362.35 344.607 360.988 344.597 359.834L344.602 358.199L344.597 357.384C344.607 356.059 345.161 355.17 345.979 355.17C346.132 355.17 346.279 355.202 346.42 355.266C347.102 355.56 347.774 355.884 348.445 356.245C349.288 356.698 349.729 358.111 349.729 359.27V361.715C349.729 362.242 349.636 362.706 349.464 363.058C349.234 363.535 348.847 363.809 348.406 363.809Z" fill="#2D3D57"/>
<path fill-rule="evenodd" clip-rule="evenodd" d="M345.2 178.037C344.704 178.037 344.071 178.984 344.071 180.843V192.552C344.071 194.657 344.924 196.463 345.684 196.768C348.023 197.701 350.999 199.103 353.921 201.802V183.649C350.882 180.541 347.685 179.019 345.223 178.037H345.2ZM355.165 204.821L354.092 203.705C351.004 200.477 347.728 198.916 345.223 197.915C343.861 197.37 342.837 195.064 342.826 192.554V180.841C342.837 178.444 343.763 176.773 345.087 176.773C345.288 176.773 345.489 176.812 345.684 176.89C348.308 177.937 351.739 179.574 354.994 182.973L355.165 183.153V204.821Z" fill="#2D3D57"/>
<path fill-rule="evenodd" clip-rule="evenodd" d="M345.925 185.101C346.003 185.143 345.842 185.48 345.842 186.089V188.535C345.842 189.535 346.248 190.226 346.42 190.301C347.067 190.582 347.704 190.889 348.346 191.228C348.406 191.11 348.484 190.855 348.484 190.421V187.974C348.484 186.982 348.077 186.159 347.857 186.039C347.214 185.692 346.573 185.382 345.925 185.101ZM348.401 192.513C348.214 192.513 348.033 192.466 347.861 192.371C347.214 192.024 346.573 191.714 345.925 191.434C345.062 191.061 344.607 189.694 344.597 188.538L344.601 187.718L344.597 186.092C344.607 184.762 345.16 183.873 345.979 183.873C346.131 183.873 346.279 183.905 346.42 183.969C347.102 184.264 347.774 184.589 348.445 184.95C349.288 185.401 349.729 186.811 349.729 187.974V190.421C349.729 190.948 349.636 191.413 349.464 191.766C349.23 192.239 348.841 192.513 348.401 192.513Z" fill="#2D3D57"/>
<path fill-rule="evenodd" clip-rule="evenodd" d="M345.2 84.7521C344.704 84.7521 344.071 85.6987 344.071 87.5581V99.2669C344.077 101.372 344.924 103.178 345.684 103.48C348.386 104.559 351.807 106.211 355.004 109.552V91.5214C351.739 87.692 348.234 85.9497 345.223 84.7521H345.2ZM356.249 112.878L355.151 111.568C351.847 107.624 348.278 105.848 345.223 104.627C343.866 104.086 342.837 101.783 342.826 99.2687V87.5563C342.832 85.1593 343.763 83.4875 345.087 83.4875C345.288 83.4875 345.489 83.5268 345.684 83.6054C348.695 84.803 352.597 86.7159 356.101 90.9008L356.249 91.0722V112.878Z" fill="#2D3D57"/>
<path fill-rule="evenodd" clip-rule="evenodd" d="M345.931 91.8163C346.003 91.8574 345.842 92.1941 345.842 92.8049L345.847 95.2474C345.847 96.2476 346.254 96.9407 346.426 97.0166C347.068 97.2943 347.705 97.6024 348.346 97.9409C348.406 97.8194 348.484 97.5649 348.484 97.1336V94.6884C348.484 93.6953 348.082 92.8683 347.861 92.7514C347.214 92.4048 346.573 92.0967 345.931 91.8163ZM348.406 99.2251C348.22 99.2251 348.039 99.1786 347.861 99.0831C347.22 98.7419 346.577 98.4294 345.931 98.149C345.057 97.7685 344.602 96.4013 344.602 95.2474L344.597 92.8023C344.607 91.4779 345.161 90.5884 345.979 90.5884C346.132 90.5884 346.279 90.6205 346.42 90.6839C347.102 90.9777 347.774 91.301 348.45 91.6627C349.278 92.1119 349.729 93.556 349.729 94.6884V97.1336C349.729 97.6605 349.636 98.1266 349.464 98.4776C349.234 98.9518 348.847 99.2251 348.406 99.2251Z" fill="#2D3D57"/>
<path fill-rule="evenodd" clip-rule="evenodd" d="M289.074 232.888C288.583 233.183 287.936 233.494 287.295 233.839C287.074 233.956 286.671 234.784 286.671 235.777V238.223C286.671 238.652 286.75 238.908 286.81 239.031C287.451 238.689 288.093 238.381 288.736 238.106C288.902 238.03 289.31 237.337 289.31 236.336V233.891C289.31 233.283 289.147 232.946 289.074 232.888ZM286.75 240.313C286.142 240.313 285.427 239.767 285.427 238.223V235.777C285.427 234.645 285.878 233.201 286.706 232.752C287.377 232.39 288.054 232.066 288.736 231.773C288.877 231.709 289.024 231.678 289.177 231.678C290 231.678 290.554 232.569 290.554 233.891V236.336C290.554 237.49 290.099 238.857 289.231 239.238C288.583 239.516 287.936 239.826 287.295 240.172C287.117 240.268 286.936 240.313 286.75 240.313Z" fill="#2D3D57"/>
<path fill-rule="evenodd" clip-rule="evenodd" d="M289.074 251.886C288.583 252.183 287.936 252.493 287.295 252.84C287.074 252.957 286.671 253.784 286.671 254.775V257.223C286.671 257.654 286.75 257.908 286.81 258.03C287.455 257.689 288.093 257.381 288.736 257.106C288.907 257.03 289.31 256.337 289.31 255.336V252.889C289.31 252.281 289.147 251.944 289.074 251.886ZM286.75 259.313C286.142 259.313 285.427 258.767 285.427 257.223V254.775C285.427 253.642 285.878 252.201 286.706 251.752C287.377 251.39 288.054 251.066 288.73 250.77C289.677 250.361 290.554 251.321 290.554 252.889V255.336C290.554 256.49 290.099 257.858 289.231 258.237C288.583 258.516 287.941 258.826 287.295 259.171C287.117 259.268 286.936 259.313 286.75 259.313Z" fill="#2D3D57"/>
<path fill-rule="evenodd" clip-rule="evenodd" d="M289.074 242.386C288.583 242.683 287.941 242.993 287.295 243.34C287.074 243.457 286.671 244.285 286.671 245.275V247.723C286.671 248.155 286.75 248.408 286.81 248.53C287.455 248.189 288.093 247.881 288.736 247.606C288.902 247.531 289.31 246.837 289.31 245.836V243.391C289.31 242.782 289.147 242.444 289.074 242.386ZM286.75 249.813C286.142 249.813 285.427 249.267 285.427 247.723V245.275C285.427 244.143 285.878 242.701 286.706 242.252C287.383 241.89 288.054 241.566 288.73 241.27C289.702 240.839 290.554 241.827 290.554 243.391V245.836C290.554 246.99 290.099 248.358 289.231 248.738C288.583 249.019 287.941 249.326 287.295 249.672C287.117 249.768 286.936 249.813 286.75 249.813Z" fill="#2D3D57"/>
<path fill-rule="evenodd" clip-rule="evenodd" d="M289.074 289.885C288.583 290.182 287.941 290.489 287.295 290.836C287.074 290.953 286.671 291.781 286.671 292.774V295.219C286.671 295.651 286.75 295.904 286.81 296.027C287.451 295.685 288.093 295.377 288.736 295.102C288.902 295.027 289.31 294.333 289.31 293.332V290.888C289.31 290.28 289.147 289.943 289.074 289.885ZM286.75 297.31C286.142 297.31 285.427 296.763 285.427 295.219V292.774C285.427 291.642 285.878 290.197 286.706 289.748C287.383 289.387 288.054 289.062 288.736 288.769C288.877 288.706 289.024 288.675 289.177 288.675C290 288.675 290.554 289.565 290.554 290.888V293.332C290.554 294.487 290.099 295.854 289.231 296.234C288.583 296.512 287.936 296.825 287.295 297.169C287.117 297.264 286.936 297.31 286.75 297.31Z" fill="#2D3D57"/>
<path fill-rule="evenodd" clip-rule="evenodd" d="M289.074 270.885C288.579 271.183 287.936 271.496 287.295 271.836C287.078 271.954 286.671 272.784 286.671 273.774V276.223C286.671 276.654 286.75 276.908 286.81 277.027C287.446 276.688 288.088 276.383 288.73 276.102C288.907 276.027 289.31 275.336 289.31 274.336V271.888C289.31 271.281 289.147 270.943 289.074 270.885ZM286.755 278.312H286.75C286.142 278.312 285.427 277.764 285.427 276.223V273.774C285.427 272.644 285.878 271.2 286.7 270.751C287.387 270.387 288.059 270.061 288.736 269.769C288.877 269.707 289.024 269.675 289.177 269.675C290 269.675 290.554 270.566 290.554 271.888V274.336C290.554 275.492 290.099 276.859 289.226 277.234C288.583 277.516 287.936 277.825 287.295 278.171C287.117 278.265 286.936 278.312 286.755 278.312Z" fill="#2D3D57"/>
<path fill-rule="evenodd" clip-rule="evenodd" d="M289.074 280.385C288.583 280.68 287.936 280.993 287.295 281.336C287.078 281.453 286.671 282.284 286.671 283.274V285.722C286.671 286.151 286.75 286.405 286.81 286.527C287.451 286.185 288.093 285.877 288.736 285.602C288.902 285.527 289.31 284.833 289.31 283.835V281.388C289.31 280.78 289.147 280.443 289.074 280.385ZM286.75 287.81C286.142 287.81 285.427 287.264 285.427 285.722V283.274C285.427 282.144 285.878 280.7 286.7 280.251C287.377 279.889 288.054 279.562 288.736 279.269C288.877 279.206 289.024 279.175 289.177 279.175C290 279.175 290.554 280.065 290.554 281.388V283.835C290.554 284.989 290.099 286.354 289.231 286.734C288.583 287.012 287.936 287.325 287.295 287.669C287.117 287.764 286.936 287.81 286.75 287.81Z" fill="#2D3D57"/>
<path fill-rule="evenodd" clip-rule="evenodd" d="M289.074 213.888C288.583 214.184 287.936 214.497 287.295 214.84C287.078 214.957 286.671 215.787 286.671 216.777V219.223C286.671 219.655 286.75 219.911 286.81 220.033C287.451 219.691 288.088 219.384 288.73 219.106C288.902 219.031 289.31 218.337 289.31 217.339V214.892C289.31 214.284 289.147 213.946 289.074 213.888ZM286.755 221.317H286.75C286.142 221.317 285.427 220.768 285.427 219.223V216.777C285.427 215.649 285.878 214.204 286.7 213.755C287.377 213.394 288.054 213.067 288.736 212.774C288.877 212.71 289.024 212.679 289.177 212.679C290 212.679 290.554 213.57 290.554 214.892V217.339C290.554 218.493 290.099 219.858 289.231 220.238C288.583 220.519 287.941 220.828 287.295 221.175C287.117 221.269 286.936 221.317 286.755 221.317Z" fill="#2D3D57"/>
<path fill-rule="evenodd" clip-rule="evenodd" d="M289.074 261.385C288.583 261.683 287.941 261.996 287.295 262.336C287.078 262.454 286.671 263.284 286.671 264.274V266.723C286.671 267.154 286.75 267.408 286.81 267.53C287.455 267.188 288.093 266.881 288.736 266.605C288.902 266.53 289.31 265.836 289.31 264.836V262.389C289.31 261.781 289.147 261.443 289.074 261.385ZM286.75 268.813C286.142 268.813 285.427 268.267 285.427 266.723V264.274C285.427 263.145 285.878 261.7 286.7 261.252C287.383 260.887 288.054 260.566 288.73 260.27C289.677 259.852 290.554 260.819 290.554 262.389V264.836C290.554 265.989 290.099 267.357 289.231 267.737C288.583 268.018 287.941 268.325 287.295 268.671C287.117 268.768 286.936 268.813 286.75 268.813Z" fill="#2D3D57"/>
<path fill-rule="evenodd" clip-rule="evenodd" d="M289.074 223.388C288.583 223.684 287.936 223.994 287.295 224.339C287.074 224.457 286.671 225.284 286.671 226.275V228.723C286.671 229.155 286.75 229.408 286.81 229.531C287.455 229.189 288.093 228.881 288.736 228.606C288.902 228.53 289.31 227.837 289.31 226.836V224.391C289.31 223.784 289.147 223.446 289.074 223.388ZM286.75 230.814C286.142 230.814 285.427 230.267 285.427 228.723V226.275C285.427 225.143 285.878 223.701 286.706 223.252C287.377 222.891 288.054 222.566 288.736 222.273C288.877 222.21 289.024 222.178 289.177 222.178C290 222.178 290.554 223.069 290.554 224.391V226.836C290.554 227.99 290.099 229.357 289.231 229.738C288.579 230.018 287.936 230.33 287.295 230.672C287.117 230.768 286.936 230.814 286.75 230.814Z" fill="#2D3D57"/>
<path fill-rule="evenodd" clip-rule="evenodd" d="M289.074 118.893C288.583 119.19 287.936 119.501 287.295 119.844C287.078 119.962 286.671 120.792 286.671 121.782V124.23C286.671 124.661 286.75 124.916 286.81 125.037C287.455 124.696 288.093 124.388 288.736 124.113C288.907 124.037 289.31 123.344 289.31 122.344V119.896C289.31 119.289 289.147 118.951 289.074 118.893ZM286.75 126.32C286.142 126.32 285.427 125.775 285.427 124.23V121.782C285.427 120.653 285.878 119.208 286.7 118.759C287.377 118.397 288.054 118.073 288.73 117.777C289.677 117.368 290.554 118.329 290.554 119.896V122.344C290.554 123.497 290.099 124.865 289.231 125.245C288.583 125.523 287.941 125.833 287.295 126.179C287.117 126.275 286.936 126.32 286.75 126.32Z" fill="#2D3D57"/>
<path fill-rule="evenodd" clip-rule="evenodd" d="M289.074 128.393C288.579 128.69 287.936 129.003 287.295 129.344C287.078 129.462 286.671 130.292 286.671 131.282V133.73C286.671 134.161 286.75 134.416 286.81 134.534C287.446 134.196 288.088 133.891 288.73 133.61C288.907 133.534 289.31 132.844 289.31 131.844V129.396C289.31 128.789 289.147 128.451 289.074 128.393ZM286.755 135.82H286.75C286.142 135.82 285.427 135.272 285.427 133.73V131.282C285.427 130.152 285.878 128.708 286.7 128.259C287.387 127.896 288.059 127.568 288.736 127.278C288.877 127.214 289.024 127.183 289.177 127.183C290 127.183 290.554 128.073 290.554 129.396V131.844C290.554 133 290.099 134.367 289.226 134.743C288.583 135.023 287.936 135.333 287.295 135.679C287.117 135.772 286.936 135.82 286.755 135.82Z" fill="#2D3D57"/>
<path fill-rule="evenodd" clip-rule="evenodd" d="M289.074 109.393C288.583 109.689 287.936 110.001 287.295 110.347C287.074 110.465 286.671 111.292 286.671 112.283V114.73C286.671 115.162 286.75 115.416 286.81 115.537C287.455 115.197 288.088 114.889 288.73 114.611C288.907 114.534 289.31 113.845 289.31 112.844V110.397C289.31 109.789 289.147 109.452 289.074 109.393ZM286.75 116.821C286.142 116.821 285.427 116.275 285.427 114.73V112.283C285.427 111.15 285.878 109.708 286.706 109.259C287.377 108.898 288.054 108.571 288.736 108.278C288.877 108.215 289.024 108.183 289.177 108.183C290 108.183 290.554 109.074 290.554 110.397V112.844C290.554 114 290.099 115.367 289.226 115.743C288.583 116.023 287.941 116.333 287.295 116.679C287.117 116.775 286.936 116.821 286.75 116.821Z" fill="#2D3D57"/>
<path fill-rule="evenodd" clip-rule="evenodd" d="M289.074 204.389C288.579 204.687 287.936 204.999 287.295 205.34C287.078 205.457 286.671 206.288 286.671 207.278V209.726C286.671 210.158 286.75 210.411 286.81 210.531C287.446 210.192 288.088 209.887 288.73 209.606C288.907 209.531 289.31 208.84 289.31 207.839V205.392C289.31 204.784 289.147 204.447 289.074 204.389ZM286.755 211.817H286.75C286.142 211.817 285.427 211.268 285.427 209.726V207.278C285.427 206.149 285.878 204.705 286.7 204.255C287.387 203.891 288.059 203.564 288.736 203.274C288.877 203.21 289.024 203.179 289.177 203.179C290 203.179 290.554 204.07 290.554 205.392V207.839C290.554 208.996 290.099 210.362 289.226 210.738C288.583 211.019 287.936 211.329 287.295 211.675C287.117 211.769 286.936 211.817 286.755 211.817Z" fill="#2D3D57"/>
<path fill-rule="evenodd" clip-rule="evenodd" d="M289.074 308.884C288.583 309.18 287.936 309.49 287.295 309.835C287.074 309.953 286.671 310.78 286.671 311.771V314.219C286.671 314.648 286.75 314.904 286.81 315.027C287.451 314.685 288.093 314.377 288.736 314.102C288.902 314.026 289.31 313.332 289.31 312.332V309.887C289.31 309.28 289.147 308.942 289.074 308.884ZM286.75 316.309C286.142 316.309 285.427 315.763 285.427 314.219V311.771C285.427 310.639 285.878 309.197 286.706 308.748C287.377 308.387 288.054 308.063 288.736 307.77C288.877 307.706 289.024 307.674 289.177 307.674C290 307.674 290.554 308.565 290.554 309.887V312.332C290.554 313.486 290.099 314.853 289.231 315.234C288.583 315.512 287.936 315.822 287.295 316.168C287.117 316.264 286.936 316.309 286.75 316.309Z" fill="#2D3D57"/>
<path fill-rule="evenodd" clip-rule="evenodd" d="M289.074 432.375C288.583 432.677 287.941 432.985 287.295 433.331C287.074 433.448 286.671 434.273 286.671 435.264V437.714C286.671 438.144 286.75 438.397 286.81 438.52C287.427 438.188 288.074 437.879 288.736 437.597C288.902 437.523 289.31 436.826 289.31 435.825V433.379C289.31 432.769 289.147 432.433 289.074 432.375ZM286.75 439.808C286.142 439.808 285.427 439.256 285.427 437.714V435.264C285.427 434.131 285.878 432.687 286.706 432.243C287.383 431.881 288.054 431.555 288.73 431.262C289.677 430.847 290.554 431.814 290.554 433.379V435.825C290.554 436.981 290.099 438.348 289.231 438.729C288.579 439.007 287.936 439.315 287.299 439.661C287.117 439.759 286.936 439.808 286.75 439.808Z" fill="#2D3D57"/>
<path fill-rule="evenodd" clip-rule="evenodd" d="M289.074 413.375C288.583 413.678 287.936 413.986 287.295 414.326C287.074 414.449 286.671 415.273 286.671 416.264V418.714C286.671 419.144 286.75 419.397 286.81 419.52C287.455 419.178 288.093 418.87 288.736 418.597C288.902 418.524 289.31 417.826 289.31 416.825V414.38C289.31 413.77 289.147 413.438 289.074 413.375ZM286.75 420.808C286.142 420.808 285.427 420.257 285.427 418.714V416.264C285.427 415.132 285.878 413.687 286.706 413.243C287.377 412.882 288.054 412.555 288.73 412.263C289.711 411.847 290.554 412.824 290.554 414.38V416.825C290.554 417.982 290.099 419.348 289.231 419.729C288.579 420.008 287.941 420.315 287.295 420.661C287.117 420.759 286.936 420.808 286.75 420.808Z" fill="#2D3D57"/>
<path fill-rule="evenodd" clip-rule="evenodd" d="M289.074 403.877C288.579 404.176 287.936 404.483 287.299 404.829C287.074 404.952 286.671 405.776 286.671 406.766V409.212C286.671 409.641 286.75 409.9 286.81 410.017C287.455 409.68 288.093 409.372 288.73 409.095C288.902 409.022 289.31 408.328 289.31 407.328V404.883C289.31 404.273 289.147 403.935 289.074 403.877ZM286.75 411.305C286.142 411.305 285.427 410.754 285.427 409.212V406.766C285.427 405.635 285.878 404.19 286.706 403.747C287.353 403.394 288.039 403.063 288.736 402.765C288.877 402.702 289.024 402.672 289.177 402.672C290 402.672 290.554 403.56 290.554 404.883V407.328C290.554 408.479 290.099 409.847 289.231 410.227C288.583 410.511 287.941 410.817 287.295 411.164C287.117 411.257 286.936 411.305 286.75 411.305Z" fill="#2D3D57"/>
<path fill-rule="evenodd" clip-rule="evenodd" d="M289.074 394.376C288.583 394.678 287.936 394.986 287.295 395.327C287.078 395.449 286.671 396.279 286.671 397.27V399.715C286.671 400.145 286.75 400.397 286.81 400.52C287.451 400.183 288.093 399.871 288.736 399.598C288.902 399.525 289.31 398.831 289.31 397.831V395.38C289.31 394.77 289.147 394.438 289.074 394.376ZM286.75 401.808C286.142 401.808 285.427 401.257 285.427 399.715V397.27C285.427 396.143 285.873 394.697 286.7 394.244C287.377 393.882 288.054 393.556 288.73 393.263C289.711 392.843 290.554 393.824 290.554 395.38V397.831C290.554 398.982 290.099 400.349 289.231 400.73C288.579 401.008 287.936 401.32 287.295 401.662C287.117 401.76 286.936 401.808 286.75 401.808Z" fill="#2D3D57"/>
<path fill-rule="evenodd" clip-rule="evenodd" d="M289.074 460.871C288.583 461.175 287.936 461.482 287.295 461.822C287.074 461.945 286.671 462.77 286.671 463.765V466.211C286.671 466.64 286.75 466.894 286.81 467.016C287.451 466.68 288.093 466.366 288.736 466.094C288.902 466.02 289.31 465.327 289.31 464.326V461.877C289.31 461.267 289.147 460.935 289.074 460.871ZM286.75 468.304C286.142 468.304 285.427 467.753 285.427 466.211V463.765C285.427 462.634 285.878 461.184 286.706 460.741C287.377 460.378 288.054 460.051 288.73 459.759C289.711 459.339 290.554 460.32 290.554 461.877V464.326C290.554 465.478 290.099 466.845 289.231 467.225C288.579 467.505 287.936 467.816 287.295 468.158C287.117 468.256 286.936 468.304 286.75 468.304Z" fill="#2D3D57"/>
<path fill-rule="evenodd" clip-rule="evenodd" d="M289.074 441.872C288.583 442.175 287.936 442.482 287.299 442.829C287.074 442.951 286.671 443.775 286.671 444.766V447.212C286.671 447.641 286.75 447.899 286.81 448.017C287.455 447.68 288.093 447.371 288.73 447.095C288.902 447.021 289.31 446.328 289.31 445.327V442.877C289.31 442.267 289.147 441.935 289.074 441.872ZM286.75 449.305C286.142 449.305 285.427 448.753 285.427 447.212V444.766C285.427 443.634 285.878 442.188 286.706 441.745C287.377 441.378 288.054 441.052 288.73 440.759C289.711 440.354 290.554 441.32 290.554 442.877V445.327C290.554 446.478 290.099 447.846 289.231 448.226C288.583 448.51 287.941 448.816 287.295 449.163C287.117 449.257 286.936 449.305 286.75 449.305Z" fill="#2D3D57"/>
<path fill-rule="evenodd" clip-rule="evenodd" d="M289.074 451.374C288.583 451.677 287.936 451.985 287.295 452.326C287.074 452.448 286.671 453.272 286.671 454.264V456.713C286.671 457.143 286.75 457.397 286.81 457.519C287.451 457.177 288.088 456.869 288.73 456.592C288.902 456.519 289.31 455.825 289.31 454.825V452.379C289.31 451.769 289.147 451.432 289.074 451.374ZM286.755 458.802C286.142 458.802 285.427 458.256 285.427 456.713V454.264C285.427 453.131 285.878 451.686 286.706 451.243C287.377 450.881 288.054 450.554 288.73 450.262C289.677 449.851 290.554 450.813 290.554 452.379V454.825C290.554 455.976 290.099 457.344 289.231 457.723C288.583 458.007 287.941 458.314 287.295 458.66C287.117 458.758 286.936 458.802 286.755 458.802Z" fill="#2D3D57"/>
<path fill-rule="evenodd" clip-rule="evenodd" d="M289.074 299.384C288.583 299.68 287.936 299.99 287.295 300.336C287.074 300.453 286.671 301.281 286.671 302.274V304.719C286.671 305.151 286.75 305.404 286.81 305.527C287.455 305.185 288.093 304.877 288.736 304.602C288.902 304.526 289.31 303.833 289.31 302.832V300.387C289.31 299.78 289.147 299.442 289.074 299.384ZM286.75 306.81C286.142 306.81 285.427 306.263 285.427 304.719V302.274C285.427 301.142 285.878 299.698 286.706 299.248C287.377 298.887 288.054 298.563 288.736 298.27C288.877 298.206 289.024 298.174 289.177 298.174C290 298.174 290.554 299.065 290.554 300.387V302.832C290.554 303.987 290.099 305.354 289.231 305.734C288.579 306.015 287.936 306.327 287.295 306.668C287.117 306.764 286.936 306.81 286.75 306.81Z" fill="#2D3D57"/>
<path fill-rule="evenodd" clip-rule="evenodd" d="M289.074 384.878C288.579 385.175 287.936 385.488 287.295 385.834C287.074 385.951 286.671 386.776 286.671 387.767V390.218C286.671 390.647 286.75 390.9 286.81 391.023C287.446 390.681 288.088 390.373 288.73 390.095C288.907 390.022 289.31 389.329 289.31 388.328V385.883C289.31 385.273 289.147 384.936 289.074 384.878ZM286.755 392.305C286.142 392.305 285.427 391.759 285.427 390.218V387.767C285.427 386.635 285.878 385.191 286.706 384.747C287.387 384.384 288.059 384.053 288.736 383.765C288.877 383.702 289.024 383.672 289.177 383.672C290 383.672 290.554 384.561 290.554 385.883V388.328C290.554 389.49 290.099 390.856 289.226 391.228C288.583 391.511 287.936 391.818 287.299 392.164C287.117 392.263 286.936 392.305 286.755 392.305Z" fill="#2D3D57"/>
<path fill-rule="evenodd" clip-rule="evenodd" d="M289.074 327.881C288.583 328.179 287.936 328.49 287.295 328.835C287.074 328.952 286.671 329.78 286.671 330.771V333.218C286.671 333.651 286.75 333.904 286.81 334.027C287.455 333.685 288.093 333.376 288.736 333.101C288.902 333.025 289.31 332.332 289.31 331.331V328.884C289.31 328.276 289.147 327.94 289.074 327.881ZM286.75 335.309C286.142 335.309 285.427 334.762 285.427 333.218V330.771C285.427 329.638 285.878 328.197 286.706 327.748C287.377 327.386 288.054 327.062 288.73 326.766C289.711 326.349 290.554 327.328 290.554 328.884V331.331C290.554 332.486 290.099 333.853 289.231 334.234C288.583 334.514 287.941 334.821 287.295 335.168C287.117 335.263 286.936 335.309 286.75 335.309Z" fill="#2D3D57"/>
<path fill-rule="evenodd" clip-rule="evenodd" d="M289.074 318.381C288.583 318.68 287.936 318.99 287.295 319.335C287.074 319.453 286.671 320.28 286.671 321.27V323.719C286.671 324.15 286.75 324.404 286.81 324.526C287.455 324.184 288.093 323.876 288.736 323.601C288.907 323.526 289.31 322.832 289.31 321.832V319.387C289.31 318.777 289.147 318.439 289.074 318.381ZM286.75 325.809C286.142 325.809 285.427 325.263 285.427 323.719V321.27C285.427 320.139 285.878 318.697 286.706 318.247C287.377 317.886 288.054 317.562 288.73 317.267C289.711 316.846 290.554 317.828 290.554 319.387V321.832C290.554 322.986 290.099 324.353 289.231 324.734C288.583 325.012 287.941 325.321 287.295 325.668C287.117 325.764 286.936 325.809 286.75 325.809Z" fill="#2D3D57"/>
<path fill-rule="evenodd" clip-rule="evenodd" d="M289.074 346.881C288.579 347.179 287.936 347.492 287.295 347.833C287.078 347.95 286.671 348.779 286.671 349.771V352.216C286.671 352.647 286.75 352.901 286.81 353.023C287.455 352.682 288.093 352.374 288.736 352.099C288.907 352.023 289.31 351.332 289.31 350.331V347.884C289.31 347.276 289.147 346.94 289.074 346.881ZM286.75 354.306C286.142 354.306 285.427 353.76 285.427 352.216V349.771C285.427 348.641 285.878 347.196 286.7 346.748C287.387 346.383 288.059 346.056 288.736 345.766C288.877 345.703 289.024 345.671 289.177 345.671C290 345.671 290.554 346.562 290.554 347.884V350.331C290.554 351.488 290.099 352.854 289.226 353.23C288.579 353.512 287.936 353.823 287.295 354.165C287.117 354.261 286.936 354.306 286.75 354.306Z" fill="#2D3D57"/>
<path fill-rule="evenodd" clip-rule="evenodd" d="M289.074 337.381C288.583 337.679 287.941 337.989 287.295 338.335C287.074 338.452 286.671 339.279 286.671 340.271V342.718C286.671 343.151 286.75 343.403 286.81 343.526C287.451 343.185 288.088 342.876 288.73 342.599C288.907 342.523 289.31 341.832 289.31 340.831V338.384C289.31 337.776 289.147 337.44 289.074 337.381ZM286.755 344.809H286.75C286.142 344.809 285.427 344.26 285.427 342.718V340.271C285.427 339.138 285.878 337.697 286.706 337.248C287.383 336.886 288.054 336.562 288.73 336.266C289.677 335.859 290.554 336.818 290.554 338.384V340.831C290.554 341.988 290.099 343.355 289.226 343.731C288.583 344.012 287.941 344.321 287.295 344.668C287.117 344.761 286.936 344.809 286.755 344.809Z" fill="#2D3D57"/>
<path fill-rule="evenodd" clip-rule="evenodd" d="M289.074 375.375C288.583 375.678 287.936 375.986 287.295 376.326C287.078 376.449 286.671 377.279 286.671 378.27V380.715C286.671 381.144 286.75 381.403 286.81 381.52C287.455 381.184 288.093 380.876 288.73 380.598C288.902 380.525 289.31 379.832 289.31 378.831V376.381C289.31 375.771 289.147 375.439 289.074 375.375ZM286.75 382.808C286.142 382.808 285.427 382.256 285.427 380.715V378.27C285.427 377.143 285.873 375.697 286.7 375.244C287.377 374.882 288.054 374.556 288.73 374.263C289.711 373.858 290.554 374.824 290.554 376.381V378.831C290.554 379.983 290.099 381.349 289.231 381.729C288.583 382.013 287.941 382.32 287.295 382.667C287.117 382.76 286.936 382.808 286.75 382.808Z" fill="#2D3D57"/>
<path fill-rule="evenodd" clip-rule="evenodd" d="M289.074 365.878C288.583 366.182 287.941 366.489 287.295 366.834C287.074 366.951 286.671 367.777 286.671 368.767V371.218C286.671 371.647 286.75 371.906 286.81 372.023C287.451 371.681 288.088 371.373 288.73 371.096C288.907 371.023 289.31 370.329 289.31 369.329V366.884C289.31 366.274 289.147 365.936 289.074 365.878ZM286.755 373.306C286.142 373.306 285.427 372.76 285.427 371.218V368.767C285.427 367.636 285.878 366.191 286.706 365.747C287.383 365.385 288.054 365.058 288.73 364.765C289.677 364.351 290.554 365.317 290.554 366.884V369.329C290.554 370.491 290.099 371.857 289.226 372.228C288.583 372.512 287.941 372.818 287.295 373.164C287.117 373.263 286.936 373.306 286.755 373.306Z" fill="#2D3D57"/>
<path fill-rule="evenodd" clip-rule="evenodd" d="M289.074 356.381C288.583 356.679 287.941 356.986 287.295 357.332C287.078 357.45 286.671 358.279 286.671 359.27V361.716C286.671 362.144 286.75 362.398 286.81 362.52C287.451 362.184 288.093 361.876 288.73 361.599C288.902 361.526 289.31 360.832 289.31 359.831V357.384C289.31 356.776 289.147 356.439 289.074 356.381ZM286.75 363.808C286.142 363.808 285.427 363.257 285.427 361.716V359.27C285.427 358.141 285.878 356.696 286.7 356.248C287.383 355.883 288.054 355.559 288.736 355.266C288.877 355.203 289.024 355.171 289.177 355.171C290 355.171 290.554 356.062 290.554 357.384V359.831C290.554 360.983 290.099 362.351 289.231 362.73C288.583 363.014 287.936 363.321 287.295 363.662C287.117 363.761 286.936 363.808 286.75 363.808Z" fill="#2D3D57"/>
<path fill-rule="evenodd" clip-rule="evenodd" d="M281.098 183.796V201.935C284.06 199.149 287.094 197.718 289.471 196.767C290.231 196.464 291.079 194.654 291.079 192.552V180.841C291.079 178.955 290.431 178.008 290.064 178.008C287.432 179.035 284.177 180.589 281.098 183.796ZM279.853 204.989V183.305L280.025 183.127C283.323 179.623 286.804 177.954 289.471 176.891C289.668 176.812 289.868 176.774 290.064 176.774C291.393 176.774 292.325 178.445 292.325 180.841V192.552C292.325 195.06 291.294 197.366 289.933 197.915C287.383 198.932 284.06 200.526 280.926 203.849L279.853 204.989Z" fill="#2D3D57"/>
<path fill-rule="evenodd" clip-rule="evenodd" d="M289.074 185.084C288.583 185.382 287.941 185.695 287.295 186.036C287.078 186.153 286.671 186.983 286.671 187.974V190.422C286.671 190.853 286.75 191.107 286.81 191.226C287.446 190.887 288.088 190.582 288.73 190.302C288.907 190.226 289.31 189.535 289.31 188.535V186.087C289.31 185.479 289.147 185.143 289.074 185.084ZM286.755 192.512H286.75C286.142 192.512 285.427 191.963 285.427 190.422V187.974C285.427 186.844 285.878 185.399 286.7 184.951C287.383 184.586 288.054 184.264 288.73 183.969C289.677 183.549 290.554 184.52 290.554 186.087V188.535C290.554 189.691 290.099 191.057 289.226 191.433C288.583 191.715 287.936 192.024 287.295 192.37C287.117 192.464 286.936 192.512 286.755 192.512Z" fill="#2D3D57"/>
<path fill-rule="evenodd" clip-rule="evenodd" d="M280.166 91.5018V109.534C283.363 106.203 286.775 104.557 289.471 103.48C290.231 103.176 291.079 101.37 291.079 99.2669V87.5563C291.079 85.6693 290.431 84.7226 290.069 84.7226C286.931 85.947 283.427 87.6849 280.166 91.5018ZM278.921 112.856V91.0526L279.068 90.882C282.569 86.7088 286.465 84.8003 289.471 83.6054C289.668 83.5268 289.868 83.4875 290.069 83.4875C291.393 83.4875 292.325 85.1593 292.325 87.5563V99.2669C292.325 101.777 291.294 104.083 289.933 104.627C286.883 105.845 283.319 107.617 280.019 111.548L278.921 112.856Z" fill="#2D3D57"/>
<path fill-rule="evenodd" clip-rule="evenodd" d="M289.074 91.7992C288.583 92.0948 287.936 92.4047 287.295 92.7512C287.074 92.8682 286.671 93.6951 286.671 94.6864V97.1334C286.671 97.5656 286.75 97.8193 286.81 97.9407C287.451 97.5996 288.093 97.2915 288.736 97.0164C288.902 96.9405 289.31 96.2475 289.31 95.2499V92.8021C289.31 92.1939 289.147 91.8572 289.074 91.7992ZM286.75 99.2249C286.142 99.2249 285.427 98.6784 285.427 97.1334V94.6864C285.427 93.554 285.878 92.1118 286.706 91.6626C287.377 91.3009 288.054 90.9776 288.736 90.6838C288.877 90.6204 289.024 90.5891 289.177 90.5891C290 90.5891 290.554 91.4795 290.554 92.8021V95.2499C290.554 96.4038 290.099 97.7684 289.231 98.1488C288.583 98.4265 287.936 98.7391 287.295 99.0829C287.117 99.1785 286.936 99.2249 286.75 99.2249Z" fill="#2D3D57"/>
<path fill-rule="evenodd" clip-rule="evenodd" d="M316.183 649.965H319.604C322.546 646.338 325.438 639.916 328.198 630.868C332.787 615.485 336.983 592.527 340.67 562.634C345.332 525.513 348.038 486.666 349.239 466.811C349.832 457.308 350.244 442.54 350.597 428.002C351.12 409.159 351.592 388.119 351.959 367.162C352.587 330.366 353.156 286.952 353.563 244.917C353.989 205.912 354.302 168.877 354.552 139.12C354.763 113.544 354.935 93.3442 355.082 83.5055C355.656 50.15 341.709 20.5739 328.507 7.20936C324.885 3.5416 321.516 1.43846 319.262 1.43846H315.737C313.516 1.43846 310.192 3.51481 306.614 7.13524C293.427 20.4917 279.495 50.0857 280.073 83.5055C280.235 93.8497 280.436 115.606 280.686 143.151C281.416 222.577 282.638 355.509 284.956 428.075C285.274 444.2 285.744 457.592 286.314 466.811C289.314 514.684 298.217 628.096 316.183 649.965ZM320.188 651.205H315.604L315.417 650.985C297.089 629.379 288.094 515.045 285.078 466.889C284.505 457.65 284.034 444.239 283.711 428.104C281.397 355.537 280.175 222.593 279.445 143.164C279.196 115.619 278.995 93.864 278.827 83.5251C278.25 49.7499 292.367 19.8032 305.732 6.27255C309.594 2.35741 313.149 0.203369 315.737 0.203369H319.262C321.884 0.203369 325.482 2.38242 329.395 6.34221C342.768 19.8862 356.901 49.8151 356.328 83.5251C356.175 93.3585 356.008 113.557 355.793 139.13C355.543 168.889 355.229 205.924 354.808 244.928C354.396 286.967 353.828 330.382 353.205 367.182C352.832 388.148 352.361 409.188 351.842 428.031C351.485 442.585 351.073 457.363 350.475 466.889C349.279 486.752 346.567 525.63 341.905 562.786C338.209 592.747 333.998 615.772 329.385 631.224C326.517 640.619 323.488 647.267 320.374 650.981L320.188 651.205Z" fill="#2D3D57"/>
<path fill-rule="evenodd" clip-rule="evenodd" d="M317.208 68.6243C315.223 71.7357 310.346 99.4864 310.497 135.467C310.531 144.135 310.571 162.358 310.625 185.956C310.772 250.468 311.022 358.44 311.482 417.274C311.55 430.809 311.644 441.765 311.757 448.963C312.355 487.577 314.11 578.295 317.638 598.1C318.188 594.996 318.722 589.999 319.233 583.215C320.159 570.544 321.007 551.75 321.748 527.348C322.693 496.777 323.238 465.118 323.477 448.963C323.586 441.866 323.664 431.555 323.753 417.206C323.85 402.989 323.944 386.035 324.027 367.445C324.155 336.471 324.267 301.188 324.35 267.469C324.439 235.102 324.503 204.184 324.552 179.887C324.596 159.24 324.626 143.375 324.655 135.467C324.807 99.4078 319.895 71.6402 317.914 68.6118L317.531 68.9976L317.208 68.6243ZM318.546 599.847H316.741L316.639 599.36C312.958 581.775 311.144 488.339 310.531 448.982C310.424 441.779 310.325 430.817 310.257 417.284C309.796 358.445 309.551 250.47 309.404 185.958C309.35 162.364 309.305 144.14 309.271 135.472C309.124 99.9642 313.884 70.1782 316.522 67.5437C316.993 67.082 317.331 67.2044 317.57 67.3169C317.874 67.1678 318.292 67.2312 318.61 67.5482C321.253 70.1907 326.027 99.9785 325.88 135.472C325.851 143.381 325.817 159.245 325.777 179.89C325.723 204.186 325.665 235.106 325.576 267.474C325.493 301.193 325.38 336.476 325.253 367.455C325.169 386.045 325.076 402.999 324.978 417.216C324.889 431.564 324.811 441.882 324.703 448.982C324.463 465.137 323.919 496.806 322.973 527.387C322.229 551.804 321.379 570.618 320.448 583.303C319.875 590.94 319.267 596.343 318.645 599.36L318.546 599.847Z" fill="#2D3D57"/>
<path fill-rule="evenodd" clip-rule="evenodd" d="M420.346 653.215L414.762 638.354L341.714 617.056L335.875 631.507L334.728 631.048L340.978 615.552L341.522 615.714L415.704 637.339L415.816 637.632L421.513 652.786L420.346 653.215Z" fill="#2D3D57"/>
<path fill-rule="evenodd" clip-rule="evenodd" d="M214.334 653.215L213.167 652.786L218.971 637.339L219.266 637.256L293.702 615.552L293.907 616.075L299.951 631.048L298.805 631.507L292.966 617.056L219.912 638.354L214.334 653.215Z" fill="#2D3D57"/>
<path fill-rule="evenodd" clip-rule="evenodd" d="M289.074 147.392C288.583 147.688 287.936 148 287.295 148.344C287.078 148.461 286.671 149.291 286.671 150.282V152.727C286.671 153.159 286.75 153.412 286.81 153.534C287.455 153.193 288.093 152.885 288.736 152.609C288.902 152.534 289.31 151.841 289.31 150.84V148.396C289.31 147.788 289.147 147.451 289.074 147.392ZM286.75 154.818C286.142 154.818 285.427 154.271 285.427 152.727V150.282C285.427 149.152 285.878 147.707 286.7 147.258C287.377 146.897 288.054 146.57 288.736 146.277C288.877 146.214 289.024 146.183 289.177 146.183C290 146.183 290.554 147.073 290.554 148.396V150.84C290.554 151.995 290.099 153.361 289.231 153.742C288.579 154.022 287.936 154.335 287.295 154.677C287.117 154.771 286.936 154.818 286.75 154.818Z" fill="#2D3D57"/>
<path fill-rule="evenodd" clip-rule="evenodd" d="M289.079 166.392C288.583 166.69 287.94 166.997 287.294 167.344C287.074 167.461 286.671 168.289 286.671 169.278V171.727C286.671 172.156 286.75 172.412 286.809 172.534C287.451 172.192 288.093 171.885 288.735 171.609C288.902 171.534 289.309 170.84 289.309 169.84V167.393C289.309 166.785 289.152 166.451 289.079 166.392ZM286.75 173.818C286.143 173.818 285.427 173.271 285.427 171.727V169.278C285.427 168.147 285.878 166.705 286.705 166.256C287.382 165.894 288.053 165.57 288.735 165.277C288.877 165.214 289.024 165.183 289.176 165.183C290 165.183 290.554 166.07 290.554 167.393V169.84C290.554 170.995 290.099 172.361 289.23 172.741C288.583 173.02 287.937 173.33 287.294 173.676C287.117 173.772 286.936 173.818 286.75 173.818Z" fill="#2D3D57"/>
<path fill-rule="evenodd" clip-rule="evenodd" d="M289.074 156.892C288.583 157.19 287.941 157.498 287.295 157.844C287.074 157.961 286.671 158.789 286.671 159.779V162.226C286.671 162.659 286.75 162.912 286.81 163.034C287.455 162.693 288.093 162.385 288.736 162.109C288.902 162.034 289.31 161.341 289.31 160.343V157.896C289.31 157.288 289.147 156.95 289.074 156.892ZM286.75 164.318C286.142 164.318 285.427 163.771 285.427 162.226V159.779C285.427 158.647 285.878 157.205 286.706 156.756C287.383 156.395 288.054 156.071 288.736 155.777C288.877 155.714 289.024 155.682 289.177 155.682C290 155.682 290.554 156.573 290.554 157.896V160.343C290.554 161.498 290.099 162.861 289.231 163.242C288.579 163.522 287.936 163.835 287.295 164.177C287.117 164.272 286.936 164.318 286.75 164.318Z" fill="#2D3D57"/>
<path fill-rule="evenodd" clip-rule="evenodd" d="M289.074 137.893C288.579 138.19 287.936 138.503 287.295 138.844C287.078 138.961 286.671 139.791 286.671 140.782V143.23C286.671 143.659 286.75 143.913 286.81 144.034C287.455 143.696 288.093 143.388 288.73 143.11C288.902 143.034 289.31 142.341 289.31 141.343V138.896C289.31 138.288 289.147 137.951 289.074 137.893ZM286.75 145.318C286.142 145.318 285.427 144.771 285.427 143.23V140.782C285.427 139.652 285.878 138.208 286.7 137.758C287.387 137.395 288.059 137.068 288.736 136.778C288.877 136.714 289.024 136.683 289.177 136.683C290 136.683 290.554 137.573 290.554 138.896V141.343C290.554 142.498 290.099 143.861 289.231 144.243C288.583 144.523 287.941 144.835 287.295 145.177C287.117 145.272 286.936 145.318 286.75 145.318Z" fill="#2D3D57"/>
<path fill-rule="evenodd" clip-rule="evenodd" d="M345.931 166.409C346.003 166.451 345.842 166.785 345.842 167.395V169.84C345.842 170.84 346.254 171.533 346.426 171.608C347.068 171.888 347.705 172.195 348.346 172.534C348.406 172.415 348.484 172.16 348.484 171.726V169.278C348.484 168.288 348.078 167.464 347.857 167.344C347.214 166.997 346.573 166.688 345.931 166.409ZM348.401 173.818C348.22 173.818 348.033 173.771 347.857 173.676C347.214 173.329 346.573 173.019 345.931 172.742C345.062 172.363 344.607 170.997 344.597 169.843V167.393C344.611 165.823 345.484 164.869 346.426 165.277C347.102 165.571 347.774 165.895 348.445 166.256C349.278 166.702 349.729 168.146 349.729 169.278V171.726C349.729 172.254 349.636 172.719 349.464 173.071C349.234 173.546 348.847 173.818 348.401 173.818Z" fill="#2D3D57"/>
<path fill-rule="evenodd" clip-rule="evenodd" d="M345.931 147.41C346.003 147.451 345.842 147.788 345.842 148.398L345.847 150.839C345.847 151.841 346.254 152.534 346.426 152.609C347.068 152.888 347.705 153.198 348.346 153.536C348.406 153.415 348.484 153.161 348.484 152.727V150.282C348.484 149.289 348.082 148.461 347.861 148.344C347.22 148.003 346.577 147.69 345.931 147.41ZM348.401 154.818C348.22 154.818 348.033 154.772 347.857 154.677C347.214 154.332 346.573 154.02 345.931 153.742C345.057 153.361 344.602 151.997 344.602 150.843L344.597 148.396C344.607 147.071 345.161 146.182 345.979 146.182C346.132 146.182 346.279 146.214 346.42 146.277C347.097 146.568 347.769 146.895 348.45 147.256C349.278 147.705 349.729 149.15 349.729 150.282V152.727C349.729 153.254 349.636 153.72 349.464 154.071C349.234 154.547 348.847 154.818 348.401 154.818Z" fill="#2D3D57"/>
<path fill-rule="evenodd" clip-rule="evenodd" d="M345.931 156.909C346.003 156.95 345.842 157.288 345.842 157.898V160.343C345.842 161.341 346.254 162.033 346.426 162.109C347.068 162.388 347.705 162.697 348.346 163.036C348.406 162.915 348.484 162.66 348.484 162.226V159.779C348.484 158.788 348.078 157.964 347.857 157.844C347.214 157.498 346.573 157.188 345.931 156.909ZM348.401 164.318C348.22 164.318 348.033 164.271 347.857 164.177C347.214 163.832 346.573 163.519 345.931 163.242C345.062 162.863 344.607 161.499 344.597 160.346V157.895C344.607 156.571 345.161 155.681 345.979 155.681C346.132 155.681 346.279 155.714 346.42 155.777C347.102 156.071 347.774 156.395 348.445 156.755C349.278 157.202 349.729 158.647 349.729 159.779V162.226C349.729 162.754 349.636 163.219 349.464 163.571C349.234 164.047 348.847 164.318 348.401 164.318Z" fill="#2D3D57"/>
<path fill-rule="evenodd" clip-rule="evenodd" d="M345.931 109.41C346.009 109.452 345.847 109.789 345.847 110.396L345.842 112.844C345.842 113.845 346.254 114.537 346.426 114.613C347.068 114.891 347.705 115.198 348.346 115.537C348.406 115.418 348.484 115.164 348.484 114.73V112.283C348.484 111.292 348.082 110.465 347.861 110.347C347.214 110.001 346.573 109.691 345.931 109.41ZM348.401 116.821C348.22 116.821 348.033 116.775 347.857 116.679C347.214 116.333 346.573 116.023 345.931 115.745C345.062 115.367 344.607 114 344.597 112.846L344.602 110.396C344.602 109.074 345.156 108.183 345.979 108.183C346.132 108.183 346.279 108.215 346.42 108.278C347.102 108.571 347.774 108.898 348.45 109.259C349.278 109.707 349.729 111.15 349.729 112.283V114.73C349.729 115.258 349.636 115.723 349.464 116.074C349.234 116.551 348.847 116.821 348.401 116.821Z" fill="#2D3D57"/>
<path fill-rule="evenodd" clip-rule="evenodd" d="M345.925 118.91C346.003 118.951 345.842 119.289 345.842 119.899L345.847 122.339C345.847 123.344 346.248 124.037 346.426 124.113C347.067 124.391 347.704 124.698 348.346 125.037C348.406 124.919 348.484 124.664 348.484 124.23V121.782C348.484 120.792 348.077 119.962 347.857 119.842C347.214 119.504 346.573 119.19 345.925 118.91ZM348.401 126.321C348.22 126.321 348.033 126.275 347.861 126.18C347.214 125.833 346.573 125.523 345.931 125.245C345.057 124.864 344.601 123.498 344.601 122.344L344.597 119.901C344.607 118.572 345.16 117.682 345.979 117.682C346.131 117.682 346.279 117.715 346.42 117.778C347.102 118.073 347.774 118.396 348.449 118.756C349.278 119.207 349.729 120.653 349.729 121.782V124.23C349.729 124.76 349.636 125.223 349.464 125.574C349.23 126.047 348.841 126.321 348.401 126.321Z" fill="#2D3D57"/>
<path fill-rule="evenodd" clip-rule="evenodd" d="M345.931 128.41C346.003 128.451 345.842 128.789 345.842 129.399V131.848C345.842 132.844 346.248 133.534 346.42 133.61C347.068 133.891 347.705 134.196 348.346 134.537C348.406 134.416 348.484 134.161 348.484 133.73V131.282C348.484 130.292 348.078 129.464 347.857 129.344C347.214 129.001 346.573 128.689 345.931 128.41ZM348.406 135.821C348.22 135.821 348.039 135.772 347.861 135.68C347.214 135.333 346.573 135.023 345.925 134.743C345.062 134.369 344.607 133.002 344.597 131.846L344.602 130.213L344.597 129.396C344.607 128.071 345.161 127.182 345.979 127.182C346.132 127.182 346.279 127.214 346.42 127.278C347.102 127.571 347.774 127.897 348.445 128.256C349.288 128.71 349.729 130.123 349.729 131.282V133.73C349.729 134.257 349.636 134.72 349.464 135.071C349.234 135.547 348.847 135.821 348.406 135.821Z" fill="#2D3D57"/>
<path fill-rule="evenodd" clip-rule="evenodd" d="M345.931 137.91C346.009 137.951 345.847 138.288 345.847 138.896L345.842 141.348C345.842 142.341 346.254 143.034 346.426 143.11C347.068 143.391 347.705 143.698 348.346 144.037C348.406 143.915 348.484 143.661 348.484 143.23V140.782C348.484 139.791 348.078 138.964 347.857 138.844C347.214 138.5 346.573 138.188 345.931 137.91ZM348.401 145.318C348.22 145.318 348.033 145.272 347.857 145.177C347.214 144.832 346.573 144.523 345.925 144.243C345.062 143.864 344.607 142.499 344.597 141.346L344.602 138.891C344.602 137.573 345.156 136.682 345.979 136.682C346.132 136.682 346.279 136.714 346.42 136.778C347.102 137.071 347.774 137.397 348.445 137.756C349.288 138.209 349.729 139.623 349.729 140.782V143.23C349.729 143.757 349.636 144.22 349.464 144.571C349.234 145.047 348.847 145.318 348.401 145.318Z" fill="#2D3D57"/>
<path fill-rule="evenodd" clip-rule="evenodd" d="M345.925 460.891C346.003 460.935 345.842 461.267 345.842 461.882V464.327C345.842 465.327 346.254 466.02 346.426 466.093C347.067 466.367 347.704 466.679 348.346 467.02C348.406 466.9 348.484 466.645 348.484 466.211V463.766C348.484 462.77 348.077 461.946 347.857 461.823C347.214 461.482 346.573 461.174 345.925 460.891ZM348.401 468.305C348.22 468.305 348.033 468.255 347.857 468.163C347.214 467.817 346.577 467.504 345.931 467.226C345.062 466.845 344.607 465.484 344.597 464.332L344.601 463.507L344.597 461.882C344.607 460.554 345.16 459.666 345.984 459.666C346.131 459.666 346.279 459.695 346.42 459.759C347.102 460.052 347.774 460.379 348.445 460.74C349.278 461.183 349.729 462.628 349.729 463.766V466.211C349.729 466.738 349.636 467.201 349.464 467.553C349.233 468.031 348.847 468.305 348.401 468.305Z" fill="#2D3D57"/>
<path fill-rule="evenodd" clip-rule="evenodd" d="M345.93 403.897C346.008 403.936 345.847 404.273 345.847 404.883C345.841 405.698 345.841 406.513 345.847 407.323C345.847 408.329 346.253 409.022 346.425 409.095C347.068 409.373 347.705 409.681 348.346 410.022C348.405 409.9 348.484 409.646 348.484 409.212V406.767C348.484 405.776 348.078 404.952 347.856 404.834C347.214 404.482 346.572 404.176 345.93 403.897ZM348.401 411.305C348.219 411.305 348.033 411.257 347.856 411.164C347.214 410.817 346.572 410.51 345.925 410.227C345.056 409.847 344.602 408.479 344.602 407.328C344.596 406.513 344.596 405.698 344.602 404.878C344.602 403.317 345.464 402.35 346.425 402.765C347.102 403.058 347.783 403.385 348.45 403.746C349.288 404.195 349.728 405.605 349.728 406.767V409.212C349.728 409.739 349.636 410.203 349.464 410.554C349.234 411.032 348.846 411.305 348.401 411.305Z" fill="#2D3D57"/>
<path fill-rule="evenodd" clip-rule="evenodd" d="M345.925 413.395C346.003 413.438 345.842 413.771 345.842 414.385L345.847 416.82C345.847 417.826 346.254 418.524 346.426 418.597C347.067 418.875 347.714 419.183 348.346 419.525C348.406 419.403 348.484 419.149 348.484 418.715V416.264C348.484 415.274 348.082 414.449 347.861 414.326C347.214 413.985 346.573 413.678 345.925 413.395ZM348.401 420.808C348.22 420.808 348.033 420.759 347.857 420.667C347.214 420.315 346.573 420.008 345.931 419.729C345.057 419.349 344.601 417.982 344.601 416.826L344.597 414.385C344.607 412.818 345.478 411.833 346.42 412.262C347.102 412.555 347.774 412.882 348.449 413.238C349.278 413.687 349.729 415.132 349.729 416.264V418.715C349.729 419.242 349.636 419.704 349.464 420.056C349.233 420.535 348.847 420.808 348.401 420.808Z" fill="#2D3D57"/>
<path fill-rule="evenodd" clip-rule="evenodd" d="M345.931 384.897C346.009 384.937 345.847 385.273 345.847 385.883L345.842 388.328C345.842 389.33 346.248 390.022 346.42 390.095C347.068 390.374 347.705 390.682 348.346 391.027C348.406 390.906 348.484 390.651 348.484 390.217V387.768C348.484 386.776 348.078 385.952 347.857 385.835C347.214 385.488 346.577 385.176 345.931 384.897ZM348.401 392.306C348.214 392.306 348.039 392.262 347.861 392.169C347.214 391.818 346.573 391.51 345.925 391.228C345.062 390.857 344.607 389.49 344.597 388.334L344.602 385.883C344.602 384.318 345.464 383.351 346.426 383.765C347.097 384.053 347.774 384.385 348.445 384.746C349.288 385.195 349.729 386.606 349.729 387.768V390.217C349.729 390.744 349.636 391.208 349.464 391.56C349.23 392.033 348.841 392.306 348.401 392.306Z" fill="#2D3D57"/>
<path fill-rule="evenodd" clip-rule="evenodd" d="M345.925 394.395C346.003 394.438 345.842 394.771 345.842 395.385V397.831C345.842 398.831 346.254 399.524 346.426 399.598C347.067 399.871 347.704 400.183 348.346 400.525C348.406 400.403 348.484 400.149 348.484 399.715V397.27C348.484 396.278 348.077 395.449 347.851 395.327C347.214 394.985 346.573 394.678 345.925 394.395ZM348.401 401.809C348.22 401.809 348.033 401.76 347.857 401.667C347.214 401.32 346.577 401.008 345.931 400.73C345.062 400.35 344.607 398.988 344.597 397.836V395.381C344.607 393.823 345.478 392.843 346.42 393.262C347.102 393.556 347.774 393.882 348.445 394.244C349.288 394.697 349.729 396.113 349.729 397.27V399.715C349.729 400.242 349.636 400.705 349.464 401.057C349.233 401.535 348.847 401.809 348.401 401.809Z" fill="#2D3D57"/>
<path fill-rule="evenodd" clip-rule="evenodd" d="M345.925 422.892C346.009 422.936 345.842 423.272 345.842 423.882V426.328C345.842 427.328 346.254 428.021 346.426 428.094C347.067 428.373 347.704 428.68 348.346 429.017C348.406 428.9 348.484 428.641 348.484 428.212V425.767C348.484 424.775 348.077 423.951 347.857 423.834C347.214 423.482 346.573 423.174 345.925 422.892ZM348.406 430.305C348.22 430.305 348.038 430.256 347.861 430.159C347.214 429.818 346.573 429.509 345.925 429.226C345.062 428.846 344.607 427.485 344.597 426.333L344.601 425.513L344.597 423.882C344.607 422.315 345.478 421.335 346.42 421.759C347.102 422.053 347.774 422.379 348.449 422.746C349.288 423.195 349.729 424.605 349.729 425.767V428.212C349.729 428.739 349.636 429.201 349.464 429.553C349.233 430.032 348.847 430.305 348.406 430.305Z" fill="#2D3D57"/>
<path fill-rule="evenodd" clip-rule="evenodd" d="M345.931 299.402C346.003 299.443 345.842 299.78 345.842 300.389L345.847 302.828C345.847 303.834 346.254 304.526 346.426 304.602C347.068 304.88 347.705 305.188 348.346 305.526C348.406 305.407 348.484 305.153 348.484 304.719V302.272C348.484 301.281 348.082 300.454 347.861 300.337C347.214 299.989 346.573 299.682 345.931 299.402ZM348.401 306.81C348.22 306.81 348.033 306.764 347.857 306.668C347.214 306.322 346.573 306.012 345.931 305.734C345.057 305.354 344.602 303.987 344.602 302.833L344.597 300.387C344.607 299.062 345.161 298.174 345.979 298.174C346.132 298.174 346.279 298.206 346.42 298.269C347.102 298.563 347.774 298.887 348.45 299.248C349.278 299.697 349.729 301.139 349.729 302.272V304.719C349.729 305.247 349.636 305.712 349.464 306.064C349.234 306.54 348.847 306.81 348.401 306.81Z" fill="#2D3D57"/>
<path fill-rule="evenodd" clip-rule="evenodd" d="M345.925 451.394C346.008 451.432 345.847 451.77 345.847 452.38C345.842 453.195 345.842 454.01 345.847 454.82C345.847 455.825 346.253 456.518 346.426 456.592C347.067 456.869 347.709 457.177 348.346 457.519C348.405 457.397 348.484 457.143 348.484 456.714V454.264C348.484 453.273 348.082 452.449 347.861 452.326C347.214 451.984 346.573 451.676 345.925 451.394ZM348.401 458.803C348.22 458.803 348.033 458.754 347.856 458.661C347.214 458.314 346.573 458.007 345.925 457.724C345.057 457.344 344.601 455.976 344.601 454.825C344.597 454.01 344.597 453.195 344.601 452.375C344.601 450.814 345.464 449.847 346.426 450.262C347.102 450.555 347.774 450.881 348.449 451.238C349.278 451.686 349.728 453.131 349.728 454.264V456.714C349.728 457.241 349.636 457.703 349.464 458.055C349.233 458.529 348.847 458.803 348.401 458.803Z" fill="#2D3D57"/>
<path fill-rule="evenodd" clip-rule="evenodd" d="M345.925 441.891C346.008 441.936 345.847 442.267 345.847 442.877C345.842 443.693 345.842 444.512 345.847 445.322C345.847 446.328 346.253 447.02 346.426 447.094C347.067 447.372 347.704 447.679 348.346 448.021C348.405 447.9 348.484 447.645 348.484 447.211V444.767C348.484 443.775 348.082 442.951 347.861 442.829C347.214 442.482 346.573 442.174 345.925 441.891ZM348.401 449.305C348.22 449.305 348.033 449.256 347.856 449.163C347.214 448.817 346.573 448.51 345.925 448.227C345.057 447.846 344.601 446.479 344.601 445.328C344.597 444.512 344.597 443.693 344.601 442.873C344.601 441.32 345.469 440.34 346.42 440.759C347.102 441.053 347.774 441.379 348.449 441.746C349.278 442.189 349.728 443.634 349.728 444.767V447.211C349.728 447.738 349.636 448.202 349.464 448.553C349.233 449.031 348.847 449.305 348.401 449.305Z" fill="#2D3D57"/>
<path fill-rule="evenodd" clip-rule="evenodd" d="M345.925 432.394C346.003 432.433 345.842 432.77 345.842 433.384V435.83C345.842 436.826 346.254 437.523 346.426 437.597C347.063 437.87 347.704 438.178 348.346 438.519C348.406 438.397 348.484 438.143 348.484 437.714V435.264C348.484 434.273 348.077 433.449 347.857 433.326C347.214 432.984 346.573 432.677 345.925 432.394ZM348.406 439.808C348.22 439.808 348.038 439.759 347.861 439.661C347.214 439.314 346.577 439.007 345.931 438.729C345.062 438.349 344.607 436.981 344.597 435.83L344.601 434.195L344.597 433.38C344.611 431.814 345.484 430.861 346.426 431.261C347.102 431.555 347.774 431.881 348.445 432.243C349.288 432.691 349.729 434.102 349.729 435.264V437.714C349.729 438.241 349.636 438.704 349.464 439.056C349.233 439.534 348.847 439.808 348.406 439.808Z" fill="#2D3D57"/>
<path fill-rule="evenodd" clip-rule="evenodd" d="M345.925 375.396C346.003 375.439 345.842 375.772 345.842 376.385L345.847 378.827C345.847 379.832 346.254 380.524 346.426 380.598C347.067 380.876 347.704 381.183 348.346 381.526C348.406 381.404 348.484 381.15 348.484 380.716V378.27C348.484 377.279 348.077 376.449 347.857 376.327C347.214 375.986 346.573 375.678 345.925 375.396ZM348.401 382.809C348.22 382.809 348.033 382.76 347.857 382.668C347.214 382.32 346.573 382.013 345.925 381.73C345.057 381.35 344.601 379.983 344.601 378.831L344.597 376.382C344.607 374.82 345.478 373.839 346.42 374.262C347.102 374.556 347.774 374.883 348.449 375.239C349.283 375.697 349.729 377.142 349.729 378.27V380.716C349.729 381.242 349.636 381.705 349.464 382.057C349.233 382.536 348.847 382.809 348.401 382.809Z" fill="#2D3D57"/>
<path fill-rule="evenodd" clip-rule="evenodd" d="M345.925 318.399C346.009 318.44 345.847 318.778 345.847 319.385L345.842 321.833C345.842 322.833 346.254 323.526 346.426 323.601C347.067 323.88 347.704 324.187 348.346 324.526C348.406 324.407 348.484 324.153 348.484 323.719V321.271C348.484 320.28 348.077 319.455 347.857 319.336C347.214 318.989 346.573 318.679 345.925 318.399ZM348.401 325.809C348.22 325.809 348.033 325.764 347.857 325.668C347.214 325.322 346.573 325.012 345.931 324.734C345.062 324.356 344.607 322.989 344.597 321.834L344.601 319.38C344.601 318.062 345.156 317.174 345.984 317.174C346.131 317.174 346.279 317.203 346.42 317.266C347.102 317.562 347.774 317.886 348.445 318.247C349.288 318.699 349.729 320.109 349.729 321.271V323.719C349.729 324.246 349.636 324.711 349.464 325.063C349.233 325.539 348.847 325.809 348.401 325.809Z" fill="#2D3D57"/>
<path fill-rule="evenodd" clip-rule="evenodd" d="M345.925 337.399C346.009 337.44 345.847 337.777 345.847 338.385L345.842 340.832C345.842 341.833 346.248 342.522 346.42 342.598C347.067 342.88 347.704 343.186 348.346 343.525C348.406 343.406 348.484 343.152 348.484 342.718V340.271C348.484 339.279 348.077 338.453 347.857 338.333C347.214 337.988 346.573 337.678 345.925 337.399ZM348.401 344.809C348.214 344.809 348.033 344.763 347.861 344.668C347.214 344.321 346.573 344.011 345.925 343.731C345.062 343.357 344.607 341.991 344.597 340.834L344.601 338.385C344.601 337.061 345.156 336.171 345.979 336.171C346.131 336.171 346.279 336.202 346.42 336.266C347.102 336.562 347.774 336.886 348.445 337.244C349.288 337.698 349.729 339.111 349.729 340.271V342.718C349.729 343.246 349.636 343.711 349.464 344.063C349.23 344.536 348.841 344.809 348.401 344.809Z" fill="#2D3D57"/>
</svg>
