<svg width="57" height="72" viewBox="0 0 57 72" fill="none" xmlns="http://www.w3.org/2000/svg">
<path fill-rule="evenodd" clip-rule="evenodd" d="M41.5399 69.1626H53.2669V67.1188H41.5399V69.1626ZM39.4218 64.1358L44.2751 58.0387H53.2669V60.0836H44.6309V62.2883H53.2669V64.9141H41.474C41.3356 64.4654 40.9338 64.1358 40.4418 64.1358H39.4218ZM19.9305 69.1626H39.3438V66.3406H19.9305V69.1626ZM17.7344 65.2382V69.1615H8.29125C5.28042 69.1615 2.84936 66.8024 2.75713 63.7919C2.67038 60.562 5.19807 58.0387 8.29125 58.0387H18.5557L19.6142 64.1358H18.8324C18.2263 64.1358 17.7344 64.6286 17.7344 65.2382ZM2.74615 58.1798V8.51076C2.74615 5.48258 5.19917 3.01991 8.21438 3.01991H10.9891V55.834H8.29125C6.07211 55.834 4.07807 56.7765 2.74615 58.1798ZM47.6878 3.02321V10.6328L43.5262 14.8107L39.2296 10.624V3.02321H47.6878ZM23.5101 50.1248C24.1173 50.1248 24.6081 49.631 24.6081 49.0225V34.2939C24.6081 33.5002 25.2439 32.8068 26.0905 32.8068C26.914 32.8068 27.5838 33.4737 27.5838 34.2939V49.0225C27.5838 49.631 28.0757 50.1248 28.6818 50.1248C29.289 50.1248 29.7799 49.631 29.7799 49.0225V31.8367C29.7799 31.0584 30.3915 30.3364 31.2622 30.3364C32.0858 30.3364 32.7556 31.0099 32.7556 31.8367V49.0225C32.7556 49.631 33.2475 50.1248 33.8536 50.1248C34.4608 50.1248 34.9516 49.631 34.9516 49.0225V34.2939C34.9516 33.5068 35.5797 32.8068 36.4351 32.8068C37.2586 32.8068 37.9273 33.4737 37.9273 34.2939V51.0398C37.9273 51.4168 38.1206 51.7696 38.439 51.9702C38.7574 52.173 39.1571 52.1962 39.4964 52.0352C46.5294 48.5694 46.8181 48.3721 47.4451 49.1482C47.7976 49.5902 47.768 50.2064 47.3024 50.6926L36.6207 64.1248H21.8421L20.5629 56.7467C20.5629 56.7456 20.5618 56.7445 20.5618 56.7445L19.4363 50.2704V37.5359C19.4363 36.7433 20.0688 36.0477 20.9187 36.0477C21.7422 36.0477 22.412 36.7146 22.412 37.5359V49.0225C22.412 49.631 22.904 50.1248 23.5101 50.1248ZM53.2669 55.834H46.0254L48.9483 52.1488C50.1046 50.956 50.1968 49.0743 49.1548 47.7636C48.1138 46.4849 46.1396 46.1883 44.8043 47.0691L40.1234 49.297V34.2939C40.1234 32.2589 38.4687 30.6021 36.4351 30.6021C35.8718 30.6021 35.3305 30.7255 34.8462 30.957C34.4531 29.3376 32.9949 28.1317 31.2622 28.1317C29.4636 28.1317 28.0592 29.3972 27.6859 30.9647C27.2017 30.7321 26.6614 30.6021 26.0905 30.6021C24.0602 30.6021 22.4834 32.2159 22.4142 34.1605C21.9574 33.9565 21.4512 33.843 20.9187 33.843C18.8588 33.843 17.2403 35.512 17.2403 37.5359V50.3663C17.2403 50.5173 17.4269 51.5149 18.1736 55.834H13.1852V3.01991H37.0335V11.0892C37.0335 11.3879 37.1532 11.6734 37.3651 11.8807L42.7719 17.15C42.9849 17.3583 43.2616 17.4619 43.5372 17.4619C43.8183 17.4619 44.0994 17.3539 44.3135 17.1389L49.5621 11.8685C49.7675 11.6624 49.8839 11.3824 49.8839 11.0892V3.01991H53.2669V55.834ZM54.365 0.815186H8.21438C3.98913 0.815186 0.550069 4.26778 0.550069 8.51076C0.552265 67.0747 0.540187 63.6916 0.563245 63.9099C0.718069 68.0955 4.10223 71.3662 8.29125 71.3662H54.365C54.9711 71.3662 55.463 70.8735 55.463 70.2639V1.91755C55.463 1.30794 54.9711 0.815186 54.365 0.815186Z" fill="#2D3D57"/>
<path d="M41.5399 69.1626H40.9899V69.7126H41.5399V69.1626ZM53.2669 69.1626V69.7126H53.8169V69.1626H53.2669ZM53.2669 67.1188H53.8169V66.5688H53.2669V67.1188ZM41.5399 67.1188V66.5688H40.9899V67.1188H41.5399ZM39.4218 64.1358L38.9914 63.7933L38.281 64.6858H39.4218V64.1358ZM44.2751 58.0387V57.4887H44.0099L43.8448 57.6962L44.2751 58.0387ZM53.2669 58.0387H53.8169V57.4887H53.2669V58.0387ZM53.2669 60.0836V60.6336H53.8169V60.0836H53.2669ZM44.6309 60.0836V59.5336H44.0809V60.0836H44.6309ZM44.6309 62.2883H44.0809V62.8383H44.6309V62.2883ZM53.2669 62.2883H53.8169V61.7383H53.2669V62.2883ZM53.2669 64.9141V65.4641H53.8169V64.9141H53.2669ZM41.474 64.9141L40.9484 65.0762L41.068 65.4641H41.474V64.9141ZM19.9305 69.1626H19.3805V69.7126H19.9305V69.1626ZM39.3438 69.1626V69.7126H39.8938V69.1626H39.3438ZM39.3438 66.3406H39.8938V65.7906H39.3438V66.3406ZM19.9305 66.3406V65.7906H19.3805V66.3406H19.9305ZM17.7344 69.1615V69.7115H18.2844V69.1615H17.7344ZM2.75713 63.7919L2.20732 63.8067L2.20739 63.8087L2.75713 63.7919ZM18.5557 58.0387L19.0976 57.9446L19.0185 57.4887H18.5557V58.0387ZM19.6142 64.1358V64.6858H20.2679L20.1561 64.0418L19.6142 64.1358ZM2.74615 58.1798H2.19615V59.5582L3.14507 58.5584L2.74615 58.1798ZM10.9891 3.01991H11.5391V2.46991H10.9891V3.01991ZM10.9891 55.834V56.384H11.5391V55.834H10.9891ZM47.6878 3.02321H48.2378V2.47321H47.6878V3.02321ZM47.6878 10.6328L48.0775 11.0209L48.2378 10.86V10.6328H47.6878ZM43.5262 14.8107L43.1424 15.2047L43.532 15.5843L43.9159 15.1989L43.5262 14.8107ZM39.2296 10.624H38.6796V10.856L38.8458 11.0179L39.2296 10.624ZM39.2296 3.02321V2.47321H38.6796V3.02321H39.2296ZM38.439 51.9702L38.7345 51.5063L38.7322 51.5049L38.439 51.9702ZM39.4964 52.0352L39.7322 52.5322L39.7395 52.5286L39.4964 52.0352ZM47.4451 49.1482L47.8752 48.8053L47.873 48.8025L47.4451 49.1482ZM47.3024 50.6926L46.9052 50.3121L46.8877 50.3304L46.8719 50.3502L47.3024 50.6926ZM36.6207 64.1248V64.6748H36.886L37.0511 64.4671L36.6207 64.1248ZM21.8421 64.1248L21.3002 64.2188L21.3793 64.6748H21.8421V64.1248ZM20.5629 56.7467H20.0129V56.794L20.021 56.8407L20.5629 56.7467ZM20.5618 56.7445L20.02 56.8387L20.0497 57.0097L20.1721 57.1326L20.5618 56.7445ZM19.4363 50.2704H18.8863V50.3178L18.8945 50.3646L19.4363 50.2704ZM53.2669 55.834V56.384H53.8169V55.834H53.2669ZM46.0254 55.834L45.5945 55.4922L44.8871 56.384H46.0254V55.834ZM48.9483 52.1488L48.5534 51.766L48.5344 51.7856L48.5174 51.807L48.9483 52.1488ZM49.1548 47.7636L49.5853 47.4213L49.5813 47.4164L49.1548 47.7636ZM44.8043 47.0691L45.0407 47.5657L45.0753 47.5493L45.1072 47.5282L44.8043 47.0691ZM40.1234 49.297H39.5734V50.1679L40.3598 49.7936L40.1234 49.297ZM34.8462 30.957L34.3117 31.0868L34.4717 31.7457L35.0834 31.4532L34.8462 30.957ZM27.6859 30.9647L27.4478 31.4605L28.0629 31.7559L28.2209 31.0922L27.6859 30.9647ZM22.4142 34.1605L22.19 34.6627L22.9349 34.9952L22.9639 34.18L22.4142 34.1605ZM18.1736 55.834V56.384H18.8268L18.7156 55.7403L18.1736 55.834ZM13.1852 55.834H12.6352V56.384H13.1852V55.834ZM13.1852 3.01991V2.46991H12.6352V3.01991H13.1852ZM37.0335 3.01991H37.5835V2.46991H37.0335V3.01991ZM37.3651 11.8807L36.9806 12.2739L36.9813 12.2746L37.3651 11.8807ZM42.7719 17.15L43.1564 16.7568L43.1557 16.7561L42.7719 17.15ZM44.3135 17.1389L44.7032 17.5271L44.7032 17.527L44.3135 17.1389ZM49.5621 11.8685L49.1725 11.4804L49.1724 11.4804L49.5621 11.8685ZM49.8839 3.01991V2.46991H49.3339V3.01991H49.8839ZM53.2669 3.01991H53.8169V2.46991H53.2669V3.01991ZM0.550069 8.51076H6.89626e-05V8.51078L0.550069 8.51076ZM0.563245 63.9099L1.11287 63.8895L1.11218 63.8708L1.1102 63.8521L0.563245 63.9099ZM41.5399 69.7126H53.2669V68.6126H41.5399V69.7126ZM53.8169 69.1626V67.1188H52.7169V69.1626H53.8169ZM53.2669 66.5688H41.5399V67.6688H53.2669V66.5688ZM40.9899 67.1188V69.1626H42.0899V67.1188H40.9899ZM39.8521 64.4784L44.7054 58.3812L43.8448 57.6962L38.9914 63.7933L39.8521 64.4784ZM44.2751 58.5887H53.2669V57.4887H44.2751V58.5887ZM52.7169 58.0387V60.0836H53.8169V58.0387H52.7169ZM53.2669 59.5336H44.6309V60.6336H53.2669V59.5336ZM44.0809 60.0836V62.2883H45.1809V60.0836H44.0809ZM44.6309 62.8383H53.2669V61.7383H44.6309V62.8383ZM52.7169 62.2883V64.9141H53.8169V62.2883H52.7169ZM53.2669 64.3641H41.474V65.4641H53.2669V64.3641ZM41.9996 64.752C41.7961 64.0922 41.1948 63.5858 40.4418 63.5858V64.6858C40.6727 64.6858 40.8752 64.8387 40.9484 65.0762L41.9996 64.752ZM40.4418 63.5858H39.4218V64.6858H40.4418V63.5858ZM19.9305 69.7126H39.3438V68.6126H19.9305V69.7126ZM39.8938 69.1626V66.3406H38.7938V69.1626H39.8938ZM39.3438 65.7906H19.9305V66.8906H39.3438V65.7906ZM19.3805 66.3406V69.1626H20.4805V66.3406H19.3805ZM17.1844 65.2382V69.1615H18.2844V65.2382H17.1844ZM17.7344 68.6115H8.29125V69.7115H17.7344V68.6115ZM8.29125 68.6115C5.57787 68.6115 3.39001 66.4888 3.30687 63.7751L2.20739 63.8087C2.30871 67.1161 4.98298 69.7115 8.29125 69.7115V68.6115ZM3.30693 63.7771C3.2285 60.8569 5.50731 58.5887 8.29125 58.5887V57.4887C4.88883 57.4887 2.11226 60.267 2.20733 63.8067L3.30693 63.7771ZM8.29125 58.5887H18.5557V57.4887H8.29125V58.5887ZM18.0138 58.1328L19.0723 64.2299L20.1561 64.0418L19.0976 57.9446L18.0138 58.1328ZM19.6142 63.5858H18.8324V64.6858H19.6142V63.5858ZM18.8324 63.5858C17.9209 63.5858 17.1844 64.3265 17.1844 65.2382H18.2844C18.2844 64.9307 18.5317 64.6858 18.8324 64.6858V63.5858ZM3.29615 58.1798V8.51076H2.19615V58.1798H3.29615ZM3.29615 8.51076C3.29615 5.78422 5.50503 3.56991 8.21438 3.56991V2.46991C4.8933 2.46991 2.19615 5.18093 2.19615 8.51076H3.29615ZM8.21438 3.56991H10.9891V2.46991H8.21438V3.56991ZM10.4391 3.01991V55.834H11.5391V3.01991H10.4391ZM10.9891 55.284H8.29125V56.384H10.9891V55.284ZM8.29125 55.284C5.91686 55.284 3.77993 56.2917 2.34722 57.8012L3.14507 58.5584C4.37621 57.2613 6.22736 56.384 8.29125 56.384V55.284ZM47.1378 3.02321V10.6328H48.2378V3.02321H47.1378ZM47.2981 10.2447L43.1366 14.4226L43.9159 15.1989L48.0775 11.0209L47.2981 10.2447ZM43.9101 14.4168L39.6134 10.2301L38.8458 11.0179L43.1424 15.2047L43.9101 14.4168ZM39.7796 10.624V3.02321H38.6796V10.624H39.7796ZM39.2296 3.57321H47.6878V2.47321H39.2296V3.57321ZM23.5101 50.6748C24.4234 50.6748 25.1581 49.9323 25.1581 49.0225H24.0581C24.0581 49.3296 23.8111 49.5748 23.5101 49.5748V50.6748ZM25.1581 49.0225V34.2939H24.0581V49.0225H25.1581ZM25.1581 34.2939C25.1581 33.7888 25.5626 33.3568 26.0905 33.3568V32.2568C24.9252 32.2568 24.0581 33.2116 24.0581 34.2939H25.1581ZM26.0905 33.3568C26.6124 33.3568 27.0338 33.7796 27.0338 34.2939H28.1338C28.1338 33.1678 27.2156 32.2568 26.0905 32.2568V33.3568ZM27.0338 34.2939V49.0225H28.1338V34.2939H27.0338ZM27.0338 49.0225C27.0338 49.9327 27.7699 50.6748 28.6818 50.6748V49.5748C28.3815 49.5748 28.1338 49.3293 28.1338 49.0225H27.0338ZM28.6818 50.6748C29.5952 50.6748 30.3299 49.9323 30.3299 49.0225H29.2299C29.2299 49.3296 28.9829 49.5748 28.6818 49.5748V50.6748ZM30.3299 49.0225V31.8367H29.2299V49.0225H30.3299ZM30.3299 31.8367C30.3299 31.3309 30.7256 30.8864 31.2622 30.8864V29.7864C30.0573 29.7864 29.2299 30.786 29.2299 31.8367H30.3299ZM31.2622 30.8864C31.7794 30.8864 32.2056 31.3111 32.2056 31.8367H33.3056C33.3056 30.7087 32.3921 29.7864 31.2622 29.7864V30.8864ZM32.2056 31.8367V49.0225H33.3056V31.8367H32.2056ZM32.2056 49.0225C32.2056 49.9327 32.9417 50.6748 33.8536 50.6748V49.5748C33.5533 49.5748 33.3056 49.3293 33.3056 49.0225H32.2056ZM33.8536 50.6748C34.767 50.6748 35.5016 49.9323 35.5016 49.0225H34.4016C34.4016 49.3296 34.1547 49.5748 33.8536 49.5748V50.6748ZM35.5016 49.0225V34.2939H34.4016V49.0225H35.5016ZM35.5016 34.2939C35.5016 33.7921 35.9015 33.3568 36.4351 33.3568V32.2568C35.2579 32.2568 34.4016 33.2214 34.4016 34.2939H35.5016ZM36.4351 33.3568C36.9565 33.3568 37.3773 33.7791 37.3773 34.2939H38.4773C38.4773 33.1683 37.5607 32.2568 36.4351 32.2568V33.3568ZM37.3773 34.2939V51.0398H38.4773V34.2939H37.3773ZM37.3773 51.0398C37.3773 51.6041 37.6662 52.1333 38.1458 52.4355L38.7322 51.5049C38.575 51.4058 38.4773 51.2295 38.4773 51.0398H37.3773ZM38.1435 52.4341C38.6227 52.7393 39.2232 52.7736 39.7321 52.5322L39.2607 51.5383C39.0911 51.6188 38.8922 51.6067 38.7345 51.5063L38.1435 52.4341ZM39.7395 52.5286C43.2771 50.7853 45.0698 49.889 46.0659 49.5161C46.576 49.3251 46.7699 49.3161 46.8397 49.3274C46.8506 49.3292 46.8745 49.317 47.0173 49.4938L47.873 48.8025C47.7023 48.5913 47.455 48.3128 47.0156 48.2416C46.6351 48.1799 46.1997 48.2914 45.6801 48.4859C44.6168 48.8841 42.7486 49.8194 39.2533 51.5419L39.7395 52.5286ZM47.0151 49.491C47.1755 49.6922 47.2038 50.0003 46.9052 50.3121L47.6996 51.073C48.3321 50.4125 48.4197 49.4882 47.8752 48.8053L47.0151 49.491ZM46.8719 50.3502L36.1902 63.7825L37.0511 64.4671L47.7329 51.0349L46.8719 50.3502ZM36.6207 63.5748H21.8421V64.6748H36.6207V63.5748ZM22.3841 64.0309L21.1048 56.6528L20.021 56.8407L21.3002 64.2188L22.3841 64.0309ZM21.1129 56.7467C21.1129 56.5815 21.0391 56.4689 21.0206 56.441C21.0054 56.4181 20.991 56.4002 20.9803 56.3876C20.9747 56.381 20.9695 56.3752 20.9647 56.3701C20.9623 56.3675 20.96 56.3651 20.9579 56.3629C20.9568 56.3617 20.9557 56.3606 20.9546 56.3595C20.9541 56.359 20.9536 56.3585 20.9531 56.3579C20.9528 56.3577 20.9526 56.3574 20.9523 56.3572C20.9522 56.357 20.952 56.3569 20.9519 56.3568C20.9519 56.3567 20.9518 56.3566 20.9517 56.3566C20.9516 56.3565 20.9515 56.3564 20.5618 56.7445C20.1721 57.1326 20.172 57.1325 20.1719 57.1324C20.1719 57.1324 20.1718 57.1323 20.1718 57.1322C20.1716 57.1321 20.1715 57.132 20.1714 57.1319C20.1711 57.1316 20.1709 57.1313 20.1706 57.1311C20.1701 57.1306 20.1696 57.13 20.169 57.1295C20.168 57.1284 20.1669 57.1273 20.1658 57.1262C20.1637 57.1239 20.1614 57.1216 20.159 57.119C20.1544 57.114 20.1492 57.1082 20.1437 57.1018C20.1332 57.0895 20.1191 57.0719 20.1042 57.0494C20.0899 57.0279 20.0696 56.994 20.0518 56.9495C20.0345 56.906 20.0129 56.8357 20.0129 56.7467H21.1129ZM21.1037 56.6503L19.9782 50.1762L18.8945 50.3646L20.02 56.8387L21.1037 56.6503ZM19.9863 50.2704V37.5359H18.8863V50.2704H19.9863ZM19.9863 37.5359C19.9863 37.0303 20.3891 36.5977 20.9187 36.5977V35.4977C19.7486 35.4977 18.8863 36.4563 18.8863 37.5359H19.9863ZM20.9187 36.5977C21.4404 36.5977 21.862 37.0203 21.862 37.5359H22.962C22.962 36.409 22.0441 35.4977 20.9187 35.4977V36.5977ZM21.862 37.5359V49.0225H22.962V37.5359H21.862ZM21.862 49.0225C21.862 49.9327 22.5982 50.6748 23.5101 50.6748V49.5748C23.2097 49.5748 22.962 49.3293 22.962 49.0225H21.862ZM53.2669 55.284H46.0254V56.384H53.2669V55.284ZM46.4563 56.1758L49.3793 52.4906L48.5174 51.807L45.5945 55.4922L46.4563 56.1758ZM49.3433 52.5316C50.6928 51.1394 50.7984 48.9472 49.5853 47.4213L48.7243 48.1059C49.5952 49.2014 49.5163 50.7727 48.5534 51.766L49.3433 52.5316ZM49.5813 47.4164C48.3641 45.921 46.0751 45.5719 44.5015 46.61L45.1072 47.5282C46.204 46.8047 47.8636 47.0487 48.7282 48.1108L49.5813 47.4164ZM44.568 46.5725L39.887 48.8004L40.3598 49.7936L45.0407 47.5657L44.568 46.5725ZM40.6734 49.297V34.2939H39.5734V49.297H40.6734ZM40.6734 34.2939C40.6734 31.9557 38.773 30.0521 36.4351 30.0521V31.1521C38.1644 31.1521 39.5734 32.5621 39.5734 34.2939H40.6734ZM36.4351 30.0521C35.7912 30.0521 35.1687 30.1932 34.609 30.4608L35.0834 31.4532C35.4922 31.2578 35.9523 31.1521 36.4351 31.1521V30.0521ZM35.3807 30.8273C34.9295 28.9687 33.2562 27.5817 31.2622 27.5817V28.6817C32.7336 28.6817 33.9767 29.7066 34.3117 31.0868L35.3807 30.8273ZM31.2622 27.5817C29.1905 27.5817 27.5788 29.0405 27.1509 30.8373L28.2209 31.0922C28.5397 29.7539 29.7368 28.6817 31.2622 28.6817V27.5817ZM27.9241 30.469C27.3675 30.2016 26.746 30.0521 26.0905 30.0521V31.1521C26.5769 31.1521 27.0359 31.2627 27.4478 31.4605L27.9241 30.469ZM26.0905 30.0521C23.7539 30.0521 21.9439 31.9107 21.8646 34.1409L22.9639 34.18C23.0229 32.5211 24.3665 31.1521 26.0905 31.1521V30.0521ZM22.6384 33.6582C22.1126 33.4235 21.5301 33.293 20.9187 33.293V34.393C21.3724 34.393 21.8023 34.4896 22.19 34.6627L22.6384 33.6582ZM20.9187 33.293C18.5487 33.293 16.6903 35.2145 16.6903 37.5359H17.7903C17.7903 35.8094 19.1688 34.393 20.9187 34.393V33.293ZM16.6903 37.5359V50.3663H17.7903V37.5359H16.6903ZM16.6903 50.3663C16.6903 50.4585 16.712 50.6014 16.738 50.7639C16.7678 50.9501 16.8151 51.2273 16.885 51.631C17.0256 52.4424 17.258 53.7664 17.6316 55.9277L18.7156 55.7403C18.3425 53.5824 18.1083 52.2481 17.9689 51.4432C17.8988 51.0387 17.8527 50.7683 17.8242 50.59C17.7918 50.3879 17.7903 50.3495 17.7903 50.3663H16.6903ZM18.1736 55.284H13.1852V56.384H18.1736V55.284ZM13.7352 55.834V3.01991H12.6352V55.834H13.7352ZM13.1852 3.56991H37.0335V2.46991H13.1852V3.56991ZM36.4835 3.01991V11.0892H37.5835V3.01991H36.4835ZM36.4835 11.0892C36.4835 11.5347 36.662 11.9624 36.9806 12.2739L37.7497 11.4874C37.6444 11.3845 37.5835 11.2411 37.5835 11.0892H36.4835ZM36.9813 12.2746L42.388 17.5438L43.1557 16.7561L37.749 11.4868L36.9813 12.2746ZM42.3873 17.5432C42.7074 17.8562 43.124 18.0119 43.5372 18.0119V16.9119C43.3992 16.9119 43.2624 16.8604 43.1564 16.7568L42.3873 17.5432ZM43.5372 18.0119C43.9592 18.0119 44.3822 17.8493 44.7032 17.5271L43.9238 16.7508C43.8166 16.8584 43.6774 16.9119 43.5372 16.9119V18.0119ZM44.7032 17.527L49.9519 12.2567L49.1724 11.4804L43.9238 16.7508L44.7032 17.527ZM49.9518 12.2567C50.2596 11.9477 50.4339 11.5282 50.4339 11.0892H49.3339C49.3339 11.2366 49.2754 11.3771 49.1725 11.4804L49.9518 12.2567ZM50.4339 11.0892V3.01991H49.3339V11.0892H50.4339ZM49.8839 3.56991H53.2669V2.46991H49.8839V3.56991ZM52.7169 3.01991V55.834H53.8169V3.01991H52.7169ZM54.365 0.265186H8.21438V1.36519H54.365V0.265186ZM8.21438 0.265186C3.68329 0.265186 6.89626e-05 3.96611 6.89626e-05 8.51076H1.10007C1.10007 4.56944 4.29497 1.36519 8.21438 1.36519V0.265186ZM6.89626e-05 8.51078C0.001167 37.793 -0.00130361 51.5876 -0.00116634 58.09C-0.00109774 61.3404 -0.000377953 62.7693 0.00177068 63.3991C0.00282216 63.7073 0.0041796 63.8361 0.00668007 63.893C0.0072341 63.9056 0.00854748 63.9346 0.0131027 63.9667C0.0157826 63.9856 0.0307357 64.1119 0.12591 64.2337C0.211578 64.3434 0.083485 64.1931 0.0446305 64.0868C0.0298998 64.0465 0.0234773 64.0138 0.0209374 63.9997C0.0180542 63.9837 0.0167392 63.9719 0.0162892 63.9676L1.1102 63.8521C1.10272 63.7813 1.09897 64.6257 1.09883 58.0899C1.0987 51.5883 1.10117 37.7924 1.10007 8.51074L6.89626e-05 8.51078ZM0.0136213 63.9302C0.179348 68.4106 3.80551 71.9162 8.29125 71.9162V70.8162C4.39894 70.8162 1.25679 67.7804 1.11287 63.8895L0.0136213 63.9302ZM8.29125 71.9162H54.365V70.8162H8.29125V71.9162ZM54.365 71.9162C55.2765 71.9162 56.013 71.1755 56.013 70.2639H54.913C54.913 70.5714 54.6657 70.8162 54.365 70.8162V71.9162ZM56.013 70.2639V1.91755H54.913V70.2639H56.013ZM56.013 1.91755C56.013 1.00586 55.2765 0.265186 54.365 0.265186V1.36519C54.6657 1.36519 54.913 1.61002 54.913 1.91755H56.013Z" fill="#2D3D57"/>
</svg>
