<svg width="149" height="39" viewBox="0 0 149 39" fill="none" xmlns="http://www.w3.org/2000/svg">
<mask id="mask0" mask-type="alpha" maskUnits="userSpaceOnUse" x="73" y="1" width="28" height="38">
<path fill-rule="evenodd" clip-rule="evenodd" d="M73.1704 1.03333H100.724V38.3336H73.1704V1.03333Z" fill="white"/>
</mask>
<g mask="url(#mask0)">
<path fill-rule="evenodd" clip-rule="evenodd" d="M86.6069 36.4513C85.9272 36.4513 85.0766 36.4513 84.5659 36.2804C84.396 33.8843 84.226 23.7903 84.396 14.8928C85.4165 14.55 86.0961 14.379 86.9477 14.379C90.6889 14.379 92.7299 18.8283 92.7299 24.3031C92.7299 31.1474 90.1791 36.4513 86.6069 36.4513ZM90.519 11.6411C88.1381 11.6411 86.267 12.1549 84.396 13.1815C84.396 7.70668 84.396 2.74464 84.5659 1.03333L73.1704 3.08651V4.11311L74.3608 4.28404C75.8921 4.62591 76.4018 5.48157 76.7417 7.53476C77.0825 11.6411 76.9126 33.5425 76.7417 37.135C79.8032 37.8208 83.0346 38.3336 86.267 38.3336C95.2817 38.3336 100.724 32.6868 100.724 23.7903C100.724 16.7741 96.3022 11.6411 90.519 11.6411Z" fill="#FEFEFE"/>
</g>
<path fill-rule="evenodd" clip-rule="evenodd" d="M30.1646 1.68127H0.956543V3.21324L2.61643 3.38335C4.77371 3.72455 5.60365 5.08543 5.93429 8.32143C6.4336 14.4513 6.26684 25.5192 5.93429 30.7985C5.60365 34.0325 4.77371 35.5655 2.61643 35.7356L0.956543 36.0768V37.4396H19.7098V36.0768L17.7183 35.7356C15.5611 35.5655 14.7311 34.0325 14.3995 30.7985C14.2328 28.5841 14.067 25.0079 14.067 20.5811L18.0499 20.7522C20.5407 20.7522 21.7003 22.7945 22.1987 25.6903H23.6928V13.6007H22.1987C21.7003 16.4945 20.5407 18.5378 18.0499 18.5378L14.067 18.7079C14.067 12.9193 14.2328 7.4699 14.3995 4.23488H20.2062C24.6885 4.23488 27.0116 7.12969 28.6705 12.2379L30.3304 11.7266L30.1646 1.68127Z" fill="#FEFEFE"/>
<path fill-rule="evenodd" clip-rule="evenodd" d="M39.4229 13.2116C35.7109 13.2116 34.6996 18.3039 34.6996 24.9243C34.6996 31.3741 36.3861 36.6359 39.762 36.6359C43.6406 36.6359 44.6538 31.5447 44.6538 24.9243C44.6538 18.4735 42.9664 13.2116 39.4229 13.2116ZM39.9295 11.5149C48.3648 11.5149 52.5834 17.2854 52.5834 24.9243C52.5834 32.222 47.8592 38.3336 39.4229 38.3336C30.9877 38.3336 26.77 32.5631 26.77 24.9243C26.77 17.6246 31.4933 11.5149 39.9295 11.5149Z" fill="#FEFEFE"/>
<path fill-rule="evenodd" clip-rule="evenodd" d="M110.088 21.8689L117.914 21.6984C117.914 18.3039 117.414 13.2116 114.585 13.2116C111.753 13.2116 110.254 17.9637 110.088 21.8689ZM102.43 25.0938C102.43 18.1343 106.758 11.5149 115.25 11.5149C122.243 11.5149 125.573 16.7767 125.573 23.7353H110.088C109.922 30.0165 112.919 34.599 118.913 34.599C121.577 34.599 122.909 33.9197 124.574 32.7327L125.24 33.5806C123.574 35.9576 119.912 38.3336 115.25 38.3336C107.757 38.3336 102.43 32.9013 102.43 25.0938Z" fill="#FEFEFE"/>
<mask id="mask1" mask-type="alpha" maskUnits="userSpaceOnUse" x="127" y="11" width="21" height="28">
<path fill-rule="evenodd" clip-rule="evenodd" d="M127.571 11.2534H147.492V38.3336H127.571V11.2534Z" fill="white"/>
</mask>
<g mask="url(#mask1)">
<path fill-rule="evenodd" clip-rule="evenodd" d="M145.972 12.6252C143.946 11.7671 141.245 11.2534 138.207 11.2534C131.961 11.2534 128.078 15.0233 128.078 19.4801C128.078 23.9369 130.947 25.8214 134.999 27.1932C139.219 28.7352 140.401 29.9357 140.401 31.9924C140.401 34.0491 138.882 35.9336 136.181 35.9336C132.974 35.9336 130.61 34.0491 128.752 28.9074L127.571 29.2489L127.739 36.7917C129.765 37.6488 133.48 38.3337 136.687 38.3337C143.27 38.3337 147.493 34.9052 147.493 29.5923C147.493 25.9926 145.634 23.9369 141.245 22.2227C136.518 20.3372 134.83 19.1377 134.83 16.9098C134.83 14.6809 136.351 13.1389 138.376 13.1389C141.414 13.1389 143.439 15.0233 144.96 19.6514L146.141 19.3089L145.972 12.6252Z" fill="#FEFEFE"/>
</g>
<path fill-rule="evenodd" clip-rule="evenodd" d="M73.9463 11.4064C71.131 9.67058 66.163 10.5385 63.5131 16.7862L63.6785 10.7129L52.5835 12.9688V14.0091L53.7425 14.1835C55.2334 14.3569 55.8952 15.2238 56.0606 17.4807C56.3924 21.6459 56.227 28.9349 56.0606 32.5789C55.8952 34.6625 55.2334 35.7038 53.7425 35.8772L52.5835 36.0506V37.4396H67.9847V36.0506L65.9966 35.8772C64.3412 35.7038 63.8449 34.6625 63.6785 32.5789C63.3476 29.2817 63.3476 22.6872 63.5131 18.522C64.3412 17.3064 67.9847 16.2661 71.2964 18.522L73.9463 11.4064Z" fill="#FEFEFE"/>
</svg>
