<svg width="69" height="60" viewBox="0 0 69 60" fill="none" xmlns="http://www.w3.org/2000/svg">
<path fill-rule="evenodd" clip-rule="evenodd" d="M56.0309 25.3092C56.0309 26.4365 56.7173 27.1274 57.8372 27.1274C58.9575 27.1274 59.6435 26.4365 59.6435 25.3092C59.6435 18.5092 57.0428 12.1456 52.31 7.38194C47.5779 2.6183 41.2559 0.00012207 34.5 0.00012207C27.7445 0.00012207 21.4225 2.6183 16.6904 7.38194C11.9576 12.1456 9.35693 18.5092 9.35693 25.3092C9.35693 26.4365 10.043 27.1274 11.1632 27.1274C12.2828 27.1274 12.9695 26.4365 12.9695 25.3092C12.9695 19.491 15.2089 14.0365 19.255 9.92739C23.3011 5.85467 28.7199 3.60012 34.5362 3.60012C40.3527 3.60012 45.7351 5.85467 49.8177 9.92739C53.7915 14.0001 56.0309 19.491 56.0309 25.3092Z" fill="#2D3D57"/>
<path fill-rule="evenodd" clip-rule="evenodd" d="M60.6912 45.7455V35.3818C62.7865 36.0727 64.2677 38.0727 64.2677 40.3273V41.0182C64.2677 43.1273 62.7504 45.0909 60.6912 45.7455ZM59.2101 30.5455H57.8012C56.6813 30.5455 55.9949 31.2364 55.9949 32.3637V34.9455C55.9949 45.9637 47.7582 55.1637 36.8483 56.4L36.2341 56.4727V53.2727C36.2341 52.1455 35.5478 51.4546 34.4279 51.4546C33.308 51.4546 32.6216 52.1455 32.6216 53.2727V60H34.4279C42.6645 60 50.3954 55.9637 55.0917 49.2L55.742 48.2546L56.031 49.3818C56.2478 50.1455 56.8619 50.6182 57.765 50.6182H59.1739C64.4483 50.6182 68.8917 46.2546 68.8917 41.0546V40.3637C68.9279 35.0182 64.4844 30.5455 59.2101 30.5455Z" fill="#2D3D57"/>
<mask id="mask0" mask-type="alpha" maskUnits="userSpaceOnUse" x="0" y="30" width="13" height="21">
<path fill-rule="evenodd" clip-rule="evenodd" d="M0 30.5456H12.9329V50.582H0V30.5456Z" fill="white"/>
</mask>
<g mask="url(#mask0)">
<path fill-rule="evenodd" clip-rule="evenodd" d="M8.77853 46.2183C6.21361 46.0001 4.11869 43.6365 4.11869 40.8001V40.1092C4.11869 37.5274 6.21361 35.1638 8.77853 34.691V46.2183ZM11.1267 30.5456H9.71816C4.44346 30.5456 0 34.9092 0 40.1092V40.8001C0 46.1092 4.44346 50.582 9.71816 50.582H11.1267C12.247 50.582 12.933 49.891 12.933 48.7638V32.3274C12.933 31.2365 12.247 30.5456 11.1267 30.5456Z" fill="#2D3D57"/>
</g>
</svg>
