<svg width="74" height="87" viewBox="0 0 74 87" fill="none" xmlns="http://www.w3.org/2000/svg">
<path fill-rule="evenodd" clip-rule="evenodd" d="M21.6965 67.0855C20.9917 66.5826 20.2366 66.2305 19.3808 66.0797C19.0788 66.0294 18.7264 65.9791 18.4244 65.9288C18.1223 65.9288 17.921 65.8785 17.7196 65.8282C16.9142 65.5265 16.3101 64.7219 16.3101 63.867C16.3101 62.7103 17.2666 61.7548 18.4244 61.7548H18.6761C19.8339 61.7548 20.7904 62.7103 20.7904 63.867C20.7904 64.7219 21.4951 65.3756 22.3006 65.3756C23.1564 65.3756 23.8108 64.6716 23.8108 63.867C23.8108 61.604 22.3006 59.693 20.2366 58.9889V57.782C20.2366 56.9271 19.5319 56.2733 18.7264 56.2733C17.921 56.2733 17.2162 56.9774 17.2162 57.782V58.8381C14.9509 59.3912 13.2897 61.4028 13.2897 63.8167C13.2897 65.9791 14.6489 67.9404 16.7128 68.6444C17.2666 68.8456 17.77 68.8959 18.1727 68.8959C18.374 68.8959 18.5754 68.9461 18.7264 68.9461C19.1291 69.0467 19.5319 69.1976 19.8843 69.449C20.5387 69.9519 20.9414 70.656 20.9414 71.36C20.9414 72.6172 19.9346 73.623 18.6761 73.623H18.4244C17.1659 73.623 16.1591 72.6172 16.1591 71.36C16.1591 70.5051 15.4543 69.8513 14.6489 69.8513C13.8434 69.8513 13.1387 70.5554 13.1387 71.36C13.1387 73.8745 14.9006 75.9866 17.2666 76.5398V78.0485C17.2666 78.9034 17.9713 79.5571 18.7768 79.5571C19.5822 79.5571 20.287 78.8531 20.287 78.0485V76.4392C22.4516 75.7352 24.0121 73.7236 24.0121 71.36C24.0121 69.8011 23.1564 68.1415 21.6965 67.0855Z" fill="#2D3D57"/>
<mask id="mask0" mask-type="alpha" maskUnits="userSpaceOnUse" x="0" y="23" width="58" height="64">
<path fill-rule="evenodd" clip-rule="evenodd" d="M0 23.0324H57.1863V86.5474H0V23.0324Z" fill="white"/>
</mask>
<g mask="url(#mask0)">
<path fill-rule="evenodd" clip-rule="evenodd" d="M41.2286 73.5226C41.0272 73.5226 40.7755 73.5729 40.5238 73.5729L39.517 73.6232H39.4163H38.9633C38.6612 73.6232 38.3088 73.6735 38.0068 73.6735H37.151C36.849 73.6735 36.5469 73.6735 36.2952 73.6232C36.7483 72.2151 37 70.7567 37.1007 69.248C37.8558 69.248 38.5605 69.248 39.3156 69.1977C40.1211 69.1474 40.7252 68.4937 40.6748 67.6891C40.6245 66.8844 39.9701 66.281 39.1646 66.3313C38.4599 66.3815 37.7551 66.3815 37.0503 66.3815C36.8993 64.8729 36.5973 63.3642 36.0939 61.9561H37.0503C43.8463 61.9561 50.0381 60.548 53.6122 58.2347C53.6626 58.2347 53.6626 58.1844 53.7129 58.1844C53.7129 58.1844 53.7633 58.1844 53.7633 58.1341C53.9646 57.9833 54.1156 57.8827 54.317 57.7318C54.2667 58.3856 54.2163 59.2405 54.015 60.3469C54.015 60.4474 53.9646 60.548 53.9646 60.6486C53.9143 61.6544 52.8068 62.6099 52.102 63.0625L52.0517 63.1128C50.1891 64.3197 47.219 65.3255 43.7456 65.8787C42.9401 65.9792 42.4367 66.7336 42.5374 67.5382C42.6381 68.2422 43.2422 68.7451 43.9469 68.7451H44.1986C48.1252 68.1417 51.3973 67.0353 53.6122 65.5769C53.6626 65.5769 53.7129 65.5266 53.7633 65.4763C53.9646 65.3255 54.166 65.1746 54.317 65.074C54.2667 66.4821 54.015 67.7393 54.015 67.7896V67.9908V68.0411C53.9143 70.1029 49.1823 72.7682 41.2286 73.5226ZM18.5755 83.681C9.91701 83.681 2.86939 76.6405 2.86939 67.9908C2.86939 59.3411 9.91701 52.3006 18.5755 52.3006C27.234 52.3006 34.2816 59.3411 34.2816 67.9908C34.2816 76.6405 27.234 83.681 18.5755 83.681ZM37.1007 25.8486C47.5714 25.8486 53.9646 29.1677 54.015 31.5815V31.6318C53.9646 34.0457 47.5211 37.3648 37.1007 37.3648C26.6803 37.3648 20.2871 34.0457 20.1864 31.6318V31.5313C20.2367 29.1677 26.6803 25.8486 37.1007 25.8486ZM31.1605 54.4128C33.0231 54.6642 35.0367 54.7648 37.1007 54.7648C41.2286 54.7648 45.2054 54.2619 48.5279 53.2561C49.283 53.055 49.7361 52.2503 49.4844 51.496C49.2327 50.7417 48.4776 50.2891 47.7225 50.5405C44.6517 51.4457 40.9769 51.8983 37.1007 51.8983C30.9088 51.8983 25.1197 50.6411 22.049 48.5792C21.2435 48.0261 20.2871 47.1711 20.1864 46.1654V46.0145V45.9642V45.8636C20.1361 45.5619 19.985 44.5058 19.9347 43.2989C20.0857 43.4498 20.2367 43.5503 20.4381 43.7012C20.6898 43.8521 20.9415 43.9526 21.2435 43.9526C21.6966 43.9526 22.1497 43.7515 22.4517 43.2989C22.9048 42.6451 22.7034 41.7399 22.049 41.2873C21.3946 40.8347 20.2871 39.9295 20.2367 38.974V38.9237V38.7729V38.6723C20.2367 38.6723 20.0354 37.4654 19.9347 36.0573C23.5592 38.8232 30.5061 40.2815 37.151 40.2815C43.7959 40.2815 50.7429 38.8232 54.3673 36.0573C54.317 37.4654 54.0653 38.6723 54.0653 38.6723V38.7226V38.8232V38.9237C54.0653 39.6781 53.4109 40.533 52.2027 41.3376C49.132 43.3995 43.3932 44.6567 37.151 44.6567C32.8218 44.6567 28.6939 44.0532 25.4721 42.9469C24.717 42.6954 23.9116 43.0977 23.6599 43.8521C23.4082 44.6064 23.8109 45.411 24.566 45.6625C28.0898 46.8694 32.5701 47.5232 37.2014 47.5232C44.0476 47.5232 50.2898 46.1151 53.8639 43.7012C54.0653 43.5503 54.2667 43.3995 54.468 43.2486C54.4177 44.4052 54.2667 45.4613 54.2163 45.8133V45.9139V46.1151C54.2163 46.8694 53.5619 47.7243 52.3537 48.5289C52.1524 48.6798 51.9007 48.8307 51.649 48.9815C50.9442 49.3839 50.6925 50.2388 51.0952 50.9428C51.3469 51.3954 51.8503 51.6971 52.3537 51.6971C52.6054 51.6971 52.8068 51.6469 53.0585 51.496C53.3605 51.3451 53.6626 51.144 53.9143 50.9428C53.9646 50.9428 53.9646 50.8925 54.015 50.8925C54.2163 50.7417 54.3673 50.6411 54.5184 50.4902C54.468 51.144 54.4177 51.9989 54.2163 53.055C54.2163 53.1555 54.166 53.2561 54.166 53.3567C54.166 54.111 53.5116 54.9156 52.4041 55.7203C52.3537 55.7203 52.3537 55.7706 52.3034 55.7706C49.2327 57.8324 43.4939 59.0896 37.2517 59.0896C36.4966 59.0896 35.7415 59.0896 35.0367 59.0393C33.8789 57.3295 32.6204 55.7706 31.1605 54.4128ZM56.8844 46.1654C56.985 45.5619 57.1864 44.1035 57.1864 42.5445C57.1864 40.9856 56.985 39.4769 56.8844 38.9237C56.985 38.3203 57.1864 36.8619 57.1864 35.3029C57.1864 33.6434 56.9347 32.0341 56.834 31.5815C56.7333 25.9995 46.615 23.0324 37.0503 23.0324C27.4857 23.0324 17.2667 26.0498 17.2667 31.6318C17.166 32.185 16.9646 33.6937 16.9646 35.3029C16.9646 36.8619 17.166 38.3706 17.2667 38.9237C17.166 39.5272 16.9646 40.9856 16.9646 42.5445C16.9646 44.1035 17.166 45.5619 17.2667 46.1654C17.166 46.7185 16.9646 48.0763 16.9646 49.5347C7.50068 50.3393 0 58.3353 0 67.9908C0 78.1995 8.30612 86.5474 18.5755 86.5474C25.7238 86.5474 31.966 82.474 35.0367 76.5399C35.7415 76.5902 36.3959 76.5902 37.0503 76.5902H38.0571C38.4095 76.5902 38.7619 76.5902 39.1143 76.5399H39.5673H39.668L40.6748 76.4896C40.9265 76.4896 41.1782 76.4393 41.5306 76.4393C50.5415 75.5844 56.532 72.4162 56.834 68.3428C56.834 68.2422 57.1864 66.3815 57.1864 64.4706C57.1864 62.9116 56.985 61.4029 56.8844 60.7995C57.1361 59.1902 57.1864 57.933 57.1864 57.1787C57.1864 56.4243 57.1361 55.1671 56.8844 53.5578C57.1361 51.9486 57.1864 50.6914 57.1864 49.937C57.1864 48.2272 56.985 46.7185 56.8844 46.1654Z" fill="#2D3D57"/>
</g>
<path fill-rule="evenodd" clip-rule="evenodd" d="M1.66152 38.7728H11.5785C12.384 38.7728 13.0384 38.1191 13.0384 37.3145C13.0384 36.5098 12.384 35.8561 11.5785 35.8561H1.66152C0.856082 35.8561 0.20166 36.5098 0.20166 37.3145C0.252 38.1694 0.856082 38.7728 1.66152 38.7728Z" fill="#2D3D57"/>
<path fill-rule="evenodd" clip-rule="evenodd" d="M72.4897 35.9062H62.5727C61.7672 35.9062 61.1128 36.56 61.1128 37.3646C61.1128 38.1693 61.7672 38.823 62.5727 38.823H72.4897C73.2951 38.823 73.9495 38.1693 73.9495 37.3646C73.9495 36.56 73.2951 35.9062 72.4897 35.9062Z" fill="#2D3D57"/>
<path fill-rule="evenodd" clip-rule="evenodd" d="M18.022 20.367C18.324 20.6687 18.6764 20.7693 19.0288 20.7693C19.3811 20.7693 19.7839 20.6184 20.0356 20.367C20.5893 19.8138 20.5893 18.9086 20.0356 18.3554L13.0383 11.3653C12.4845 10.8121 11.5784 10.8121 11.0247 11.3653C10.4709 11.9184 10.4709 12.8236 11.0247 13.3768L18.022 20.367Z" fill="#2D3D57"/>
<mask id="mask1" mask-type="alpha" maskUnits="userSpaceOnUse" x="35" y="0" width="4" height="14">
<path fill-rule="evenodd" clip-rule="evenodd" d="M35.6411 0.502869H38.5608V13.3265H35.6411V0.502869Z" fill="white"/>
</mask>
<g mask="url(#mask1)">
<path fill-rule="evenodd" clip-rule="evenodd" d="M37.101 13.3266C37.9064 13.3266 38.5608 12.6728 38.5608 11.8682V1.96125C38.5608 1.15663 37.9064 0.502869 37.101 0.502869C36.2955 0.502869 35.6411 1.15663 35.6411 1.96125V11.8682C35.6411 12.6728 36.2955 13.3266 37.101 13.3266Z" fill="#2D3D57"/>
</g>
<path fill-rule="evenodd" clip-rule="evenodd" d="M55.1223 20.7695C55.4747 20.7695 55.8774 20.6186 56.1291 20.3672L63.1264 13.377C63.6801 12.8238 63.6801 11.9186 63.1264 11.3654C62.5726 10.8123 61.6665 10.8123 61.1128 11.3654L54.1155 18.3556C53.5618 18.9088 53.5618 19.814 54.1155 20.3672C54.3672 20.6186 54.7196 20.7695 55.1223 20.7695Z" fill="#2D3D57"/>
</svg>
