<svg width="82" height="66" viewBox="0 0 82 66" fill="none" xmlns="http://www.w3.org/2000/svg">
<path fill-rule="evenodd" clip-rule="evenodd" d="M57.6827 54.7584C56.996 55.515 55.9862 55.953 54.9359 55.953C54.1281 55.953 53.3202 55.6743 52.6739 55.1964C52.0276 54.6788 51.2197 54.4399 50.4522 54.4399C49.6443 54.4399 48.8768 54.6788 48.2305 55.1964C47.5842 55.7141 46.8167 55.953 45.9684 55.953C44.9182 55.953 43.9083 55.515 43.2217 54.7584C42.4946 53.962 42.1714 52.9666 42.2926 51.8915C42.4946 50.2589 43.868 48.8653 45.5645 48.706C46.534 48.5865 47.5034 48.8653 48.2709 49.4625C49.5635 50.458 51.3813 50.458 52.6739 49.4625C53.4414 48.8653 54.4108 48.5865 55.3803 48.706C57.0364 48.8653 58.4502 50.2589 58.6522 51.8915C58.6926 52.9666 58.3694 53.962 57.6827 54.7584ZM61.6817 51.5331C61.399 48.4272 58.8542 45.9187 55.663 45.5603C53.8453 45.3612 52.068 45.8788 50.6138 46.9938C50.4926 47.0734 50.2906 47.0734 50.2098 46.9938C48.796 45.8788 47.0187 45.3612 45.1606 45.5603C41.9694 45.8788 39.4246 48.3874 39.0611 51.5331C38.8591 53.4444 39.465 55.3955 40.7576 56.829C42.0502 58.2625 43.9083 59.0987 45.8877 59.0987C47.4226 59.0987 48.8768 58.6208 50.0886 57.6652C50.2502 57.5457 50.4522 57.5457 50.6542 57.6652C51.866 58.581 53.3202 59.0987 54.8551 59.0987C56.7941 59.0987 58.6926 58.2625 59.9852 56.829C61.2778 55.3955 61.9241 53.4842 61.6817 51.5331Z" fill="#2D3D57"/>
<path fill-rule="evenodd" clip-rule="evenodd" d="M33.6482 47.7901H9.85613C8.96746 47.7901 8.28076 48.5068 8.28076 49.3828C8.28076 50.2589 9.00786 50.9756 9.85613 50.9756H33.6079C34.4965 50.9756 35.1832 50.2589 35.1832 49.3828C35.1832 48.5068 34.4965 47.7901 33.6482 47.7901Z" fill="#2D3D57"/>
<path fill-rule="evenodd" clip-rule="evenodd" d="M25.0443 52.9666H9.85613C8.96746 52.9666 8.28076 53.6833 8.28076 54.5593C8.28076 55.4353 9.00786 56.1521 9.85613 56.1521H25.0443C25.933 56.1521 26.6197 55.4353 26.6197 54.5593C26.6197 53.6833 25.933 52.9666 25.0443 52.9666Z" fill="#2D3D57"/>
<mask id="mask0" mask-type="alpha" maskUnits="userSpaceOnUse" x="0" y="0" width="82" height="66">
<path fill-rule="evenodd" clip-rule="evenodd" d="M0 0.405823H81.6364V65.3501H0V0.405823Z" fill="white"/>
</mask>
<g mask="url(#mask0)">
<path fill-rule="evenodd" clip-rule="evenodd" d="M75.9005 47.3919H66.6502V21.9079H78.3645V44.9232C78.3645 46.277 77.1527 47.3919 75.9005 47.3919ZM63.8227 59.1385C63.8227 60.5719 62.6512 61.7267 61.197 61.7267H5.85714C4.40296 61.7267 3.23153 60.5719 3.23153 59.1385V20.5143C3.23153 19.0808 4.40296 17.9261 5.85714 17.9261H61.1566C62.6108 17.9261 63.7823 19.0808 63.7823 20.5143V59.1385H63.8227ZM17.7734 12.7496H78.3645V18.7224H66.2463C65.4788 16.7315 63.2975 15.1388 60.7123 15.1388H17.7734V12.7496ZM20.2374 3.59132H75.9005C77.2739 3.59132 78.3645 4.46733 78.3645 5.70171V9.96232H17.7734V5.70171C17.7734 4.42751 18.9852 3.59132 20.2374 3.59132ZM75.9005 0.405823H20.2374C17.0059 0.405823 14.5419 2.79495 14.5419 5.70171V11.2365V11.356V11.4754V15.1388H5.57438C2.34286 15.1388 0 17.5279 0 20.7134V59.4172C0 62.6027 2.34286 65.3502 5.57438 65.3502H60.7527C63.9842 65.3502 66.6906 62.6027 66.6906 59.4172V50.5774H75.9409C79.0108 50.5774 81.6365 48.029 81.6365 44.9232V5.70171C81.5961 2.67549 79.0512 0.405823 75.9005 0.405823Z" fill="#2D3D57"/>
</g>
<mask id="mask1" mask-type="alpha" maskUnits="userSpaceOnUse" x="0" y="0" width="82" height="66">
<path fill-rule="evenodd" clip-rule="evenodd" d="M0 65.3501H81.6365V0.405762H0V65.3501Z" fill="white"/>
</mask>
<g mask="url(#mask1)">
<path fill-rule="evenodd" clip-rule="evenodd" d="M10.0583 39.4281H23.5499V30.8671H10.0583V39.4281ZM22.0957 28.2789H11.8356C9.97749 28.2789 8.48291 29.7522 8.48291 31.5838V38.0743C8.48291 39.9059 9.97749 41.3792 11.8356 41.3792H22.0553C23.9135 41.3792 25.408 39.9059 25.408 38.0743L25.4484 31.5838C25.4484 29.7522 23.9538 28.2789 22.0957 28.2789Z" fill="#2D3D57"/>
<path fill-rule="evenodd" clip-rule="evenodd" d="M11.7143 31.6237C11.7143 31.544 11.7951 31.4246 11.9162 31.4246H22.4591C22.5399 31.4246 22.6611 31.5042 22.6611 31.6237L22.6207 38.0345C22.6207 38.1141 22.5399 38.2336 22.4187 38.2336H11.9162C11.8354 38.2336 11.7143 38.154 11.7143 38.0345V31.6237ZM10.0581 39.4282H23.5497V30.8671H10.0581V39.4282Z" fill="#2D3D57"/>
</g>
</svg>
