<svg width="73" height="74" viewBox="0 0 73 74" fill="none" xmlns="http://www.w3.org/2000/svg">
<mask id="mask0" mask-type="alpha" maskUnits="userSpaceOnUse" x="0" y="0" width="73" height="74">
<path fill-rule="evenodd" clip-rule="evenodd" d="M0 0.814209H72.3581V73.2085H0V0.814209Z" fill="white"/>
</mask>
<g mask="url(#mask0)">
<path fill-rule="evenodd" clip-rule="evenodd" d="M36.1542 53.8647C34.8815 53.8776 33.739 55.0571 33.7656 56.3298V64.3792C33.7479 65.6552 34.904 66.8283 36.1791 66.8283C37.4542 66.8283 38.6111 65.6552 38.5927 64.3792V56.3298C38.6192 55.0402 37.4438 53.8511 36.1542 53.8647ZM55.4634 42.5958C54.5115 42.6094 53.5973 43.2434 53.2508 44.1296C51.384 48.6083 47.7733 52.2128 43.2943 54.0913C42.0763 54.5405 41.4018 56.0904 41.9026 57.2884C42.4035 58.4864 43.9793 59.0947 45.1547 58.5435C50.8091 56.1724 55.3629 51.6608 57.7258 45.9913C58.0546 45.2513 57.9782 44.3442 57.5288 43.67C57.0794 42.9959 56.2722 42.5765 55.4634 42.5958ZM16.845 42.5958C16.0434 42.5958 15.2539 43.02 14.8166 43.6917C14.3784 44.3634 14.3068 45.2593 14.6324 45.9913C16.9953 51.6608 21.5499 56.1724 27.2035 58.5435C28.3789 59.0947 29.9547 58.4864 30.4556 57.2884C30.9556 56.0904 30.2819 54.5405 29.0647 54.0913C24.5849 52.2128 20.9742 48.6083 19.1082 44.1296C18.7544 43.2273 17.8138 42.5893 16.845 42.5958ZM55.2367 34.5962C53.9728 34.6621 52.8826 35.8722 52.9485 37.1368C53.0145 38.4015 54.2244 39.4919 55.4883 39.426H63.5337C64.8088 39.4445 65.9818 38.2874 65.9818 37.0107C65.9818 35.7356 64.8088 34.5785 63.5337 34.5962H55.2367ZM8.57364 34.5962C7.30979 34.6621 6.21959 35.8722 6.28552 37.1368C6.35144 38.4015 7.56143 39.4919 8.82529 39.426H16.8707C18.1458 39.4445 19.3188 38.2874 19.3188 37.0107C19.3188 35.7356 18.1458 34.5785 16.8707 34.5962H8.57364ZM36.1791 28.157C37.5579 28.157 38.5927 29.1919 38.5927 30.5715C38.5927 31.9511 37.5579 32.9868 36.1791 32.9868C34.8003 32.9868 33.7656 31.9511 33.7656 30.5715C33.7656 29.1919 34.8003 28.157 36.1791 28.157ZM36.1791 37.8158C33.4826 37.8158 30.8447 38.5124 28.6619 39.753C26.4791 40.9936 24.5889 42.8432 24.1363 45.4377C23.9192 46.6896 24.8591 48.025 26.1101 48.2427C27.3602 48.4596 28.6965 47.5196 28.9135 46.2677C29.014 45.6876 29.6733 44.7363 31.0497 43.9537C32.4269 43.1711 34.3581 42.6456 36.1791 42.6456C38.0009 42.6456 39.9313 43.1711 41.3077 43.9537C42.6849 44.7363 43.3434 45.6876 43.4447 46.2677C43.6626 47.5196 44.998 48.4596 46.249 48.2427C47.4991 48.025 48.439 46.6896 48.2227 45.4377C47.7693 42.8432 45.8799 40.9936 43.6971 39.753C41.5143 38.5124 38.8765 37.8158 36.1791 37.8158ZM36.1791 23.3272C32.2099 23.3272 28.9385 26.5999 28.9385 30.5715C28.9385 34.5432 32.2099 37.8158 36.1791 37.8158C40.1492 37.8158 43.4198 34.5432 43.4198 30.5715C43.4198 26.5999 40.1492 23.3272 36.1791 23.3272ZM43.9737 15.2521C42.8988 15.3445 41.9453 16.242 41.7901 17.3099C41.6341 18.3777 42.291 19.5107 43.2943 19.906C47.7878 21.7789 51.3751 25.3962 53.2508 29.8926C53.7372 31.0649 55.2471 31.6876 56.4185 31.2006C57.5899 30.7137 58.213 29.2032 57.7258 28.0309C55.3597 22.3582 50.8292 17.8193 45.1547 15.4538C44.7857 15.2891 44.3757 15.2192 43.9737 15.2521ZM28.0838 15.2521C27.7815 15.2634 27.4808 15.3325 27.2035 15.4538C21.5298 17.8193 16.9994 22.3582 14.6324 28.0309C14.1452 29.2032 14.7683 30.7137 15.9397 31.2006C17.1111 31.6876 18.621 31.0649 19.1082 29.8926C20.9839 25.3962 24.5712 21.7789 29.0647 19.906C30.1058 19.4857 30.7547 18.2668 30.5231 17.1685C30.2916 16.0693 29.2054 15.216 28.0838 15.2521ZM36.1542 7.17786C34.8815 7.19152 33.739 8.37024 33.7656 9.64297V17.6924C33.7479 18.9683 34.904 20.1414 36.1791 20.1414C37.4542 20.1414 38.6111 18.9683 38.5927 17.6924V9.64297C38.6192 8.35337 37.4438 7.1642 36.1542 7.17786ZM36.1791 5.59338C53.537 5.59338 67.5818 19.6448 67.5818 37.0107C67.5818 54.3774 53.537 68.4288 36.1791 68.4288C18.8212 68.4288 4.77725 54.3774 4.77725 37.0107C4.77725 19.6448 18.8212 5.59338 36.1791 5.59338ZM36.1791 0.814209C16.2123 0.814209 0 17.0351 0 37.0107C0 56.9879 16.2123 73.2088 36.1791 73.2088C56.1451 73.2088 72.3582 56.9879 72.3582 37.0107C72.3582 17.0351 56.1451 0.814209 36.1791 0.814209Z" fill="#2D3D57"/>
</g>
</svg>
