<svg width="346" height="42" viewBox="0 0 346 42" fill="none" xmlns="http://www.w3.org/2000/svg">
<path fill-rule="evenodd" clip-rule="evenodd" d="M40.7714 0.134199C36.2843 -0.422372 32.3016 0.749628 28.5963 3.71448L11.8926 17.0773C11.0462 17.7551 10.5746 18.5371 10.4507 19.4622C10.3327 20.3762 10.5905 21.2371 11.2495 22.0933C11.9088 22.9528 12.6789 23.4279 13.5955 23.5416C14.5132 23.6553 15.3697 23.3822 16.2127 22.7088L32.9138 9.34649C34.9775 7.69449 37.333 7.01963 39.9161 7.33963C42.4958 7.65906 44.6247 8.89106 46.2445 11.0025C47.8584 13.1071 48.5278 15.5211 48.2313 18.1716C47.932 20.8325 46.7329 23.0188 44.665 24.6728C42.5982 26.3265 40.2271 26.9971 37.6129 26.6742C35.2234 26.3779 33.2288 25.3196 31.6658 23.5282L39.3511 17.3785C40.1969 16.7033 40.6576 15.9376 40.7675 15.0316C40.8735 14.1282 40.6044 13.2679 39.9435 12.4082C39.2797 11.5411 38.5147 11.0588 37.6104 10.9342C36.7182 10.8105 35.8706 11.0793 35.036 11.7482L18.07 25.3245C16.5872 26.5093 14.9151 27.0025 13.0948 26.7999C11.2635 26.5922 9.74499 25.7165 8.57776 24.1942C7.41445 22.6759 6.93447 20.9551 7.15992 19.0771C7.38396 17.1996 8.25106 15.6431 9.73408 14.4562L19.6416 6.52934C20.4847 5.85534 20.9487 5.07106 21.0598 4.1342C21.1725 3.19448 20.9051 2.3202 20.2458 1.45791C19.5871 0.601913 18.833 0.140199 17.9357 0.0390562C17.0272 -0.0618009 16.1724 0.219913 15.3238 0.899628L5.41649 8.82306C2.29829 11.3193 0.561582 14.3868 0.108173 18.2013C-0.344676 22.0136 0.62116 25.4176 3.06498 28.6045C5.47887 31.7533 8.47539 33.5002 12.2232 33.9519C15.9794 34.4011 19.3038 33.4202 22.387 30.9528L26.1446 27.9459C28.9747 31.3988 32.4523 33.3428 36.7573 33.8765C41.2771 34.4379 45.2745 33.2696 48.9828 30.3048C52.6887 27.3393 54.7493 23.6611 55.2808 19.0613C55.8119 14.4579 54.6601 10.3782 51.7564 6.5902C48.8508 2.8042 45.2577 0.693056 40.7714 0.134199Z" fill="#E61E26"/>
<path fill-rule="evenodd" clip-rule="evenodd" d="M89.7401 3.58231H83.3683V20.3423C83.3683 24.7897 81.5897 27.0137 78.0055 27.0137C74.3681 27.0137 72.5363 24.7077 72.5363 20.098V3.58231H66.1646V19.8263C66.1646 28.098 70.0408 32.2197 77.7669 32.2197C85.7576 32.2197 89.7401 27.9897 89.7401 19.5283V3.58231Z" fill="white"/>
<path fill-rule="evenodd" clip-rule="evenodd" d="M112.095 19.1217C112.095 13.5348 109.837 10.7419 105.325 10.7419C102.457 10.7419 100.28 11.9077 98.7934 14.2134H98.7139V11.3928H92.3413V31.5688H98.7139V19.7994C98.7139 18.4979 99.0591 17.4125 99.7491 16.5725C100.439 15.7314 101.315 15.2977 102.404 15.2977C104.608 15.2977 105.722 16.8977 105.722 20.0979V31.5688H112.095V19.1217Z" fill="white"/>
<path fill-rule="evenodd" clip-rule="evenodd" d="M120.086 7.21653C120.75 6.61967 121.068 5.80595 121.068 4.85653C121.068 3.90767 120.75 3.12138 120.086 2.52453C119.449 1.92795 118.6 1.62967 117.563 1.62967C116.528 1.62967 115.705 1.92795 115.042 2.52453C114.378 3.12138 114.06 3.90767 114.06 4.85653C114.06 5.77881 114.378 6.56481 115.042 7.18938C115.705 7.81253 116.528 8.1391 117.563 8.1391C118.6 8.1391 119.449 7.83938 120.086 7.21653ZM121.068 11.3928H114.696V26.1991C114.696 27.1488 114.83 27.9628 115.068 28.6945C115.334 29.454 115.705 30.0774 116.157 30.5925C116.635 31.1351 117.192 31.5151 117.856 31.7865C118.519 32.0848 119.237 32.22 120.059 32.22C120.936 32.22 121.759 32.1662 122.581 32.03C123.404 31.9217 124.148 31.7585 124.892 31.5688V27.3654C124.6 27.4471 124.281 27.5014 123.988 27.5551C123.67 27.6365 123.378 27.6631 123.086 27.6631C122.449 27.6631 121.971 27.4471 121.599 26.9865C121.254 26.552 121.068 25.8742 121.068 25.0062V11.3928Z" fill="white"/>
<path fill-rule="evenodd" clip-rule="evenodd" d="M138.962 1.79185C138.14 1.25014 137.077 0.978424 135.829 0.978424C133.254 0.978424 131.236 1.68357 129.749 3.14814C128.236 4.58528 127.493 6.48414 127.493 8.81557V11.393H124.307V15.949H127.493V31.569H133.865V15.949H138.325V11.393H133.865V9.06014C133.865 6.70128 134.821 5.535 136.759 5.535C137.29 5.535 137.847 5.69757 138.404 5.99614C138.246 5.56157 138.166 5.07385 138.166 4.55871C138.166 3.609 138.458 2.74157 138.962 2.063V1.79185Z" fill="white"/>
<path fill-rule="evenodd" clip-rule="evenodd" d="M145.706 7.21653C146.342 6.61967 146.662 5.80595 146.662 4.85653C146.662 3.90767 146.342 3.12138 145.706 2.52453C145.042 1.92795 144.192 1.62967 143.157 1.62967C142.122 1.62967 141.299 1.92795 140.635 2.52453C139.971 3.12138 139.652 3.90767 139.652 4.85653C139.652 5.77881 139.971 6.56481 140.635 7.18938C141.299 7.81253 142.122 8.1391 143.157 8.1391C144.192 8.1391 145.042 7.83938 145.706 7.21653ZM146.662 11.3928H140.29V26.1991C140.29 27.1488 140.422 27.9628 140.688 28.6945C140.927 29.454 141.299 30.0774 141.75 30.5925C142.228 31.1351 142.785 31.5151 143.449 31.7865C144.113 32.0848 144.83 32.22 145.652 32.22C146.529 32.22 147.378 32.1662 148.175 32.03C148.998 31.9217 149.767 31.7585 150.485 31.5688V27.3654C150.193 27.4471 149.874 27.5014 149.582 27.5551C149.29 27.6365 148.971 27.6631 148.679 27.6631C148.042 27.6631 147.564 27.4471 147.219 26.9865C146.848 26.552 146.662 25.8742 146.662 25.0062V11.3928Z" fill="white"/>
<path fill-rule="evenodd" clip-rule="evenodd" d="M169.652 20.4774C169.652 17.4945 168.856 15.1077 167.263 13.3723C165.671 11.6091 163.44 10.742 160.52 10.742C157.706 10.742 155.343 11.7451 153.432 13.7248C151.493 15.7045 150.538 18.3885 150.538 21.7791C150.538 25.088 151.413 27.6365 153.192 29.4808C154.944 31.2983 157.414 32.22 160.626 32.22C163.546 32.22 165.91 31.6503 167.741 30.5391V25.5488C166.149 26.9588 164.29 27.6631 162.193 27.6631C158.873 27.6631 157.122 26.1457 156.909 23.108H169.652V20.4774ZM156.883 19.2028C157.015 18.0908 157.44 17.1691 158.131 16.4094C158.821 15.6774 159.644 15.2977 160.6 15.2977C162.803 15.2977 163.918 16.5994 163.918 19.2028H156.883Z" fill="white"/>
<path fill-rule="evenodd" clip-rule="evenodd" d="M192.007 1.62973H185.636V13.3183H185.556C184.6 11.6092 182.847 10.742 180.378 10.742C177.776 10.742 175.653 11.7723 174.06 13.8063C172.44 15.8394 171.617 18.552 171.617 21.942C171.617 25.1694 172.361 27.6914 173.821 29.5077C175.281 31.3252 177.219 32.2197 179.636 32.2197C182.237 32.2197 184.202 31.19 185.556 29.1554H185.636V31.5689H192.007V1.62973ZM184.678 26.0643C183.936 27.122 183.007 27.6632 181.865 27.6632C180.644 27.6632 179.715 27.1486 179.024 26.1457C178.334 25.1146 177.989 23.65 177.989 21.7789C177.989 19.7452 178.36 18.172 179.051 17.0334C179.768 15.8677 180.75 15.2977 181.997 15.2977C183.113 15.2977 184.016 15.7594 184.706 16.6809C185.396 17.6026 185.768 18.7689 185.768 20.152V21.7789C185.768 23.5417 185.396 24.9792 184.678 26.0643Z" fill="white"/>
<path fill-rule="evenodd" clip-rule="evenodd" d="M202.6 20.5045C205.892 20.5045 208.52 19.5825 210.458 17.7659C212.37 15.9213 213.353 13.5619 213.353 10.6879C213.353 7.81247 212.476 5.58847 210.777 3.98875C209.052 2.41618 206.635 1.62961 203.529 1.62961H195.511V31.569H198.697V20.5045H202.6ZM202.706 4.88361C207.246 4.88361 209.529 6.86304 209.529 10.8502C209.529 12.8839 208.892 14.4568 207.67 15.5693C206.423 16.7076 204.617 17.2502 202.282 17.2502H198.697V4.88361H202.706Z" fill="white"/>
<path fill-rule="evenodd" clip-rule="evenodd" d="M228.989 17.4944C228.989 12.1247 226.627 9.44043 221.847 9.44043C219.272 9.44043 216.963 10.0901 214.971 11.393V14.8096C216.963 12.9656 219.166 12.0433 221.609 12.0433C224.397 12.0433 225.804 13.9959 225.804 17.901L219.75 18.8233C215.291 19.4744 213.06 21.8601 213.06 25.9284C213.06 27.8264 213.644 29.3456 214.759 30.4841C215.901 31.6233 217.494 32.2199 219.512 32.2199C222.246 32.2199 224.317 31.0267 225.724 28.6676H225.804V31.569H228.989V17.4944ZM225.804 22.8101C225.804 24.7627 225.272 26.417 224.211 27.6913C223.149 28.9659 221.821 29.6164 220.175 29.6164C218.98 29.6164 218.024 29.2641 217.308 28.5316C216.591 27.8264 216.246 26.9047 216.246 25.7659C216.246 24.2199 216.644 23.1619 217.414 22.5387C218.184 21.9419 219.326 21.5076 220.865 21.2641L225.804 20.5044V22.8101Z" fill="white"/>
<mask id="mask0" mask-type="alpha" maskUnits="userSpaceOnUse" x="229" y="10" width="21" height="32">
<path fill-rule="evenodd" clip-rule="evenodd" d="M229.202 10.0901H249.273V41.9826H229.202V10.0901Z" fill="white"/>
</mask>
<g mask="url(#mask0)">
<path fill-rule="evenodd" clip-rule="evenodd" d="M245.742 10.0901L239.689 26.7421C239.477 27.4747 239.343 28.0167 239.29 28.3418H239.158C238.919 27.447 238.786 26.9047 238.733 26.6873L232.972 10.0901H229.202L237.486 31.569L235.813 35.9898C234.964 38.2407 233.688 39.3793 231.99 39.3793C231.379 39.3793 230.715 39.1087 229.999 38.5661V41.7118C230.583 41.8741 231.326 41.9827 232.202 41.9827C235.308 41.9827 237.751 39.6507 239.477 34.9858L249.273 10.0901H245.742Z" fill="white"/>
</g>
<path fill-rule="evenodd" clip-rule="evenodd" d="M280.044 18.2536C280.044 12.369 277.707 9.44019 273.061 9.44019C269.928 9.44019 267.592 10.823 266.026 13.5619C265.627 12.3425 264.884 11.3379 263.795 10.5788C262.707 9.8199 261.433 9.44019 259.972 9.44019C257.078 9.44019 254.875 10.633 253.362 13.0196H253.282V10.0902H250.096V31.569H253.282V19.0402C253.282 16.9522 253.76 15.271 254.769 13.969C255.751 12.6942 256.999 12.0433 258.539 12.0433C261.831 12.0433 263.477 14.2133 263.477 18.5248V31.569H266.663V19.0402C266.663 17.1142 267.194 15.4879 268.229 14.1048C269.265 12.7213 270.512 12.0433 271.999 12.0433C273.751 12.0433 275 12.5853 275.742 13.6705C276.486 14.755 276.858 16.5182 276.858 18.9316V31.569H280.044V18.2536Z" fill="white"/>
<path fill-rule="evenodd" clip-rule="evenodd" d="M299.504 19.9626C299.504 16.6537 298.787 14.0772 297.3 12.2326C295.84 10.3615 293.77 9.44031 291.088 9.44031C288.433 9.44031 286.176 10.4977 284.371 12.6406C282.566 14.7826 281.663 17.5217 281.663 20.9109C281.663 24.4915 282.486 27.2852 284.158 29.2643C285.831 31.2169 288.115 32.2197 291.035 32.2197C294.035 32.2197 296.424 31.5152 298.23 30.1317V26.8503C296.239 28.6946 294.088 29.6163 291.698 29.6163C289.601 29.6163 287.955 28.9392 286.733 27.5829C285.539 26.2269 284.902 24.3012 284.849 21.8057H299.504V19.9626ZM284.902 19.2029C285.167 17.0603 285.831 15.3517 286.947 14.0232C288.061 12.6943 289.442 12.0432 291.035 12.0432C292.68 12.0432 293.981 12.6675 294.911 13.942C295.84 15.1895 296.318 16.9523 296.318 19.2029H284.902Z" fill="white"/>
<path fill-rule="evenodd" clip-rule="evenodd" d="M318.354 18.3348C318.354 15.4597 317.743 13.2642 316.522 11.7451C315.3 10.1997 313.575 9.44025 311.266 9.44025C308.266 9.44025 305.982 10.6877 304.416 13.1822H304.336V10.0902H301.15V31.5688H304.336V19.0402C304.336 17.0334 304.893 15.352 306.009 14.0231C307.124 12.6942 308.531 12.0431 310.23 12.0431C313.495 12.0431 315.168 14.3757 315.168 19.0402V31.5688H318.354V18.3348Z" fill="white"/>
<path fill-rule="evenodd" clip-rule="evenodd" d="M330.805 28.8027C330.194 29.3456 329.504 29.6165 328.681 29.6165C327.619 29.6165 326.849 29.2913 326.398 28.6402C325.947 27.9896 325.708 26.9045 325.708 25.4125V12.6942H330.805V10.0902H325.708V3.58246L322.522 4.7216V10.0902H318.699V12.6942H322.522V25.7387C322.522 30.0505 324.274 32.2199 327.805 32.2199C329.053 32.2199 330.035 32.003 330.805 31.569V28.8027Z" fill="white"/>
<path fill-rule="evenodd" clip-rule="evenodd" d="M337.442 32.2199C338.557 32.2199 339.593 32.0847 340.602 31.8404C341.611 31.569 342.488 31.1902 343.283 30.6742C344.054 30.1316 344.663 29.4807 345.115 28.6944C345.566 27.8807 345.805 26.9587 345.805 25.8742C345.805 25.0062 345.673 24.247 345.381 23.5962C345.089 22.9722 344.663 22.403 344.133 21.9153C343.602 21.427 342.938 20.9927 342.168 20.6124C341.398 20.2062 340.549 19.8264 339.593 19.4744C338.85 19.1762 338.213 18.9316 337.629 18.6882C337.071 18.4436 336.593 18.1722 336.195 17.8739C335.797 17.5756 335.478 17.2236 335.292 16.8442C335.08 16.4642 334.973 16.0027 334.973 15.433C334.973 14.9182 335.08 14.4567 335.292 14.0502C335.478 13.6436 335.77 13.291 336.115 12.9927C336.487 12.6942 336.912 12.4507 337.442 12.2873C337.947 12.1247 338.531 12.0433 339.169 12.0433C341.186 12.0433 342.965 12.6942 344.531 13.9959V10.4164C343.124 9.76558 341.504 9.44016 339.726 9.44016C338.717 9.44016 337.734 9.57558 336.779 9.84673C335.823 10.1184 334.973 10.5247 334.256 11.0396C333.487 11.5824 332.903 12.2327 332.452 13.0196C332.026 13.8064 331.788 14.7016 331.788 15.7313C331.788 16.5724 331.92 17.3042 332.16 17.9282C332.424 18.5519 332.77 19.0947 333.274 19.5827C333.752 20.071 334.363 20.5313 335.106 20.911C335.823 21.291 336.673 21.6707 337.655 22.0773C338.345 22.3216 338.982 22.5933 339.593 22.8364C340.177 23.0813 340.708 23.3793 341.16 23.6776C341.611 23.9759 341.982 24.3556 342.222 24.7627C342.488 25.1693 342.62 25.657 342.62 26.2267C342.62 28.4776 341.106 29.6164 338.053 29.6164C335.77 29.6164 333.7 28.7493 331.788 27.0136V30.8642C333.38 31.7587 335.292 32.2199 337.442 32.2199Z" fill="white"/>
<path fill-rule="evenodd" clip-rule="evenodd" d="M146.21 7.21653C146.874 6.61967 147.192 5.80595 147.192 4.85653C147.192 3.90767 146.874 3.12138 146.21 2.52453C145.573 1.92795 144.723 1.62967 143.689 1.62967C142.653 1.62967 141.83 1.92795 141.166 2.52453C140.502 3.12138 140.184 3.90767 140.184 4.85653C140.184 5.77881 140.502 6.56481 141.166 7.18938C141.83 7.81253 142.653 8.1391 143.689 8.1391C144.723 8.1391 145.573 7.83938 146.21 7.21653Z" fill="white"/>
</svg>
