<svg width="90" height="72" viewBox="0 0 90 72" fill="none" xmlns="http://www.w3.org/2000/svg">
<path fill-rule="evenodd" clip-rule="evenodd" d="M32.8989 5.88211C34.7759 5.88211 36.3039 7.40275 36.3039 9.27072C36.3039 11.1397 34.7759 12.6603 32.8989 12.6603C31.0209 12.6603 29.4939 11.1397 29.4939 9.27072C29.4939 7.40275 31.0209 5.88211 32.8989 5.88211ZM32.8989 17.5009C37.4599 17.5009 41.1699 13.8088 41.1699 9.27072C41.1699 4.73267 37.4599 1.04053 32.8989 1.04053C28.3379 1.04053 24.6279 4.73267 24.6279 9.27072C24.6279 13.8088 28.3379 17.5009 32.8989 17.5009Z" fill="#2D3D57"/>
<path fill-rule="evenodd" clip-rule="evenodd" d="M55.5508 25.0685C57.4288 25.0685 58.9558 26.5892 58.9558 28.4571C58.9558 30.3261 57.4288 31.8467 55.5508 31.8467C53.6738 31.8467 52.1458 30.3261 52.1458 28.4571C52.1458 26.5892 53.6738 25.0685 55.5508 25.0685ZM47.2808 28.4571C47.2808 32.9962 50.9908 36.6883 55.5508 36.6883C60.1118 36.6883 63.8218 32.9952 63.8218 28.4571C63.8218 23.9191 60.1118 20.2269 55.5508 20.2269C50.9908 20.2269 47.2808 23.9191 47.2808 28.4571Z" fill="#2D3D57"/>
<mask id="mask0" mask-type="alpha" maskUnits="userSpaceOnUse" x="33" y="0" width="22" height="37">
<path fill-rule="evenodd" clip-rule="evenodd" d="M33.6133 0.995117H54.8333V36.7359H33.6133V0.995117Z" fill="white"/>
</mask>
<g mask="url(#mask0)">
<path fill-rule="evenodd" clip-rule="evenodd" d="M33.6133 34.5705L50.4823 0.994873L54.8333 3.1604L37.9653 36.736L33.6133 34.5705Z" fill="#2D3D57"/>
</g>
<mask id="mask1" mask-type="alpha" maskUnits="userSpaceOnUse" x="0" y="2" width="90" height="70">
<path fill-rule="evenodd" clip-rule="evenodd" d="M0 2.07605H89.4219V71.1091H0V2.07605Z" fill="white"/>
</mask>
<g mask="url(#mask1)">
<path fill-rule="evenodd" clip-rule="evenodd" d="M89.2911 34.8684C88.9541 33.8892 88.0291 33.2313 86.9891 33.2313H74.8451V9.27124H69.9791V35.6526C69.9791 36.9892 71.0681 38.0729 72.4121 38.0729H79.8891L44.2421 65.6107L9.40507 38.0729H17.0101C18.3531 38.0729 19.4421 36.9892 19.4421 35.6526V2.07605H14.5771V33.2313H2.43307C1.39707 33.2313 0.477073 33.8832 0.136073 34.8555C-0.204927 35.8278 0.109073 36.9076 0.920073 37.5475L42.7131 70.5837C43.1551 70.934 43.6891 71.1091 44.2261 71.1091C44.7511 71.1091 45.2771 70.9399 45.7171 70.6006L88.4801 37.5644C89.3021 36.9304 89.6281 35.8467 89.2911 34.8684Z" fill="#2D3D57"/>
</g>
</svg>
