<svg width="350" height="337" viewBox="0 0 350 337" fill="none" xmlns="http://www.w3.org/2000/svg">
<mask id="mask0" mask-type="alpha" maskUnits="userSpaceOnUse" x="281" y="119" width="53" height="53">
<path fill-rule="evenodd" clip-rule="evenodd" d="M333.929 131.167L292.595 119.315L281.071 159.504L322.405 171.357L333.929 131.167Z" fill="white"/>
</mask>
<g mask="url(#mask0)">
<path fill-rule="evenodd" clip-rule="evenodd" d="M324.028 140.165L318.388 142.28C318.246 142.333 318.143 142.455 318.114 142.603L317.132 147.66C318.027 147.342 318.907 147.121 319.351 147.154L320.469 150.091C319.895 150.676 317.634 151.582 316.324 151.825L313.565 166.038L311.537 166.798L309.825 150.172C309.761 149.545 309.614 148.929 309.39 148.339L308.599 146.261C308.542 146.111 308.374 146.035 308.223 146.091L303.793 147.753C301.905 148.461 300.09 148.944 298.472 149.258L295.149 156.254L293.467 156.884L293.498 149.736C292.589 149.701 292.034 149.563 291.962 149.376C291.891 149.188 292.216 148.721 292.875 148.098L288.09 142.755L289.772 142.124L296.924 145.192C298.347 144.365 300.03 143.537 301.919 142.829L306.349 141.167C306.5 141.111 306.575 140.944 306.518 140.794L305.727 138.715C305.503 138.126 305.202 137.567 304.833 137.055L295.043 123.458L297.07 122.698L308.607 131.55C309.752 130.872 312.052 130.067 312.872 130.13L313.99 133.066C313.678 133.384 312.871 133.795 311.989 134.144L316.093 137.293C316.213 137.385 316.372 137.409 316.514 137.356L322.153 135.241C326.275 133.695 330.239 134.019 330.573 134.897C330.908 135.775 328.149 138.62 324.028 140.165Z" fill="#2D3D57"/>
</g>
<path fill-rule="evenodd" clip-rule="evenodd" d="M349.397 336.462C349.704 336.462 349.966 336.303 349.997 336.089C350.03 335.864 349.788 335.661 349.456 335.638C348.864 335.599 348.283 335.543 347.713 335.471C347.386 335.439 347.07 335.577 347.01 335.802C346.95 336.026 347.166 336.242 347.494 336.283C348.097 336.359 348.711 336.417 349.337 336.46C349.357 336.461 349.378 336.462 349.397 336.462Z" fill="#2D3D57"/>
<mask id="mask1" mask-type="alpha" maskUnits="userSpaceOnUse" x="1" y="0" width="287" height="266">
<path fill-rule="evenodd" clip-rule="evenodd" d="M201.051 0.749023L1.35769 116.042L87.5148 265.27L287.208 149.977L201.051 0.749023Z" fill="white"/>
</mask>
<g mask="url(#mask1)">
<path fill-rule="evenodd" clip-rule="evenodd" d="M130.429 45.3161C130.53 45.2577 130.616 45.1714 130.673 45.0612C131.268 43.9288 131.849 42.8081 132.414 41.7008C132.572 41.3923 132.45 41.0163 132.141 40.8617C131.831 40.707 131.453 40.8304 131.294 41.1412C130.733 42.2426 130.153 43.3592 129.56 44.4884C129.399 44.7954 129.518 45.1728 129.825 45.3309C130.022 45.4331 130.249 45.4199 130.429 45.3161ZM29.271 106.592C29.5343 106.44 29.6567 106.114 29.544 105.823C29.4194 105.501 29.0562 105.343 28.7326 105.47C27.7557 105.85 26.7958 106.313 25.8782 106.842L25.258 107.207C24.9593 107.385 24.8621 107.769 25.0383 108.065C25.2141 108.358 25.5934 108.454 25.8915 108.283C25.8938 108.282 25.8959 108.279 25.8997 108.277L26.5024 107.924C27.3655 107.425 28.2662 106.991 29.1821 106.634C29.2138 106.622 29.2433 106.608 29.271 106.592ZM19.8522 112.805C19.8951 112.78 19.9354 112.75 19.9732 112.714C20.8271 111.898 21.7802 111.098 22.8069 110.337C23.0855 110.129 23.1445 109.737 22.9388 109.46C22.7322 109.184 22.3324 109.129 22.06 109.335C20.9922 110.128 19.9984 110.962 19.1063 111.814C18.8548 112.054 18.8455 112.45 19.085 112.698C19.2883 112.909 19.6065 112.946 19.8522 112.805ZM126.847 51.972C126.945 51.9156 127.028 51.8339 127.085 51.7292C127.701 50.6116 128.306 49.5025 128.896 48.405C129.06 48.099 128.945 47.7216 128.639 47.56C128.334 47.3991 127.954 47.5181 127.789 47.8206C127.2 48.9145 126.6 50.0194 125.985 51.133C125.818 51.4371 125.928 51.817 126.231 51.9813C126.431 52.0895 126.664 52.078 126.847 51.972ZM36.6563 105.2C36.8452 105.091 36.972 104.887 36.9729 104.655C36.9726 104.31 36.6923 104.032 36.3457 104.033C35.037 104.042 33.7362 104.164 32.4759 104.399C32.1411 104.456 31.9091 104.788 31.9693 105.129C32.0301 105.469 32.3569 105.693 32.6994 105.629C33.8835 105.408 35.1098 105.292 36.3438 105.284C36.4569 105.284 36.564 105.253 36.6563 105.2ZM15.2853 118.772C15.3866 118.713 15.4731 118.626 15.5303 118.515C16.0778 117.46 16.7412 116.426 17.5046 115.439C17.716 115.165 17.6662 114.772 17.3918 114.563C17.1179 114.354 16.7197 114.407 16.5101 114.681C15.7016 115.727 14.9973 116.826 14.4158 117.947C14.2562 118.255 14.3758 118.632 14.6841 118.788C14.8804 118.889 15.1069 118.875 15.2853 118.772ZM123.14 58.5566C123.234 58.5024 123.315 58.4238 123.372 58.3239C124.008 57.2201 124.632 56.1236 125.245 55.0342C125.415 54.7318 125.308 54.3508 125.005 54.1836C124.702 54.0148 124.318 54.1294 124.15 54.4283C123.538 55.5151 122.915 56.609 122.284 57.7073C122.11 58.0084 122.214 58.3904 122.515 58.5604C122.715 58.6739 122.953 58.6646 123.14 58.5566ZM44.0754 106.36C44.2058 106.285 44.3105 106.162 44.3605 106.009C44.4675 105.68 44.2878 105.328 43.9574 105.223C42.7169 104.828 41.4535 104.529 40.2021 104.332C39.8607 104.275 39.5354 104.509 39.4792 104.851C39.4231 105.192 39.6541 105.513 39.997 105.566C41.1855 105.755 42.3865 106.04 43.5684 106.415C43.7443 106.471 43.9274 106.446 44.0754 106.36ZM13.1819 125.953C13.3529 125.854 13.476 125.676 13.4959 125.465C13.6082 124.242 13.8372 123.039 14.1718 121.891C14.2688 121.559 14.0771 121.213 13.7445 121.119C13.4121 121.023 13.0648 121.217 12.9656 121.55C12.6078 122.775 12.365 124.056 12.2435 125.359C12.2123 125.703 12.4668 126.007 12.8111 126.036C12.9458 126.047 13.0729 126.016 13.1819 125.953ZM119.314 65.0777C119.405 65.0252 119.483 64.9499 119.541 64.8538C120.193 63.7645 120.837 62.6793 121.47 61.5981C121.647 61.2989 121.546 60.9162 121.247 60.7438C120.946 60.5711 120.559 60.675 120.387 60.9737C119.755 62.0504 119.113 63.1334 118.462 64.2199C118.285 64.5173 118.381 64.9011 118.678 65.0765C118.88 65.1952 119.124 65.1874 119.314 65.0777ZM115.377 71.5314C115.465 71.4809 115.541 71.4084 115.598 71.3172C116.269 70.2395 116.931 69.1644 117.583 68.094C117.764 67.7976 117.67 67.4131 117.374 67.2364C117.077 67.0561 116.69 67.1569 116.51 67.4505C115.859 68.5183 115.199 69.5906 114.532 70.6639C114.348 70.9591 114.439 71.3436 114.733 71.5239C114.937 71.6484 115.184 71.6431 115.377 71.5314ZM50.8319 109.623C50.9117 109.577 50.9825 109.513 51.0387 109.432C51.2341 109.145 51.1603 108.757 50.8749 108.564C49.8245 107.855 48.701 107.21 47.536 106.648C47.2237 106.496 46.8477 106.625 46.6946 106.939C46.5418 107.249 46.6696 107.623 46.9809 107.773C48.0912 108.311 49.1628 108.925 50.1643 109.601C50.3708 109.74 50.6294 109.74 50.8319 109.623ZM13.7618 133.415C13.9959 133.28 14.1265 133.003 14.0622 132.728C13.7765 131.508 13.5838 130.292 13.4866 129.112C13.4584 128.768 13.1549 128.514 12.8095 128.544C12.4683 128.576 12.2054 128.878 12.234 129.223C12.336 130.463 12.5386 131.741 12.8368 133.02C12.9159 133.356 13.2531 133.563 13.5915 133.483C13.6523 133.468 13.7099 133.445 13.7618 133.415ZM111.331 77.918C111.416 77.869 111.491 77.8 111.547 77.7128C112.233 76.6491 112.913 75.5854 113.586 74.5235C113.773 74.2301 113.685 73.8437 113.392 73.6613C113.098 73.4771 112.709 73.5682 112.525 73.8609C111.854 74.9202 111.175 75.981 110.491 77.042C110.304 77.3336 110.387 77.7205 110.679 77.9049C110.883 78.0352 111.135 78.0314 111.331 77.918ZM107.178 84.2355C107.26 84.1882 107.332 84.1225 107.387 84.0398C108.091 82.9892 108.788 81.9376 109.481 80.8859C109.672 80.5956 109.592 80.2083 109.302 80.0207C109.013 79.8308 108.62 79.9188 108.432 80.2046C107.742 81.2535 107.046 82.3025 106.344 83.3502C106.15 83.6394 106.227 84.0273 106.516 84.2173C106.721 84.3526 106.978 84.351 107.178 84.2355ZM56.2336 114.787C56.2474 114.779 56.2624 114.77 56.277 114.76C56.5635 114.561 56.6357 114.171 56.4386 113.888C55.7441 112.887 54.886 111.904 53.8902 110.966C53.6381 110.73 53.2416 110.745 53.0018 110.993C52.7623 111.245 52.7718 111.641 53.023 111.878C53.9574 112.757 54.7573 113.674 55.404 114.604C55.59 114.874 55.9526 114.949 56.2336 114.787ZM16.305 140.469C16.5885 140.305 16.7028 139.95 16.5605 139.654C16.0077 138.51 15.5228 137.366 15.1161 136.255C14.9984 135.931 14.6382 135.766 14.3126 135.886C13.9965 136.006 13.818 136.365 13.9361 136.69C14.355 137.84 14.8566 139.021 15.4253 140.202C15.5759 140.512 15.9507 140.641 16.2636 140.49C16.2781 140.484 16.2925 140.476 16.305 140.469ZM102.906 90.4933C102.984 90.448 103.054 90.3851 103.109 90.3067C103.832 89.2675 104.549 88.227 105.262 87.1838C105.457 86.8974 105.383 86.5087 105.098 86.3153C104.811 86.1227 104.422 86.1945 104.224 86.4858C103.513 87.5261 102.798 88.5643 102.078 89.598C101.88 89.8833 101.95 90.273 102.235 90.4681C102.44 90.61 102.702 90.6111 102.906 90.4933ZM98.527 96.6599C98.6016 96.6168 98.6698 96.5565 98.723 96.4822C99.4622 95.4616 100.197 94.4366 100.93 93.4059C101.131 93.1234 101.065 92.7333 100.782 92.5351C100.498 92.3365 100.108 92.403 99.9053 92.689C99.1765 93.7157 98.4434 94.7379 97.7061 95.756C97.5022 96.0369 97.5652 96.427 97.8454 96.6283C98.052 96.776 98.3194 96.7798 98.527 96.6599ZM59.7959 121.375C60.0756 121.214 60.1913 120.865 60.0542 120.569C59.5583 119.499 58.9876 118.362 58.3596 117.189C58.1959 116.886 57.8154 116.773 57.5088 116.938C57.2151 117.146 57.0876 117.483 57.2489 117.785C57.8679 118.936 58.4271 120.051 58.9131 121.1C59.0583 121.413 59.431 121.548 59.7464 121.401C59.7638 121.392 59.7809 121.384 59.7959 121.375ZM94.0378 102.726C94.1099 102.685 94.1737 102.629 94.2265 102.559C94.9831 101.557 95.7389 100.548 96.4887 99.5343C96.6953 99.2551 96.6366 98.8642 96.3571 98.6606C96.0801 98.4559 95.6856 98.5177 95.479 98.7968C94.7307 99.8081 93.9795 100.813 93.2247 101.812C93.0149 102.089 93.0692 102.481 93.3467 102.687C93.5538 102.841 93.8264 102.848 94.0378 102.726ZM20.4909 146.646C20.5415 146.617 20.5893 146.579 20.6324 146.534C20.8724 146.284 20.8635 145.888 20.6134 145.651C19.7002 144.785 18.926 143.857 18.3114 142.891C18.1266 142.601 17.7404 142.528 17.4453 142.701C17.1516 142.887 17.064 143.274 17.2486 143.565C17.9172 144.617 18.757 145.625 19.7438 146.559C19.9498 146.755 20.2555 146.782 20.4909 146.646ZM89.4117 108.71C89.4785 108.672 89.5401 108.619 89.5918 108.554C90.3738 107.567 91.151 106.572 91.9272 105.569C92.1398 105.294 92.0885 104.902 91.8144 104.693C91.5397 104.483 91.146 104.537 90.9325 104.811C90.1609 105.81 89.385 106.802 88.6069 107.784C88.3914 108.057 88.4376 108.449 88.709 108.663C88.9159 108.825 89.1952 108.835 89.4117 108.71ZM84.6434 114.586C84.7068 114.549 84.7647 114.501 84.8138 114.442C85.6182 113.476 86.4198 112.5 87.2197 111.514C87.4384 111.244 87.3983 110.85 87.1288 110.635C86.8588 110.419 86.4639 110.465 86.2447 110.732C85.4495 111.713 84.6493 112.687 83.8486 113.647C83.6265 113.914 83.6618 114.309 83.9284 114.528C84.1367 114.698 84.422 114.714 84.6434 114.586ZM62.3516 128.401C62.5909 128.263 62.7192 127.979 62.6478 127.701C62.3332 126.475 61.962 125.288 61.5152 124.07C61.3974 123.746 61.0375 123.581 60.7107 123.702C60.3874 123.815 60.2169 124.18 60.3363 124.507C60.7675 125.686 61.1267 126.834 61.4313 128.02C61.5162 128.354 61.8591 128.553 62.1945 128.465C62.2519 128.45 62.3035 128.429 62.3516 128.401ZM26.8459 150.573C26.9674 150.503 27.0658 150.392 27.1199 150.252C27.2451 149.928 27.0824 149.568 26.7589 149.446C25.6139 149.018 24.515 148.48 23.4917 147.85C23.1957 147.668 22.805 147.763 22.6261 148.055C22.4414 148.349 22.5312 148.735 22.8243 148.916C23.9162 149.588 25.0886 150.16 26.308 150.618C26.4912 150.687 26.6877 150.664 26.8459 150.573ZM79.7198 120.331C79.7778 120.298 79.8318 120.254 79.8776 120.202C80.7074 119.26 81.5375 118.306 82.3654 117.34C82.591 117.076 82.5622 116.681 82.2985 116.458C82.0347 116.235 81.6326 116.269 81.4126 116.531C80.5888 117.493 79.7637 118.443 78.9371 119.38C78.7064 119.641 78.7317 120.035 78.9913 120.263C79.1985 120.443 79.4917 120.463 79.7198 120.331ZM74.6215 125.925C74.6734 125.895 74.7221 125.856 74.7662 125.81C75.6251 124.898 76.4856 123.971 77.3449 123.027C77.5784 122.771 77.5608 122.374 77.3042 122.144C77.0478 121.913 76.6514 121.936 76.4169 122.191C75.5635 123.128 74.7078 124.051 73.8521 124.958C73.6146 125.21 73.6258 125.606 73.8779 125.841C74.0837 126.034 74.3873 126.06 74.6215 125.925ZM69.3216 131.329C69.3658 131.303 69.4092 131.271 69.4481 131.232C70.3429 130.357 71.2385 129.46 72.1339 128.547C72.3773 128.3 72.3746 127.903 72.1276 127.662C71.88 127.423 71.4844 127.428 71.2394 127.676C70.348 128.584 69.4586 129.473 68.5702 130.343C68.3221 130.586 68.3166 130.983 68.5595 131.228C68.7633 131.435 69.0782 131.469 69.3216 131.329ZM34.2272 151.89C34.4146 151.782 34.5417 151.58 34.5435 151.35C34.5466 151.004 34.2679 150.724 33.9202 150.724C32.6869 150.722 31.462 150.614 30.2769 150.406C29.9379 150.346 29.6075 150.571 29.5445 150.912C29.4825 151.252 29.7074 151.577 30.049 151.637C31.3047 151.859 32.6039 151.972 33.9098 151.974C34.025 151.975 34.1337 151.944 34.2272 151.89ZM63.7864 136.493C63.822 136.472 63.8578 136.447 63.8902 136.418C64.8255 135.589 65.7627 134.735 66.7011 133.859C66.9556 133.622 66.9697 133.225 66.7325 132.975C66.4978 132.724 66.1017 132.71 65.8451 132.949C65.2335 133.521 64.6211 134.083 64.0099 134.635C63.8828 133.961 63.768 133.303 63.6546 132.649L63.4357 131.407C63.3749 131.067 63.0481 130.844 62.7069 130.908C62.3629 130.967 62.1372 131.298 62.1985 131.638L62.4166 132.871C62.5571 133.68 62.6983 134.494 62.8641 135.334C62.8819 135.426 62.9197 135.509 62.9725 135.58C62.7967 135.814 62.8022 136.144 63.0029 136.37C63.2036 136.595 63.5321 136.64 63.7864 136.493ZM41.6677 150.742C41.9159 150.599 42.0428 150.302 41.9568 150.018C41.8587 149.688 41.5087 149.502 41.1754 149.603C39.9727 149.97 38.7638 150.25 37.5818 150.436C37.2394 150.489 37.0031 150.81 37.0534 151.152C37.1056 151.493 37.4254 151.726 37.7687 151.672C39.0096 151.476 40.2764 151.183 41.5351 150.8C41.5828 150.785 41.6273 150.766 41.6677 150.742ZM57.9693 141.341C57.9949 141.326 58.0189 141.31 58.0436 141.291C59.0262 140.526 60.0136 139.728 61.0061 138.9C61.2737 138.677 61.3093 138.283 61.0877 138.019C60.8665 137.753 60.4679 137.726 60.2037 137.943C59.2231 138.762 58.247 139.55 57.2733 140.308C57 140.521 56.9483 140.914 57.1609 141.186C57.3565 141.434 57.7024 141.495 57.9693 141.341ZM51.8125 145.744C51.8214 145.739 51.8315 145.732 51.84 145.726C52.8853 145.049 53.9352 144.331 54.9904 143.574C55.2736 143.372 55.34 142.981 55.139 142.7C54.9373 142.418 54.5231 142.358 54.2634 142.56C53.2218 143.306 52.1886 144.012 51.161 144.679C50.8682 144.868 50.7841 145.257 50.9724 145.545C51.1541 145.825 51.5241 145.91 51.8125 145.744ZM48.5808 147.717C48.881 147.544 48.9856 147.164 48.8164 146.866C48.6455 146.566 48.2617 146.463 47.9599 146.635C46.86 147.262 45.744 147.826 44.645 148.311C44.3373 148.441 44.1813 148.819 44.32 149.136C44.4585 149.452 44.8288 149.593 45.1463 149.454C46.286 148.951 47.4412 148.368 48.5783 147.719L48.5808 147.717ZM65.865 142.934C66.128 142.782 66.2504 142.456 66.1384 142.166C65.6751 140.969 65.2886 139.826 64.9556 138.673C64.8603 138.341 64.5127 138.151 64.1789 138.248C63.8385 138.351 63.6513 138.694 63.7479 139.025C64.0907 140.215 64.4883 141.392 64.9643 142.622C65.0892 142.944 65.4524 143.103 65.7761 142.976C65.8062 142.965 65.8368 142.95 65.865 142.934ZM146.907 101.461C146.926 101.451 146.943 101.439 146.96 101.427C147.949 100.719 148.994 100.016 150.065 99.34C150.36 99.1541 150.449 98.7674 150.264 98.4765C150.079 98.1856 149.705 98.1277 149.399 98.2841C148.305 98.9748 147.24 99.6911 146.232 100.413C145.949 100.615 145.883 101.006 146.084 101.287C146.272 101.549 146.631 101.621 146.907 101.461ZM156.83 96.0955C157.069 95.9573 157.198 95.6741 157.127 95.396C157.042 95.0615 156.698 94.8619 156.363 94.9493C155.111 95.2757 153.883 95.7434 152.708 96.3405C152.366 96.5185 152.274 96.8767 152.43 97.1825C152.586 97.4901 152.963 97.6118 153.273 97.4534C154.365 96.8983 155.51 96.4626 156.673 96.1594C156.729 96.1449 156.782 96.1232 156.83 96.0955ZM141.066 106.237C141.106 106.214 141.145 106.184 141.181 106.151C142.08 105.309 143.027 104.482 143.993 103.693C144.261 103.474 144.304 103.079 144.084 102.813C143.864 102.545 143.459 102.517 143.2 102.729C142.212 103.535 141.246 104.38 140.325 105.241C140.071 105.479 140.057 105.876 140.294 106.126C140.496 106.342 140.817 106.38 141.066 106.237ZM69.0163 149.725C69.3087 149.557 69.418 149.187 69.2591 148.889C68.6313 147.705 68.0817 146.601 67.5965 145.568C67.4505 145.256 67.0765 145.123 66.7623 145.272C66.4718 145.418 66.3109 145.791 66.4578 146.104C66.9497 147.154 67.5093 148.276 68.1489 149.48C68.3094 149.785 68.6895 149.899 68.9971 149.736C69.0032 149.732 69.0101 149.729 69.0163 149.725ZM135.943 111.773C136.01 111.735 136.07 111.683 136.121 111.62C136.896 110.651 137.714 109.7 138.553 108.793C138.788 108.538 138.773 108.143 138.519 107.91C138.265 107.678 137.871 107.688 137.631 107.95C136.772 108.878 135.934 109.852 135.14 110.845C134.923 111.116 134.967 111.509 135.237 111.723C135.445 111.887 135.725 111.899 135.943 111.773ZM164.318 95.8161C164.472 95.7269 164.589 95.5722 164.623 95.3834C164.687 95.0434 164.461 94.7187 164.119 94.6588C162.823 94.4307 161.515 94.3383 160.23 94.3842C159.891 94.3952 159.611 94.6856 159.62 95.0317C159.631 95.3768 159.92 95.6468 160.267 95.6345C161.463 95.5917 162.682 95.6778 163.892 95.8909C164.044 95.9177 164.194 95.8877 164.318 95.8161ZM131.665 117.984C131.756 117.931 131.836 117.855 131.893 117.759C132.538 116.672 133.214 115.613 133.901 114.613C134.098 114.328 134.025 113.939 133.739 113.745C133.454 113.549 133.06 113.626 132.866 113.913C132.163 114.935 131.471 116.017 130.813 117.128C130.636 117.426 130.734 117.81 131.032 117.984C131.234 118.101 131.475 118.094 131.665 117.984ZM171.311 98.4892C171.399 98.438 171.475 98.3656 171.532 98.2733C171.715 97.9788 171.624 97.5937 171.329 97.4135C170.217 96.7372 169.05 96.1612 167.859 95.7031C167.535 95.5793 167.169 95.7422 167.045 96.0605C166.917 96.3833 167.075 96.7454 167.399 96.8694C168.519 97.3023 169.619 97.8446 170.668 98.483C170.871 98.6061 171.117 98.6009 171.311 98.4892ZM72.925 156.115C72.9488 156.102 72.9718 156.086 72.9955 156.068C73.2712 155.856 73.3232 155.464 73.1136 155.191C72.3877 154.25 71.699 153.224 71.0662 152.142C70.892 151.846 70.5104 151.747 70.2105 151.92C69.9633 152.108 69.8046 152.48 69.9787 152.778C70.6395 153.905 71.3569 154.975 72.1141 155.957C72.3083 156.208 72.6566 156.27 72.925 156.115ZM128.202 124.685C128.314 124.62 128.406 124.522 128.463 124.397C128.97 123.275 129.509 122.151 130.088 121.028C130.245 120.719 130.124 120.343 129.815 120.188C129.507 120.032 129.13 120.158 128.969 120.464C128.381 121.607 127.833 122.75 127.317 123.891C127.175 124.206 127.316 124.576 127.631 124.716C127.822 124.8 128.034 124.782 128.202 124.685ZM125.325 131.657C125.447 131.587 125.544 131.476 125.599 131.336C126.045 130.18 126.501 129.014 126.982 127.841C127.113 127.522 126.96 127.157 126.639 127.028C126.317 126.897 125.951 127.056 125.819 127.377C125.335 128.556 124.874 129.731 124.426 130.896C124.301 131.22 124.463 131.579 124.787 131.701C124.97 131.77 125.167 131.748 125.325 131.657ZM176.963 103.388C176.993 103.371 177.022 103.351 177.051 103.327C177.318 103.107 177.357 102.712 177.138 102.446C176.315 101.454 175.409 100.527 174.444 99.6912C174.184 99.4664 173.783 99.4946 173.557 99.7555C173.329 100.017 173.354 100.412 173.616 100.638C174.529 101.429 175.387 102.307 176.166 103.247C176.364 103.485 176.702 103.539 176.963 103.388ZM78.349 161.262C78.4298 161.216 78.501 161.151 78.5561 161.069C78.7514 160.782 78.6759 160.393 78.3897 160.202C77.3994 159.539 76.4455 158.77 75.5539 157.915C75.3059 157.676 74.911 157.682 74.6651 157.934C74.4232 158.184 74.4288 158.58 74.6781 158.819C75.6228 159.724 76.6335 160.539 77.6835 161.242C77.8894 161.379 78.1478 161.379 78.349 161.262ZM122.621 138.698C122.739 138.63 122.837 138.521 122.892 138.384C123.354 137.225 123.806 136.049 124.259 134.857C124.381 134.534 124.219 134.174 123.895 134.053C123.57 133.933 123.208 134.101 123.083 134.422C122.633 135.607 122.185 136.777 121.725 137.93C121.597 138.252 121.754 138.615 122.076 138.74C122.261 138.812 122.46 138.791 122.621 138.698ZM85.2413 164.156C85.3908 164.07 85.505 163.923 85.5439 163.742C85.6167 163.403 85.4003 163.072 85.0616 163.002C83.8678 162.756 82.6988 162.395 81.5867 161.927C81.2696 161.793 80.899 161.944 80.762 162.261C80.6249 162.579 80.7725 162.946 81.0912 163.08C82.277 163.579 83.5244 163.965 84.7966 164.228C84.9555 164.26 85.1109 164.232 85.2413 164.156ZM180.773 109.815C181.042 109.66 181.163 109.324 181.039 109.031C180.556 107.875 179.991 106.733 179.359 105.638C179.186 105.339 178.793 105.223 178.492 105.397C178.191 105.57 178.077 105.938 178.25 106.237C178.874 107.318 179.416 108.411 179.879 109.519C180.013 109.836 180.38 109.986 180.701 109.851C180.725 109.84 180.749 109.829 180.773 109.815ZM119.535 145.578C119.636 145.52 119.722 145.433 119.78 145.322C120.335 144.256 120.874 143.132 121.426 141.886C121.567 141.568 121.424 141.2 121.107 141.063C120.788 140.926 120.419 141.074 120.278 141.388C119.736 142.609 119.209 143.71 118.665 144.753C118.505 145.06 118.624 145.437 118.931 145.594C119.129 145.695 119.356 145.681 119.535 145.578ZM92.7463 164.357C92.9603 164.233 93.0904 163.991 93.0574 163.732C93.0135 163.39 92.6992 163.15 92.3542 163.196C91.1027 163.364 89.8699 163.435 88.6894 163.408C88.3464 163.398 88.0534 163.671 88.0426 164.018C88.0315 164.364 88.3047 164.65 88.6516 164.658C89.8968 164.687 91.1962 164.613 92.5136 164.436C92.5978 164.424 92.6766 164.397 92.7463 164.357ZM115.451 151.906C115.517 151.868 115.576 151.818 115.627 151.755C116.406 150.792 117.161 149.743 117.868 148.638C118.055 148.345 117.971 147.959 117.679 147.774C117.386 147.589 116.996 147.682 116.811 147.97C116.127 149.037 115.401 150.047 114.651 150.975C114.433 151.245 114.473 151.639 114.743 151.854C114.95 152.02 115.232 152.032 115.451 151.906ZM100.039 162.434C100.301 162.282 100.423 161.959 100.313 161.669C100.191 161.346 99.8285 161.186 99.5033 161.31C98.3081 161.768 97.1205 162.155 95.9759 162.461C95.6327 162.548 95.4381 162.895 95.5256 163.228C95.6138 163.561 95.9572 163.759 96.2918 163.67C97.4809 163.352 98.7107 162.951 99.9481 162.477C99.9797 162.465 100.01 162.45 100.039 162.434ZM110.016 157.111C110.038 157.098 110.057 157.086 110.077 157.071C111.113 156.306 112.104 155.472 113.023 154.591C113.274 154.35 113.282 153.955 113.043 153.706C112.802 153.46 112.409 153.454 112.154 153.693C111.274 154.537 110.326 155.335 109.333 156.068C109.054 156.274 108.993 156.667 109.198 156.943C109.389 157.201 109.742 157.269 110.016 157.111ZM106.848 159.163C107.148 158.99 107.254 158.609 107.083 158.311C106.912 158.011 106.529 157.909 106.227 158.082C105.119 158.715 104.007 159.302 102.922 159.827C102.579 159.992 102.477 160.354 102.626 160.664C102.776 160.974 103.151 161.103 103.464 160.952C104.575 160.414 105.713 159.813 106.845 159.165L106.848 159.163ZM182.738 117.026C182.955 116.901 183.086 116.652 183.048 116.392C182.861 115.105 182.602 113.845 182.277 112.647C182.185 112.314 181.841 112.12 181.506 112.212C181.167 112.309 180.972 112.651 181.063 112.983C181.377 114.132 181.626 115.341 181.805 116.578C181.854 116.92 182.172 117.155 182.515 117.103C182.596 117.091 182.671 117.064 182.738 117.026ZM183.068 124.52C183.249 124.416 183.374 124.224 183.383 124C183.438 122.659 183.441 121.413 183.392 120.192C183.379 119.847 183.086 119.58 182.739 119.597C182.392 119.615 182.124 119.905 182.137 120.251C182.184 121.439 182.182 122.651 182.127 123.959C182.113 124.303 182.382 124.593 182.729 124.604C182.852 124.609 182.967 124.578 183.068 124.52ZM182.337 132.008C182.499 131.914 182.619 131.748 182.647 131.548C182.823 130.291 182.98 129.038 183.107 127.788C183.144 127.444 182.891 127.139 182.546 127.106C182.204 127.073 181.893 127.327 181.858 127.67C181.732 128.905 181.576 130.143 181.402 131.385C181.355 131.727 181.594 132.042 181.937 132.087C182.081 132.106 182.22 132.075 182.337 132.008ZM181.182 139.455C181.341 139.363 181.46 139.202 181.49 139.007L182.083 135.286C182.137 134.944 181.902 134.625 181.559 134.575C181.219 134.521 180.896 134.757 180.842 135.101L180.249 138.822C180.195 139.164 180.43 139.482 180.773 139.533C180.919 139.555 181.062 139.524 181.182 139.455ZM180.175 146.917C180.345 146.819 180.468 146.643 180.489 146.433C180.613 145.193 180.766 143.955 180.937 142.719C180.984 142.377 180.743 142.063 180.4 142.018C180.058 141.972 179.74 142.214 179.692 142.558C179.52 143.809 179.363 145.063 179.238 146.319C179.203 146.663 179.455 146.968 179.8 146.999C179.936 147.012 180.065 146.981 180.175 146.917ZM179.865 154.426C180.059 154.314 180.187 154.101 180.18 153.862C180.145 152.679 180.156 151.464 180.212 150.15C180.227 149.804 179.958 149.514 179.612 149.501C179.267 149.489 178.973 149.759 178.957 150.104C178.899 151.45 178.888 152.694 178.924 153.908C178.935 154.254 179.224 154.524 179.571 154.511C179.678 154.507 179.777 154.477 179.865 154.426ZM180.78 161.865C181.014 161.73 181.143 161.456 181.081 161.181C180.814 160.011 180.602 158.79 180.451 157.55C180.408 157.207 180.096 156.965 179.751 157.009C179.41 157.051 179.162 157.366 179.203 157.709C179.359 158.992 179.579 160.255 179.855 161.467C179.932 161.804 180.268 162.013 180.607 161.933C180.669 161.918 180.727 161.895 180.78 161.865ZM183.25 168.92C183.534 168.756 183.648 168.401 183.505 168.105C182.973 167.002 182.5 165.861 182.097 164.712C181.983 164.387 181.625 164.216 181.297 164.333C180.975 164.449 180.797 164.808 180.911 165.132C181.328 166.323 181.82 167.509 182.371 168.653C182.522 168.964 182.896 169.093 183.209 168.942C183.223 168.934 183.238 168.927 183.25 168.92ZM187.507 175.034C187.561 175.003 187.612 174.964 187.655 174.916C187.891 174.661 187.877 174.265 187.623 174.032C186.756 173.238 185.97 172.318 185.288 171.3C185.096 171.015 184.75 170.948 184.416 171.132C184.127 171.325 184.048 171.714 184.241 172.001C184.978 173.099 185.829 174.094 186.768 174.954C186.974 175.145 187.275 175.169 187.507 175.034ZM231.981 151.407C232.006 151.393 232.03 151.376 232.054 151.358C233.044 150.591 234.07 149.878 235.104 149.243C235.4 149.06 235.494 148.675 235.314 148.381C235.132 148.087 234.728 148.023 234.449 148.178C233.376 148.84 232.312 149.578 231.286 150.373C231.011 150.587 230.961 150.979 231.172 151.252C231.367 151.501 231.714 151.561 231.981 151.407ZM241.995 146.258C242.235 146.12 242.363 145.837 242.291 145.558C242.206 145.223 241.863 145.024 241.528 145.112C240.282 145.438 239.051 145.864 237.869 146.378C237.571 146.5 237.402 146.885 237.54 147.202C237.677 147.518 238.045 147.663 238.365 147.524C239.488 147.036 240.656 146.631 241.838 146.322C241.895 146.307 241.947 146.286 241.995 146.258ZM226.452 156.558C226.506 156.526 226.557 156.485 226.602 156.437C227.502 155.459 228.36 154.589 229.225 153.776C229.479 153.54 229.493 153.143 229.255 152.892C229.019 152.644 228.625 152.625 228.368 152.869C227.478 153.702 226.599 154.595 225.677 155.596C225.442 155.852 225.459 156.247 225.713 156.48C225.919 156.668 226.22 156.691 226.452 156.558ZM249.476 145.399C249.661 145.293 249.787 145.094 249.792 144.865C249.798 144.52 249.523 144.238 249.175 144.233C247.855 144.217 246.561 144.276 245.33 144.411C244.986 144.449 244.735 144.759 244.769 145.102C244.805 145.445 245.114 145.692 245.459 145.656C246.637 145.525 247.881 145.469 249.151 145.483C249.269 145.485 249.38 145.455 249.476 145.399ZM221.605 162.364C221.673 162.324 221.736 162.272 221.787 162.206C222.554 161.229 223.336 160.244 224.142 159.269C224.364 159.002 224.328 158.608 224.06 158.39C223.794 158.17 223.397 158.207 223.176 158.479C222.361 159.461 221.573 160.453 220.799 161.441C220.585 161.713 220.631 162.106 220.905 162.318C221.112 162.478 221.39 162.488 221.605 162.364ZM194.078 178.525C194.221 178.442 194.332 178.304 194.375 178.132C194.459 177.796 194.256 177.458 193.92 177.376C192.737 177.088 191.604 176.66 190.553 176.103C190.246 175.94 189.864 176.058 189.703 176.362C189.538 176.668 189.651 177.046 189.956 177.208C191.099 177.813 192.33 178.279 193.612 178.591C193.777 178.632 193.941 178.603 194.078 178.525ZM216.913 168.296C216.976 168.259 217.035 168.21 217.083 168.152C217.882 167.191 218.672 166.199 219.463 165.188C219.678 164.916 219.631 164.523 219.357 164.311C219.084 164.101 218.686 164.148 218.475 164.424C217.691 165.424 216.909 166.407 216.118 167.357C215.896 167.625 215.931 168.019 216.198 168.238C216.407 168.409 216.692 168.423 216.913 168.296ZM256.977 146.184C257.131 146.095 257.247 145.941 257.282 145.753C257.346 145.413 257.121 145.089 256.78 145.028C255.425 144.784 254.188 144.605 253.004 144.476C252.66 144.44 252.347 144.687 252.306 145.031C252.266 145.375 252.513 145.682 252.858 145.721C254.015 145.845 255.222 146.021 256.549 146.258C256.702 146.286 256.851 146.256 256.977 146.184ZM201.571 178.644C201.797 178.514 201.928 178.253 201.877 177.984C201.814 177.646 201.486 177.424 201.144 177.489C199.925 177.724 198.703 177.835 197.516 177.82C197.168 177.813 196.881 178.091 196.874 178.436C196.866 178.782 197.142 179.066 197.489 179.07C198.763 179.088 200.07 178.969 201.374 178.718C201.445 178.703 201.512 178.678 201.571 178.644ZM211.657 173.72C211.688 173.702 211.72 173.68 211.748 173.656C212.676 172.877 213.591 172.013 214.547 171.012C214.787 170.761 214.778 170.365 214.528 170.128C214.279 169.892 213.883 169.898 213.64 170.154C212.716 171.12 211.834 171.955 210.943 172.701C210.676 172.924 210.641 173.319 210.863 173.582C211.062 173.818 211.399 173.869 211.657 173.72ZM208.259 176.12L208.603 175.917C208.9 175.735 208.995 175.351 208.816 175.055C208.639 174.766 208.262 174.671 207.965 174.842L207.953 174.849L207.635 175.038C206.676 175.591 205.675 176.073 204.659 176.468C204.344 176.595 204.174 176.956 204.297 177.279C204.422 177.601 204.785 177.759 205.11 177.634C206.185 177.214 207.245 176.705 208.259 176.12ZM264.345 147.798C264.489 147.715 264.6 147.577 264.643 147.405C264.727 147.069 264.523 146.732 264.187 146.649C262.96 146.351 261.732 146.057 260.5 145.785C260.164 145.706 259.827 145.919 259.747 146.259C259.669 146.596 259.88 146.93 260.219 147.005C261.441 147.276 262.66 147.568 263.88 147.865C264.045 147.905 264.209 147.876 264.345 147.798ZM271.687 149.516C271.836 149.43 271.949 149.285 271.989 149.104C272.062 148.766 271.848 148.435 271.508 148.362C270.291 148.108 269.071 147.827 267.848 147.534C267.512 147.457 267.169 147.663 267.087 147.998C267.004 148.334 267.209 148.671 267.547 148.752C268.78 149.046 270.013 149.33 271.241 149.588C271.4 149.62 271.557 149.591 271.687 149.516ZM279.143 150.636C279.317 150.536 279.44 150.354 279.457 150.14C279.486 149.796 279.228 149.496 278.881 149.471C277.706 149.386 276.497 149.246 275.186 149.042C274.842 148.988 274.522 149.223 274.463 149.563C274.408 149.905 274.64 150.224 274.982 150.277C276.329 150.487 277.571 150.632 278.782 150.719C278.912 150.728 279.037 150.697 279.143 150.636ZM286.663 150.292C286.887 150.163 287.016 149.904 286.969 149.637C286.908 149.297 286.581 149.073 286.24 149.136C285.081 149.352 283.849 149.487 282.581 149.54C282.233 149.553 281.962 149.847 281.975 150.191C281.986 150.535 282.277 150.804 282.624 150.79C283.952 150.735 285.243 150.592 286.461 150.367C286.534 150.353 286.602 150.327 286.663 150.292Z" fill="#2D3D57"/>
</g>
</svg>
