<svg width="18" height="17" viewBox="0 0 18 17" fill="none" xmlns="http://www.w3.org/2000/svg">
<mask id="mask0" mask-type="alpha" maskUnits="userSpaceOnUse" x="0" y="0" width="18" height="17">
<path fill-rule="evenodd" clip-rule="evenodd" d="M0 0.000152588H17.5389V16.9098H0V0.000152588Z" fill="white"/>
</mask>
<g mask="url(#mask0)">
<path fill-rule="evenodd" clip-rule="evenodd" d="M13.0192 10.8868C13.0192 10.8868 11.1992 10.6146 10.4103 12.9137L9.9146 13.1536C9.9146 13.1536 8.11366 12.3877 6.37488 10.7237C4.63769 9.05976 3.9221 7.41578 3.9221 7.41578L4.21057 6.97749C6.61075 6.22239 6.36372 4.51535 6.36372 4.51535C6.36372 4.51535 4.77316 2.19932 3.70057 0.609161C2.85428 -0.645742 1.44382 0.427692 1.44382 0.427692C1.44382 0.427692 -0.387403 2.12396 0.0747844 5.28121C0.536972 8.43693 2.68375 11.3497 4.2026 12.8045C5.72144 14.2593 8.84838 16.3939 12.1458 16.8368C15.4433 17.2797 17.2586 15.5665 17.2586 15.5665C17.2586 15.5665 17.9901 13.9917 17.0897 13.4258C15.4353 12.3893 13.0192 10.8868 13.0192 10.8868Z" fill="#E32328"/>
</g>
</svg>
