<svg width="643" height="680" viewBox="0 0 643 680" fill="none" xmlns="http://www.w3.org/2000/svg">
<g opacity="0.1">
<path fill-rule="evenodd" clip-rule="evenodd" d="M73.5827 73.6749C73.476 73.6749 73.3692 73.6342 73.2875 73.5536L41.122 41.5284C40.9593 41.3665 40.9593 41.1032 41.122 40.9413C41.2846 40.7793 41.549 40.7793 41.7117 40.9413L73.878 72.9657C74.0407 73.1284 74.0407 73.3909 73.878 73.5536C73.7963 73.6342 73.6895 73.6749 73.5827 73.6749Z" fill="#ECECEB"/>
<path fill-rule="evenodd" clip-rule="evenodd" d="M123.417 73.6749C123.31 73.6749 123.204 73.6342 123.122 73.5536C122.959 73.3909 122.959 73.1284 123.122 72.9657L155.288 40.9413C155.451 40.7793 155.715 40.7793 155.878 40.9413C156.041 41.1032 156.041 41.3665 155.878 41.5284L123.713 73.5536C123.631 73.6342 123.524 73.6749 123.417 73.6749Z" fill="#ECECEB"/>
<path fill-rule="evenodd" clip-rule="evenodd" d="M237.583 73.6749C237.476 73.6749 237.369 73.6342 237.287 73.5536L205.122 41.5284C204.959 41.3665 204.959 41.1032 205.122 40.9413C205.285 40.7793 205.549 40.7793 205.712 40.9413L237.878 72.9657C238.041 73.1284 238.041 73.3909 237.878 73.5536C237.796 73.6342 237.69 73.6749 237.583 73.6749Z" fill="#ECECEB"/>
<path fill-rule="evenodd" clip-rule="evenodd" d="M287.417 73.6749C287.31 73.6749 287.204 73.6342 287.122 73.5536C286.959 73.3909 286.959 73.1284 287.122 72.9657L319.288 40.9413C319.451 40.7793 319.715 40.7793 319.878 40.9413C320.041 41.1032 320.041 41.3665 319.878 41.5284L287.713 73.5536C287.631 73.6342 287.524 73.6749 287.417 73.6749Z" fill="#ECECEB"/>
<path fill-rule="evenodd" clip-rule="evenodd" d="M401.583 73.6749C401.476 73.6749 401.369 73.6342 401.287 73.5536L369.122 41.5284C368.959 41.3665 368.959 41.1032 369.122 40.9413C369.285 40.7793 369.549 40.7793 369.712 40.9413L401.878 72.9657C402.041 73.1284 402.041 73.3909 401.878 73.5536C401.796 73.6342 401.689 73.6749 401.583 73.6749Z" fill="#ECECEB"/>
<path fill-rule="evenodd" clip-rule="evenodd" d="M450.417 73.6749C450.311 73.6749 450.204 73.6342 450.122 73.5536C449.959 73.3909 449.959 73.1284 450.122 72.9657L482.288 40.9413C482.451 40.7793 482.715 40.7793 482.878 40.9413C483.041 41.1032 483.041 41.3665 482.878 41.5284L450.713 73.5536C450.631 73.6342 450.524 73.6749 450.417 73.6749Z" fill="#ECECEB"/>
<path fill-rule="evenodd" clip-rule="evenodd" d="M564.583 73.6749C564.476 73.6749 564.369 73.6342 564.287 73.5536L532.122 41.5284C531.959 41.3665 531.959 41.1032 532.122 40.9413C532.285 40.7793 532.549 40.7793 532.712 40.9413L564.878 72.9657C565.041 73.1284 565.041 73.3909 564.878 73.5536C564.796 73.6342 564.689 73.6749 564.583 73.6749Z" fill="#ECECEB"/>
<path fill-rule="evenodd" clip-rule="evenodd" d="M615.417 73.6749C615.311 73.6749 615.204 73.6342 615.122 73.5536C614.959 73.3909 614.959 73.1284 615.122 72.9657L647.288 40.9413C647.451 40.7793 647.715 40.7793 647.878 40.9413C648.041 41.1032 648.041 41.3665 647.878 41.5284L615.713 73.5536C615.631 73.6342 615.524 73.6749 615.417 73.6749Z" fill="#ECECEB"/>
<path fill-rule="evenodd" clip-rule="evenodd" d="M41.4173 155.315C41.3105 155.315 41.2037 155.274 41.122 155.194C40.9593 155.031 40.9593 154.768 41.122 154.606L73.2883 122.581C73.451 122.419 73.7154 122.419 73.878 122.581C74.0407 122.743 74.0407 123.006 73.878 123.168L41.7125 155.194C41.6308 155.274 41.524 155.315 41.4173 155.315Z" fill="#ECECEB"/>
<path fill-rule="evenodd" clip-rule="evenodd" d="M155.583 155.315C155.476 155.315 155.369 155.274 155.287 155.194L123.122 123.168C122.959 123.006 122.959 122.743 123.122 122.581C123.285 122.419 123.549 122.419 123.712 122.581L155.878 154.606C156.041 154.768 156.041 155.031 155.878 155.194C155.796 155.274 155.69 155.315 155.583 155.315Z" fill="#ECECEB"/>
<path fill-rule="evenodd" clip-rule="evenodd" d="M205.417 155.315C205.31 155.315 205.204 155.274 205.122 155.194C204.959 155.031 204.959 154.768 205.122 154.606L237.288 122.581C237.451 122.419 237.715 122.419 237.878 122.581C238.041 122.743 238.041 123.006 237.878 123.168L205.713 155.194C205.631 155.274 205.524 155.315 205.417 155.315Z" fill="#ECECEB"/>
<path fill-rule="evenodd" clip-rule="evenodd" d="M319.583 155.315C319.476 155.315 319.369 155.274 319.287 155.194L287.122 123.168C286.959 123.006 286.959 122.743 287.122 122.581C287.285 122.419 287.549 122.419 287.712 122.581L319.878 154.606C320.041 154.768 320.041 155.031 319.878 155.194C319.796 155.274 319.69 155.315 319.583 155.315Z" fill="#ECECEB"/>
<path fill-rule="evenodd" clip-rule="evenodd" d="M369.417 155.315C369.311 155.315 369.204 155.274 369.122 155.194C368.959 155.031 368.959 154.768 369.122 154.606L401.288 122.581C401.451 122.419 401.715 122.419 401.878 122.581C402.041 122.743 402.041 123.006 401.878 123.168L369.713 155.194C369.631 155.274 369.524 155.315 369.417 155.315Z" fill="#ECECEB"/>
<path fill-rule="evenodd" clip-rule="evenodd" d="M482.583 155.315C482.476 155.315 482.369 155.274 482.287 155.194L450.122 123.168C449.959 123.006 449.959 122.743 450.122 122.581C450.285 122.419 450.549 122.419 450.712 122.581L482.878 154.606C483.041 154.768 483.041 155.031 482.878 155.194C482.796 155.274 482.689 155.315 482.583 155.315Z" fill="#ECECEB"/>
<path fill-rule="evenodd" clip-rule="evenodd" d="M647.583 155.315C647.476 155.315 647.369 155.274 647.287 155.194L615.122 123.168C614.959 123.006 614.959 122.743 615.122 122.581C615.285 122.419 615.549 122.419 615.712 122.581L647.878 154.606C648.041 154.768 648.041 155.031 647.878 155.194C647.796 155.274 647.689 155.315 647.583 155.315Z" fill="#ECECEB"/>
<path fill-rule="evenodd" clip-rule="evenodd" d="M532.417 155.315C532.311 155.315 532.204 155.274 532.122 155.194C531.959 155.031 531.959 154.768 532.122 154.606L564.288 122.581C564.451 122.419 564.715 122.419 564.878 122.581C565.041 122.743 565.041 123.006 564.878 123.168L532.713 155.194C532.631 155.274 532.524 155.315 532.417 155.315Z" fill="#ECECEB"/>
<path fill-rule="evenodd" clip-rule="evenodd" d="M73.5827 235.959C73.476 235.959 73.3692 235.918 73.2875 235.838L41.122 203.813C40.9593 203.651 40.9593 203.387 41.122 203.225C41.2846 203.064 41.549 203.064 41.7117 203.225L73.878 235.25C74.0407 235.413 74.0407 235.675 73.878 235.838C73.7963 235.918 73.6895 235.959 73.5827 235.959Z" fill="#ECECEB"/>
<path fill-rule="evenodd" clip-rule="evenodd" d="M123.417 235.959C123.31 235.959 123.204 235.918 123.122 235.838C122.959 235.675 122.959 235.413 123.122 235.25L155.288 203.225C155.451 203.064 155.715 203.064 155.878 203.225C156.041 203.387 156.041 203.651 155.878 203.813L123.713 235.838C123.631 235.918 123.524 235.959 123.417 235.959Z" fill="#ECECEB"/>
<path fill-rule="evenodd" clip-rule="evenodd" d="M237.583 235.959C237.476 235.959 237.369 235.918 237.287 235.838L205.122 203.813C204.959 203.651 204.959 203.387 205.122 203.225C205.285 203.064 205.549 203.064 205.712 203.225L237.878 235.25C238.041 235.413 238.041 235.675 237.878 235.838C237.796 235.918 237.69 235.959 237.583 235.959Z" fill="#ECECEB"/>
<path fill-rule="evenodd" clip-rule="evenodd" d="M287.417 235.959C287.31 235.959 287.204 235.918 287.122 235.838C286.959 235.675 286.959 235.413 287.122 235.25L319.288 203.225C319.451 203.064 319.715 203.064 319.878 203.225C320.041 203.387 320.041 203.651 319.878 203.813L287.713 235.838C287.631 235.918 287.524 235.959 287.417 235.959Z" fill="#ECECEB"/>
<path fill-rule="evenodd" clip-rule="evenodd" d="M401.583 235.959C401.476 235.959 401.369 235.918 401.287 235.838L369.122 203.813C368.959 203.651 368.959 203.387 369.122 203.225C369.285 203.064 369.549 203.064 369.712 203.225L401.878 235.25C402.041 235.413 402.041 235.675 401.878 235.838C401.796 235.918 401.689 235.959 401.583 235.959Z" fill="#ECECEB"/>
<path fill-rule="evenodd" clip-rule="evenodd" d="M450.417 235.959C450.311 235.959 450.204 235.918 450.122 235.838C449.959 235.675 449.959 235.413 450.122 235.25L482.288 203.225C482.451 203.064 482.715 203.064 482.878 203.225C483.041 203.387 483.041 203.651 482.878 203.813L450.713 235.838C450.631 235.918 450.524 235.959 450.417 235.959Z" fill="#ECECEB"/>
<path fill-rule="evenodd" clip-rule="evenodd" d="M564.583 235.959C564.476 235.959 564.369 235.918 564.287 235.838L532.122 203.813C531.959 203.651 531.959 203.387 532.122 203.225C532.285 203.064 532.549 203.064 532.712 203.225L564.878 235.25C565.041 235.413 565.041 235.675 564.878 235.838C564.796 235.918 564.689 235.959 564.583 235.959Z" fill="#ECECEB"/>
<path fill-rule="evenodd" clip-rule="evenodd" d="M615.417 235.959C615.311 235.959 615.204 235.918 615.122 235.838C614.959 235.675 614.959 235.413 615.122 235.25L647.288 203.225C647.451 203.064 647.715 203.064 647.878 203.225C648.041 203.387 648.041 203.651 647.878 203.813L615.713 235.838C615.631 235.918 615.524 235.959 615.417 235.959Z" fill="#ECECEB"/>
<path fill-rule="evenodd" clip-rule="evenodd" d="M41.4173 317.599C41.3105 317.599 41.2037 317.558 41.122 317.477C40.9593 317.315 40.9593 317.052 41.122 316.89L73.2883 284.865C73.451 284.703 73.7154 284.703 73.878 284.865C74.0407 285.027 74.0407 285.29 73.878 285.452L41.7125 317.477C41.6308 317.558 41.524 317.599 41.4173 317.599Z" fill="#ECECEB"/>
<path fill-rule="evenodd" clip-rule="evenodd" d="M155.583 317.599C155.476 317.599 155.369 317.558 155.287 317.477L123.122 285.452C122.959 285.29 122.959 285.027 123.122 284.865C123.285 284.703 123.549 284.703 123.712 284.865L155.878 316.89C156.041 317.052 156.041 317.315 155.878 317.477C155.796 317.558 155.69 317.599 155.583 317.599Z" fill="#ECECEB"/>
<path fill-rule="evenodd" clip-rule="evenodd" d="M205.417 317.599C205.31 317.599 205.204 317.558 205.122 317.477C204.959 317.315 204.959 317.052 205.122 316.89L237.288 284.865C237.451 284.703 237.715 284.703 237.878 284.865C238.041 285.027 238.041 285.29 237.878 285.452L205.713 317.477C205.631 317.558 205.524 317.599 205.417 317.599Z" fill="#ECECEB"/>
<path fill-rule="evenodd" clip-rule="evenodd" d="M319.583 317.599C319.476 317.599 319.369 317.558 319.287 317.477L287.122 285.452C286.959 285.29 286.959 285.027 287.122 284.865C287.285 284.703 287.549 284.703 287.712 284.865L319.878 316.89C320.041 317.052 320.041 317.315 319.878 317.477C319.796 317.558 319.69 317.599 319.583 317.599Z" fill="#ECECEB"/>
<path fill-rule="evenodd" clip-rule="evenodd" d="M369.417 317.599C369.311 317.599 369.204 317.558 369.122 317.477C368.959 317.315 368.959 317.052 369.122 316.89L401.288 284.865C401.451 284.703 401.715 284.703 401.878 284.865C402.041 285.027 402.041 285.29 401.878 285.452L369.713 317.477C369.631 317.558 369.524 317.599 369.417 317.599Z" fill="#ECECEB"/>
<path fill-rule="evenodd" clip-rule="evenodd" d="M482.583 317.599C482.476 317.599 482.369 317.558 482.287 317.477L450.122 285.452C449.959 285.29 449.959 285.027 450.122 284.865C450.285 284.703 450.549 284.703 450.712 284.865L482.878 316.89C483.041 317.052 483.041 317.315 482.878 317.477C482.796 317.558 482.689 317.599 482.583 317.599Z" fill="#ECECEB"/>
<path fill-rule="evenodd" clip-rule="evenodd" d="M647.583 317.599C647.476 317.599 647.369 317.558 647.287 317.477L615.122 285.452C614.959 285.29 614.959 285.027 615.122 284.865C615.285 284.703 615.549 284.703 615.712 284.865L647.878 316.89C648.041 317.052 648.041 317.315 647.878 317.477C647.796 317.558 647.689 317.599 647.583 317.599Z" fill="#ECECEB"/>
<path fill-rule="evenodd" clip-rule="evenodd" d="M532.417 317.599C532.311 317.599 532.204 317.558 532.122 317.477C531.959 317.315 531.959 317.052 532.122 316.89L564.288 284.865C564.451 284.703 564.715 284.703 564.878 284.865C565.041 285.027 565.041 285.29 564.878 285.452L532.713 317.477C532.631 317.558 532.524 317.599 532.417 317.599Z" fill="#ECECEB"/>
<path fill-rule="evenodd" clip-rule="evenodd" d="M73.5827 398.243C73.476 398.243 73.3692 398.202 73.2875 398.122L41.122 366.097C40.9593 365.935 40.9593 365.671 41.122 365.509C41.2846 365.347 41.549 365.347 41.7117 365.509L73.878 397.534C74.0407 397.697 74.0407 397.959 73.878 398.122C73.7963 398.202 73.6895 398.243 73.5827 398.243Z" fill="#ECECEB"/>
<path fill-rule="evenodd" clip-rule="evenodd" d="M123.417 398.243C123.31 398.243 123.204 398.202 123.122 398.122C122.959 397.959 122.959 397.697 123.122 397.534L155.288 365.509C155.451 365.347 155.715 365.347 155.878 365.509C156.041 365.671 156.041 365.935 155.878 366.097L123.713 398.122C123.631 398.202 123.524 398.243 123.417 398.243Z" fill="#ECECEB"/>
<path fill-rule="evenodd" clip-rule="evenodd" d="M237.583 398.243C237.476 398.243 237.369 398.202 237.287 398.122L205.122 366.097C204.959 365.935 204.959 365.671 205.122 365.509C205.285 365.347 205.549 365.347 205.712 365.509L237.878 397.534C238.041 397.697 238.041 397.959 237.878 398.122C237.796 398.202 237.69 398.243 237.583 398.243Z" fill="#ECECEB"/>
<path fill-rule="evenodd" clip-rule="evenodd" d="M287.417 398.243C287.31 398.243 287.204 398.202 287.122 398.122C286.959 397.959 286.959 397.697 287.122 397.534L319.288 365.509C319.451 365.347 319.715 365.347 319.878 365.509C320.041 365.671 320.041 365.935 319.878 366.097L287.713 398.122C287.631 398.202 287.524 398.243 287.417 398.243Z" fill="#ECECEB"/>
<path fill-rule="evenodd" clip-rule="evenodd" d="M401.583 398.243C401.476 398.243 401.369 398.202 401.287 398.122L369.122 366.097C368.959 365.935 368.959 365.671 369.122 365.509C369.285 365.347 369.549 365.347 369.712 365.509L401.878 397.534C402.041 397.697 402.041 397.959 401.878 398.122C401.796 398.202 401.689 398.243 401.583 398.243Z" fill="#ECECEB"/>
<path fill-rule="evenodd" clip-rule="evenodd" d="M450.417 398.243C450.311 398.243 450.204 398.202 450.122 398.122C449.959 397.959 449.959 397.697 450.122 397.534L482.288 365.509C482.451 365.347 482.715 365.347 482.878 365.509C483.041 365.671 483.041 365.935 482.878 366.097L450.713 398.122C450.631 398.202 450.524 398.243 450.417 398.243Z" fill="#ECECEB"/>
<path fill-rule="evenodd" clip-rule="evenodd" d="M564.583 398.243C564.476 398.243 564.369 398.202 564.287 398.122L532.122 366.097C531.959 365.935 531.959 365.671 532.122 365.509C532.285 365.347 532.549 365.347 532.712 365.509L564.878 397.534C565.041 397.697 565.041 397.959 564.878 398.122C564.796 398.202 564.689 398.243 564.583 398.243Z" fill="#ECECEB"/>
<path fill-rule="evenodd" clip-rule="evenodd" d="M615.417 398.243C615.311 398.243 615.204 398.202 615.122 398.122C614.959 397.959 614.959 397.697 615.122 397.534L647.288 365.509C647.451 365.347 647.715 365.347 647.878 365.509C648.041 365.671 648.041 365.935 647.878 366.097L615.713 398.122C615.631 398.202 615.524 398.243 615.417 398.243Z" fill="#ECECEB"/>
<path fill-rule="evenodd" clip-rule="evenodd" d="M41.4173 477.892C41.3105 477.892 41.2037 477.851 41.122 477.77C40.9593 477.608 40.9593 477.345 41.122 477.182L73.2883 445.158C73.451 444.996 73.7154 444.996 73.878 445.158C74.0407 445.32 74.0407 445.583 73.878 445.745L41.7125 477.77C41.6308 477.851 41.524 477.892 41.4173 477.892Z" fill="#ECECEB"/>
<path fill-rule="evenodd" clip-rule="evenodd" d="M155.583 477.892C155.476 477.892 155.369 477.851 155.287 477.77L123.122 445.745C122.959 445.583 122.959 445.32 123.122 445.158C123.285 444.996 123.549 444.996 123.712 445.158L155.878 477.182C156.041 477.345 156.041 477.608 155.878 477.77C155.796 477.851 155.69 477.892 155.583 477.892Z" fill="#ECECEB"/>
<path fill-rule="evenodd" clip-rule="evenodd" d="M205.417 477.892C205.31 477.892 205.204 477.851 205.122 477.77C204.959 477.608 204.959 477.345 205.122 477.182L237.288 445.158C237.451 444.996 237.715 444.996 237.878 445.158C238.041 445.32 238.041 445.583 237.878 445.745L205.713 477.77C205.631 477.851 205.524 477.892 205.417 477.892Z" fill="#ECECEB"/>
<path fill-rule="evenodd" clip-rule="evenodd" d="M319.583 477.892C319.476 477.892 319.369 477.851 319.287 477.77L287.122 445.745C286.959 445.583 286.959 445.32 287.122 445.158C287.285 444.996 287.549 444.996 287.712 445.158L319.878 477.182C320.041 477.345 320.041 477.608 319.878 477.77C319.796 477.851 319.69 477.892 319.583 477.892Z" fill="#ECECEB"/>
<path fill-rule="evenodd" clip-rule="evenodd" d="M369.417 477.892C369.311 477.892 369.204 477.851 369.122 477.77C368.959 477.608 368.959 477.345 369.122 477.182L401.288 445.158C401.451 444.996 401.715 444.996 401.878 445.158C402.041 445.32 402.041 445.583 401.878 445.745L369.713 477.77C369.631 477.851 369.524 477.892 369.417 477.892Z" fill="#ECECEB"/>
<path fill-rule="evenodd" clip-rule="evenodd" d="M482.583 477.892C482.476 477.892 482.369 477.851 482.287 477.77L450.122 445.745C449.959 445.583 449.959 445.32 450.122 445.158C450.285 444.996 450.549 444.996 450.712 445.158L482.878 477.182C483.041 477.345 483.041 477.608 482.878 477.77C482.796 477.851 482.689 477.892 482.583 477.892Z" fill="#ECECEB"/>
<path fill-rule="evenodd" clip-rule="evenodd" d="M647.583 477.892C647.476 477.892 647.369 477.851 647.287 477.77L615.122 445.745C614.959 445.583 614.959 445.32 615.122 445.158C615.285 444.996 615.549 444.996 615.712 445.158L647.878 477.182C648.041 477.345 648.041 477.608 647.878 477.77C647.796 477.851 647.689 477.892 647.583 477.892Z" fill="#ECECEB"/>
<path fill-rule="evenodd" clip-rule="evenodd" d="M532.417 477.892C532.311 477.892 532.204 477.851 532.122 477.77C531.959 477.608 531.959 477.345 532.122 477.182L564.288 445.158C564.451 444.996 564.715 444.996 564.878 445.158C565.041 445.32 565.041 445.583 564.878 445.745L532.713 477.77C532.631 477.851 532.524 477.892 532.417 477.892Z" fill="#ECECEB"/>
<path fill-rule="evenodd" clip-rule="evenodd" d="M73.5827 558.536C73.476 558.536 73.3692 558.495 73.2875 558.415L41.122 526.39C40.9593 526.228 40.9593 525.964 41.122 525.802C41.2846 525.64 41.549 525.64 41.7117 525.802L73.878 557.827C74.0407 557.99 74.0407 558.252 73.878 558.415C73.7963 558.495 73.6895 558.536 73.5827 558.536Z" fill="#ECECEB"/>
<path fill-rule="evenodd" clip-rule="evenodd" d="M123.417 558.536C123.31 558.536 123.204 558.495 123.122 558.415C122.959 558.252 122.959 557.99 123.122 557.827L155.288 525.802C155.451 525.64 155.715 525.64 155.878 525.802C156.041 525.964 156.041 526.228 155.878 526.39L123.713 558.415C123.631 558.495 123.524 558.536 123.417 558.536Z" fill="#ECECEB"/>
<path fill-rule="evenodd" clip-rule="evenodd" d="M237.583 558.536C237.476 558.536 237.369 558.495 237.287 558.415L205.122 526.39C204.959 526.228 204.959 525.964 205.122 525.802C205.285 525.64 205.549 525.64 205.712 525.802L237.878 557.827C238.041 557.99 238.041 558.252 237.878 558.415C237.796 558.495 237.69 558.536 237.583 558.536Z" fill="#ECECEB"/>
<path fill-rule="evenodd" clip-rule="evenodd" d="M287.417 558.536C287.31 558.536 287.204 558.495 287.122 558.415C286.959 558.252 286.959 557.99 287.122 557.827L319.288 525.802C319.451 525.64 319.715 525.64 319.878 525.802C320.041 525.964 320.041 526.228 319.878 526.39L287.713 558.415C287.631 558.495 287.524 558.536 287.417 558.536Z" fill="#ECECEB"/>
<path fill-rule="evenodd" clip-rule="evenodd" d="M401.583 558.536C401.476 558.536 401.369 558.495 401.287 558.415L369.122 526.39C368.959 526.228 368.959 525.964 369.122 525.802C369.285 525.64 369.549 525.64 369.712 525.802L401.878 557.827C402.041 557.99 402.041 558.252 401.878 558.415C401.796 558.495 401.689 558.536 401.583 558.536Z" fill="#ECECEB"/>
<path fill-rule="evenodd" clip-rule="evenodd" d="M450.417 558.536C450.311 558.536 450.204 558.495 450.122 558.415C449.959 558.252 449.959 557.99 450.122 557.827L482.288 525.802C482.451 525.64 482.715 525.64 482.878 525.802C483.041 525.964 483.041 526.228 482.878 526.39L450.713 558.415C450.631 558.495 450.524 558.536 450.417 558.536Z" fill="#ECECEB"/>
<path fill-rule="evenodd" clip-rule="evenodd" d="M564.583 558.536C564.476 558.536 564.369 558.495 564.287 558.415L532.122 526.39C531.959 526.228 531.959 525.964 532.122 525.802C532.285 525.64 532.549 525.64 532.712 525.802L564.878 557.827C565.041 557.99 565.041 558.252 564.878 558.415C564.796 558.495 564.689 558.536 564.583 558.536Z" fill="#ECECEB"/>
<path fill-rule="evenodd" clip-rule="evenodd" d="M615.417 558.536C615.311 558.536 615.204 558.495 615.122 558.415C614.959 558.252 614.959 557.99 615.122 557.827L647.288 525.802C647.451 525.64 647.715 525.64 647.878 525.802C648.041 525.964 648.041 526.228 647.878 526.39L615.713 558.415C615.631 558.495 615.524 558.536 615.417 558.536Z" fill="#ECECEB"/>
<path fill-rule="evenodd" clip-rule="evenodd" d="M41.4173 641.171C41.3105 641.171 41.2037 641.131 41.122 641.05C40.9593 640.887 40.9593 640.625 41.122 640.462L73.2883 608.438C73.451 608.276 73.7154 608.276 73.878 608.438C74.0407 608.6 74.0407 608.863 73.878 609.025L41.7125 641.05C41.6308 641.131 41.524 641.171 41.4173 641.171Z" fill="#ECECEB"/>
<path fill-rule="evenodd" clip-rule="evenodd" d="M155.583 641.171C155.476 641.171 155.369 641.131 155.287 641.05L123.122 609.025C122.959 608.863 122.959 608.6 123.122 608.438C123.285 608.276 123.549 608.276 123.712 608.438L155.878 640.462C156.041 640.625 156.041 640.887 155.878 641.05C155.796 641.131 155.69 641.171 155.583 641.171Z" fill="#ECECEB"/>
<path fill-rule="evenodd" clip-rule="evenodd" d="M205.417 641.171C205.31 641.171 205.204 641.131 205.122 641.05C204.959 640.887 204.959 640.625 205.122 640.462L237.288 608.438C237.451 608.276 237.715 608.276 237.878 608.438C238.041 608.6 238.041 608.863 237.878 609.025L205.713 641.05C205.631 641.131 205.524 641.171 205.417 641.171Z" fill="#ECECEB"/>
<path fill-rule="evenodd" clip-rule="evenodd" d="M319.583 641.171C319.476 641.171 319.369 641.131 319.287 641.05L287.122 609.025C286.959 608.863 286.959 608.6 287.122 608.438C287.285 608.276 287.549 608.276 287.712 608.438L319.878 640.462C320.041 640.625 320.041 640.887 319.878 641.05C319.796 641.131 319.69 641.171 319.583 641.171Z" fill="#ECECEB"/>
<path fill-rule="evenodd" clip-rule="evenodd" d="M369.417 641.171C369.311 641.171 369.204 641.131 369.122 641.05C368.959 640.887 368.959 640.625 369.122 640.462L401.288 608.438C401.451 608.276 401.715 608.276 401.878 608.438C402.041 608.6 402.041 608.863 401.878 609.025L369.713 641.05C369.631 641.131 369.524 641.171 369.417 641.171Z" fill="#ECECEB"/>
<path fill-rule="evenodd" clip-rule="evenodd" d="M482.583 641.171C482.476 641.171 482.369 641.131 482.287 641.05L450.122 609.025C449.959 608.863 449.959 608.6 450.122 608.438C450.285 608.276 450.549 608.276 450.712 608.438L482.878 640.462C483.041 640.625 483.041 640.887 482.878 641.05C482.796 641.131 482.689 641.171 482.583 641.171Z" fill="#ECECEB"/>
<path fill-rule="evenodd" clip-rule="evenodd" d="M647.583 641.171C647.476 641.171 647.369 641.131 647.287 641.05L615.122 609.025C614.959 608.863 614.959 608.6 615.122 608.438C615.285 608.276 615.549 608.276 615.712 608.438L647.878 640.462C648.041 640.625 648.041 640.887 647.878 641.05C647.796 641.131 647.689 641.171 647.583 641.171Z" fill="#ECECEB"/>
<path fill-rule="evenodd" clip-rule="evenodd" d="M532.417 641.171C532.311 641.171 532.204 641.131 532.122 641.05C531.959 640.887 531.959 640.625 532.122 640.462L564.288 608.438C564.451 608.276 564.715 608.276 564.878 608.438C565.041 608.6 565.041 608.863 564.878 609.025L532.713 641.05C532.631 641.131 532.524 641.171 532.417 641.171Z" fill="#ECECEB"/>
<mask id="mask0" mask-type="alpha" maskUnits="userSpaceOnUse" x="0" y="0" width="33" height="33">
<path fill-rule="evenodd" clip-rule="evenodd" d="M0 0.732178H32.2636V32.8231H0V0.732178Z" fill="white"/>
</mask>
<g mask="url(#mask0)">
<path fill-rule="evenodd" clip-rule="evenodd" d="M26.364 31.6825C27.1915 30.7323 26.8095 29.4653 26.8095 29.4653L26.2139 25.9754C26.5323 25.7735 26.8607 25.5134 27.1725 25.2016C27.7674 24.6108 28.1807 23.9658 28.3465 23.4333C28.132 23.3151 27.9282 23.1674 27.7459 22.9861C27.5636 22.8039 27.4143 22.602 27.2955 22.3887C26.8326 22.5315 26.2857 22.858 25.7626 23.325L25.181 19.9212C25.5671 19.707 25.9771 19.4001 26.364 19.0153C26.958 18.4237 27.3714 17.7779 27.5372 17.247C27.3219 17.1272 27.1197 16.9795 26.9366 16.7981C26.7543 16.6159 26.6049 16.4149 26.4853 16.2007C25.9614 16.3632 25.3254 16.7636 24.7404 17.3372L24.0111 13.0637C27.8243 8.94767 30.758 5.39787 30.758 5.39787C33.2412 2.54719 31.9039 1.08985 31.9039 1.08985C31.9039 1.08985 30.4387 -0.240298 27.5735 2.22963C27.5735 2.22963 24.0045 5.14841 19.8663 8.94111L15.5689 8.2149C16.1464 7.63311 16.549 7.00127 16.7115 6.47938C16.497 6.3604 16.2933 6.21188 16.1109 6.02971C15.9286 5.85 15.7793 5.64732 15.6605 5.43315C15.1251 5.59809 14.4766 6.0092 13.8826 6.60083C13.4957 6.98568 13.1863 7.39186 12.9718 7.77671L9.54806 7.19903C10.0191 6.67796 10.3475 6.13392 10.491 5.67358C10.2765 5.55542 10.0728 5.40771 9.89044 5.22555C9.70811 5.0442 9.55879 4.84234 9.43916 4.62817C8.90456 4.7931 8.25611 5.20421 7.66211 5.79585C7.34944 6.10684 7.08791 6.43261 6.88496 6.74935L3.37541 6.15772C3.37541 6.15772 2.10161 5.77779 1.14709 6.60001C0.190912 7.42469 -0.318938 7.93098 0.827812 8.94357L13.4231 15.2366C8.93756 19.9983 5.85866 24.2095 5.85866 24.2095L0.371587 23.8395L-0.000488281 25.0958L4.64921 28.1983L7.76936 32.8231L9.03161 32.453L8.66036 26.9962C8.66036 26.9962 12.8934 23.933 17.6809 19.4724L24.0078 31.9984C25.0259 33.1398 25.5357 32.6319 26.364 31.6825Z" fill="#ECECEB"/>
</g>
<path fill-rule="evenodd" clip-rule="evenodd" d="M190.966 32.6829C191.812 31.71 191.422 30.4129 191.422 30.4129L190.812 26.8399C191.138 26.6332 191.474 26.3669 191.793 26.0477C192.401 25.4428 192.824 24.7825 192.994 24.2372C192.774 24.1163 192.566 23.965 192.379 23.7794C192.193 23.5929 192.04 23.3862 191.919 23.1678C191.445 23.314 190.886 23.6483 190.351 24.1263L189.756 20.6416C190.151 20.4223 190.57 20.1081 190.966 19.7141C191.573 19.1083 191.996 18.4472 192.166 17.9036C191.946 17.781 191.739 17.6298 191.552 17.4441C191.365 17.2576 191.212 17.0518 191.09 16.8325C190.554 16.9988 189.904 17.4088 189.305 17.996L188.559 13.6207C192.46 9.40672 195.46 5.77239 195.46 5.77239C198 2.85384 196.632 1.3618 196.632 1.3618C196.632 1.3618 195.134 -2.61068e-05 192.203 2.52871C192.203 2.52871 188.553 5.517 184.32 9.4L179.925 8.6565C180.515 8.06086 180.927 7.41397 181.093 6.87966C180.874 6.75784 180.665 6.60578 180.479 6.41928C180.292 6.23529 180.14 6.02779 180.018 5.80852C179.471 5.97738 178.807 6.39828 178.2 7.004C177.804 7.39801 177.488 7.81387 177.268 8.20788L173.766 7.61644C174.248 7.08297 174.584 6.52597 174.731 6.05467C174.511 5.93369 174.303 5.78247 174.117 5.59597C173.93 5.4103 173.777 5.20364 173.655 4.98437C173.108 5.15323 172.445 5.57413 171.837 6.17985C171.518 6.49825 171.25 6.83177 171.043 7.15606L167.453 6.55034C167.453 6.55034 166.15 6.16136 165.174 7.00316C164.196 7.84747 163.674 8.36582 164.847 9.40252L177.73 15.8453C173.142 20.7205 169.993 25.032 169.993 25.032L164.381 24.6531L164 25.9393L168.756 29.1158L171.947 33.8507L173.238 33.4718L172.858 27.885C172.858 27.885 177.188 24.7489 182.085 20.182L188.556 33.0063C189.597 34.1749 190.119 33.6549 190.966 32.6829Z" fill="#ECECEB"/>
<path fill-rule="evenodd" clip-rule="evenodd" d="M354.965 32.6829C355.812 31.71 355.421 30.4129 355.421 30.4129L354.812 26.8399C355.138 26.6332 355.473 26.3669 355.793 26.0477C356.401 25.4428 356.823 24.7825 356.993 24.2372C356.774 24.1163 356.565 23.965 356.379 23.7794C356.192 23.5929 356.04 23.3862 355.919 23.1678C355.444 23.314 354.885 23.6483 354.35 24.1263L353.755 20.6416C354.151 20.4223 354.569 20.1081 354.965 19.7141C355.574 19.1083 355.996 18.4472 356.165 17.9036C355.945 17.781 355.738 17.6298 355.551 17.4441C355.364 17.2576 355.212 17.0518 355.089 16.8325C354.553 16.9988 353.904 17.4088 353.305 17.996L352.559 13.6207C356.46 9.40672 359.459 5.77239 359.459 5.77239C362 2.85384 360.632 1.3618 360.632 1.3618C360.632 1.3618 359.134 -2.61068e-05 356.203 2.52871C356.203 2.52871 352.552 5.517 348.32 9.4L343.924 8.6565C344.514 8.06086 344.927 7.41397 345.093 6.87966C344.873 6.75784 344.665 6.60578 344.479 6.41928C344.293 6.23529 344.14 6.02779 344.017 5.80852C343.471 5.97738 342.807 6.39828 342.2 7.004C341.803 7.39801 341.487 7.81387 341.267 8.20788L337.766 7.61644C338.247 7.08297 338.584 6.52597 338.73 6.05467C338.511 5.93369 338.302 5.78247 338.116 5.59597C337.929 5.4103 337.777 5.20364 337.655 4.98437C337.107 5.15323 336.444 5.57413 335.837 6.17985C335.517 6.49825 335.249 6.83177 335.042 7.15606L331.452 6.55034C331.452 6.55034 330.15 6.16136 329.173 7.00316C328.195 7.84747 327.674 8.36582 328.846 9.40252L341.729 15.8453C337.141 20.7205 333.992 25.032 333.992 25.032L328.38 24.6531L328 25.9393L332.755 29.1158L335.946 33.8507L337.238 33.4718L336.858 27.885C336.858 27.885 341.187 24.7489 346.085 20.182L352.555 33.0063C353.597 34.1749 354.118 33.6549 354.965 32.6829Z" fill="#ECECEB"/>
<path fill-rule="evenodd" clip-rule="evenodd" d="M518.965 32.6829C519.812 31.71 519.421 30.4129 519.421 30.4129L518.812 26.8399C519.138 26.6332 519.473 26.3669 519.793 26.0477C520.401 25.4428 520.823 24.7825 520.993 24.2372C520.774 24.1163 520.565 23.965 520.379 23.7794C520.192 23.5929 520.04 23.3862 519.919 23.1678C519.444 23.314 518.885 23.6483 518.35 24.1263L517.755 20.6416C518.151 20.4223 518.569 20.1081 518.965 19.7141C519.574 19.1083 519.996 18.4472 520.165 17.9036C519.945 17.781 519.738 17.6298 519.551 17.4441C519.364 17.2576 519.212 17.0518 519.089 16.8325C518.553 16.9988 517.904 17.4088 517.305 17.996L516.559 13.6207C520.46 9.40672 523.459 5.77239 523.459 5.77239C526 2.85384 524.632 1.3618 524.632 1.3618C524.632 1.3618 523.134 -2.61068e-05 520.203 2.52871C520.203 2.52871 516.552 5.517 512.32 9.4L507.924 8.6565C508.514 8.06086 508.927 7.41397 509.093 6.87966C508.873 6.75784 508.665 6.60578 508.478 6.41928C508.293 6.23529 508.14 6.02779 508.017 5.80852C507.471 5.97738 506.807 6.39828 506.199 7.004C505.803 7.39801 505.487 7.81387 505.267 8.20788L501.766 7.61644C502.247 7.08297 502.584 6.52597 502.731 6.05467C502.511 5.93369 502.303 5.78247 502.116 5.59597C501.93 5.4103 501.777 5.20364 501.655 4.98437C501.108 5.15323 500.444 5.57413 499.837 6.17985C499.517 6.49825 499.249 6.83177 499.042 7.15606L495.452 6.55034C495.452 6.55034 494.15 6.16136 493.173 7.00316C492.195 7.84747 491.674 8.36582 492.846 9.40252L505.729 15.8453C501.142 20.7205 497.993 25.032 497.993 25.032L492.38 24.6531L492 25.9393L496.755 29.1158L499.946 33.8507L501.238 33.4718L500.858 27.885C500.858 27.885 505.188 24.7489 510.085 20.182L516.555 33.0063C517.597 34.1749 518.118 33.6549 518.965 32.6829Z" fill="#ECECEB"/>
<path fill-rule="evenodd" clip-rule="evenodd" d="M108.966 114.323C109.812 113.35 109.422 112.053 109.422 112.053L108.812 108.48C109.138 108.273 109.474 108.007 109.793 107.688C110.401 107.083 110.824 106.422 110.994 105.877C110.774 105.756 110.566 105.605 110.379 105.419C110.193 105.233 110.04 105.026 109.919 104.808C109.445 104.954 108.886 105.288 108.351 105.766L107.756 102.281C108.151 102.062 108.57 101.748 108.966 101.354C109.573 100.748 109.996 100.087 110.166 99.5435C109.946 99.4209 109.739 99.2696 109.552 99.084C109.365 98.8975 109.212 98.6916 109.09 98.4724C108.554 98.6387 107.904 99.0487 107.305 99.6359L106.559 95.2606C110.46 91.0466 113.46 87.4123 113.46 87.4123C116 84.4937 114.632 83.0017 114.632 83.0017C114.632 83.0017 113.134 81.6399 110.203 84.1686C110.203 84.1686 106.553 87.1569 102.32 91.0399L97.9246 90.2964C98.5152 89.7008 98.927 89.0539 99.0933 88.5196C98.8739 88.3977 98.6654 88.2457 98.479 88.0592C98.2925 87.8752 98.1397 87.6677 98.0182 87.4484C97.4706 87.6173 96.8073 88.0382 96.1998 88.6439C95.804 89.0379 95.4876 89.4538 95.2682 89.8478L91.7664 89.2563C92.2482 88.7229 92.584 88.1659 92.7309 87.6946C92.5115 87.5736 92.303 87.4224 92.1166 87.2359C91.9301 87.0502 91.7773 86.8435 91.655 86.6243C91.1082 86.7931 90.4449 87.214 89.8374 87.8197C89.5176 88.1381 89.2501 88.4717 89.0425 88.796L85.4529 88.1902C85.4529 88.1902 84.1501 87.8013 83.1738 88.6431C82.1958 89.4874 81.6743 90.0057 82.8472 91.0424L95.7298 97.4852C91.1419 102.36 87.9928 106.672 87.9928 106.672L82.3806 106.293L82 107.579L86.7558 110.756L89.9471 115.491L91.2381 115.112L90.8584 109.525C90.8584 109.525 95.1881 106.389 100.085 101.822L106.556 114.646C107.597 115.815 108.119 115.295 108.966 114.323Z" fill="#ECECEB"/>
<path fill-rule="evenodd" clip-rule="evenodd" d="M272.966 114.323C273.812 113.35 273.422 112.053 273.422 112.053L272.812 108.48C273.138 108.273 273.474 108.007 273.793 107.688C274.401 107.083 274.824 106.422 274.994 105.877C274.774 105.756 274.566 105.605 274.379 105.419C274.193 105.233 274.04 105.026 273.919 104.808C273.445 104.954 272.886 105.288 272.351 105.766L271.756 102.281C272.151 102.062 272.57 101.748 272.966 101.354C273.573 100.748 273.996 100.087 274.166 99.5435C273.946 99.4209 273.739 99.2696 273.552 99.084C273.365 98.8975 273.212 98.6916 273.09 98.4724C272.554 98.6387 271.904 99.0487 271.305 99.6359L270.559 95.2606C274.46 91.0466 277.46 87.4123 277.46 87.4123C280 84.4937 278.632 83.0017 278.632 83.0017C278.632 83.0017 277.134 81.6399 274.203 84.1686C274.203 84.1686 270.553 87.1569 266.32 91.0399L261.925 90.2964C262.515 89.7008 262.927 89.0539 263.093 88.5196C262.874 88.3977 262.665 88.2457 262.479 88.0592C262.292 87.8752 262.14 87.6677 262.018 87.4484C261.471 87.6173 260.807 88.0382 260.2 88.6439C259.804 89.0379 259.488 89.4538 259.268 89.8478L255.766 89.2563C256.248 88.7229 256.584 88.1659 256.731 87.6946C256.511 87.5736 256.303 87.4224 256.117 87.2359C255.93 87.0502 255.777 86.8435 255.655 86.6243C255.108 86.7931 254.445 87.214 253.837 87.8197C253.518 88.1381 253.25 88.4717 253.043 88.796L249.453 88.1902C249.453 88.1902 248.15 87.8013 247.174 88.6431C246.196 89.4874 245.674 90.0057 246.847 91.0424L259.73 97.4852C255.142 102.36 251.993 106.672 251.993 106.672L246.381 106.293L246 107.579L250.756 110.756L253.947 115.491L255.238 115.112L254.858 109.525C254.858 109.525 259.188 106.389 264.085 101.822L270.556 114.646C271.597 115.815 272.119 115.295 272.966 114.323Z" fill="#ECECEB"/>
<path fill-rule="evenodd" clip-rule="evenodd" d="M436.965 114.323C437.812 113.35 437.421 112.053 437.421 112.053L436.812 108.48C437.138 108.273 437.473 108.007 437.793 107.688C438.401 107.083 438.823 106.422 438.993 105.877C438.774 105.756 438.565 105.605 438.379 105.419C438.192 105.233 438.04 105.026 437.919 104.808C437.444 104.954 436.885 105.288 436.35 105.766L435.755 102.281C436.151 102.062 436.569 101.748 436.965 101.354C437.574 100.748 437.996 100.087 438.165 99.5435C437.945 99.4209 437.738 99.2696 437.551 99.084C437.364 98.8975 437.212 98.6916 437.089 98.4724C436.553 98.6387 435.904 99.0487 435.305 99.6359L434.559 95.2606C438.46 91.0466 441.459 87.4123 441.459 87.4123C444 84.4937 442.632 83.0017 442.632 83.0017C442.632 83.0017 441.134 81.6399 438.203 84.1686C438.203 84.1686 434.552 87.1569 430.32 91.0399L425.924 90.2964C426.514 89.7008 426.927 89.0539 427.093 88.5196C426.873 88.3977 426.665 88.2457 426.478 88.0592C426.293 87.8752 426.14 87.6677 426.017 87.4484C425.471 87.6173 424.807 88.0382 424.199 88.6439C423.803 89.0379 423.487 89.4538 423.267 89.8478L419.766 89.2563C420.247 88.7229 420.584 88.1659 420.731 87.6946C420.511 87.5736 420.303 87.4224 420.116 87.2359C419.93 87.0502 419.777 86.8435 419.655 86.6243C419.108 86.7931 418.444 87.214 417.837 87.8197C417.517 88.1381 417.249 88.4717 417.042 88.796L413.452 88.1902C413.452 88.1902 412.15 87.8013 411.173 88.6431C410.195 89.4874 409.674 90.0057 410.846 91.0424L423.729 97.4852C419.142 102.36 415.993 106.672 415.993 106.672L410.38 106.293L410 107.579L414.755 110.756L417.946 115.491L419.238 115.112L418.858 109.525C418.858 109.525 423.188 106.389 428.085 101.822L434.555 114.646C435.597 115.815 436.118 115.295 436.965 114.323Z" fill="#ECECEB"/>
<path fill-rule="evenodd" clip-rule="evenodd" d="M600.965 114.323C601.812 113.35 601.421 112.053 601.421 112.053L600.812 108.48C601.138 108.273 601.473 108.007 601.793 107.688C602.401 107.083 602.823 106.422 602.993 105.877C602.774 105.756 602.565 105.605 602.379 105.419C602.192 105.233 602.04 105.026 601.919 104.808C601.444 104.954 600.885 105.288 600.35 105.766L599.755 102.281C600.151 102.062 600.569 101.748 600.965 101.354C601.574 100.748 601.996 100.087 602.165 99.5435C601.945 99.4209 601.738 99.2696 601.551 99.084C601.364 98.8975 601.212 98.6916 601.089 98.4724C600.553 98.6387 599.904 99.0487 599.305 99.6359L598.559 95.2606C602.46 91.0466 605.459 87.4123 605.459 87.4123C608 84.4937 606.632 83.0017 606.632 83.0017C606.632 83.0017 605.134 81.6399 602.203 84.1686C602.203 84.1686 598.552 87.1569 594.32 91.0399L589.924 90.2964C590.514 89.7008 590.927 89.0539 591.093 88.5196C590.873 88.3977 590.665 88.2457 590.478 88.0592C590.293 87.8752 590.14 87.6677 590.017 87.4484C589.471 87.6173 588.807 88.0382 588.199 88.6439C587.803 89.0379 587.487 89.4538 587.267 89.8478L583.766 89.2563C584.247 88.7229 584.584 88.1659 584.731 87.6946C584.511 87.5736 584.303 87.4224 584.116 87.2359C583.93 87.0502 583.777 86.8435 583.655 86.6243C583.108 86.7931 582.444 87.214 581.837 87.8197C581.517 88.1381 581.249 88.4717 581.042 88.796L577.452 88.1902C577.452 88.1902 576.15 87.8013 575.173 88.6431C574.195 89.4874 573.674 90.0057 574.846 91.0424L587.729 97.4852C583.142 102.36 579.993 106.672 579.993 106.672L574.38 106.293L574 107.579L578.755 110.756L581.946 115.491L583.238 115.112L582.858 109.525C582.858 109.525 587.188 106.389 592.085 101.822L598.555 114.646C599.597 115.815 600.118 115.295 600.965 114.323Z" fill="#ECECEB"/>
<mask id="mask1" mask-type="alpha" maskUnits="userSpaceOnUse" x="0" y="163" width="33" height="33">
<path fill-rule="evenodd" clip-rule="evenodd" d="M0 163.016H32.2636V195.107H0V163.016Z" fill="white"/>
</mask>
<g mask="url(#mask1)">
<path fill-rule="evenodd" clip-rule="evenodd" d="M26.364 193.966C27.1915 193.016 26.8095 191.749 26.8095 191.749L26.2139 188.259C26.5323 188.057 26.8607 187.797 27.1725 187.486C27.7674 186.895 28.1807 186.25 28.3465 185.717C28.132 185.599 27.9282 185.451 27.7459 185.27C27.5636 185.088 27.4143 184.886 27.2955 184.673C26.8326 184.815 26.2857 185.142 25.7626 185.609L25.181 182.205C25.5671 181.991 25.9771 181.684 26.364 181.299C26.958 180.708 27.3714 180.062 27.5372 179.531C27.3219 179.411 27.1197 179.263 26.9366 179.082C26.7543 178.9 26.6049 178.699 26.4853 178.485C25.9614 178.647 25.3254 179.048 24.7404 179.621L24.0111 175.348C27.8243 171.232 30.758 167.682 30.758 167.682C33.2412 164.831 31.9039 163.374 31.9039 163.374C31.9039 163.374 30.4387 162.044 27.5735 164.514C27.5735 164.514 24.0045 167.432 19.8663 171.225L15.5689 170.499C16.1464 169.917 16.549 169.285 16.7115 168.763C16.497 168.644 16.2933 168.496 16.1109 168.314C15.9286 168.134 15.7793 167.931 15.6605 167.717C15.1251 167.882 14.4766 168.293 13.8826 168.885C13.4957 169.27 13.1863 169.676 12.9718 170.061L9.54806 169.483C10.0191 168.962 10.3475 168.418 10.491 167.958C10.2765 167.839 10.0728 167.692 9.89044 167.509C9.70811 167.328 9.55879 167.126 9.43916 166.912C8.90456 167.077 8.25611 167.488 7.66211 168.08C7.34944 168.391 7.08791 168.717 6.88496 169.033L3.37541 168.442C3.37541 168.442 2.10161 168.062 1.14709 168.884C0.190912 169.709 -0.318938 170.215 0.827812 171.228L13.4231 177.52C8.93756 182.282 5.85866 186.493 5.85866 186.493L0.371587 186.123L-0.000488281 187.38L4.64921 190.482L7.76936 195.107L9.03161 194.737L8.66036 189.28C8.66036 189.28 12.8934 186.217 17.6809 181.756L24.0078 194.282C25.0259 195.424 25.5357 194.916 26.364 193.966Z" fill="#ECECEB"/>
</g>
<path fill-rule="evenodd" clip-rule="evenodd" d="M190.966 194.967C191.812 193.994 191.422 192.697 191.422 192.697L190.812 189.124C191.138 188.917 191.474 188.651 191.793 188.332C192.401 187.727 192.824 187.066 192.994 186.521C192.774 186.4 192.566 186.249 192.379 186.063C192.193 185.877 192.04 185.67 191.919 185.452C191.445 185.598 190.886 185.932 190.351 186.41L189.756 182.925C190.151 182.706 190.57 182.392 190.966 181.998C191.573 181.392 191.996 180.731 192.166 180.188C191.946 180.065 191.739 179.914 191.552 179.728C191.365 179.542 191.212 179.336 191.09 179.116C190.554 179.283 189.904 179.693 189.305 180.28L188.559 175.905C192.46 171.691 195.46 168.056 195.46 168.056C198 165.138 196.632 163.646 196.632 163.646C196.632 163.646 195.134 162.284 192.203 164.813C192.203 164.813 188.553 167.801 184.32 171.684L179.925 170.94C180.515 170.345 180.927 169.698 181.093 169.164C180.874 169.042 180.665 168.89 180.479 168.703C180.292 168.519 180.14 168.312 180.018 168.092C179.471 168.261 178.807 168.682 178.2 169.288C177.804 169.682 177.488 170.098 177.268 170.492L173.766 169.9C174.248 169.367 174.584 168.81 174.731 168.339C174.511 168.218 174.303 168.066 174.117 167.88C173.93 167.694 173.777 167.488 173.655 167.268C173.108 167.437 172.445 167.858 171.837 168.464C171.518 168.782 171.25 169.116 171.043 169.44L167.453 168.834C167.453 168.834 166.15 168.445 165.174 169.287C164.196 170.131 163.674 170.65 164.847 171.686L177.73 178.129C173.142 183.004 169.993 187.316 169.993 187.316L164.381 186.937L164 188.223L168.756 191.4L171.947 196.135L173.238 195.756L172.858 190.169C172.858 190.169 177.188 187.033 182.085 182.466L188.556 195.29C189.597 196.459 190.119 195.939 190.966 194.967Z" fill="#ECECEB"/>
<path fill-rule="evenodd" clip-rule="evenodd" d="M354.965 194.967C355.812 193.994 355.421 192.697 355.421 192.697L354.812 189.124C355.138 188.917 355.473 188.651 355.793 188.332C356.401 187.727 356.823 187.066 356.993 186.521C356.774 186.4 356.565 186.249 356.379 186.063C356.192 185.877 356.04 185.67 355.919 185.452C355.444 185.598 354.885 185.932 354.35 186.41L353.755 182.925C354.151 182.706 354.569 182.392 354.965 181.998C355.574 181.392 355.996 180.731 356.165 180.188C355.945 180.065 355.738 179.914 355.551 179.728C355.364 179.542 355.212 179.336 355.089 179.116C354.553 179.283 353.904 179.693 353.305 180.28L352.559 175.905C356.46 171.691 359.459 168.056 359.459 168.056C362 165.138 360.632 163.646 360.632 163.646C360.632 163.646 359.134 162.284 356.203 164.813C356.203 164.813 352.552 167.801 348.32 171.684L343.924 170.94C344.514 170.345 344.927 169.698 345.093 169.164C344.873 169.042 344.665 168.89 344.479 168.703C344.293 168.519 344.14 168.312 344.017 168.092C343.471 168.261 342.807 168.682 342.2 169.288C341.803 169.682 341.487 170.098 341.267 170.492L337.766 169.9C338.247 169.367 338.584 168.81 338.73 168.339C338.511 168.218 338.302 168.066 338.116 167.88C337.929 167.694 337.777 167.488 337.655 167.268C337.107 167.437 336.444 167.858 335.837 168.464C335.517 168.782 335.249 169.116 335.042 169.44L331.452 168.834C331.452 168.834 330.15 168.445 329.173 169.287C328.195 170.131 327.674 170.65 328.846 171.686L341.729 178.129C337.141 183.004 333.992 187.316 333.992 187.316L328.38 186.937L328 188.223L332.755 191.4L335.946 196.135L337.238 195.756L336.858 190.169C336.858 190.169 341.187 187.033 346.085 182.466L352.555 195.29C353.597 196.459 354.118 195.939 354.965 194.967Z" fill="#ECECEB"/>
<path fill-rule="evenodd" clip-rule="evenodd" d="M518.965 194.967C519.812 193.994 519.421 192.697 519.421 192.697L518.812 189.124C519.138 188.917 519.473 188.651 519.793 188.332C520.401 187.727 520.823 187.066 520.993 186.521C520.774 186.4 520.565 186.249 520.379 186.063C520.192 185.877 520.04 185.67 519.919 185.452C519.444 185.598 518.885 185.932 518.35 186.41L517.755 182.925C518.151 182.706 518.569 182.392 518.965 181.998C519.574 181.392 519.996 180.731 520.165 180.188C519.945 180.065 519.738 179.914 519.551 179.728C519.364 179.542 519.212 179.336 519.089 179.116C518.553 179.283 517.904 179.693 517.305 180.28L516.559 175.905C520.46 171.691 523.459 168.056 523.459 168.056C526 165.138 524.632 163.646 524.632 163.646C524.632 163.646 523.134 162.284 520.203 164.813C520.203 164.813 516.552 167.801 512.32 171.684L507.924 170.94C508.514 170.345 508.927 169.698 509.093 169.164C508.873 169.042 508.665 168.89 508.478 168.703C508.293 168.519 508.14 168.312 508.017 168.092C507.471 168.261 506.807 168.682 506.199 169.288C505.803 169.682 505.487 170.098 505.267 170.492L501.766 169.9C502.247 169.367 502.584 168.81 502.731 168.339C502.511 168.218 502.303 168.066 502.116 167.88C501.93 167.694 501.777 167.488 501.655 167.268C501.108 167.437 500.444 167.858 499.837 168.464C499.517 168.782 499.249 169.116 499.042 169.44L495.452 168.834C495.452 168.834 494.15 168.445 493.173 169.287C492.195 170.131 491.674 170.65 492.846 171.686L505.729 178.129C501.142 183.004 497.993 187.316 497.993 187.316L492.38 186.937L492 188.223L496.755 191.4L499.946 196.135L501.238 195.756L500.858 190.169C500.858 190.169 505.188 187.033 510.085 182.466L516.555 195.29C517.597 196.459 518.118 195.939 518.965 194.967Z" fill="#ECECEB"/>
<path fill-rule="evenodd" clip-rule="evenodd" d="M108.966 275.611C109.812 274.638 109.422 273.341 109.422 273.341L108.812 269.768C109.138 269.561 109.474 269.295 109.793 268.976C110.401 268.371 110.824 267.711 110.994 267.165C110.774 267.044 110.566 266.893 110.379 266.708C110.193 266.521 110.04 266.314 109.919 266.096C109.445 266.242 108.886 266.577 108.351 267.055L107.756 263.57C108.151 263.351 108.57 263.036 108.966 262.642C109.573 262.037 109.996 261.375 110.166 260.832C109.946 260.709 109.739 260.558 109.552 260.372C109.365 260.186 109.212 259.98 109.09 259.761C108.554 259.927 107.904 260.337 107.305 260.924L106.559 256.549C110.46 252.335 113.46 248.701 113.46 248.701C116 245.782 114.632 244.29 114.632 244.29C114.632 244.29 113.134 242.928 110.203 245.457C110.203 245.457 106.553 248.445 102.32 252.328L97.9246 251.585C98.5152 250.989 98.927 250.342 99.0933 249.808C98.8739 249.686 98.6654 249.534 98.479 249.348C98.2925 249.164 98.1397 248.956 98.0182 248.737C97.4706 248.906 96.8073 249.326 96.1998 249.932C95.804 250.326 95.4876 250.742 95.2682 251.136L91.7664 250.545C92.2482 250.011 92.584 249.454 92.7309 248.983C92.5115 248.862 92.303 248.711 92.1166 248.524C91.9301 248.339 91.7773 248.132 91.655 247.913C91.1082 248.081 90.4449 248.502 89.8374 249.108C89.5176 249.426 89.2501 249.761 89.0425 250.084L85.4529 249.479C85.4529 249.479 84.1501 249.09 83.1738 249.931C82.1958 250.776 81.6743 251.294 82.8472 252.331L95.7298 258.774C91.1419 263.649 87.9928 267.96 87.9928 267.96L82.3806 267.581L82 268.868L86.7558 272.044L89.9471 276.779L91.2381 276.4L90.8584 270.813C90.8584 270.813 95.1881 267.677 100.085 263.11L106.556 275.935C107.597 277.103 108.119 276.583 108.966 275.611Z" fill="#ECECEB"/>
<path fill-rule="evenodd" clip-rule="evenodd" d="M272.966 275.611C273.812 274.638 273.422 273.341 273.422 273.341L272.812 269.768C273.138 269.561 273.474 269.295 273.793 268.976C274.401 268.371 274.824 267.711 274.994 267.165C274.774 267.044 274.566 266.893 274.379 266.708C274.193 266.521 274.04 266.314 273.919 266.096C273.445 266.242 272.886 266.577 272.351 267.055L271.756 263.57C272.151 263.351 272.57 263.036 272.966 262.642C273.573 262.037 273.996 261.375 274.166 260.832C273.946 260.709 273.739 260.558 273.552 260.372C273.365 260.186 273.212 259.98 273.09 259.761C272.554 259.927 271.904 260.337 271.305 260.924L270.559 256.549C274.46 252.335 277.46 248.701 277.46 248.701C280 245.782 278.632 244.29 278.632 244.29C278.632 244.29 277.134 242.928 274.203 245.457C274.203 245.457 270.553 248.445 266.32 252.328L261.925 251.585C262.515 250.989 262.927 250.342 263.093 249.808C262.874 249.686 262.665 249.534 262.479 249.348C262.292 249.164 262.14 248.956 262.018 248.737C261.471 248.906 260.807 249.326 260.2 249.932C259.804 250.326 259.488 250.742 259.268 251.136L255.766 250.545C256.248 250.011 256.584 249.454 256.731 248.983C256.511 248.862 256.303 248.711 256.117 248.524C255.93 248.339 255.777 248.132 255.655 247.913C255.108 248.081 254.445 248.502 253.837 249.108C253.518 249.426 253.25 249.761 253.043 250.084L249.453 249.479C249.453 249.479 248.15 249.09 247.174 249.931C246.196 250.776 245.674 251.294 246.847 252.331L259.73 258.774C255.142 263.649 251.993 267.96 251.993 267.96L246.381 267.581L246 268.868L250.756 272.044L253.947 276.779L255.238 276.4L254.858 270.813C254.858 270.813 259.188 267.677 264.085 263.11L270.556 275.935C271.597 277.103 272.119 276.583 272.966 275.611Z" fill="#ECECEB"/>
<path fill-rule="evenodd" clip-rule="evenodd" d="M436.965 275.611C437.812 274.638 437.421 273.341 437.421 273.341L436.812 269.768C437.138 269.561 437.473 269.295 437.793 268.976C438.401 268.371 438.823 267.711 438.993 267.165C438.774 267.044 438.565 266.893 438.379 266.708C438.192 266.521 438.04 266.314 437.919 266.096C437.444 266.242 436.885 266.577 436.35 267.055L435.755 263.57C436.151 263.351 436.569 263.036 436.965 262.642C437.574 262.037 437.996 261.375 438.165 260.832C437.945 260.709 437.738 260.558 437.551 260.372C437.364 260.186 437.212 259.98 437.089 259.761C436.553 259.927 435.904 260.337 435.305 260.924L434.559 256.549C438.46 252.335 441.459 248.701 441.459 248.701C444 245.782 442.632 244.29 442.632 244.29C442.632 244.29 441.134 242.928 438.203 245.457C438.203 245.457 434.552 248.445 430.32 252.328L425.924 251.585C426.514 250.989 426.927 250.342 427.093 249.808C426.873 249.686 426.665 249.534 426.478 249.348C426.293 249.164 426.14 248.956 426.017 248.737C425.471 248.906 424.807 249.326 424.199 249.932C423.803 250.326 423.487 250.742 423.267 251.136L419.766 250.545C420.247 250.011 420.584 249.454 420.731 248.983C420.511 248.862 420.303 248.711 420.116 248.524C419.93 248.339 419.777 248.132 419.655 247.913C419.108 248.081 418.444 248.502 417.837 249.108C417.517 249.426 417.249 249.761 417.042 250.084L413.452 249.479C413.452 249.479 412.15 249.09 411.173 249.931C410.195 250.776 409.674 251.294 410.846 252.331L423.729 258.774C419.142 263.649 415.993 267.96 415.993 267.96L410.38 267.581L410 268.868L414.755 272.044L417.946 276.779L419.238 276.4L418.858 270.813C418.858 270.813 423.188 267.677 428.085 263.11L434.555 275.935C435.597 277.103 436.118 276.583 436.965 275.611Z" fill="#ECECEB"/>
<path fill-rule="evenodd" clip-rule="evenodd" d="M600.965 275.611C601.812 274.638 601.421 273.341 601.421 273.341L600.812 269.768C601.138 269.561 601.473 269.295 601.793 268.976C602.401 268.371 602.823 267.711 602.993 267.165C602.774 267.044 602.565 266.893 602.379 266.708C602.192 266.521 602.04 266.314 601.919 266.096C601.444 266.242 600.885 266.577 600.35 267.055L599.755 263.57C600.151 263.351 600.569 263.036 600.965 262.642C601.574 262.037 601.996 261.375 602.165 260.832C601.945 260.709 601.738 260.558 601.551 260.372C601.364 260.186 601.212 259.98 601.089 259.761C600.553 259.927 599.904 260.337 599.305 260.924L598.559 256.549C602.46 252.335 605.459 248.701 605.459 248.701C608 245.782 606.632 244.29 606.632 244.29C606.632 244.29 605.134 242.928 602.203 245.457C602.203 245.457 598.552 248.445 594.32 252.328L589.924 251.585C590.514 250.989 590.927 250.342 591.093 249.808C590.873 249.686 590.665 249.534 590.478 249.348C590.293 249.164 590.14 248.956 590.017 248.737C589.471 248.906 588.807 249.326 588.199 249.932C587.803 250.326 587.487 250.742 587.267 251.136L583.766 250.545C584.247 250.011 584.584 249.454 584.731 248.983C584.511 248.862 584.303 248.711 584.116 248.524C583.93 248.339 583.777 248.132 583.655 247.913C583.108 248.081 582.444 248.502 581.837 249.108C581.517 249.426 581.249 249.761 581.042 250.084L577.452 249.479C577.452 249.479 576.15 249.09 575.173 249.931C574.195 250.776 573.674 251.294 574.846 252.331L587.729 258.774C583.142 263.649 579.993 267.96 579.993 267.96L574.38 267.581L574 268.868L578.755 272.044L581.946 276.779L583.238 276.4L582.858 270.813C582.858 270.813 587.188 267.677 592.085 263.11L598.555 275.935C599.597 277.103 600.118 276.583 600.965 275.611Z" fill="#ECECEB"/>
<mask id="mask2" mask-type="alpha" maskUnits="userSpaceOnUse" x="0" y="325" width="33" height="33">
<path fill-rule="evenodd" clip-rule="evenodd" d="M0 325.3H32.2636V357.391H0V325.3Z" fill="white"/>
</mask>
<g mask="url(#mask2)">
<path fill-rule="evenodd" clip-rule="evenodd" d="M26.364 356.251C27.1915 355.3 26.8095 354.033 26.8095 354.033L26.2139 350.544C26.5323 350.342 26.8607 350.081 27.1725 349.771C27.7674 349.179 28.1807 348.535 28.3465 348.001C28.132 347.883 27.9282 347.735 27.7459 347.554C27.5636 347.372 27.4143 347.17 27.2955 346.957C26.8326 347.1 26.2857 347.425 25.7626 347.893L25.181 344.489C25.5671 344.275 25.9771 343.968 26.364 343.583C26.958 342.993 27.3714 342.347 27.5372 341.815C27.3219 341.695 27.1197 341.548 26.9366 341.366C26.7543 341.184 26.6049 340.983 26.4853 340.769C25.9614 340.931 25.3254 341.332 24.7404 341.905L24.0111 337.632C27.8243 333.516 30.758 329.966 30.758 329.966C33.2412 327.115 31.9039 325.658 31.9039 325.658C31.9039 325.658 30.4387 324.328 27.5735 326.798C27.5735 326.798 24.0045 329.717 19.8663 333.509L15.5689 332.783C16.1464 332.201 16.549 331.569 16.7115 331.047C16.497 330.929 16.2933 330.78 16.1109 330.598C15.9286 330.418 15.7793 330.215 15.6605 330.001C15.1251 330.166 14.4766 330.577 13.8826 331.169C13.4957 331.554 13.1863 331.96 12.9718 332.345L9.54806 331.767C10.0191 331.246 10.3475 330.702 10.491 330.242C10.2765 330.124 10.0728 329.976 9.89044 329.794C9.70811 329.612 9.55879 329.41 9.43916 329.196C8.90456 329.361 8.25611 329.772 7.66211 330.364C7.34944 330.675 7.08791 331.001 6.88496 331.317L3.37541 330.726C3.37541 330.726 2.10161 330.346 1.14709 331.168C0.190912 331.993 -0.318938 332.499 0.827812 333.512L13.4231 339.805C8.93756 344.566 5.85866 348.778 5.85866 348.778L0.371587 348.408L-0.000488281 349.664L4.64921 352.767L7.76936 357.391L9.03161 357.021L8.66036 351.564C8.66036 351.564 12.8934 348.501 17.6809 344.04L24.0078 356.567C25.0259 357.707 25.5357 357.2 26.364 356.251Z" fill="#ECECEB"/>
</g>
<path fill-rule="evenodd" clip-rule="evenodd" d="M190.966 356.255C191.812 355.283 191.422 353.985 191.422 353.985L190.812 350.412C191.138 350.206 191.474 349.939 191.793 349.621C192.401 349.015 192.824 348.356 192.994 347.81C192.774 347.689 192.566 347.537 192.379 347.352C192.193 347.165 192.04 346.959 191.919 346.74C191.445 346.886 190.886 347.22 190.351 347.699L189.756 344.214C190.151 343.995 190.57 343.681 190.966 343.287C191.573 342.682 191.996 342.021 192.166 341.476C191.946 341.353 191.739 341.202 191.552 341.017C191.365 340.83 191.212 340.624 191.09 340.405C190.554 340.571 189.904 340.981 189.305 341.569L188.559 337.193C192.46 332.979 195.46 329.345 195.46 329.345C198 326.426 196.632 324.934 196.632 324.934C196.632 324.934 195.134 323.572 192.203 326.101C192.203 326.101 188.553 329.09 184.32 332.973L179.925 332.229C180.515 331.633 180.927 330.986 181.093 330.452C180.874 330.33 180.665 330.178 180.479 329.992C180.292 329.808 180.14 329.6 180.018 329.381C179.471 329.55 178.807 329.971 178.2 330.577C177.804 330.971 177.488 331.386 177.268 331.78L173.766 331.189C174.248 330.655 174.584 330.098 174.731 329.627C174.511 329.506 174.303 329.355 174.117 329.168C173.93 328.983 173.777 328.776 173.655 328.557C173.108 328.726 172.445 329.147 171.837 329.752C171.518 330.071 171.25 330.404 171.043 330.729L167.453 330.123C167.453 330.123 166.15 329.734 165.174 330.576C164.196 331.42 163.674 331.938 164.847 332.975L177.73 339.418C173.142 344.293 169.993 348.604 169.993 348.604L164.381 348.226L164 349.512L168.756 352.689L171.947 357.423L173.238 357.044L172.858 351.458C172.858 351.458 177.188 348.321 182.085 343.755L188.556 356.579C189.597 357.747 190.119 357.227 190.966 356.255Z" fill="#ECECEB"/>
<path fill-rule="evenodd" clip-rule="evenodd" d="M354.965 356.255C355.812 355.283 355.421 353.985 355.421 353.985L354.812 350.412C355.138 350.206 355.473 349.939 355.793 349.621C356.401 349.015 356.823 348.356 356.993 347.81C356.774 347.689 356.565 347.537 356.379 347.352C356.192 347.165 356.04 346.959 355.919 346.74C355.444 346.886 354.885 347.22 354.35 347.699L353.755 344.214C354.151 343.995 354.569 343.681 354.965 343.287C355.574 342.682 355.996 342.021 356.165 341.476C355.945 341.353 355.738 341.202 355.551 341.017C355.364 340.83 355.212 340.624 355.089 340.405C354.553 340.571 353.904 340.981 353.305 341.569L352.559 337.193C356.46 332.979 359.459 329.345 359.459 329.345C362 326.426 360.632 324.934 360.632 324.934C360.632 324.934 359.134 323.572 356.203 326.101C356.203 326.101 352.552 329.09 348.32 332.973L343.924 332.229C344.514 331.633 344.927 330.986 345.093 330.452C344.873 330.33 344.665 330.178 344.479 329.992C344.293 329.808 344.14 329.6 344.017 329.381C343.471 329.55 342.807 329.971 342.2 330.577C341.803 330.971 341.487 331.386 341.267 331.78L337.766 331.189C338.247 330.655 338.584 330.098 338.73 329.627C338.511 329.506 338.302 329.355 338.116 329.168C337.929 328.983 337.777 328.776 337.655 328.557C337.107 328.726 336.444 329.147 335.837 329.752C335.517 330.071 335.249 330.404 335.042 330.729L331.452 330.123C331.452 330.123 330.15 329.734 329.173 330.576C328.195 331.42 327.674 331.938 328.846 332.975L341.729 339.418C337.141 344.293 333.992 348.604 333.992 348.604L328.38 348.226L328 349.512L332.755 352.689L335.946 357.423L337.238 357.044L336.858 351.458C336.858 351.458 341.187 348.321 346.085 343.755L352.555 356.579C353.597 357.747 354.118 357.227 354.965 356.255Z" fill="#ECECEB"/>
<path fill-rule="evenodd" clip-rule="evenodd" d="M518.965 356.255C519.812 355.283 519.421 353.985 519.421 353.985L518.812 350.412C519.138 350.206 519.473 349.939 519.793 349.621C520.401 349.015 520.823 348.356 520.993 347.81C520.774 347.689 520.565 347.537 520.379 347.352C520.192 347.165 520.04 346.959 519.919 346.74C519.444 346.886 518.885 347.22 518.35 347.699L517.755 344.214C518.151 343.995 518.569 343.681 518.965 343.287C519.574 342.682 519.996 342.021 520.165 341.476C519.945 341.353 519.738 341.202 519.551 341.017C519.364 340.83 519.212 340.624 519.089 340.405C518.553 340.571 517.904 340.981 517.305 341.569L516.559 337.193C520.46 332.979 523.459 329.345 523.459 329.345C526 326.426 524.632 324.934 524.632 324.934C524.632 324.934 523.134 323.572 520.203 326.101C520.203 326.101 516.552 329.09 512.32 332.973L507.924 332.229C508.514 331.633 508.927 330.986 509.093 330.452C508.873 330.33 508.665 330.178 508.478 329.992C508.293 329.808 508.14 329.6 508.017 329.381C507.471 329.55 506.807 329.971 506.199 330.577C505.803 330.971 505.487 331.386 505.267 331.78L501.766 331.189C502.247 330.655 502.584 330.098 502.731 329.627C502.511 329.506 502.303 329.355 502.116 329.168C501.93 328.983 501.777 328.776 501.655 328.557C501.108 328.726 500.444 329.147 499.837 329.752C499.517 330.071 499.249 330.404 499.042 330.729L495.452 330.123C495.452 330.123 494.15 329.734 493.173 330.576C492.195 331.42 491.674 331.938 492.846 332.975L505.729 339.418C501.142 344.293 497.993 348.604 497.993 348.604L492.38 348.226L492 349.512L496.755 352.689L499.946 357.423L501.238 357.044L500.858 351.458C500.858 351.458 505.188 348.321 510.085 343.755L516.555 356.579C517.597 357.747 518.118 357.227 518.965 356.255Z" fill="#ECECEB"/>
<path fill-rule="evenodd" clip-rule="evenodd" d="M108.966 437.895C109.812 436.922 109.422 435.625 109.422 435.625L108.812 432.052C109.138 431.846 109.474 431.578 109.793 431.261C110.401 430.655 110.824 429.996 110.994 429.45C110.774 429.329 110.566 429.177 110.379 428.992C110.193 428.805 110.04 428.599 109.919 428.38C109.445 428.526 108.886 428.86 108.351 429.339L107.756 425.854C108.151 425.635 108.57 425.32 108.966 424.926C109.573 424.321 109.996 423.66 110.166 423.115C109.946 422.994 109.739 422.842 109.552 422.655C109.365 422.471 109.212 422.264 109.09 422.045C108.554 422.211 107.904 422.621 107.305 423.208L106.559 418.833C110.46 414.619 113.46 410.985 113.46 410.985C116 408.066 114.632 406.574 114.632 406.574C114.632 406.574 113.134 405.213 110.203 407.741C110.203 407.741 106.553 410.729 102.32 414.612L97.9246 413.869C98.5152 413.273 98.927 412.626 99.0933 412.092C98.8739 411.97 98.6654 411.818 98.479 411.631C98.2925 411.447 98.1397 411.24 98.0182 411.021C97.4706 411.19 96.8073 411.61 96.1998 412.216C95.804 412.61 95.4876 413.026 95.2682 413.42L91.7664 412.829C92.2482 412.295 92.584 411.737 92.7309 411.267C92.5115 411.146 92.303 410.995 92.1166 410.808C91.9301 410.622 91.7773 410.416 91.655 410.196C91.1082 410.365 90.4449 410.786 89.8374 411.392C89.5176 411.71 89.2501 412.044 89.0425 412.368L85.4529 411.762C85.4529 411.762 84.1501 411.373 83.1738 412.216C82.1958 413.06 81.6743 413.578 82.8472 414.615L95.7298 421.058C91.1419 425.933 87.9928 430.244 87.9928 430.244L82.3806 429.865L82 431.152L86.7558 434.329L89.9471 439.063L91.2381 438.684L90.8584 433.097C90.8584 433.097 95.1881 429.961 100.085 425.394L106.556 438.219C107.597 439.387 108.119 438.867 108.966 437.895Z" fill="#ECECEB"/>
<path fill-rule="evenodd" clip-rule="evenodd" d="M272.966 437.895C273.812 436.922 273.422 435.625 273.422 435.625L272.812 432.052C273.138 431.846 273.474 431.578 273.793 431.261C274.401 430.655 274.824 429.996 274.994 429.45C274.774 429.329 274.566 429.177 274.379 428.992C274.193 428.805 274.04 428.599 273.919 428.38C273.445 428.526 272.886 428.86 272.351 429.339L271.756 425.854C272.151 425.635 272.57 425.32 272.966 424.926C273.573 424.321 273.996 423.66 274.166 423.115C273.946 422.994 273.739 422.842 273.552 422.655C273.365 422.471 273.212 422.264 273.09 422.045C272.554 422.211 271.904 422.621 271.305 423.208L270.559 418.833C274.46 414.619 277.46 410.985 277.46 410.985C280 408.066 278.632 406.574 278.632 406.574C278.632 406.574 277.134 405.213 274.203 407.741C274.203 407.741 270.553 410.729 266.32 414.612L261.925 413.869C262.515 413.273 262.927 412.626 263.093 412.092C262.874 411.97 262.665 411.818 262.479 411.631C262.292 411.447 262.14 411.24 262.018 411.021C261.471 411.19 260.807 411.61 260.2 412.216C259.804 412.61 259.488 413.026 259.268 413.42L255.766 412.829C256.248 412.295 256.584 411.737 256.731 411.267C256.511 411.146 256.303 410.995 256.117 410.808C255.93 410.622 255.777 410.416 255.655 410.196C255.108 410.365 254.445 410.786 253.837 411.392C253.518 411.71 253.25 412.044 253.043 412.368L249.453 411.762C249.453 411.762 248.15 411.373 247.174 412.216C246.196 413.06 245.674 413.578 246.847 414.615L259.73 421.058C255.142 425.933 251.993 430.244 251.993 430.244L246.381 429.865L246 431.152L250.756 434.329L253.947 439.063L255.238 438.684L254.858 433.097C254.858 433.097 259.188 429.961 264.085 425.394L270.556 438.219C271.597 439.387 272.119 438.867 272.966 437.895Z" fill="#ECECEB"/>
<path fill-rule="evenodd" clip-rule="evenodd" d="M436.965 437.895C437.812 436.922 437.421 435.625 437.421 435.625L436.812 432.052C437.138 431.846 437.473 431.578 437.793 431.261C438.401 430.655 438.823 429.996 438.993 429.45C438.774 429.329 438.565 429.177 438.379 428.992C438.192 428.805 438.04 428.599 437.919 428.38C437.444 428.526 436.885 428.86 436.35 429.339L435.755 425.854C436.151 425.635 436.569 425.32 436.965 424.926C437.574 424.321 437.996 423.66 438.165 423.115C437.945 422.994 437.738 422.842 437.551 422.655C437.364 422.471 437.212 422.264 437.089 422.045C436.553 422.211 435.904 422.621 435.305 423.208L434.559 418.833C438.46 414.619 441.459 410.985 441.459 410.985C444 408.066 442.632 406.574 442.632 406.574C442.632 406.574 441.134 405.213 438.203 407.741C438.203 407.741 434.552 410.729 430.32 414.612L425.924 413.869C426.514 413.273 426.927 412.626 427.093 412.092C426.873 411.97 426.665 411.818 426.478 411.631C426.293 411.447 426.14 411.24 426.017 411.021C425.471 411.19 424.807 411.61 424.199 412.216C423.803 412.61 423.487 413.026 423.267 413.42L419.766 412.829C420.247 412.295 420.584 411.737 420.731 411.267C420.511 411.146 420.303 410.995 420.116 410.808C419.93 410.622 419.777 410.416 419.655 410.196C419.108 410.365 418.444 410.786 417.837 411.392C417.517 411.71 417.249 412.044 417.042 412.368L413.452 411.762C413.452 411.762 412.15 411.373 411.173 412.216C410.195 413.06 409.674 413.578 410.846 414.615L423.729 421.058C419.142 425.933 415.993 430.244 415.993 430.244L410.38 429.865L410 431.152L414.755 434.329L417.946 439.063L419.238 438.684L418.858 433.097C418.858 433.097 423.188 429.961 428.085 425.394L434.555 438.219C435.597 439.387 436.118 438.867 436.965 437.895Z" fill="#ECECEB"/>
<path fill-rule="evenodd" clip-rule="evenodd" d="M600.965 437.895C601.812 436.922 601.421 435.625 601.421 435.625L600.812 432.052C601.138 431.846 601.473 431.578 601.793 431.261C602.401 430.655 602.823 429.996 602.993 429.45C602.774 429.329 602.565 429.177 602.379 428.992C602.192 428.805 602.04 428.599 601.919 428.38C601.444 428.526 600.885 428.86 600.35 429.339L599.755 425.854C600.151 425.635 600.569 425.32 600.965 424.926C601.574 424.321 601.996 423.66 602.165 423.115C601.945 422.994 601.738 422.842 601.551 422.655C601.364 422.471 601.212 422.264 601.089 422.045C600.553 422.211 599.904 422.621 599.305 423.208L598.559 418.833C602.46 414.619 605.459 410.985 605.459 410.985C608 408.066 606.632 406.574 606.632 406.574C606.632 406.574 605.134 405.213 602.203 407.741C602.203 407.741 598.552 410.729 594.32 414.612L589.924 413.869C590.514 413.273 590.927 412.626 591.093 412.092C590.873 411.97 590.665 411.818 590.478 411.631C590.293 411.447 590.14 411.24 590.017 411.021C589.471 411.19 588.807 411.61 588.199 412.216C587.803 412.61 587.487 413.026 587.267 413.42L583.766 412.829C584.247 412.295 584.584 411.737 584.731 411.267C584.511 411.146 584.303 410.995 584.116 410.808C583.93 410.622 583.777 410.416 583.655 410.196C583.108 410.365 582.444 410.786 581.837 411.392C581.517 411.71 581.249 412.044 581.042 412.368L577.452 411.762C577.452 411.762 576.15 411.373 575.173 412.216C574.195 413.06 573.674 413.578 574.846 414.615L587.729 421.058C583.142 425.933 579.993 430.244 579.993 430.244L574.38 429.865L574 431.152L578.755 434.329L581.946 439.063L583.238 438.684L582.858 433.097C582.858 433.097 587.188 429.961 592.085 425.394L598.555 438.219C599.597 439.387 600.118 438.867 600.965 437.895Z" fill="#ECECEB"/>
<mask id="mask3" mask-type="alpha" maskUnits="userSpaceOnUse" x="0" y="486" width="33" height="33">
<path fill-rule="evenodd" clip-rule="evenodd" d="M0 486.59H32.2636V518.712H0V486.59Z" fill="white"/>
</mask>
<g mask="url(#mask3)">
<path fill-rule="evenodd" clip-rule="evenodd" d="M26.364 517.57C27.1915 516.619 26.8095 515.351 26.8095 515.351L26.2139 511.857C26.5323 511.655 26.8607 511.394 27.1725 511.084C27.7674 510.491 28.1807 509.847 28.3465 509.313C28.132 509.195 27.9282 509.046 27.7459 508.865C27.5636 508.683 27.4143 508.481 27.2955 508.267C26.8326 508.41 26.2857 508.736 25.7626 509.204L25.181 505.797C25.5671 505.583 25.9771 505.276 26.364 504.891C26.958 504.299 27.3714 503.653 27.5372 503.12C27.3219 503.001 27.1197 502.853 26.9366 502.67C26.7543 502.49 26.6049 502.288 26.4853 502.073C25.9614 502.236 25.3254 502.637 24.7404 503.211L24.0111 498.933C27.8243 494.813 30.758 491.26 30.758 491.26C33.2412 488.406 31.9039 486.948 31.9039 486.948C31.9039 486.948 30.4387 485.617 27.5735 488.088C27.5735 488.088 24.0045 491.01 19.8663 494.806L15.5689 494.08C16.1464 493.497 16.549 492.865 16.7115 492.342C16.497 492.223 16.2933 492.075 16.1109 491.892C15.9286 491.712 15.7793 491.509 15.6605 491.296C15.1251 491.46 14.4766 491.872 13.8826 492.464C13.4957 492.849 13.1863 493.256 12.9718 493.641L9.54806 493.063C10.0191 492.541 10.3475 491.996 10.491 491.536C10.2765 491.417 10.0728 491.27 9.89044 491.087C9.70811 490.906 9.55879 490.704 9.43916 490.489C8.90456 490.654 8.25611 491.066 7.66211 491.658C7.34944 491.969 7.08791 492.296 6.88496 492.613L3.37541 492.02C3.37541 492.02 2.10161 491.64 1.14709 492.464C0.190912 493.289 -0.318938 493.795 0.827812 494.809L13.4231 501.108C8.93756 505.875 5.85866 510.09 5.85866 510.09L0.371587 509.719L-0.000488281 510.977L4.64921 514.083L7.76936 518.712L9.03161 518.341L8.66036 512.879C8.66036 512.879 12.8934 509.813 17.6809 505.348L24.0078 517.886C25.0259 519.028 25.5357 518.52 26.364 517.57Z" fill="#ECECEB"/>
</g>
<path fill-rule="evenodd" clip-rule="evenodd" d="M190.966 518.539C191.812 517.566 191.422 516.269 191.422 516.269L190.812 512.696C191.138 512.49 191.474 512.222 191.793 511.905C192.401 511.299 192.824 510.64 192.994 510.094C192.774 509.973 192.566 509.821 192.379 509.636C192.193 509.449 192.04 509.243 191.919 509.024C191.445 509.17 190.886 509.504 190.351 509.983L189.756 506.498C190.151 506.279 190.57 505.964 190.966 505.57C191.573 504.965 191.996 504.304 192.166 503.759C191.946 503.638 191.739 503.486 191.552 503.3C191.365 503.115 191.212 502.908 191.09 502.689C190.554 502.855 189.904 503.265 189.305 503.852L188.559 499.477C192.46 495.263 195.46 491.629 195.46 491.629C198 488.71 196.632 487.218 196.632 487.218C196.632 487.218 195.134 485.857 192.203 488.385C192.203 488.385 188.553 491.373 184.32 495.256L179.925 494.513C180.515 493.917 180.927 493.27 181.093 492.736C180.874 492.614 180.665 492.462 180.479 492.275C180.292 492.091 180.14 491.884 180.018 491.666C179.471 491.834 178.807 492.254 178.2 492.86C177.804 493.254 177.488 493.67 177.268 494.064L173.766 493.473C174.248 492.939 174.584 492.381 174.731 491.911C174.511 491.79 174.303 491.639 174.117 491.452C173.93 491.266 173.777 491.06 173.655 490.841C173.108 491.009 172.445 491.43 171.837 492.036C171.518 492.354 171.25 492.688 171.043 493.012L167.453 492.407C167.453 492.407 166.15 492.018 165.174 492.86C164.196 493.704 163.674 494.222 164.847 495.259L177.73 501.702C173.142 506.577 169.993 510.888 169.993 510.888L164.381 510.509L164 511.796L168.756 514.973L171.947 519.707L173.238 519.328L172.858 513.741C172.858 513.741 177.188 510.605 182.085 506.038L188.556 518.863C189.597 520.031 190.119 519.511 190.966 518.539Z" fill="#ECECEB"/>
<path fill-rule="evenodd" clip-rule="evenodd" d="M354.965 518.539C355.812 517.566 355.421 516.269 355.421 516.269L354.812 512.696C355.138 512.49 355.473 512.222 355.793 511.905C356.401 511.299 356.823 510.64 356.993 510.094C356.774 509.973 356.565 509.821 356.379 509.636C356.192 509.449 356.04 509.243 355.919 509.024C355.444 509.17 354.885 509.504 354.35 509.983L353.755 506.498C354.151 506.279 354.569 505.964 354.965 505.57C355.574 504.965 355.996 504.304 356.165 503.759C355.945 503.638 355.738 503.486 355.551 503.3C355.364 503.115 355.212 502.908 355.089 502.689C354.553 502.855 353.904 503.265 353.305 503.852L352.559 499.477C356.46 495.263 359.459 491.629 359.459 491.629C362 488.71 360.632 487.218 360.632 487.218C360.632 487.218 359.134 485.857 356.203 488.385C356.203 488.385 352.552 491.373 348.32 495.256L343.924 494.513C344.514 493.917 344.927 493.27 345.093 492.736C344.873 492.614 344.665 492.462 344.479 492.275C344.293 492.091 344.14 491.884 344.017 491.666C343.471 491.834 342.807 492.254 342.2 492.86C341.803 493.254 341.487 493.67 341.267 494.064L337.766 493.473C338.247 492.939 338.584 492.381 338.73 491.911C338.511 491.79 338.302 491.639 338.116 491.452C337.929 491.266 337.777 491.06 337.655 490.841C337.107 491.009 336.444 491.43 335.837 492.036C335.517 492.354 335.249 492.688 335.042 493.012L331.452 492.407C331.452 492.407 330.15 492.018 329.173 492.86C328.195 493.704 327.674 494.222 328.846 495.259L341.729 501.702C337.141 506.577 333.992 510.888 333.992 510.888L328.38 510.509L328 511.796L332.755 514.973L335.946 519.707L337.238 519.328L336.858 513.741C336.858 513.741 341.187 510.605 346.085 506.038L352.555 518.863C353.597 520.031 354.118 519.511 354.965 518.539Z" fill="#ECECEB"/>
<path fill-rule="evenodd" clip-rule="evenodd" d="M518.965 518.539C519.812 517.566 519.421 516.269 519.421 516.269L518.812 512.696C519.138 512.49 519.473 512.222 519.793 511.905C520.401 511.299 520.823 510.64 520.993 510.094C520.774 509.973 520.565 509.821 520.379 509.636C520.192 509.449 520.04 509.243 519.919 509.024C519.444 509.17 518.885 509.504 518.35 509.983L517.755 506.498C518.151 506.279 518.569 505.964 518.965 505.57C519.574 504.965 519.996 504.304 520.165 503.759C519.945 503.638 519.738 503.486 519.551 503.3C519.364 503.115 519.212 502.908 519.089 502.689C518.553 502.855 517.904 503.265 517.305 503.852L516.559 499.477C520.46 495.263 523.459 491.629 523.459 491.629C526 488.71 524.632 487.218 524.632 487.218C524.632 487.218 523.134 485.857 520.203 488.385C520.203 488.385 516.552 491.373 512.32 495.256L507.924 494.513C508.514 493.917 508.927 493.27 509.093 492.736C508.873 492.614 508.665 492.462 508.478 492.275C508.293 492.091 508.14 491.884 508.017 491.666C507.471 491.834 506.807 492.254 506.199 492.86C505.803 493.254 505.487 493.67 505.267 494.064L501.766 493.473C502.247 492.939 502.584 492.381 502.731 491.911C502.511 491.79 502.303 491.639 502.116 491.452C501.93 491.266 501.777 491.06 501.655 490.841C501.108 491.009 500.444 491.43 499.837 492.036C499.517 492.354 499.249 492.688 499.042 493.012L495.452 492.407C495.452 492.407 494.15 492.018 493.173 492.86C492.195 493.704 491.674 494.222 492.846 495.259L505.729 501.702C501.142 506.577 497.993 510.888 497.993 510.888L492.38 510.509L492 511.796L496.755 514.973L499.946 519.707L501.238 519.328L500.858 513.741C500.858 513.741 505.188 510.605 510.085 506.038L516.555 518.863C517.597 520.031 518.118 519.511 518.965 518.539Z" fill="#ECECEB"/>
<path fill-rule="evenodd" clip-rule="evenodd" d="M108.966 599.184C109.812 598.211 109.422 596.914 109.422 596.914L108.812 593.341C109.138 593.134 109.474 592.867 109.793 592.549C110.401 591.943 110.824 591.284 110.994 590.738C110.774 590.617 110.566 590.465 110.379 590.28C110.193 590.094 110.04 589.887 109.919 589.668C109.445 589.815 108.886 590.148 108.351 590.627L107.756 587.142C108.151 586.923 108.57 586.609 108.966 586.215C109.573 585.61 109.996 584.949 110.166 584.403C109.946 584.282 109.739 584.13 109.552 583.944C109.365 583.759 109.212 583.552 109.09 583.333C108.554 583.499 107.904 583.909 107.305 584.497L106.559 580.121C110.46 575.907 113.46 572.273 113.46 572.273C116 569.354 114.632 567.862 114.632 567.862C114.632 567.862 113.134 566.501 110.203 569.029C110.203 569.029 106.553 572.017 102.32 575.9L97.9246 575.157C98.5152 574.561 98.927 573.914 99.0933 573.38C98.8739 573.258 98.6654 573.106 98.479 572.92C98.2925 572.736 98.1397 572.528 98.0182 572.31C97.4706 572.478 96.8073 572.899 96.1998 573.504C95.804 573.898 95.4876 574.314 95.2682 574.708L91.7664 574.117C92.2482 573.583 92.584 573.026 92.7309 572.555C92.5115 572.434 92.303 572.283 92.1166 572.096C91.9301 571.911 91.7773 571.704 91.655 571.485C91.1082 571.654 90.4449 572.075 89.8374 572.68C89.5176 572.998 89.2501 573.332 89.0425 573.657L85.4529 573.051C85.4529 573.051 84.1501 572.662 83.1738 573.504C82.1958 574.348 81.6743 574.866 82.8472 575.903L95.7298 582.346C91.1419 587.221 87.9928 591.533 87.9928 591.533L82.3806 591.154L82 592.44L86.7558 595.617L89.9471 600.351L91.2381 599.972L90.8584 594.386C90.8584 594.386 95.1881 591.25 100.085 586.683L106.556 599.507C107.597 600.675 108.119 600.156 108.966 599.184Z" fill="#ECECEB"/>
<path fill-rule="evenodd" clip-rule="evenodd" d="M272.966 599.184C273.812 598.211 273.422 596.914 273.422 596.914L272.812 593.341C273.138 593.134 273.474 592.867 273.793 592.549C274.401 591.943 274.824 591.284 274.994 590.738C274.774 590.617 274.566 590.465 274.379 590.28C274.193 590.094 274.04 589.887 273.919 589.668C273.445 589.815 272.886 590.148 272.351 590.627L271.756 587.142C272.151 586.923 272.57 586.609 272.966 586.215C273.573 585.61 273.996 584.949 274.166 584.403C273.946 584.282 273.739 584.13 273.552 583.944C273.365 583.759 273.212 583.552 273.09 583.333C272.554 583.499 271.904 583.909 271.305 584.497L270.559 580.121C274.46 575.907 277.46 572.273 277.46 572.273C280 569.354 278.632 567.862 278.632 567.862C278.632 567.862 277.134 566.501 274.203 569.029C274.203 569.029 270.553 572.017 266.32 575.9L261.925 575.157C262.515 574.561 262.927 573.914 263.093 573.38C262.874 573.258 262.665 573.106 262.479 572.92C262.292 572.736 262.14 572.528 262.018 572.31C261.471 572.478 260.807 572.899 260.2 573.504C259.804 573.898 259.488 574.314 259.268 574.708L255.766 574.117C256.248 573.583 256.584 573.026 256.731 572.555C256.511 572.434 256.303 572.283 256.117 572.096C255.93 571.911 255.777 571.704 255.655 571.485C255.108 571.654 254.445 572.075 253.837 572.68C253.518 572.998 253.25 573.332 253.043 573.657L249.453 573.051C249.453 573.051 248.15 572.662 247.174 573.504C246.196 574.348 245.674 574.866 246.847 575.903L259.73 582.346C255.142 587.221 251.993 591.533 251.993 591.533L246.381 591.154L246 592.44L250.756 595.617L253.947 600.351L255.238 599.972L254.858 594.386C254.858 594.386 259.188 591.25 264.085 586.683L270.556 599.507C271.597 600.675 272.119 600.156 272.966 599.184Z" fill="#ECECEB"/>
<path fill-rule="evenodd" clip-rule="evenodd" d="M436.965 599.184C437.812 598.211 437.421 596.914 437.421 596.914L436.812 593.341C437.138 593.134 437.473 592.867 437.793 592.549C438.401 591.943 438.823 591.284 438.993 590.738C438.774 590.617 438.565 590.465 438.379 590.28C438.192 590.094 438.04 589.887 437.919 589.668C437.444 589.815 436.885 590.148 436.35 590.627L435.755 587.142C436.151 586.923 436.569 586.609 436.965 586.215C437.574 585.61 437.996 584.949 438.165 584.403C437.945 584.282 437.738 584.13 437.551 583.944C437.364 583.759 437.212 583.552 437.089 583.333C436.553 583.499 435.904 583.909 435.305 584.497L434.559 580.121C438.46 575.907 441.459 572.273 441.459 572.273C444 569.354 442.632 567.862 442.632 567.862C442.632 567.862 441.134 566.501 438.203 569.029C438.203 569.029 434.552 572.017 430.32 575.9L425.924 575.157C426.514 574.561 426.927 573.914 427.093 573.38C426.873 573.258 426.665 573.106 426.478 572.92C426.293 572.736 426.14 572.528 426.017 572.31C425.471 572.478 424.807 572.899 424.199 573.504C423.803 573.898 423.487 574.314 423.267 574.708L419.766 574.117C420.247 573.583 420.584 573.026 420.731 572.555C420.511 572.434 420.303 572.283 420.116 572.096C419.93 571.911 419.777 571.704 419.655 571.485C419.108 571.654 418.444 572.075 417.837 572.68C417.517 572.998 417.249 573.332 417.042 573.657L413.452 573.051C413.452 573.051 412.15 572.662 411.173 573.504C410.195 574.348 409.674 574.866 410.846 575.903L423.729 582.346C419.142 587.221 415.993 591.533 415.993 591.533L410.38 591.154L410 592.44L414.755 595.617L417.946 600.351L419.238 599.972L418.858 594.386C418.858 594.386 423.188 591.25 428.085 586.683L434.555 599.507C435.597 600.675 436.118 600.156 436.965 599.184Z" fill="#ECECEB"/>
<path fill-rule="evenodd" clip-rule="evenodd" d="M600.965 599.184C601.812 598.211 601.421 596.914 601.421 596.914L600.812 593.341C601.138 593.134 601.473 592.867 601.793 592.549C602.401 591.943 602.823 591.284 602.993 590.738C602.774 590.617 602.565 590.465 602.379 590.28C602.192 590.094 602.04 589.887 601.919 589.668C601.444 589.815 600.885 590.148 600.35 590.627L599.755 587.142C600.151 586.923 600.569 586.609 600.965 586.215C601.574 585.61 601.996 584.949 602.165 584.403C601.945 584.282 601.738 584.13 601.551 583.944C601.364 583.759 601.212 583.552 601.089 583.333C600.553 583.499 599.904 583.909 599.305 584.497L598.559 580.121C602.46 575.907 605.459 572.273 605.459 572.273C608 569.354 606.632 567.862 606.632 567.862C606.632 567.862 605.134 566.501 602.203 569.029C602.203 569.029 598.552 572.017 594.32 575.9L589.924 575.157C590.514 574.561 590.927 573.914 591.093 573.38C590.873 573.258 590.665 573.106 590.478 572.92C590.293 572.736 590.14 572.528 590.017 572.31C589.471 572.478 588.807 572.899 588.199 573.504C587.803 573.898 587.487 574.314 587.267 574.708L583.766 574.117C584.247 573.583 584.584 573.026 584.731 572.555C584.511 572.434 584.303 572.283 584.116 572.096C583.93 571.911 583.777 571.704 583.655 571.485C583.108 571.654 582.444 572.075 581.837 572.68C581.517 572.998 581.249 573.332 581.042 573.657L577.452 573.051C577.452 573.051 576.15 572.662 575.173 573.504C574.195 574.348 573.674 574.866 574.846 575.903L587.729 582.346C583.142 587.221 579.993 591.533 579.993 591.533L574.38 591.154L574 592.44L578.755 595.617L581.946 600.351L583.238 599.972L582.858 594.386C582.858 594.386 587.188 591.25 592.085 586.683L598.555 599.507C599.597 600.675 600.118 600.156 600.965 599.184Z" fill="#ECECEB"/>
<mask id="mask4" mask-type="alpha" maskUnits="userSpaceOnUse" x="0" y="647" width="33" height="34">
<path fill-rule="evenodd" clip-rule="evenodd" d="M0 647.878H32.2636V680H0V647.878Z" fill="white"/>
</mask>
<g mask="url(#mask4)">
<path fill-rule="evenodd" clip-rule="evenodd" d="M26.364 678.859C27.1915 677.908 26.8095 676.639 26.8095 676.639L26.2139 673.146C26.5323 672.944 26.8607 672.683 27.1725 672.372C27.7674 671.78 28.1807 671.135 28.3465 670.601C28.132 670.483 27.9282 670.334 27.7459 670.154C27.5636 669.971 27.4143 669.769 27.2955 669.556C26.8326 669.699 26.2857 670.025 25.7626 670.493L25.181 667.086C25.5671 666.872 25.9771 666.564 26.364 666.179C26.958 665.588 27.3714 664.941 27.5372 664.408C27.3219 664.29 27.1197 664.141 26.9366 663.959C26.7543 663.778 26.6049 663.576 26.4853 663.362C25.9614 663.524 25.3254 663.925 24.7404 664.499L24.0111 660.222C27.8243 656.102 30.758 652.548 30.758 652.548C33.2412 649.695 31.9039 648.236 31.9039 648.236C31.9039 648.236 30.4387 646.905 27.5735 649.377C27.5735 649.377 24.0045 652.299 19.8663 656.095L15.5689 655.368C16.1464 654.786 16.549 654.153 16.7115 653.631C16.497 653.512 16.2933 653.363 16.1109 653.181C15.9286 653.001 15.7793 652.798 15.6605 652.584C15.1251 652.749 14.4766 653.16 13.8826 653.752C13.4957 654.138 13.1863 654.544 12.9718 654.93L9.54806 654.351C10.0191 653.83 10.3475 653.284 10.491 652.824C10.2765 652.706 10.0728 652.558 9.89044 652.376C9.70811 652.194 9.55879 651.992 9.43916 651.778C8.90456 651.943 8.25611 652.355 7.66211 652.947C7.34944 653.257 7.08791 653.584 6.88496 653.901L3.37541 653.309C3.37541 653.309 2.10161 652.929 1.14709 653.752C0.190912 654.577 -0.318938 655.084 0.827812 656.098L13.4231 662.397C8.93756 667.163 5.85866 671.378 5.85866 671.378L0.371587 671.008L-0.000488281 672.265L4.64921 675.372L7.76936 680L9.03161 679.63L8.66036 674.168C8.66036 674.168 12.8934 671.102 17.6809 666.637L24.0078 679.175C25.0259 680.317 25.5357 679.809 26.364 678.859Z" fill="#ECECEB"/>
</g>
<mask id="mask5" mask-type="alpha" maskUnits="userSpaceOnUse" x="163" y="647" width="34" height="34">
<path fill-rule="evenodd" clip-rule="evenodd" d="M164 647.878H196.264V680H164V647.878Z" fill="white"/>
</mask>
<g mask="url(#mask5)">
<path fill-rule="evenodd" clip-rule="evenodd" d="M190.364 678.859C191.192 677.908 190.81 676.639 190.81 676.639L190.214 673.146C190.532 672.944 190.861 672.683 191.173 672.372C191.767 671.78 192.181 671.135 192.347 670.601C192.132 670.483 191.928 670.334 191.746 670.154C191.564 669.971 191.414 669.769 191.295 669.556C190.833 669.699 190.286 670.025 189.763 670.493L189.181 667.086C189.567 666.872 189.977 666.564 190.364 666.179C190.958 665.588 191.371 664.941 191.537 664.408C191.322 664.29 191.12 664.141 190.937 663.959C190.754 663.778 190.605 663.576 190.485 663.362C189.961 663.524 189.325 663.925 188.74 664.499L188.011 660.222C191.824 656.102 194.758 652.548 194.758 652.548C197.241 649.695 195.904 648.236 195.904 648.236C195.904 648.236 194.439 646.905 191.573 649.377C191.573 649.377 188.005 652.299 183.866 656.095L179.569 655.368C180.146 654.786 180.549 654.153 180.712 653.631C180.497 653.512 180.293 653.363 180.111 653.181C179.929 653.001 179.779 652.798 179.66 652.584C179.125 652.749 178.477 653.16 177.883 653.752C177.496 654.138 177.186 654.544 176.972 654.93L173.548 654.351C174.019 653.83 174.347 653.284 174.491 652.824C174.277 652.706 174.073 652.558 173.89 652.376C173.708 652.194 173.559 651.992 173.439 651.778C172.905 651.943 172.256 652.355 171.662 652.947C171.349 653.257 171.088 653.584 170.885 653.901L167.375 653.309C167.375 653.309 166.102 652.929 165.147 653.752C164.191 654.577 163.681 655.084 164.828 656.098L177.423 662.397C172.938 667.163 169.859 671.378 169.859 671.378L164.372 671.008L164 672.265L168.649 675.372L171.769 680L173.032 679.63L172.66 674.168C172.66 674.168 176.893 671.102 181.681 666.637L188.008 679.175C189.026 680.317 189.536 679.809 190.364 678.859Z" fill="#ECECEB"/>
</g>
<mask id="mask6" mask-type="alpha" maskUnits="userSpaceOnUse" x="328" y="647" width="33" height="34">
<path fill-rule="evenodd" clip-rule="evenodd" d="M328 647.878H360.264V680H328V647.878Z" fill="white"/>
</mask>
<g mask="url(#mask6)">
<path fill-rule="evenodd" clip-rule="evenodd" d="M354.364 678.859C355.192 677.908 354.809 676.639 354.809 676.639L354.214 673.146C354.533 672.944 354.86 672.683 355.173 672.372C355.767 671.78 356.18 671.135 356.346 670.601C356.132 670.483 355.928 670.334 355.746 670.154C355.563 669.971 355.415 669.769 355.296 669.556C354.832 669.699 354.285 670.025 353.762 670.493L353.181 667.086C353.568 666.872 353.977 666.564 354.364 666.179C354.959 665.588 355.372 664.941 355.537 664.408C355.322 664.29 355.119 664.141 354.936 663.959C354.754 663.778 354.605 663.576 354.485 663.362C353.961 663.524 353.326 663.925 352.74 664.499L352.011 660.222C355.825 656.102 358.758 652.548 358.758 652.548C361.242 649.695 359.904 648.236 359.904 648.236C359.904 648.236 358.439 646.905 355.574 649.377C355.574 649.377 352.004 652.299 347.867 656.095L343.569 655.368C344.146 654.786 344.549 654.153 344.712 653.631C344.497 653.512 344.294 653.363 344.111 653.181C343.929 653.001 343.78 652.798 343.66 652.584C343.126 652.749 342.477 653.16 341.883 653.752C341.495 654.138 341.186 654.544 340.971 654.93L337.549 654.351C338.019 653.83 338.348 653.284 338.491 652.824C338.276 652.706 338.072 652.558 337.89 652.376C337.708 652.194 337.559 651.992 337.44 651.778C336.904 651.943 336.256 652.355 335.663 652.947C335.349 653.257 335.088 653.584 334.885 653.901L331.375 653.309C331.375 653.309 330.102 652.929 329.147 653.752C328.191 654.577 327.682 655.084 328.827 656.098L341.423 662.397C336.937 667.163 333.858 671.378 333.858 671.378L328.371 671.008L328 672.265L332.649 675.372L335.769 680L337.032 679.63L336.661 674.168C336.661 674.168 340.893 671.102 345.681 666.637L352.007 679.175C353.026 680.317 353.535 679.809 354.364 678.859Z" fill="#ECECEB"/>
</g>
<mask id="mask7" mask-type="alpha" maskUnits="userSpaceOnUse" x="492" y="647" width="33" height="34">
<path fill-rule="evenodd" clip-rule="evenodd" d="M492 647.878H524.264V680H492V647.878Z" fill="white"/>
</mask>
<g mask="url(#mask7)">
<path fill-rule="evenodd" clip-rule="evenodd" d="M518.364 678.859C519.192 677.908 518.809 676.639 518.809 676.639L518.214 673.146C518.533 672.944 518.86 672.683 519.173 672.372C519.767 671.78 520.18 671.135 520.346 670.601C520.132 670.483 519.928 670.334 519.746 670.154C519.563 669.971 519.415 669.769 519.296 669.556C518.832 669.699 518.285 670.025 517.762 670.493L517.181 667.086C517.568 666.872 517.977 666.564 518.364 666.179C518.959 665.588 519.372 664.941 519.537 664.408C519.322 664.29 519.119 664.141 518.936 663.959C518.754 663.778 518.605 663.576 518.485 663.362C517.961 663.524 517.326 663.925 516.74 664.499L516.011 660.222C519.825 656.102 522.758 652.548 522.758 652.548C525.242 649.695 523.904 648.236 523.904 648.236C523.904 648.236 522.439 646.905 519.574 649.377C519.574 649.377 516.004 652.299 511.867 656.095L507.569 655.368C508.146 654.786 508.549 654.153 508.712 653.631C508.497 653.512 508.294 653.363 508.111 653.181C507.929 653.001 507.78 652.798 507.66 652.584C507.126 652.749 506.477 653.16 505.882 653.752C505.495 654.138 505.186 654.544 504.971 654.93L501.549 654.351C502.019 653.83 502.348 653.284 502.492 652.824C502.276 652.706 502.073 652.558 501.89 652.376C501.709 652.194 501.559 651.992 501.44 651.778C500.905 651.943 500.256 652.355 499.662 652.947C499.349 653.257 499.088 653.584 498.885 653.901L495.375 653.309C495.375 653.309 494.102 652.929 493.147 653.752C492.191 654.577 491.682 655.084 492.827 656.098L505.423 662.397C500.938 667.163 497.859 671.378 497.859 671.378L492.371 671.008L492 672.265L496.649 675.372L499.769 680L501.032 679.63L500.661 674.168C500.661 674.168 504.894 671.102 509.681 666.637L516.007 679.175C517.026 680.317 517.535 679.809 518.364 678.859Z" fill="#ECECEB"/>
</g>
</g>
</svg>
