<svg width="23" height="13" viewBox="0 0 23 13" fill="none" xmlns="http://www.w3.org/2000/svg">
<path fill-rule="evenodd" clip-rule="evenodd" d="M22.7054 0.73632C22.5142 0.550153 22.2588 0.447026 21.9869 0.445557H21.9813C21.7114 0.445557 21.4571 0.546234 21.2654 0.729216L11.8581 9.68824C11.66 9.87637 11.3392 9.87637 11.1414 9.68799L1.7343 0.729216C1.54106 0.545009 1.27347 0.449476 1.01276 0.445557C0.740589 0.447026 0.485477 0.550153 0.294016 0.73632C-0.100873 1.12017 -0.0975629 1.74186 0.301399 2.12204L10.7831 12.1045V12.1042C10.9807 12.2926 11.2401 12.3867 11.4996 12.3867C11.759 12.3867 12.0185 12.2924 12.216 12.1045L22.698 2.12204C22.8913 1.93783 22.9985 1.69214 23 1.43053C23.0015 1.16891 22.8969 0.922241 22.7054 0.73632Z" fill="#9B9B9B"/>
</svg>
