<svg width="266" height="26" viewBox="0 0 266 26" fill="none" xmlns="http://www.w3.org/2000/svg">
<path fill-rule="evenodd" clip-rule="evenodd" d="M39.1304 23.2983H27.8562V22.4669H28.4356C29.182 22.4669 29.6239 22.1076 29.6239 21.1944V3.26201C29.6239 2.34749 29.182 1.98812 28.4356 1.98812H27.8281V1.15808H39.1304V8.76924H38.384V8.68611C38.384 4.17519 37.0155 2.12758 34.5147 2.12758H32.6628V11.3143H33.1341C34.5427 11.3143 35.205 9.95866 35.205 7.10916V7.02468H35.9527V16.6003H35.205V16.5453C35.205 13.7508 34.5708 12.312 33.1341 12.312H32.6628V22.3301H34.4039C36.8753 22.3301 38.384 19.9205 38.384 15.7958V15.7153H39.1304V23.2983Z" fill="#FEFEFE"/>
<path fill-rule="evenodd" clip-rule="evenodd" d="M27.1102 23.2983H20.5051V22.4669H21.0592C21.8055 22.4669 22.2742 22.1076 22.2742 21.1944V12.5038H17.4382V21.1944C17.4382 22.1102 17.9068 22.4669 18.6559 22.4669H19.2353V23.2983H12.6035V22.4669H13.183C13.9307 22.4669 14.4007 22.1076 14.4007 21.1944V3.26201C14.4007 2.34749 13.9307 1.98812 13.183 1.98812H12.6035V1.15808H19.2353V1.98812H18.6559C17.9068 1.98812 17.4382 2.34749 17.4382 3.26201V11.3143H22.2742V3.26201C22.2742 2.34749 21.8055 1.98812 21.0592 1.98812H20.5051V1.15808H27.1102V1.98812H26.5294C25.783 1.98812 25.3131 2.34749 25.3131 3.26201V21.1944C25.3131 22.1102 25.783 22.4669 26.5294 22.4669H27.1102V23.2983Z" fill="#FEFEFE"/>
<mask id="mask0" mask-type="alpha" maskUnits="userSpaceOnUse" x="0" y="1" width="13" height="23">
<path fill-rule="evenodd" clip-rule="evenodd" d="M0.611328 1.15808H12.2446V23.2983H0.611328V1.15808Z" fill="white"/>
</mask>
<g mask="url(#mask0)">
<path fill-rule="evenodd" clip-rule="evenodd" d="M12.2447 8.82422H11.4984V8.74108C11.4984 5.17017 10.1485 2.12758 8.57031 2.12758H7.90539V21.1944C7.90539 22.1102 8.37404 22.4669 9.12307 22.4669H9.81336V23.2983H3.01464V22.4669H3.65019C4.39789 22.4669 4.86653 22.1076 4.86653 21.1944V2.12758H4.28573C2.70488 2.12758 1.35769 4.97707 1.35769 8.74108V8.82422H0.611328V1.15808H12.2447V8.82422Z" fill="#FEFEFE"/>
</g>
<path fill-rule="evenodd" clip-rule="evenodd" d="M95.3736 23.2983H84.2383V22.4669H85.0113C85.7577 22.4669 86.2277 22.1344 86.2277 21.2212V3.23251C86.2277 2.31933 85.7577 1.98812 85.0113 1.98812H84.4038V1.15808H90.9809V1.98812H90.4549C89.7085 1.98812 89.2399 2.31933 89.2399 3.23251V22.3301H90.8688C93.8489 22.3301 94.6273 18.9242 94.6273 15.7703V15.6871H95.3736V23.2983Z" fill="#FEFEFE"/>
<path fill-rule="evenodd" clip-rule="evenodd" d="M83.8512 23.2983H72.7158L73.1578 22.4669H73.4902C74.2353 22.4669 74.7039 22.1344 74.7039 21.2212V3.23251C74.7039 2.31933 74.2353 1.98812 73.4902 1.98812H72.8814V1.15808H79.4571V1.98812H78.9337C78.186 1.98812 77.7174 2.31933 77.7174 3.23251V22.3301H79.3476C82.3264 22.3301 83.1048 18.9537 83.1048 15.7408V15.659H83.8512V23.2983Z" fill="#FEFEFE"/>
<mask id="mask1" mask-type="alpha" maskUnits="userSpaceOnUse" x="44" y="1" width="20" height="23">
<path fill-rule="evenodd" clip-rule="evenodd" d="M44.2539 1.15869H63.873V23.4621H44.2539V1.15869Z" fill="white"/>
</mask>
<g mask="url(#mask1)">
<path fill-rule="evenodd" clip-rule="evenodd" d="M63.873 1.98873H63.6513C62.5899 1.98873 62.0411 2.18451 61.6619 4.00953L57.6284 23.4625H56.3853L53.8712 10.733H53.8431L51.2729 23.4625H50.0299L46.0778 3.51204C45.8267 2.23949 45.4596 1.98873 44.338 1.98873H44.2539V1.15869H50.2502V1.98873H50.1407C49.2782 1.98873 49.0632 2.29312 49.0632 2.87375C49.0632 3.00784 49.0605 3.21033 49.0899 3.37124L51.6054 16.8758H51.6615L53.2904 7.99479L52.4345 3.51204C52.2209 2.40308 51.9699 1.98873 51.0807 1.98873H50.9418V1.15869H56.854V1.98873H56.7445C55.6403 1.98873 55.4186 2.36017 55.4173 3.12317C55.4173 3.32699 55.452 3.56165 55.5014 3.81509L58.0156 16.7109H58.0716L60.4483 3.78827C60.4803 3.60188 60.5017 3.42354 60.5017 3.26128C60.5017 2.37626 60.2079 1.98873 59.037 1.98873H58.8714V1.15869H63.873V1.98873Z" fill="#FEFEFE"/>
</g>
<mask id="mask2" mask-type="alpha" maskUnits="userSpaceOnUse" x="60" y="0" width="14" height="24">
<path fill-rule="evenodd" clip-rule="evenodd" d="M60.4473 0.938354H73.2409V23.2984H60.4473V0.938354Z" fill="white"/>
</mask>
<g mask="url(#mask2)">
<path fill-rule="evenodd" clip-rule="evenodd" d="M73.2409 23.2984H66.9683V22.467H67.1338C68.2781 22.467 68.6252 22.1626 68.6252 21.527C68.6252 21.346 68.5878 21.1086 68.5438 20.8619L68.019 17.9279H64.2605L63.7345 20.8619C63.6877 21.1314 63.6517 21.3326 63.6517 21.527C63.6517 22.2122 63.9214 22.467 65.0616 22.467H65.1725V23.2984H60.4473V22.467H60.6956C61.6623 22.467 62.2164 22.2417 62.4634 20.945L66.3047 0.938232H67.7146L71.6667 20.8619C71.9031 22.0634 72.5226 22.467 73.0473 22.467H73.2409V23.2984ZM67.7974 16.9034L66.1391 7.10923H66.0844L64.4261 16.9034H67.7974Z" fill="#FEFEFE"/>
</g>
<path fill-rule="evenodd" clip-rule="evenodd" d="M173.544 8.82422H172.798V8.74108C172.798 5.17151 171.451 2.12758 169.87 2.12758H169.205V21.1944C169.205 22.1102 169.675 22.4669 170.423 22.4669H171.111V23.2983H164.315V22.4669H164.951C165.699 22.4669 166.167 22.1076 166.167 21.1944V2.12758H165.587C164.006 2.12758 162.657 4.97707 162.657 8.74108V8.82422H161.912V1.15808H173.544V8.82422Z" fill="#FEFEFE"/>
<path fill-rule="evenodd" clip-rule="evenodd" d="M160.944 23.2983H149.67V22.4669H150.251C150.996 22.4669 151.438 22.1076 151.438 21.1944V3.26201C151.438 2.34749 150.996 1.98812 150.251 1.98812H149.642V1.15808H160.944V8.76924H160.198V8.68611C160.198 4.17519 158.829 2.12758 156.329 2.12758H154.478V11.3143H154.949C156.357 11.3143 157.02 9.95866 157.02 7.10916V7.02468H157.767V16.6003H157.02V16.5453C157.02 13.7508 156.385 12.312 154.949 12.312H154.478V22.3301H156.219C158.689 22.3301 160.198 19.9205 160.198 15.7958V15.7153H160.944V23.2983Z" fill="#FEFEFE"/>
<path fill-rule="evenodd" clip-rule="evenodd" d="M148.897 23.2983H137.624V22.4669H138.203C138.95 22.4669 139.39 22.1076 139.39 21.1944V3.26201C139.39 2.34749 138.95 1.98812 138.203 1.98812H137.596V1.15808H148.897V8.76924H148.15V8.68611C148.15 4.17519 146.782 2.12758 144.282 2.12758H142.43V11.3143H142.902C144.309 11.3143 144.973 9.95866 144.973 7.10916V7.02468H145.719V16.6003H144.973V16.5453C144.973 13.7508 144.338 12.312 142.902 12.312H142.43V22.3301H144.171C146.642 22.3301 148.15 19.9205 148.15 15.7958V15.7153H148.897V23.2983Z" fill="#FEFEFE"/>
<path fill-rule="evenodd" clip-rule="evenodd" d="M123.448 8.82422H122.702V8.74108C122.702 5.17151 121.353 2.12758 119.774 2.12758H119.109V21.1944C119.109 22.1102 119.578 22.4669 120.327 22.4669H121.017V23.2983H114.218V22.4669H114.855C115.602 22.4669 116.071 22.1076 116.071 21.1944V2.12758H115.489C113.908 2.12758 112.561 4.97707 112.561 8.74108V8.82422H111.815V1.15808H123.448V8.82422Z" fill="#FEFEFE"/>
<path fill-rule="evenodd" clip-rule="evenodd" d="M111.788 17.928C111.788 21.8462 109.418 23.462 106.647 23.462C104.636 23.462 103.719 22.7996 102.753 22.1359L102.226 23.2984H101.647V15.6873H102.392V15.9085C102.392 21.2508 105.077 22.4671 106.426 22.4671C108.476 22.4671 109.383 21.287 109.383 18.9538C109.383 16.406 107.787 14.5515 105.487 12.8096C103.404 11.2287 101.481 9.29369 101.481 6.05801C101.481 2.72444 103.532 0.993286 105.985 0.993286C108.026 0.993286 108.976 1.82333 109.521 2.29265L110.075 1.2132H110.627V8.85118H109.88V8.62993C109.88 4.47972 108.638 1.98826 106.179 1.98826C104.622 1.98826 103.802 3.08917 103.802 4.84044C103.802 6.92157 105.029 8.10428 107.311 9.877C109.84 11.8401 111.788 13.9065 111.788 17.928Z" fill="#FEFEFE"/>
<path fill-rule="evenodd" clip-rule="evenodd" d="M137.43 20.2799C137.43 22.1371 136.727 23.4619 134.915 23.4619C133.106 23.4619 132.336 22.1156 132.207 19.3667L132.013 15.2433C131.912 13.0643 131.081 12.4783 129.83 12.4783H129.029V21.1944C129.029 22.1089 129.387 22.4669 130.135 22.4669H130.908V23.2983H124.167V22.4669H124.802C125.55 22.4669 126.017 22.1089 126.017 21.1944V3.26201C126.017 2.34749 125.55 1.98812 124.802 1.98812H124.167V1.15808H130.218C133.872 1.15808 136.158 3.03539 136.158 6.5272C136.158 10.1813 133.62 11.5638 131.378 12.0063V12.0626C133.218 12.2557 134.892 13.6275 134.999 15.7153L135.247 20.5574C135.297 21.5189 135.413 21.8045 135.855 21.8045C136.406 21.8045 136.517 21.3875 136.517 19.9486V19.1454H137.43V20.2799ZM132.98 6.58217C132.98 3.12255 131.617 2.12758 129.749 2.12758H129.029V11.4538H129.86C131.809 11.4538 132.98 10.1276 132.98 6.58217Z" fill="#FEFEFE"/>
<path fill-rule="evenodd" clip-rule="evenodd" d="M260.732 23.2983H249.597L250.037 22.4669H250.371C251.117 22.4669 251.586 22.1344 251.586 21.2212V3.23519C251.586 2.32202 251.117 1.98812 250.371 1.98812H249.762V1.15808H256.338V1.98812H255.813C255.068 1.98812 254.598 2.32202 254.598 3.23519V22.3301H256.228C259.209 22.3301 259.986 18.9537 259.986 15.7703V15.6871H260.732V23.2983Z" fill="#FEFEFE"/>
<mask id="mask3" mask-type="alpha" maskUnits="userSpaceOnUse" x="262" y="20" width="3" height="4">
<path fill-rule="evenodd" clip-rule="evenodd" d="M262.031 20.4465H264.574V23.462H262.031V20.4465Z" fill="white"/>
</mask>
<g mask="url(#mask3)">
<path fill-rule="evenodd" clip-rule="evenodd" d="M264.575 21.9403C264.575 22.7731 263.958 23.4623 263.301 23.4623C262.647 23.4623 262.031 22.7731 262.031 21.9403C262.031 21.1103 262.647 20.4465 263.301 20.4465C263.958 20.4465 264.575 21.1103 264.575 21.9403Z" fill="#FEFEFE"/>
</g>
<path fill-rule="evenodd" clip-rule="evenodd" d="M238.462 1.98861H237.879C237.192 1.98861 236.639 2.51292 236.639 3.59371V23.3806H235.559L228.651 5.94572H228.596V20.861C228.596 21.9431 229.147 22.4661 229.84 22.4661H230.393V23.2988H225.723V22.4661H226.36C227.05 22.4661 227.603 21.9431 227.603 20.861V3.37112C227.603 2.59605 227.304 1.98861 226.525 1.98861H225.723V1.15857H229.978L235.588 15.4114H235.643V3.59371C235.643 2.50487 235.09 1.98861 234.399 1.98861H233.818V1.15857H238.462V1.98861Z" fill="#FEFEFE"/>
<mask id="mask4" mask-type="alpha" maskUnits="userSpaceOnUse" x="199" y="1" width="15" height="23">
<path fill-rule="evenodd" clip-rule="evenodd" d="M199.528 1.15869H213.067V23.4621H199.528V1.15869Z" fill="white"/>
</mask>
<g mask="url(#mask4)">
<path fill-rule="evenodd" clip-rule="evenodd" d="M213.067 1.98873H211.907C211.216 1.98873 210.803 2.56936 210.803 3.59383V18.3441C210.803 21.2835 209.823 23.4625 206.657 23.4625C203.291 23.4625 201.324 21.3948 201.324 18.3441V3.26128C201.324 2.3481 200.884 1.98873 200.137 1.98873H199.528V1.15869H205.995V1.98873H205.579C204.83 1.98873 204.391 2.3481 204.391 3.26128V18.5386C204.391 21.0341 205.372 22.4662 207.043 22.4662C208.741 22.4662 209.778 21.254 209.778 18.5386V3.59383C209.778 2.56936 209.39 1.98873 208.701 1.98873H208.065V1.15869H213.067V1.98873Z" fill="#FEFEFE"/>
</g>
<mask id="mask5" mask-type="alpha" maskUnits="userSpaceOnUse" x="177" y="1" width="12" height="23">
<path fill-rule="evenodd" clip-rule="evenodd" d="M177.395 1.15869H188.09V23.4621H177.395V1.15869Z" fill="white"/>
</mask>
<g mask="url(#mask5)">
<path fill-rule="evenodd" clip-rule="evenodd" d="M188.09 1.98873H187.536C186.787 1.98873 186.319 2.3481 186.319 3.26128V18.7035C186.319 22.1698 184.148 23.4625 181.374 23.4625C179.387 23.4625 177.395 21.8373 177.395 18.7035C177.395 17.0206 178.44 16.2965 179.272 16.2965C180.139 16.2965 180.766 16.9107 180.766 17.9566C180.766 19.2922 179.985 19.854 178.971 20.0056C178.971 21.1413 179.845 22.4662 181.346 22.4662C182.785 22.4662 183.279 21.671 183.279 19.2841V3.26128C183.279 2.3481 182.84 1.98873 182.092 1.98873H181.511V1.15869H188.09V1.98873Z" fill="#FEFEFE"/>
</g>
<mask id="mask6" mask-type="alpha" maskUnits="userSpaceOnUse" x="237" y="0" width="14" height="24">
<path fill-rule="evenodd" clip-rule="evenodd" d="M237.329 0.938354H250.121V23.2984H237.329V0.938354Z" fill="white"/>
</mask>
<g mask="url(#mask6)">
<path fill-rule="evenodd" clip-rule="evenodd" d="M250.121 23.2984H243.85V22.467H244.015C245.159 22.467 245.507 22.1626 245.507 21.527C245.507 21.3473 245.469 21.1086 245.424 20.8619L244.9 17.9279H241.141L240.617 20.8619C240.569 21.1314 240.533 21.3326 240.533 21.527C240.533 22.2122 240.801 22.467 241.943 22.467H242.055V23.2984H237.329V22.467H237.576C238.542 22.467 239.098 22.2417 239.346 20.945L243.186 0.938232H244.595L248.548 20.8619C248.786 22.0634 249.404 22.467 249.927 22.467H250.121V23.2984ZM244.679 16.9034L243.022 7.10923H242.966L241.307 16.9034H244.679Z" fill="#FEFEFE"/>
</g>
<path fill-rule="evenodd" clip-rule="evenodd" d="M225.668 20.2799C225.668 22.1371 224.964 23.4619 223.152 23.4619C221.342 23.4619 220.576 22.1156 220.446 19.3667L220.251 15.2433C220.15 13.0522 219.318 12.4783 218.069 12.4783H217.267V21.1944C217.267 22.1089 217.626 22.4669 218.374 22.4669H219.148V23.2983H212.404V22.4669H213.041C213.788 22.4669 214.256 22.1089 214.256 21.1944V3.26201C214.256 2.34749 213.788 1.98812 213.041 1.98812H212.404V1.15808H218.455C222.111 1.15808 224.396 3.03539 224.396 6.5272C224.396 10.1813 221.857 11.5638 219.616 12.0063V12.0626C221.457 12.2557 223.128 13.6141 223.237 15.7153L223.485 20.5574C223.534 21.5242 223.652 21.8045 224.092 21.8045C224.645 21.8045 224.755 21.3875 224.755 19.9486V19.1454H225.668V20.2799ZM221.219 6.58217C221.219 3.12255 219.855 2.12758 217.985 2.12758H217.267V11.4538H218.097C220.048 11.4538 221.219 10.1276 221.219 6.58217Z" fill="#FEFEFE"/>
<path fill-rule="evenodd" clip-rule="evenodd" d="M199.582 12.174C199.582 18.4617 197.525 23.462 193.753 23.462C190.068 23.462 188.006 18.4617 188.006 12.174C188.006 5.881 189.984 0.993286 193.753 0.993286C197.481 0.993286 199.582 5.881 199.582 12.174ZM196.156 17.4305V6.96985C196.156 3.14415 195.308 1.98826 193.753 1.98826C192.197 1.98826 191.404 3.08917 191.404 7.02482V17.401C191.404 21.0913 192.113 22.4671 193.753 22.4671C195.366 22.4671 196.156 21.0081 196.156 17.4305Z" fill="#FEFEFE"/>
</svg>
